<svg id="Layer_1" data-name="Layer 1" xmlns="http://www.w3.org/2000/svg" viewBox="0 0 360 360"><defs><style>.cls-1{fill:#f27649;}.cls-2{opacity:0.58;}.cls-3{fill:#fef5f3;}</style></defs><title>buttons_female</title><polygon class="cls-1" points="126.63 169.12 164.81 151.91 220.72 163.74 239.54 189.01 205.13 196 107.28 188.47 126.63 169.12"/><g class="cls-2"><path class="cls-3" d="M159.27,170.52l-.46,4.32,5.9.63.46-4.32.95.1-1.06,9.94-.95-.1.52-4.82-5.9-.63-.52,4.82-.95-.1,1.06-9.94Z"/><path class="cls-3" d="M167.79,179.08a2.69,2.69,0,0,0,.32,1,2.46,2.46,0,0,0,.67.75,2.08,2.08,0,0,0,1,.38,2.14,2.14,0,0,0,1.56-.34,2.64,2.64,0,0,0,.89-1.26l.88.09a3.52,3.52,0,0,1-1.22,1.78,3.07,3.07,0,0,1-2.18.44,3.35,3.35,0,0,1-1.44-.46,2.7,2.7,0,0,1-.92-.93,3.57,3.57,0,0,1-.45-1.27,5.54,5.54,0,0,1,0-1.47,5.22,5.22,0,0,1,.34-1.37,3.75,3.75,0,0,1,.71-1.16,2.91,2.91,0,0,1,1.1-.76,3.13,3.13,0,0,1,1.5-.17,2.86,2.86,0,0,1,2.34,1.52,3.81,3.81,0,0,1,.41,1.35,5.78,5.78,0,0,1,0,1.5l-5.53-.59A3.92,3.92,0,0,0,167.79,179.08Zm4.63-2.21a2.67,2.67,0,0,0-.37-.86,2.26,2.26,0,0,0-.65-.65,2.06,2.06,0,0,0-.92-.32,2.09,2.09,0,0,0-1,.11,2.28,2.28,0,0,0-.77.5,2.91,2.91,0,0,0-.55.77,4.15,4.15,0,0,0-.33.93l4.65.5A3.22,3.22,0,0,0,172.42,176.87Z"/><path class="cls-3" d="M176.07,172.31,175,182.25l-.88-.09,1.06-9.94Z"/><path class="cls-3" d="M178.65,172.59l-1.06,9.94-.88-.09,1.06-9.94Z"/><path class="cls-3" d="M184.77,176l-.13,1.24h0a2.12,2.12,0,0,1,1-1,2.64,2.64,0,0,1,1.45-.25,3.56,3.56,0,0,1,1.24.33,2,2,0,0,1,.75.64,2.08,2.08,0,0,1,.34.92,4.93,4.93,0,0,1,0,1.17l-.49,4.62-.88-.09.48-4.48a4.19,4.19,0,0,0,0-.87,1.82,1.82,0,0,0-.22-.72,1.43,1.43,0,0,0-.51-.52,2.09,2.09,0,0,0-.87-.26,2.24,2.24,0,0,0-1,.09,2,2,0,0,0-.75.44,2.39,2.39,0,0,0-.53.73,3.17,3.17,0,0,0-.28,1l-.45,4.19-.88-.09.77-7.18Z"/><path class="cls-3" d="M195.86,177.32a3.21,3.21,0,0,1,1,.94,3.58,3.58,0,0,1,.52,1.27,5,5,0,0,1-.31,2.94,3.58,3.58,0,0,1-.78,1.13,3.13,3.13,0,0,1-1.15.7,3.72,3.72,0,0,1-2.91-.31,3.11,3.11,0,0,1-1-.93,3.57,3.57,0,0,1-.53-1.27,5,5,0,0,1,.31-2.94,3.56,3.56,0,0,1,.78-1.13,3.18,3.18,0,0,1,1.15-.71,3.62,3.62,0,0,1,2.91.31Zm-2.63.42a2.43,2.43,0,0,0-.86.61,3.19,3.19,0,0,0-.58.93,4.06,4.06,0,0,0-.24,2.24,3.2,3.2,0,0,0,.37,1,2.45,2.45,0,0,0,.71.78,2.44,2.44,0,0,0,2.2.24,2.42,2.42,0,0,0,.86-.61,3.16,3.16,0,0,0,.58-.93,4,4,0,0,0,.24-2.24,3.2,3.2,0,0,0-.37-1,2.41,2.41,0,0,0-.71-.78,2.42,2.42,0,0,0-2.2-.24Z"/></g></svg>