<svg id="Layer_1" data-name="Layer 1" xmlns="http://www.w3.org/2000/svg" viewBox="0 0 360 360"><defs><style>.cls-1{fill:#f25252;}.cls-2{opacity:0.58;}.cls-3{fill:#fef5f3;}</style></defs><title>buttons_female</title><polygon class="cls-1" points="101.15 151.25 133.62 145.97 213.83 156.12 263.72 173.71 249.28 202.06 83.5 183.34 101.15 151.25"/><g class="cls-2"><path class="cls-3" d="M108.49,155.24l4.83,9.06h0l1-8.4.95.11-1.14,9.93-1.06-.12-4.82-9.06h0l-1,8.4-.95-.11,1.14-9.93Z"/><path class="cls-3" d="M121.23,159.58a3.19,3.19,0,0,1,1,.94,3.56,3.56,0,0,1,.52,1.28,5,5,0,0,1-.34,2.93,3.57,3.57,0,0,1-.79,1.13,3.11,3.11,0,0,1-1.16.69,3.71,3.71,0,0,1-2.91-.33,3.11,3.11,0,0,1-1-.94A3.56,3.56,0,0,1,116,164a5,5,0,0,1,.34-2.93,3.57,3.57,0,0,1,.79-1.13,3.19,3.19,0,0,1,1.16-.7,3.63,3.63,0,0,1,2.91.33Zm-2.63.4a2.43,2.43,0,0,0-.87.6,3.17,3.17,0,0,0-.59.93,4.06,4.06,0,0,0-.26,2.24,3.18,3.18,0,0,0,.36,1,2.43,2.43,0,0,0,.71.79,2.44,2.44,0,0,0,2.2.25,2.41,2.41,0,0,0,.86-.61,3.19,3.19,0,0,0,.58-.93,4,4,0,0,0,.26-2.24,3.21,3.21,0,0,0-.36-1,2.42,2.42,0,0,0-.71-.78,2.43,2.43,0,0,0-2.2-.25Z"/><path class="cls-3" d="M127.34,160.18l-.08.74-1.46-.17-.55,4.84a1.56,1.56,0,0,0,0,.69q.09.26.56.34a6.75,6.75,0,0,0,.76,0l-.08.74-.39,0-.39,0a1.3,1.3,0,0,1-1.37-1.78l.56-4.91-1.25-.14.08-.74,1.25.14.25-2.16.88.1-.25,2.16Z"/><path class="cls-3" d="M129.78,157.67l-.46,4h0a2.12,2.12,0,0,1,1-.95,2.64,2.64,0,0,1,1.45-.24,3.57,3.57,0,0,1,1.24.34,2,2,0,0,1,.75.64,2.07,2.07,0,0,1,.33.92,5,5,0,0,1,0,1.17l-.53,4.62-.88-.1.51-4.48a4.19,4.19,0,0,0,0-.87A1.78,1.78,0,0,0,133,162a1.43,1.43,0,0,0-.51-.52,2.09,2.09,0,0,0-.86-.27,2.25,2.25,0,0,0-1,.08,2,2,0,0,0-.75.43,2.39,2.39,0,0,0-.53.73,3.16,3.16,0,0,0-.29,1l-.48,4.19-.88-.1,1.14-9.93Z"/><path class="cls-3" d="M137.28,158.53l-.16,1.41-.88-.1.16-1.41Zm-.31,2.75-.82,7.18-.88-.1.82-7.18Z"/><path class="cls-3" d="M139.51,161.57l-.14,1.24h0a2.12,2.12,0,0,1,1-.95,2.64,2.64,0,0,1,1.45-.24,3.56,3.56,0,0,1,1.24.34,2,2,0,0,1,.75.64,2.08,2.08,0,0,1,.33.92,5,5,0,0,1,0,1.17l-.53,4.62-.88-.1.51-4.48a4.19,4.19,0,0,0,0-.87,1.81,1.81,0,0,0-.21-.72,1.43,1.43,0,0,0-.51-.52,2.09,2.09,0,0,0-.87-.27,2.24,2.24,0,0,0-1,.08,2,2,0,0,0-.75.43,2.39,2.39,0,0,0-.53.73,3.17,3.17,0,0,0-.29,1l-.48,4.19-.88-.1.82-7.18Z"/><path class="cls-3" d="M151.09,171a2.82,2.82,0,0,1-.67,1,2.42,2.42,0,0,1-1.06.57,4.11,4.11,0,0,1-1.51.07,4.49,4.49,0,0,1-1-.25,3,3,0,0,1-.88-.5,2.33,2.33,0,0,1-.61-.75,2,2,0,0,1-.2-1l.88.1a1.58,1.58,0,0,0,.19.71,1.64,1.64,0,0,0,.44.49,2.17,2.17,0,0,0,.6.31,3.26,3.26,0,0,0,.7.16,2.12,2.12,0,0,0,1.85-.49,3.22,3.22,0,0,0,.77-1.94l.11-1h0a2.58,2.58,0,0,1-1,1,2.41,2.41,0,0,1-1.43.25,3.49,3.49,0,0,1-1.44-.45,2.75,2.75,0,0,1-.92-.9,3.21,3.21,0,0,1-.44-1.24,5.55,5.55,0,0,1,0-1.46,4.52,4.52,0,0,1,.38-1.37,3.51,3.51,0,0,1,.76-1.08,2.94,2.94,0,0,1,1.1-.66,3.23,3.23,0,0,1,1.42-.13,2.55,2.55,0,0,1,.74.2,2.39,2.39,0,0,1,.61.39,2.78,2.78,0,0,1,.47.52,2.13,2.13,0,0,1,.29.6h0l.14-1.24.88.1-.75,6.59A5.49,5.49,0,0,1,151.09,171Zm-1.79-2.14a2.31,2.31,0,0,0,.8-.56,2.86,2.86,0,0,0,.54-.86,3.9,3.9,0,0,0,.27-1,4.63,4.63,0,0,0,0-1.07,3.09,3.09,0,0,0-.29-1,2.21,2.21,0,0,0-.64-.78,2,2,0,0,0-1-.39,2.13,2.13,0,0,0-1.1.14,2.3,2.3,0,0,0-.81.59,2.85,2.85,0,0,0-.53.9,4.55,4.55,0,0,0-.26,1.08,4.06,4.06,0,0,0,0,1.07,2.74,2.74,0,0,0,.33,1,2.26,2.26,0,0,0,.66.72,2.19,2.19,0,0,0,1,.36A2,2,0,0,0,149.3,168.89Z"/><path class="cls-3" d="M158.91,161l-.47,4.12h0a2.09,2.09,0,0,1,.47-.64,2.5,2.5,0,0,1,.65-.43,2.62,2.62,0,0,1,.76-.22,3.23,3.23,0,0,1,.79,0,3.14,3.14,0,0,1,1.39.47,3,3,0,0,1,.91.94,3.54,3.54,0,0,1,.46,1.28,5.56,5.56,0,0,1-.33,2.91,3.55,3.55,0,0,1-.74,1.14,2.89,2.89,0,0,1-1.1.71,3.21,3.21,0,0,1-1.46.14,3.06,3.06,0,0,1-1.52-.58,2.32,2.32,0,0,1-.86-1.27h0l-.16,1.36-.81-.09L158,160.9Zm4.14,5.78a3.12,3.12,0,0,0-.31-1,2.31,2.31,0,0,0-.65-.79,2,2,0,0,0-1-.39,2.37,2.37,0,0,0-1.21.14,2.34,2.34,0,0,0-.86.61,2.87,2.87,0,0,0-.54.93,4.68,4.68,0,0,0-.25,2.21,2.88,2.88,0,0,0,.32,1,2.33,2.33,0,0,0,.7.79,2.36,2.36,0,0,0,1.14.41,2,2,0,0,0,1.1-.15,2.3,2.3,0,0,0,.81-.62,3.11,3.11,0,0,0,.53-.93,4.75,4.75,0,0,0,.25-2.21Z"/><path class="cls-3" d="M165.8,169.45a2.7,2.7,0,0,0,.32,1,2.45,2.45,0,0,0,.66.75,2.08,2.08,0,0,0,1,.39,2.14,2.14,0,0,0,1.56-.33,2.64,2.64,0,0,0,.9-1.25l.88.1a3.53,3.53,0,0,1-1.24,1.77,3.07,3.07,0,0,1-2.18.43,3.37,3.37,0,0,1-1.43-.47,2.71,2.71,0,0,1-.91-.94,3.57,3.57,0,0,1-.44-1.28,5.54,5.54,0,0,1,0-1.48,5.21,5.21,0,0,1,.35-1.37,3.75,3.75,0,0,1,.72-1.15,2.89,2.89,0,0,1,1.11-.75,3.12,3.12,0,0,1,1.51-.16,2.86,2.86,0,0,1,2.33,1.54,3.83,3.83,0,0,1,.4,1.36,5.78,5.78,0,0,1,0,1.5l-5.52-.63A3.88,3.88,0,0,0,165.8,169.45Zm4.65-2.18a2.68,2.68,0,0,0-.36-.87,2.26,2.26,0,0,0-.64-.65,2.23,2.23,0,0,0-1.91-.22,2.27,2.27,0,0,0-.78.49,2.92,2.92,0,0,0-.56.77,4.1,4.1,0,0,0-.34.93l4.65.53A3.24,3.24,0,0,0,170.44,167.27Z"/><path class="cls-3" d="M176.89,167.26a1.43,1.43,0,0,0-.35-.54,1.73,1.73,0,0,0-.56-.35,2.72,2.72,0,0,0-.7-.17,2.92,2.92,0,0,0-.6,0,1.81,1.81,0,0,0-.57.15,1.2,1.2,0,0,0-.45.34,1.07,1.07,0,0,0-.22.57.83.83,0,0,0,.09.51,1.3,1.3,0,0,0,.33.38,2.35,2.35,0,0,0,.46.29l.47.2,1.14.4a3.34,3.34,0,0,1,.72.29,2.41,2.41,0,0,1,.61.46,1.89,1.89,0,0,1,.4.64,1.77,1.77,0,0,1,.09.84,1.82,1.82,0,0,1-.38,1,2.18,2.18,0,0,1-.75.59,2.91,2.91,0,0,1-1,.26,4.86,4.86,0,0,1-1,0,3.32,3.32,0,0,1-2-.83,2.57,2.57,0,0,1-.68-2l.88.1a1.74,1.74,0,0,0,.49,1.42,2.36,2.36,0,0,0,1.42.62,3.36,3.36,0,0,0,.67,0,2.14,2.14,0,0,0,.66-.16,1.52,1.52,0,0,0,.53-.37,1,1,0,0,0,.26-.61,1,1,0,0,0-.07-.55,1.16,1.16,0,0,0-.31-.4,2.27,2.27,0,0,0-.48-.3c-.18-.09-.37-.16-.56-.23l-1.1-.38a6.29,6.29,0,0,1-.76-.35,2.53,2.53,0,0,1-.59-.43,1.5,1.5,0,0,1-.36-.58,1.77,1.77,0,0,1-.07-.79,1.75,1.75,0,0,1,.35-.9,1.93,1.93,0,0,1,.71-.55,3,3,0,0,1,.91-.25,4.23,4.23,0,0,1,1,0,3.55,3.55,0,0,1,1,.25,2.33,2.33,0,0,1,.77.53,2.12,2.12,0,0,1,.48.79,2.62,2.62,0,0,1,.12,1L177,168A1.67,1.67,0,0,0,176.89,167.26Z"/><path class="cls-3" d="M180.81,163.51l-.16,1.41-.88-.1.16-1.41Zm-.31,2.75-.82,7.18-.88-.1.82-7.18Z"/><path class="cls-3" d="M186.87,174.26l.16-1.36h0a2.1,2.1,0,0,1-.48.59,2.71,2.71,0,0,1-.68.42,3.26,3.26,0,0,1-.78.23,2.94,2.94,0,0,1-.8,0,3.2,3.2,0,0,1-1.39-.46,2.87,2.87,0,0,1-.91-.94,3.53,3.53,0,0,1-.46-1.28,5.56,5.56,0,0,1,.33-2.91,3.55,3.55,0,0,1,.74-1.14,3,3,0,0,1,1.1-.71,3.14,3.14,0,0,1,1.46-.14,3.21,3.21,0,0,1,.77.19,2.66,2.66,0,0,1,.68.38,2.56,2.56,0,0,1,.53.56,2.1,2.1,0,0,1,.32.73h0l.47-4.12.88.1-1.14,9.93Zm-4.52-3a3.07,3.07,0,0,0,.3,1,2.31,2.31,0,0,0,.65.79,2,2,0,0,0,1,.39,2.37,2.37,0,0,0,1.21-.14,2.33,2.33,0,0,0,.86-.61,2.93,2.93,0,0,0,.54-.93,4.72,4.72,0,0,0,.25-2.21,2.93,2.93,0,0,0-.32-1,2.26,2.26,0,0,0-1.84-1.2,2,2,0,0,0-1.1.15,2.32,2.32,0,0,0-.81.62,3.07,3.07,0,0,0-.53.93,4.72,4.72,0,0,0-.25,2.21Z"/><path class="cls-3" d="M190.26,172.25a2.7,2.7,0,0,0,.32,1,2.44,2.44,0,0,0,.66.75,2.07,2.07,0,0,0,1,.39,2.14,2.14,0,0,0,1.56-.33,2.65,2.65,0,0,0,.9-1.25l.88.1a3.53,3.53,0,0,1-1.24,1.77,3.07,3.07,0,0,1-2.18.43,3.37,3.37,0,0,1-1.43-.47,2.72,2.72,0,0,1-.91-.94,3.59,3.59,0,0,1-.44-1.28,5.53,5.53,0,0,1,0-1.47,5.22,5.22,0,0,1,.35-1.37,3.77,3.77,0,0,1,.72-1.15,2.9,2.9,0,0,1,1.11-.75,3.12,3.12,0,0,1,1.51-.16,2.86,2.86,0,0,1,2.32,1.54,3.82,3.82,0,0,1,.4,1.36,5.78,5.78,0,0,1,0,1.5l-5.52-.63A3.88,3.88,0,0,0,190.26,172.25Zm4.65-2.18a2.66,2.66,0,0,0-.36-.86,2.25,2.25,0,0,0-.64-.65,2,2,0,0,0-.92-.32,2.08,2.08,0,0,0-1,.11,2.28,2.28,0,0,0-.78.49,2.91,2.91,0,0,0-.56.77,4.1,4.1,0,0,0-.34.93L195,171A3.22,3.22,0,0,0,194.91,170.07Z"/><path class="cls-3" d="M201.35,170.06a1.42,1.42,0,0,0-.35-.54,1.73,1.73,0,0,0-.56-.35,2.7,2.7,0,0,0-.7-.17,2.85,2.85,0,0,0-.6,0,1.83,1.83,0,0,0-.57.15,1.2,1.2,0,0,0-.45.34,1.07,1.07,0,0,0-.22.57.83.83,0,0,0,.09.51,1.31,1.31,0,0,0,.33.38,2.35,2.35,0,0,0,.46.29l.47.2,1.14.4a3.38,3.38,0,0,1,.72.29,2.41,2.41,0,0,1,.61.46,1.9,1.9,0,0,1,.4.64,1.76,1.76,0,0,1,.09.84,1.81,1.81,0,0,1-.38,1,2.18,2.18,0,0,1-.75.59,2.9,2.9,0,0,1-1,.26,4.83,4.83,0,0,1-1,0,3.32,3.32,0,0,1-2-.83,2.56,2.56,0,0,1-.68-2l.88.1a1.74,1.74,0,0,0,.49,1.42,2.36,2.36,0,0,0,1.42.62,3.29,3.29,0,0,0,.67,0,2.13,2.13,0,0,0,.66-.16,1.53,1.53,0,0,0,.53-.37,1,1,0,0,0,.26-.61,1,1,0,0,0-.07-.55,1.16,1.16,0,0,0-.31-.4,2.25,2.25,0,0,0-.48-.3q-.27-.13-.56-.23l-1.1-.38a6.25,6.25,0,0,1-.76-.35,2.57,2.57,0,0,1-.59-.43,1.51,1.51,0,0,1-.36-.58A1.77,1.77,0,0,1,197,170a1.75,1.75,0,0,1,.35-.9,1.92,1.92,0,0,1,.71-.55,3,3,0,0,1,.91-.25,4.28,4.28,0,0,1,1,0,3.55,3.55,0,0,1,1,.25,2.33,2.33,0,0,1,.77.53,2.13,2.13,0,0,1,.48.79,2.62,2.62,0,0,1,.12,1l-.88-.1A1.68,1.68,0,0,0,201.35,170.06Z"/><path class="cls-3" d="M209.15,166.75,208,176.68l-.88-.1,1.14-9.93Z"/><path class="cls-3" d="M210.61,174.57a2.71,2.71,0,0,0,.32,1,2.45,2.45,0,0,0,.66.75,2.08,2.08,0,0,0,1,.39,2.14,2.14,0,0,0,1.56-.33,2.64,2.64,0,0,0,.9-1.25l.88.1a3.52,3.52,0,0,1-1.24,1.77,3.07,3.07,0,0,1-2.18.43,3.36,3.36,0,0,1-1.43-.47,2.71,2.71,0,0,1-.91-.94,3.57,3.57,0,0,1-.44-1.28,5.53,5.53,0,0,1,0-1.47,5.22,5.22,0,0,1,.35-1.37,3.75,3.75,0,0,1,.72-1.15,2.91,2.91,0,0,1,1.11-.75,3.13,3.13,0,0,1,1.51-.16,2.86,2.86,0,0,1,2.32,1.54,3.83,3.83,0,0,1,.4,1.36,5.82,5.82,0,0,1,0,1.5l-5.52-.63A3.92,3.92,0,0,0,210.61,174.57Zm4.65-2.18a2.65,2.65,0,0,0-.36-.87,2.26,2.26,0,0,0-.64-.65,2.05,2.05,0,0,0-.92-.32,2.09,2.09,0,0,0-1,.11,2.26,2.26,0,0,0-.78.49,2.91,2.91,0,0,0-.56.77,4.15,4.15,0,0,0-.34.93l4.65.53A3.21,3.21,0,0,0,215.26,172.39Z"/><path class="cls-3" d="M222.7,179.22a2.8,2.8,0,0,1-.67,1,2.4,2.4,0,0,1-1.06.57,4.09,4.09,0,0,1-1.51.07,4.5,4.5,0,0,1-1-.25,3,3,0,0,1-.88-.5,2.32,2.32,0,0,1-.6-.75,2,2,0,0,1-.2-1l.88.1a1.58,1.58,0,0,0,.19.71,1.65,1.65,0,0,0,.44.49,2.19,2.19,0,0,0,.61.32,3.32,3.32,0,0,0,.7.16,2.12,2.12,0,0,0,1.84-.49,3.22,3.22,0,0,0,.77-1.94l.11-1h0a2.59,2.59,0,0,1-1,1,2.41,2.41,0,0,1-1.43.25,3.49,3.49,0,0,1-1.44-.45,2.76,2.76,0,0,1-.92-.9,3.19,3.19,0,0,1-.44-1.24,5.51,5.51,0,0,1,0-1.46,4.5,4.5,0,0,1,.38-1.37,3.51,3.51,0,0,1,.76-1.08,3,3,0,0,1,1.1-.66,3.23,3.23,0,0,1,1.42-.13,2.52,2.52,0,0,1,.74.2,2.37,2.37,0,0,1,.61.39,2.77,2.77,0,0,1,.47.53,2.18,2.18,0,0,1,.29.6h0l.14-1.24.88.1-.75,6.59A5.45,5.45,0,0,1,222.7,179.22Zm-1.79-2.14a2.3,2.3,0,0,0,.8-.56,2.84,2.84,0,0,0,.54-.86,3.86,3.86,0,0,0,.27-1,4.59,4.59,0,0,0,0-1.07,3.06,3.06,0,0,0-.29-1,2.2,2.2,0,0,0-.64-.78,2,2,0,0,0-1-.39,2.13,2.13,0,0,0-1.1.13,2.3,2.3,0,0,0-.82.59,2.83,2.83,0,0,0-.53.9,4.55,4.55,0,0,0-.26,1.08,4.06,4.06,0,0,0,0,1.07,2.72,2.72,0,0,0,.33,1,2.26,2.26,0,0,0,.66.72,2.19,2.19,0,0,0,1,.36A2,2,0,0,0,220.91,177.08Z"/><path class="cls-3" d="M225.52,172.54a2.06,2.06,0,0,1,.69-.68,2.57,2.57,0,0,1,.95-.33,4.39,4.39,0,0,1,1.16,0,5.06,5.06,0,0,1,.94.2,2.3,2.3,0,0,1,.81.44,1.87,1.87,0,0,1,.53.77,2.54,2.54,0,0,1,.1,1.2l-.44,3.81a.46.46,0,0,0,.45.59.68.68,0,0,0,.28,0l-.08.74h-.28l-.3,0a1.35,1.35,0,0,1-.53-.15.73.73,0,0,1-.28-.29,1,1,0,0,1-.1-.41,3.35,3.35,0,0,1,0-.51h0a5.78,5.78,0,0,1-.55.56,2.33,2.33,0,0,1-.59.39,2.52,2.52,0,0,1-.71.2,3.78,3.78,0,0,1-.92,0,3.61,3.61,0,0,1-.93-.23,2.12,2.12,0,0,1-.72-.46,1.8,1.8,0,0,1-.44-.71,2.17,2.17,0,0,1-.08-1,1.87,1.87,0,0,1,.47-1.14,2.12,2.12,0,0,1,1-.55,5.08,5.08,0,0,1,1.27-.17h1.91a.87.87,0,0,0,.36-.11.68.68,0,0,0,.25-.26,1.22,1.22,0,0,0,.13-.46,1.61,1.61,0,0,0-.06-.75,1.16,1.16,0,0,0-.35-.5,1.64,1.64,0,0,0-.57-.3,4.09,4.09,0,0,0-.72-.15,2.22,2.22,0,0,0-1.41.24,1.56,1.56,0,0,0-.7,1.21l-.88-.1A2.94,2.94,0,0,1,225.52,172.54Zm4.14,2.64a.51.51,0,0,1-.34.19l-.43,0-1.17,0a6.29,6.29,0,0,0-1.1.11,2.13,2.13,0,0,0-.85.35,1,1,0,0,0-.4.78,1.29,1.29,0,0,0,.06.61,1.46,1.46,0,0,0,.3.49,1.55,1.55,0,0,0,.48.34,1.88,1.88,0,0,0,.59.17,3,3,0,0,0,1,0,2.4,2.4,0,0,0,.85-.35,2.17,2.17,0,0,0,.62-.65,2.14,2.14,0,0,0,.31-.92l.13-1.14Z"/><path class="cls-3" d="M233.89,169.58l-1.14,9.93-.88-.1,1.14-9.93Z"/><path class="cls-3" d="M236.46,169.87l-1.14,9.93-.88-.1,1.14-9.93Z"/><path class="cls-3" d="M238,172.83l1.66,6.39,2.91-5.87.88.1-4.06,7.91a7.71,7.71,0,0,1-.45.72,1.76,1.76,0,0,1-.42.43,1.23,1.23,0,0,1-.5.2,2.6,2.6,0,0,1-.7,0l-.41-.07a.85.85,0,0,1-.25-.08l.08-.74.29.08.3.06a1.2,1.2,0,0,0,.49,0,1,1,0,0,0,.35-.19,1.34,1.34,0,0,0,.28-.33l.26-.44.4-.77-2-7.48Z"/><path class="cls-3" d="M98.67,171a1.92,1.92,0,0,0-1.31-.61,2.23,2.23,0,0,0-1.13.14,2.41,2.41,0,0,0-.87.6,3.18,3.18,0,0,0-.59.93,4,4,0,0,0-.26,2.24,3.17,3.17,0,0,0,.36,1,2.41,2.41,0,0,0,.71.79,2.23,2.23,0,0,0,1.07.39,2,2,0,0,0,.78-.07,2.05,2.05,0,0,0,.69-.35,2.29,2.29,0,0,0,.53-.59,2.42,2.42,0,0,0,.32-.8l.88.1a3.33,3.33,0,0,1-1.19,1.93,2.82,2.82,0,0,1-2.09.5,3.39,3.39,0,0,1-1.42-.47,3.11,3.11,0,0,1-1-.94,3.56,3.56,0,0,1-.52-1.28A5,5,0,0,1,94,171.6a3.57,3.57,0,0,1,.79-1.13,3.19,3.19,0,0,1,1.16-.7,3.32,3.32,0,0,1,1.49-.14,3.14,3.14,0,0,1,1.89.84,2.64,2.64,0,0,1,.74,2l-.88-.1A2.43,2.43,0,0,0,98.67,171Z"/><path class="cls-3" d="M102.78,167.67l-.46,4h0a2.12,2.12,0,0,1,1-.95,2.64,2.64,0,0,1,1.45-.24,3.56,3.56,0,0,1,1.24.34,2,2,0,0,1,.75.64,2.09,2.09,0,0,1,.33.92,4.91,4.91,0,0,1,0,1.17l-.53,4.62-.88-.1.51-4.48a4.2,4.2,0,0,0,0-.87A1.84,1.84,0,0,0,106,172a1.42,1.42,0,0,0-.51-.52,2.08,2.08,0,0,0-.86-.27,2.25,2.25,0,0,0-1,.08,2,2,0,0,0-.75.44,2.39,2.39,0,0,0-.53.73,3.16,3.16,0,0,0-.29,1l-.48,4.19-.88-.1,1.14-9.93Z"/><path class="cls-3" d="M109.13,172.31a2.05,2.05,0,0,1,.69-.68,2.57,2.57,0,0,1,.95-.33,4.42,4.42,0,0,1,1.16,0,5.06,5.06,0,0,1,.94.2,2.31,2.31,0,0,1,.81.44,1.86,1.86,0,0,1,.53.77,2.55,2.55,0,0,1,.1,1.2l-.44,3.81a.46.46,0,0,0,.45.59.68.68,0,0,0,.28,0l-.08.74h-.28l-.3,0a1.33,1.33,0,0,1-.53-.15.72.72,0,0,1-.28-.29,1,1,0,0,1-.1-.41,3.35,3.35,0,0,1,0-.51h0a5.78,5.78,0,0,1-.55.56,2.37,2.37,0,0,1-.59.39,2.49,2.49,0,0,1-.71.2,3.76,3.76,0,0,1-.92,0,3.63,3.63,0,0,1-.93-.23,2.12,2.12,0,0,1-.72-.46,1.79,1.79,0,0,1-.44-.71,2.17,2.17,0,0,1-.08-1,1.87,1.87,0,0,1,.47-1.14,2.11,2.11,0,0,1,1-.55,5.06,5.06,0,0,1,1.27-.17h1.91a.88.88,0,0,0,.36-.11.68.68,0,0,0,.25-.26,1.21,1.21,0,0,0,.13-.46,1.61,1.61,0,0,0-.06-.75,1.17,1.17,0,0,0-.35-.5,1.65,1.65,0,0,0-.57-.3,4.09,4.09,0,0,0-.72-.15,2.22,2.22,0,0,0-1.41.24,1.56,1.56,0,0,0-.7,1.21l-.88-.1A2.94,2.94,0,0,1,109.13,172.31Zm4.13,2.64a.5.5,0,0,1-.34.19l-.43,0-1.17,0a6.4,6.4,0,0,0-1.1.11,2.14,2.14,0,0,0-.85.35,1.06,1.06,0,0,0-.41.78,1.28,1.28,0,0,0,.07.61,1.41,1.41,0,0,0,.3.49,1.54,1.54,0,0,0,.48.34,1.91,1.91,0,0,0,.59.17,3,3,0,0,0,1,0,2.37,2.37,0,0,0,.85-.35,2.2,2.2,0,0,0,.62-.65,2.17,2.17,0,0,0,.31-.92l.13-1.14Z"/><path class="cls-3" d="M117.15,172.1l-.14,1.24h0a2.12,2.12,0,0,1,1-.95,2.63,2.63,0,0,1,1.45-.24,3.56,3.56,0,0,1,1.24.34,2,2,0,0,1,.75.64,2.05,2.05,0,0,1,.33.92,4.87,4.87,0,0,1,0,1.17l-.53,4.62-.88-.1.51-4.48a4.26,4.26,0,0,0,0-.87,1.82,1.82,0,0,0-.21-.72,1.42,1.42,0,0,0-.51-.52,2.09,2.09,0,0,0-.86-.27,2.25,2.25,0,0,0-1,.08,2,2,0,0,0-.76.44,2.38,2.38,0,0,0-.53.73,3.16,3.16,0,0,0-.29,1l-.48,4.19-.88-.1.82-7.18Z"/><path class="cls-3" d="M128.73,181.56a2.8,2.8,0,0,1-.67,1,2.42,2.42,0,0,1-1.06.57,4.11,4.11,0,0,1-1.51.07,4.49,4.49,0,0,1-1-.25,3,3,0,0,1-.88-.5,2.34,2.34,0,0,1-.6-.75,2,2,0,0,1-.2-1l.88.1a1.55,1.55,0,0,0,.19.71,1.63,1.63,0,0,0,.44.49,2.2,2.2,0,0,0,.61.32,3.35,3.35,0,0,0,.7.16,2.11,2.11,0,0,0,1.85-.49,3.22,3.22,0,0,0,.77-1.94l.11-1h0a2.58,2.58,0,0,1-1,1,2.41,2.41,0,0,1-1.43.25,3.5,3.5,0,0,1-1.44-.45,2.74,2.74,0,0,1-.92-.9,3.2,3.2,0,0,1-.44-1.24,5.51,5.51,0,0,1,0-1.46,4.46,4.46,0,0,1,.38-1.37,3.5,3.5,0,0,1,.76-1.08,3,3,0,0,1,1.1-.66,3.23,3.23,0,0,1,1.42-.13,2.54,2.54,0,0,1,.74.2,2.39,2.39,0,0,1,.61.39,2.77,2.77,0,0,1,.47.53,2.14,2.14,0,0,1,.29.6h0l.14-1.24.88.1-.75,6.59A5.48,5.48,0,0,1,128.73,181.56Zm-1.79-2.14a2.28,2.28,0,0,0,.8-.56,2.79,2.79,0,0,0,.54-.86,3.9,3.9,0,0,0,.27-1,4.58,4.58,0,0,0,0-1.07,3.06,3.06,0,0,0-.29-1,2.21,2.21,0,0,0-.64-.78,2,2,0,0,0-1-.39,2.12,2.12,0,0,0-1.1.14,2.3,2.3,0,0,0-.81.59,2.81,2.81,0,0,0-.53.9,4.56,4.56,0,0,0-.26,1.08,4,4,0,0,0,0,1.07,2.74,2.74,0,0,0,.33,1,2.26,2.26,0,0,0,.66.72,2.19,2.19,0,0,0,1,.36A2,2,0,0,0,126.94,179.41Z"/><path class="cls-3" d="M131.59,178.62a2.68,2.68,0,0,0,.32,1,2.43,2.43,0,0,0,.66.75,2.08,2.08,0,0,0,1,.39,2.15,2.15,0,0,0,1.56-.33,2.65,2.65,0,0,0,.9-1.25l.88.1a3.52,3.52,0,0,1-1.24,1.77,3.07,3.07,0,0,1-2.18.43,3.37,3.37,0,0,1-1.43-.47,2.72,2.72,0,0,1-.91-.94,3.58,3.58,0,0,1-.44-1.28,5.5,5.5,0,0,1,0-1.48,5.21,5.21,0,0,1,.35-1.37,3.76,3.76,0,0,1,.72-1.15,2.92,2.92,0,0,1,1.11-.75,3.12,3.12,0,0,1,1.51-.16,2.85,2.85,0,0,1,2.32,1.54,3.77,3.77,0,0,1,.4,1.36,5.7,5.7,0,0,1,0,1.5l-5.52-.63A3.88,3.88,0,0,0,131.59,178.62Zm4.65-2.18a2.67,2.67,0,0,0-.36-.87,2.28,2.28,0,0,0-.64-.65,2,2,0,0,0-.92-.32,2.07,2.07,0,0,0-1,.11,2.27,2.27,0,0,0-.78.49,2.89,2.89,0,0,0-.56.77,4.1,4.1,0,0,0-.34.93l4.65.53A3.22,3.22,0,0,0,136.24,176.44Z"/><path class="cls-3" d="M143.39,175.1l-.14,1.21h0a2.76,2.76,0,0,1,1-.94,2.55,2.55,0,0,1,1.48-.21,2.46,2.46,0,0,1,1.25.5,1.72,1.72,0,0,1,.65,1.15,2.22,2.22,0,0,1,1.07-.95,2.73,2.73,0,0,1,1.37-.19q2.38.27,2.09,2.79l-.56,4.87-.88-.1.55-4.83a2.13,2.13,0,0,0-.22-1.4,1.62,1.62,0,0,0-1.27-.62,1.89,1.89,0,0,0-1,.11,1.68,1.68,0,0,0-.67.51,2.48,2.48,0,0,0-.41.79,5.07,5.07,0,0,0-.2,1l-.46,4.06-.88-.1.56-4.87a3.06,3.06,0,0,0,0-.7,1.6,1.6,0,0,0-.19-.6,1.18,1.18,0,0,0-.42-.44,1.65,1.65,0,0,0-.69-.22,2.19,2.19,0,0,0-1,.09,1.79,1.79,0,0,0-.73.48,2.46,2.46,0,0,0-.48.79,4.18,4.18,0,0,0-.25,1l-.46,4-.88-.1.82-7.18Z"/><path class="cls-3" d="M154.29,176.35l1.66,6.39,2.91-5.87.88.1-4.06,7.91a8,8,0,0,1-.45.72,1.74,1.74,0,0,1-.42.43,1.24,1.24,0,0,1-.5.2,2.62,2.62,0,0,1-.7,0l-.41-.07a.85.85,0,0,1-.25-.08l.08-.74.29.08.3.05a1.19,1.19,0,0,0,.49,0,1,1,0,0,0,.35-.19,1.37,1.37,0,0,0,.28-.33l.26-.44.4-.77-2-7.48Z"/><path class="cls-3" d="M165.33,177.61l-.14,1.24h0a2.11,2.11,0,0,1,1-.95,2.64,2.64,0,0,1,1.45-.24,3.57,3.57,0,0,1,1.24.34,2,2,0,0,1,.75.64,2.08,2.08,0,0,1,.33.92,4.92,4.92,0,0,1,0,1.17l-.53,4.62-.88-.1.51-4.48a4.2,4.2,0,0,0,0-.87,1.82,1.82,0,0,0-.21-.72,1.42,1.42,0,0,0-.51-.52,2.08,2.08,0,0,0-.86-.27,2.25,2.25,0,0,0-1,.08,2.06,2.06,0,0,0-.75.44,2.4,2.4,0,0,0-.53.73,3.19,3.19,0,0,0-.29,1l-.48,4.19-.88-.1.82-7.18Z"/><path class="cls-3" d="M172,179.5a2.06,2.06,0,0,1,.69-.68,2.58,2.58,0,0,1,.95-.33,4.42,4.42,0,0,1,1.16,0,5.07,5.07,0,0,1,.94.2,2.29,2.29,0,0,1,.81.44,1.86,1.86,0,0,1,.53.77,2.56,2.56,0,0,1,.1,1.2l-.44,3.81a.46.46,0,0,0,.45.59.69.69,0,0,0,.28,0l-.08.74h-.28l-.3,0a1.33,1.33,0,0,1-.53-.15.72.72,0,0,1-.28-.29,1,1,0,0,1-.1-.41,3.35,3.35,0,0,1,0-.51h0a5.78,5.78,0,0,1-.55.56,2.41,2.41,0,0,1-.59.39,2.52,2.52,0,0,1-.71.2,3.81,3.81,0,0,1-.92,0,3.62,3.62,0,0,1-.93-.23,2.11,2.11,0,0,1-.72-.46,1.8,1.8,0,0,1-.44-.71,2.17,2.17,0,0,1-.08-1,1.86,1.86,0,0,1,.47-1.14,2.11,2.11,0,0,1,1-.55,5.08,5.08,0,0,1,1.27-.17h1.91a.88.88,0,0,0,.36-.11.68.68,0,0,0,.25-.26,1.23,1.23,0,0,0,.13-.46,1.61,1.61,0,0,0-.06-.75,1.17,1.17,0,0,0-.35-.5,1.66,1.66,0,0,0-.57-.3,4,4,0,0,0-.72-.15,2.22,2.22,0,0,0-1.41.24,1.56,1.56,0,0,0-.7,1.21l-.88-.1A2.94,2.94,0,0,1,172,179.5Zm4.13,2.64a.5.5,0,0,1-.34.19l-.43,0-1.17,0a6.4,6.4,0,0,0-1.1.11,2.14,2.14,0,0,0-.85.35,1.06,1.06,0,0,0-.41.78,1.28,1.28,0,0,0,.07.61,1.44,1.44,0,0,0,.3.49,1.54,1.54,0,0,0,.48.34,1.89,1.89,0,0,0,.59.17,3,3,0,0,0,1,0,2.35,2.35,0,0,0,.85-.35,2.18,2.18,0,0,0,.62-.65,2.15,2.15,0,0,0,.31-.92l.13-1.14Z"/><path class="cls-3" d="M180,179.28l-.14,1.21h0a2.77,2.77,0,0,1,1-.94,2.55,2.55,0,0,1,1.48-.21,2.47,2.47,0,0,1,1.25.49,1.72,1.72,0,0,1,.65,1.15,2.21,2.21,0,0,1,1.07-.95,2.72,2.72,0,0,1,1.37-.19q2.38.27,2.09,2.79l-.56,4.87-.88-.1.55-4.83a2.13,2.13,0,0,0-.22-1.4,1.62,1.62,0,0,0-1.27-.62,1.89,1.89,0,0,0-1,.11,1.68,1.68,0,0,0-.67.51,2.49,2.49,0,0,0-.41.79,5.08,5.08,0,0,0-.2,1l-.46,4.06-.88-.1.56-4.87a3.06,3.06,0,0,0,0-.7,1.6,1.6,0,0,0-.19-.6,1.17,1.17,0,0,0-.42-.44,1.65,1.65,0,0,0-.69-.22,2.19,2.19,0,0,0-1,.09,1.78,1.78,0,0,0-.73.48,2.48,2.48,0,0,0-.48.79,4.19,4.19,0,0,0-.25,1l-.46,4-.88-.1.82-7.18Z"/><path class="cls-3" d="M190.84,185.4a2.73,2.73,0,0,0,.32,1,2.46,2.46,0,0,0,.66.75,2.08,2.08,0,0,0,1,.39,2.15,2.15,0,0,0,1.56-.33,2.65,2.65,0,0,0,.9-1.25l.88.1a3.52,3.52,0,0,1-1.24,1.77,3.07,3.07,0,0,1-2.18.43,3.37,3.37,0,0,1-1.43-.47,2.7,2.7,0,0,1-.91-.94,3.55,3.55,0,0,1-.44-1.28,5.5,5.5,0,0,1,0-1.48,5.21,5.21,0,0,1,.35-1.37,3.75,3.75,0,0,1,.72-1.15,2.92,2.92,0,0,1,1.11-.75,3.13,3.13,0,0,1,1.51-.16,2.85,2.85,0,0,1,2.32,1.54,3.79,3.79,0,0,1,.4,1.36,5.74,5.74,0,0,1,0,1.5l-5.52-.63A3.92,3.92,0,0,0,190.84,185.4Zm4.65-2.18a2.68,2.68,0,0,0-.36-.87,2.26,2.26,0,0,0-.64-.65,2.23,2.23,0,0,0-1.91-.22,2.26,2.26,0,0,0-.78.49,2.86,2.86,0,0,0-.56.77,4.05,4.05,0,0,0-.34.93l4.65.53A3.22,3.22,0,0,0,195.49,183.22Z"/><path class="cls-3" d="M204.68,182.11l-.08.74-1.46-.17-.55,4.84a1.56,1.56,0,0,0,0,.69q.09.26.56.34a6.79,6.79,0,0,0,.75,0l-.08.74-.39,0-.39,0a1.3,1.3,0,0,1-1.37-1.78l.56-4.91-1.25-.14.08-.74,1.25.14.25-2.16.88.1-.25,2.16Z"/><path class="cls-3" d="M210.42,182.87a3.2,3.2,0,0,1,1,.94,3.59,3.59,0,0,1,.52,1.28,5,5,0,0,1-.34,2.94,3.6,3.6,0,0,1-.79,1.13,3.13,3.13,0,0,1-1.16.69,3.71,3.71,0,0,1-2.91-.33,3.1,3.1,0,0,1-1-.94,3.54,3.54,0,0,1-.52-1.28,5,5,0,0,1,.34-2.94,3.55,3.55,0,0,1,.79-1.13,3.18,3.18,0,0,1,1.16-.7,3.63,3.63,0,0,1,2.91.33Zm-2.63.4a2.44,2.44,0,0,0-.87.61,3.19,3.19,0,0,0-.59.93,4.06,4.06,0,0,0-.26,2.24,3.19,3.19,0,0,0,.36,1,2.43,2.43,0,0,0,.71.79,2.44,2.44,0,0,0,2.2.25,2.41,2.41,0,0,0,.87-.61,3.16,3.16,0,0,0,.58-.93,4,4,0,0,0,.26-2.24,3.18,3.18,0,0,0-.36-1,2.42,2.42,0,0,0-.71-.79,2.43,2.43,0,0,0-2.2-.25Z"/><path class="cls-3" d="M217.8,188.87a2.12,2.12,0,0,0,.59.9,2.89,2.89,0,0,0,1,.56,6,6,0,0,0,1.27.28,3.63,3.63,0,0,0,.86,0,3,3,0,0,0,.89-.26,2.18,2.18,0,0,0,.73-.55,1.59,1.59,0,0,0,.37-.89,1.36,1.36,0,0,0-.11-.75,1.72,1.72,0,0,0-.43-.57,2.87,2.87,0,0,0-.62-.42,6.43,6.43,0,0,0-.68-.3l-2.15-.8a6.56,6.56,0,0,1-.81-.37,2.41,2.41,0,0,1-.67-.53,2.12,2.12,0,0,1-.42-.74,2.36,2.36,0,0,1-.07-1,3.18,3.18,0,0,1,.24-.83,2.37,2.37,0,0,1,.63-.86,3.06,3.06,0,0,1,1.13-.61,4.23,4.23,0,0,1,1.75-.1,5,5,0,0,1,1.38.36,3.47,3.47,0,0,1,1.1.72,2.83,2.83,0,0,1,.83,2.43l-.95-.11a2.3,2.3,0,0,0-.15-1,2.22,2.22,0,0,0-.52-.78,2.64,2.64,0,0,0-.8-.53,3.45,3.45,0,0,0-1-.26,4.22,4.22,0,0,0-1,0,2.37,2.37,0,0,0-.83.24,1.72,1.72,0,0,0-.62.54,1.9,1.9,0,0,0-.32.91,1.42,1.42,0,0,0,.05.62,1.29,1.29,0,0,0,.28.48,1.76,1.76,0,0,0,.45.35,3.69,3.69,0,0,0,.56.25l2.35.88a6.94,6.94,0,0,1,1,.45,3.26,3.26,0,0,1,.76.59,2.12,2.12,0,0,1,.47.79,2.47,2.47,0,0,1,.08,1.07,3.88,3.88,0,0,1-.09.44,2.25,2.25,0,0,1-.23.57,3,3,0,0,1-.45.59,2.39,2.39,0,0,1-.73.5,3.9,3.9,0,0,1-1.1.3,6.18,6.18,0,0,1-1.52,0,6.29,6.29,0,0,1-1.6-.39,3.51,3.51,0,0,1-1.21-.76,2.74,2.74,0,0,1-.69-1.16,3.53,3.53,0,0,1-.06-1.6l.95.11A2.81,2.81,0,0,0,217.8,188.87Z"/><path class="cls-3" d="M229.16,184.91l-.08.74-1.46-.17-.55,4.84a1.56,1.56,0,0,0,0,.69c.06.17.25.28.56.34a6.79,6.79,0,0,0,.75,0l-.08.74-.39,0-.39,0a1.3,1.3,0,0,1-1.37-1.78l.56-4.91-1.25-.14.08-.74,1.25.14.25-2.16.88.1-.25,2.16Z"/><path class="cls-3" d="M230.48,186.19a2.06,2.06,0,0,1,.69-.68,2.59,2.59,0,0,1,.95-.33,4.4,4.4,0,0,1,1.16,0,5,5,0,0,1,.94.2,2.31,2.31,0,0,1,.81.44,1.86,1.86,0,0,1,.53.77,2.55,2.55,0,0,1,.1,1.2l-.44,3.81a.46.46,0,0,0,.45.59.69.69,0,0,0,.28,0l-.08.74h-.28l-.3,0a1.32,1.32,0,0,1-.53-.15.72.72,0,0,1-.28-.29,1,1,0,0,1-.1-.41,3.35,3.35,0,0,1,0-.51h0a5.75,5.75,0,0,1-.55.56,2.37,2.37,0,0,1-.59.39,2.5,2.5,0,0,1-.71.2,3.77,3.77,0,0,1-.92,0,3.63,3.63,0,0,1-.93-.23A2.12,2.12,0,0,1,230,192a1.79,1.79,0,0,1-.44-.71,2.17,2.17,0,0,1-.08-1,1.87,1.87,0,0,1,.47-1.14,2.11,2.11,0,0,1,1-.55,5.08,5.08,0,0,1,1.27-.17H234a.87.87,0,0,0,.36-.11.68.68,0,0,0,.25-.26,1.22,1.22,0,0,0,.13-.46,1.6,1.6,0,0,0-.06-.75,1.16,1.16,0,0,0-.35-.5,1.66,1.66,0,0,0-.57-.3,4,4,0,0,0-.72-.15,2.23,2.23,0,0,0-1.41.24,1.56,1.56,0,0,0-.7,1.21l-.88-.1A2.94,2.94,0,0,1,230.48,186.19Zm4.13,2.64a.5.5,0,0,1-.34.19l-.43,0-1.17,0a6.36,6.36,0,0,0-1.1.11,2.13,2.13,0,0,0-.85.35,1.06,1.06,0,0,0-.41.78,1.3,1.3,0,0,0,.06.61,1.43,1.43,0,0,0,.31.49,1.54,1.54,0,0,0,.48.34,1.91,1.91,0,0,0,.59.17,3,3,0,0,0,1,0,2.38,2.38,0,0,0,.85-.35,2.2,2.2,0,0,0,.62-.65,2.17,2.17,0,0,0,.31-.92l.13-1.14Z"/><path class="cls-3" d="M241.93,187.37a1.92,1.92,0,0,0-1.31-.61,2.23,2.23,0,0,0-1.13.14,2.44,2.44,0,0,0-.87.61,3.19,3.19,0,0,0-.59.93,4.06,4.06,0,0,0-.26,2.24,3.2,3.2,0,0,0,.36,1,2.42,2.42,0,0,0,.71.79,2.23,2.23,0,0,0,1.07.39,2,2,0,0,0,.78-.07,2,2,0,0,0,.69-.35,2.28,2.28,0,0,0,.53-.59,2.42,2.42,0,0,0,.32-.79l.88.1a3.33,3.33,0,0,1-1.19,1.93,2.83,2.83,0,0,1-2.09.5,3.39,3.39,0,0,1-1.42-.47,3.1,3.1,0,0,1-1-.93,3.55,3.55,0,0,1-.52-1.28,5,5,0,0,1,.34-2.94,3.55,3.55,0,0,1,.79-1.13,3.17,3.17,0,0,1,1.16-.7,3.33,3.33,0,0,1,1.49-.14,3.14,3.14,0,0,1,1.89.84,2.64,2.64,0,0,1,.74,2l-.88-.1A2.43,2.43,0,0,0,241.93,187.37Z"/><path class="cls-3" d="M245,186.72l1.67,6.39,2.91-5.87.88.1-4.06,7.91a8.25,8.25,0,0,1-.45.72,1.76,1.76,0,0,1-.42.43,1.25,1.25,0,0,1-.5.2,2.62,2.62,0,0,1-.7,0l-.41-.07a.84.84,0,0,1-.25-.08l.08-.74.29.08.3.05a1.19,1.19,0,0,0,.49,0,1,1,0,0,0,.35-.19,1.33,1.33,0,0,0,.27-.33l.26-.44.4-.77-2-7.48Z"/><path class="cls-3" d="M249.89,193.06l1.17.13-.17,1.47-1.17-.13Z"/></g></svg>