<svg id="Layer_1" data-name="Layer 1" xmlns="http://www.w3.org/2000/svg" viewBox="0 0 360 360"><defs><style>.cls-1{fill:#f29d35;}.cls-2{opacity:0.58;}.cls-3{fill:#fef5f3;}</style></defs><title>buttons_female</title><polygon class="cls-1" points="147.69 160.69 173.15 157.15 200.13 162.38 221.17 180.05 210.69 192.09 155.97 186.97 126.34 176.11 147.69 160.69"/><g class="cls-2"><path class="cls-3" d="M143.83,169.14a4.33,4.33,0,0,1,1.17.13,2.81,2.81,0,0,1,1,.45,2.26,2.26,0,0,1,.68.8,2.62,2.62,0,0,1,.27,1.16,2.8,2.8,0,0,1-.45,1.66,2.23,2.23,0,0,1-1.43.93v0a2.24,2.24,0,0,1,.82.24,1.64,1.64,0,0,1,.54.47,2,2,0,0,1,.31.67,5,5,0,0,1,.14.83c0,.17,0,.37,0,.62s0,.49.07.73a4.57,4.57,0,0,0,.15.7,1.36,1.36,0,0,0,.26.51l-1,0a1.23,1.23,0,0,1-.14-.34,3.26,3.26,0,0,1-.08-.42c0-.14,0-.29,0-.43s0-.26,0-.36c0-.35-.06-.71-.12-1.05a2.89,2.89,0,0,0-.29-.93,1.64,1.64,0,0,0-.6-.65,1.78,1.78,0,0,0-1.06-.2l-3.61.09.1,4.44-1,0-.24-10Zm0,4.75a2.51,2.51,0,0,0,.82-.15,2.07,2.07,0,0,0,.68-.4,1.9,1.9,0,0,0,.45-.62,1.84,1.84,0,0,0,.16-.82,2,2,0,0,0-.57-1.44,2.21,2.21,0,0,0-1.64-.49l-3.55.08.09,3.93Z"/><path class="cls-3" d="M149.25,176.62a2.75,2.75,0,0,0,.45.91,2.46,2.46,0,0,0,.76.65,2.09,2.09,0,0,0,1.08.24,2.15,2.15,0,0,0,1.5-.54,2.64,2.64,0,0,0,.72-1.36l.88,0a3.51,3.51,0,0,1-1,1.93,3.08,3.08,0,0,1-2.11.72,3.37,3.37,0,0,1-1.48-.27,2.69,2.69,0,0,1-1-.8,3.58,3.58,0,0,1-.61-1.2,5.57,5.57,0,0,1-.22-1.46,5.25,5.25,0,0,1,.16-1.4,3.76,3.76,0,0,1,.55-1.24,2.89,2.89,0,0,1,1-.89,3.13,3.13,0,0,1,1.47-.36,2.86,2.86,0,0,1,2.51,1.21,3.83,3.83,0,0,1,.58,1.29,5.78,5.78,0,0,1,.17,1.49l-5.56.13A4,4,0,0,0,149.25,176.62Zm4.3-2.8a2.67,2.67,0,0,0-.47-.81,2.26,2.26,0,0,0-.73-.56,2.23,2.23,0,0,0-1.92,0,2.28,2.28,0,0,0-.7.59,2.89,2.89,0,0,0-.45.84,4.1,4.1,0,0,0-.21,1l4.67-.11A3.19,3.19,0,0,0,153.55,173.83Z"/><path class="cls-3" d="M156.58,168.84l.24,10-.88,0-.24-10Z"/><path class="cls-3" d="M163.55,178.67l0-1.3h0a2.5,2.5,0,0,1-1,1.14,2.9,2.9,0,0,1-1.47.42,3.2,3.2,0,0,1-1.17-.16,2,2,0,0,1-.8-.52,2.16,2.16,0,0,1-.46-.84,4.26,4.26,0,0,1-.17-1.14l-.11-4.69.88,0,.11,4.7a2.36,2.36,0,0,0,.49,1.47,1.85,1.85,0,0,0,1.49.47,1.87,1.87,0,0,0,1-.27,2.09,2.09,0,0,0,.66-.67,3,3,0,0,0,.37-.94,4.55,4.55,0,0,0,.1-1.07l-.09-3.79.88,0,.17,7.22Z"/><path class="cls-3" d="M170.3,172.28a1.91,1.91,0,0,0-1.38-.43,2.22,2.22,0,0,0-1.1.29,2.43,2.43,0,0,0-.77.72,3.18,3.18,0,0,0-.45,1,4,4,0,0,0,.05,2.25,3.2,3.2,0,0,0,.5,1,2.44,2.44,0,0,0,.81.68,2.23,2.23,0,0,0,1.11.24,2,2,0,0,0,.77-.17,2.06,2.06,0,0,0,.63-.44,2.27,2.27,0,0,0,.45-.66,2.38,2.38,0,0,0,.2-.83l.88,0a3.33,3.33,0,0,1-.92,2.07,2.83,2.83,0,0,1-2,.78,3.39,3.39,0,0,1-1.47-.27,3.12,3.12,0,0,1-1.09-.79,3.59,3.59,0,0,1-.69-1.2,5,5,0,0,1-.07-3,3.59,3.59,0,0,1,.63-1.23,3.22,3.22,0,0,1,1.05-.85,3.32,3.32,0,0,1,1.45-.34,3.14,3.14,0,0,1,2,.57,2.63,2.63,0,0,1,1,1.84l-.88,0A2.42,2.42,0,0,0,170.3,172.28Z"/><path class="cls-3" d="M176,171.15l0,.74-1.47,0,.11,4.87a1.56,1.56,0,0,0,.14.68c.08.16.28.25.6.26a6.5,6.5,0,0,0,.75-.06l0,.74-.39,0-.39,0a1.74,1.74,0,0,1-1.24-.31,1.72,1.72,0,0,1-.37-1.26l-.12-4.94-1.26,0,0-.74,1.26,0-.05-2.17.88,0,.05,2.17Z"/><path class="cls-3" d="M177.47,172.24a2.07,2.07,0,0,1,.59-.77,2.59,2.59,0,0,1,.89-.45,4.35,4.35,0,0,1,1.14-.17,5,5,0,0,1,1,.07,2.28,2.28,0,0,1,.86.32,1.85,1.85,0,0,1,.63.69,2.53,2.53,0,0,1,.27,1.18l.09,3.83a.46.46,0,0,0,.53.52.67.67,0,0,0,.28-.06l0,.74-.27,0-.3,0a1.34,1.34,0,0,1-.54-.08.73.73,0,0,1-.32-.25,1,1,0,0,1-.16-.4,3.32,3.32,0,0,1,0-.51h0a5.73,5.73,0,0,1-.47.63,2.36,2.36,0,0,1-.53.47,2.54,2.54,0,0,1-.68.3,3.83,3.83,0,0,1-.91.12,3.59,3.59,0,0,1-.95-.1,2.13,2.13,0,0,1-.78-.36,1.79,1.79,0,0,1-.53-.65,2.17,2.17,0,0,1-.21-.94,1.87,1.87,0,0,1,.31-1.19,2.12,2.12,0,0,1,.87-.67,5.1,5.1,0,0,1,1.24-.35l1.4-.21.49-.08a.84.84,0,0,0,.35-.16.67.67,0,0,0,.21-.29,1.22,1.22,0,0,0,.07-.48,1.61,1.61,0,0,0-.16-.73,1.16,1.16,0,0,0-.42-.45,1.67,1.67,0,0,0-.61-.22,4.09,4.09,0,0,0-.74,0,2.22,2.22,0,0,0-1.36.43,1.56,1.56,0,0,0-.53,1.29l-.88,0A2.94,2.94,0,0,1,177.47,172.24Zm4.46,2.05a.51.51,0,0,1-.32.23l-.42.11-1.15.2a6.34,6.34,0,0,0-1.08.26,2.12,2.12,0,0,0-.8.46,1,1,0,0,0-.29.82,1.29,1.29,0,0,0,.15.59,1.45,1.45,0,0,0,.37.44,1.53,1.53,0,0,0,.52.28,1.94,1.94,0,0,0,.61.08,3,3,0,0,0,1-.18,2.41,2.41,0,0,0,.79-.47,2.19,2.19,0,0,0,.53-.73,2.17,2.17,0,0,0,.18-1l0-1.15Z"/><path class="cls-3" d="M185.39,170.93l0,1.25h0a2.12,2.12,0,0,1,.87-1.08,2.62,2.62,0,0,1,1.41-.43,3.51,3.51,0,0,1,1.27.17,2,2,0,0,1,.83.53,2.08,2.08,0,0,1,.46.86,5,5,0,0,1,.15,1.16l.11,4.65-.88,0-.11-4.51a4.18,4.18,0,0,0-.1-.86,1.77,1.77,0,0,0-.31-.69,1.42,1.42,0,0,0-.58-.45,2.09,2.09,0,0,0-.89-.15,2.26,2.26,0,0,0-.94.21,2.05,2.05,0,0,0-.69.53,2.41,2.41,0,0,0-.43.79,3.19,3.19,0,0,0-.15,1l.1,4.21-.88,0-.17-7.22Z"/><path class="cls-3" d="M194.91,170.71l0,.74-1.47,0,.11,4.87a1.57,1.57,0,0,0,.14.68q.12.24.6.26a7,7,0,0,0,.75-.06l0,.74-.39,0-.39,0a1.3,1.3,0,0,1-1.61-1.57l-.12-4.94-1.26,0,0-.74,1.26,0-.05-2.17.88,0,.05,2.17Z"/><path class="cls-3" d="M197,167.89l.24,10-.88,0-.24-10Z"/><path class="cls-3" d="M198.89,170.61l2.52,6.1,2.08-6.21.88,0-2.94,8.39a8,8,0,0,1-.35.77,1.77,1.77,0,0,1-.36.49,1.25,1.25,0,0,1-.47.26,2.62,2.62,0,0,1-.69.09h-.41a.87.87,0,0,1-.26,0l0-.74.3,0h.3a1.2,1.2,0,0,0,.48-.09,1.07,1.07,0,0,0,.32-.24,1.38,1.38,0,0,0,.23-.36l.2-.47.29-.82L198,170.64Z"/></g></svg>