<svg id="Layer_1" data-name="Layer 1" xmlns="http://www.w3.org/2000/svg" viewBox="0 0 360 360"><defs><style>.cls-1{fill:#14a697;}.cls-2{opacity:0.58;}.cls-3{fill:#fef5f3;}</style></defs><title>buttons_female</title><polygon class="cls-1" points="95.48 170.03 117.75 192.63 193.35 193.17 251 188.65 242.19 167 180.19 154.5 109.15 156.99 95.48 170.03"/><g class="cls-2"><path class="cls-3" d="M107.87,168.76l2.27,8.75h0l2.43-8.75h1.19l2.45,8.75h0l2.28-8.75h1l-2.75,10h-1l-2.53-8.95h0l-2.52,8.95h-1l-2.78-10Z"/><path class="cls-3" d="M121.62,168.76v1.41h-.88v-1.41Zm0,2.77v7.22h-.88v-7.22Z"/><path class="cls-3" d="M126.18,171.53v.74h-1.47v4.87a1.56,1.56,0,0,0,.12.68q.12.25.59.27a6.75,6.75,0,0,0,.76,0v.74h-.78a1.74,1.74,0,0,1-1.23-.34,1.72,1.72,0,0,1-.34-1.27v-4.94h-1.26v-.74h1.26v-2.17h.88v2.17Z"/><path class="cls-3" d="M128.32,168.75v4h0a2.12,2.12,0,0,1,.9-1.06,2.64,2.64,0,0,1,1.41-.4,3.58,3.58,0,0,1,1.27.2,2,2,0,0,1,.82.55,2.09,2.09,0,0,1,.44.87,4.93,4.93,0,0,1,.12,1.16v4.65h-.88v-4.51a4.19,4.19,0,0,0-.08-.86,1.82,1.82,0,0,0-.29-.69,1.42,1.42,0,0,0-.57-.46,2.08,2.08,0,0,0-.89-.17,2.23,2.23,0,0,0-.94.19,2,2,0,0,0-.7.52,2.39,2.39,0,0,0-.45.78,3.17,3.17,0,0,0-.18,1v4.21h-.88v-10Z"/><path class="cls-3" d="M139.73,171.52v1.25h0a2.11,2.11,0,0,1,.89-1.06,2.64,2.64,0,0,1,1.41-.4,3.56,3.56,0,0,1,1.27.2,2,2,0,0,1,.82.55,2.06,2.06,0,0,1,.44.87,4.93,4.93,0,0,1,.13,1.16v4.65h-.88v-4.51a4.19,4.19,0,0,0-.08-.86,1.78,1.78,0,0,0-.29-.69,1.43,1.43,0,0,0-.57-.46,2.08,2.08,0,0,0-.89-.17,2.26,2.26,0,0,0-.94.19,2,2,0,0,0-.7.52,2.41,2.41,0,0,0-.45.78,3.19,3.19,0,0,0-.17,1v4.21h-.88v-7.22Z"/><path class="cls-3" d="M147,176.36a2.68,2.68,0,0,0,.43.92,2.43,2.43,0,0,0,.74.67,2.08,2.08,0,0,0,1.08.27,2.14,2.14,0,0,0,1.51-.5,2.65,2.65,0,0,0,.76-1.34h.88a3.53,3.53,0,0,1-1,1.9,3.07,3.07,0,0,1-2.12.67,3.36,3.36,0,0,1-1.48-.3,2.72,2.72,0,0,1-1-.83,3.59,3.59,0,0,1-.58-1.22,5.53,5.53,0,0,1-.19-1.46,5.22,5.22,0,0,1,.19-1.4,3.77,3.77,0,0,1,.58-1.22,2.91,2.91,0,0,1,1-.87,3.12,3.12,0,0,1,1.48-.33,2.86,2.86,0,0,1,2.48,1.27,3.82,3.82,0,0,1,.55,1.3,5.74,5.74,0,0,1,.14,1.49H146.9A3.93,3.93,0,0,0,147,176.36Zm4.37-2.7a2.67,2.67,0,0,0-.45-.82,2.26,2.26,0,0,0-.71-.57,2,2,0,0,0-1-.22,2.08,2.08,0,0,0-1,.22,2.27,2.27,0,0,0-.71.57,2.92,2.92,0,0,0-.47.83,4.15,4.15,0,0,0-.23,1h4.68A3.21,3.21,0,0,0,151.4,173.66Z"/><path class="cls-3" d="M154.46,171.52v1.69h0a2.78,2.78,0,0,1,1-1.36,2.74,2.74,0,0,1,1.69-.43v.88a2.67,2.67,0,0,0-1.09.16,2.47,2.47,0,0,0-.85.54,2.43,2.43,0,0,0-.55.83,2.76,2.76,0,0,0-.2,1.06v3.85h-.88v-7.22Z"/><path class="cls-3" d="M158.23,171.52l2.27,6.34h0l2.24-6.34h.91l-2.7,7.22H160l-2.79-7.22Z"/><path class="cls-3" d="M169.06,171.61a3.2,3.2,0,0,1,1.07.83,3.58,3.58,0,0,1,.66,1.21,5,5,0,0,1,0,3,3.58,3.58,0,0,1-.66,1.21,3.13,3.13,0,0,1-1.07.82,3.71,3.71,0,0,1-2.93,0,3.11,3.11,0,0,1-1.07-.82,3.56,3.56,0,0,1-.66-1.21,5,5,0,0,1,0-3,3.56,3.56,0,0,1,.66-1.21,3.18,3.18,0,0,1,1.07-.83,3.63,3.63,0,0,1,2.93,0Zm-2.57.7a2.44,2.44,0,0,0-.79.7,3.19,3.19,0,0,0-.48,1,4.06,4.06,0,0,0,0,2.25,3.2,3.2,0,0,0,.48,1,2.45,2.45,0,0,0,.79.7,2.43,2.43,0,0,0,2.21,0,2.41,2.41,0,0,0,.79-.7,3.17,3.17,0,0,0,.48-1,4,4,0,0,0,0-2.25,3.18,3.18,0,0,0-.48-1,2.43,2.43,0,0,0-.79-.7,2.43,2.43,0,0,0-2.21,0Z"/><path class="cls-3" d="M177.37,178.74v-1.3h0a2.51,2.51,0,0,1-1,1.11,2.89,2.89,0,0,1-1.48.38,3.21,3.21,0,0,1-1.17-.19,1.94,1.94,0,0,1-.78-.54,2.16,2.16,0,0,1-.44-.85,4.28,4.28,0,0,1-.14-1.15v-4.69h.88v4.7a2.35,2.35,0,0,0,.45,1.48,2.28,2.28,0,0,0,2.46.26,2.08,2.08,0,0,0,.67-.65,2.93,2.93,0,0,0,.39-.93,4.56,4.56,0,0,0,.13-1.07v-3.79h.88v7.22Z"/><path class="cls-3" d="M184,172.92a1.42,1.42,0,0,0-.41-.5,1.73,1.73,0,0,0-.6-.29,2.72,2.72,0,0,0-.71-.09,2.93,2.93,0,0,0-.6.06,1.83,1.83,0,0,0-.55.21,1.19,1.19,0,0,0-.41.38,1.07,1.07,0,0,0-.15.59.83.83,0,0,0,.15.5,1.29,1.29,0,0,0,.37.34,2.34,2.34,0,0,0,.49.23l.49.15,1.18.27a3.33,3.33,0,0,1,.75.2,2.39,2.39,0,0,1,.66.38,1.89,1.89,0,0,1,.47.59,1.77,1.77,0,0,1,.18.83,1.82,1.82,0,0,1-.27,1,2.19,2.19,0,0,1-.68.67,2.92,2.92,0,0,1-.93.37,4.86,4.86,0,0,1-1,.11,3.32,3.32,0,0,1-2.07-.6,2.56,2.56,0,0,1-.9-1.93h.88a1.74,1.74,0,0,0,.65,1.35,2.36,2.36,0,0,0,1.48.45,3.37,3.37,0,0,0,.66-.07,2.14,2.14,0,0,0,.64-.24,1.52,1.52,0,0,0,.48-.43,1,1,0,0,0,.19-.64,1,1,0,0,0-.13-.54,1.16,1.16,0,0,0-.36-.36,2.26,2.26,0,0,0-.51-.24c-.19-.07-.38-.12-.58-.17l-1.13-.25a6.27,6.27,0,0,1-.8-.26,2.54,2.54,0,0,1-.64-.36,1.53,1.53,0,0,1-.43-.53,1.78,1.78,0,0,1-.15-.78,1.73,1.73,0,0,1,.24-.94,1.93,1.93,0,0,1,.64-.63,3,3,0,0,1,.87-.35,4.23,4.23,0,0,1,1-.11,3.53,3.53,0,0,1,1,.14,2.34,2.34,0,0,1,.83.43,2.12,2.12,0,0,1,.57.73,2.6,2.6,0,0,1,.24,1h-.88A1.67,1.67,0,0,0,184,172.92Z"/><path class="cls-3" d="M191.36,168.74v10h-.88v-10Z"/><path class="cls-3" d="M193.24,172.63a2.06,2.06,0,0,1,.61-.76,2.57,2.57,0,0,1,.9-.43,4.41,4.41,0,0,1,1.15-.14,5.11,5.11,0,0,1,1,.09,2.3,2.3,0,0,1,.85.34,1.86,1.86,0,0,1,.61.71,2.53,2.53,0,0,1,.24,1.18v3.84a.46.46,0,0,0,.52.53.67.67,0,0,0,.28-.06v.74l-.27,0h-.3a1.35,1.35,0,0,1-.54-.09.73.73,0,0,1-.32-.26,1,1,0,0,1-.15-.4,3.33,3.33,0,0,1,0-.51h0a5.82,5.82,0,0,1-.48.62,2.32,2.32,0,0,1-.55.46,2.5,2.5,0,0,1-.68.28,3.8,3.8,0,0,1-.92.1,3.65,3.65,0,0,1-.95-.12,2.12,2.12,0,0,1-.77-.38,1.81,1.81,0,0,1-.52-.66,2.18,2.18,0,0,1-.19-.94,1.87,1.87,0,0,1,.33-1.18,2.11,2.11,0,0,1,.89-.65,5.07,5.07,0,0,1,1.25-.32l1.41-.18.49-.07a.88.88,0,0,0,.35-.15.69.69,0,0,0,.22-.29,1.22,1.22,0,0,0,.08-.48,1.61,1.61,0,0,0-.15-.73,1.17,1.17,0,0,0-.41-.46,1.65,1.65,0,0,0-.6-.23,4.09,4.09,0,0,0-.73-.06,2.22,2.22,0,0,0-1.37.4,1.56,1.56,0,0,0-.56,1.28H193A3,3,0,0,1,193.24,172.63Zm4.41,2.16a.51.51,0,0,1-.32.22l-.42.1-1.16.18a6.29,6.29,0,0,0-1.08.23,2.12,2.12,0,0,0-.81.44,1,1,0,0,0-.31.82,1.27,1.27,0,0,0,.13.59,1.46,1.46,0,0,0,.36.45,1.54,1.54,0,0,0,.52.29,1.87,1.87,0,0,0,.6.1,3,3,0,0,0,1-.15,2.4,2.4,0,0,0,.8-.45,2.14,2.14,0,0,0,.75-1.67v-1.15Z"/><path class="cls-3" d="M205.37,178.73v-1.3h0a2.51,2.51,0,0,1-1,1.11,2.9,2.9,0,0,1-1.48.39,3.23,3.23,0,0,1-1.17-.19,1.94,1.94,0,0,1-.78-.54,2.17,2.17,0,0,1-.44-.85,4.27,4.27,0,0,1-.14-1.15v-4.69h.88v4.7a2.34,2.34,0,0,0,.46,1.48,2.28,2.28,0,0,0,2.46.26,2.1,2.1,0,0,0,.67-.65,2.93,2.93,0,0,0,.39-.93,4.57,4.57,0,0,0,.13-1.07v-3.79h.88v7.22Z"/><path class="cls-3" d="M213.77,179.59a2.81,2.81,0,0,1-.55,1.09,2.41,2.41,0,0,1-1,.69,4.11,4.11,0,0,1-1.49.24,4.52,4.52,0,0,1-1.06-.13,3,3,0,0,1-.93-.39,2.32,2.32,0,0,1-.69-.68,2,2,0,0,1-.31-1h.88a1.57,1.57,0,0,0,.27.68,1.64,1.64,0,0,0,.49.44,2.17,2.17,0,0,0,.64.24,3.26,3.26,0,0,0,.71.08,2.12,2.12,0,0,0,1.78-.7,3.22,3.22,0,0,0,.55-2v-1h0a2.59,2.59,0,0,1-.9,1.08,2.41,2.41,0,0,1-1.39.41,3.49,3.49,0,0,1-1.48-.29,2.75,2.75,0,0,1-1-.79,3.21,3.21,0,0,1-.58-1.18,5.51,5.51,0,0,1-.18-1.45,4.49,4.49,0,0,1,.22-1.41,3.51,3.51,0,0,1,.63-1.16,3,3,0,0,1,1-.78,3.23,3.23,0,0,1,1.39-.29,2.55,2.55,0,0,1,.76.11,2.4,2.4,0,0,1,.65.32,2.79,2.79,0,0,1,.53.47,2.15,2.15,0,0,1,.36.56h0v-1.25h.88v6.64A5.45,5.45,0,0,1,213.77,179.59Zm-2-1.92a2.3,2.3,0,0,0,.73-.64,2.84,2.84,0,0,0,.44-.92,3.9,3.9,0,0,0,.15-1.06,4.58,4.58,0,0,0-.13-1.06,3.07,3.07,0,0,0-.41-1,2.2,2.2,0,0,0-.72-.7,2,2,0,0,0-1.07-.27,2.12,2.12,0,0,0-1.08.26,2.28,2.28,0,0,0-.74.68,2.81,2.81,0,0,0-.43,1,4.55,4.55,0,0,0-.13,1.1,4,4,0,0,0,.14,1.06,2.7,2.7,0,0,0,.43.92,2.25,2.25,0,0,0,.74.64,2.19,2.19,0,0,0,1.06.24A2,2,0,0,0,211.75,177.66Z"/><path class="cls-3" d="M216.49,168.73v4h0a2.12,2.12,0,0,1,.89-1.06,2.64,2.64,0,0,1,1.41-.4,3.57,3.57,0,0,1,1.27.2,2,2,0,0,1,.82.55,2.06,2.06,0,0,1,.44.87,4.93,4.93,0,0,1,.13,1.16v4.65h-.88v-4.51a4.19,4.19,0,0,0-.08-.86,1.78,1.78,0,0,0-.29-.69,1.42,1.42,0,0,0-.57-.46,2.08,2.08,0,0,0-.89-.17,2.26,2.26,0,0,0-.94.19,2.05,2.05,0,0,0-.7.52,2.41,2.41,0,0,0-.45.78,3.19,3.19,0,0,0-.17,1v4.21h-.88v-10Z"/><path class="cls-3" d="M226,171.5v.74h-1.47v4.87a1.56,1.56,0,0,0,.12.68q.12.25.59.27a6.63,6.63,0,0,0,.76,0v.74h-.78a1.74,1.74,0,0,1-1.23-.34,1.73,1.73,0,0,1-.34-1.27v-4.94H222.4v-.74h1.26v-2.17h.88v2.17Z"/><path class="cls-3" d="M227.94,176.34a2.7,2.7,0,0,0,.43.92,2.45,2.45,0,0,0,.74.67,2.07,2.07,0,0,0,1.08.27,2.14,2.14,0,0,0,1.51-.5,2.64,2.64,0,0,0,.76-1.34h.88a3.53,3.53,0,0,1-1,1.9,3.07,3.07,0,0,1-2.12.67,3.37,3.37,0,0,1-1.48-.3,2.71,2.71,0,0,1-1-.83,3.57,3.57,0,0,1-.58-1.22,5.58,5.58,0,0,1-.19-1.46,5.26,5.26,0,0,1,.19-1.4,3.75,3.75,0,0,1,.58-1.22,2.89,2.89,0,0,1,1-.87,3.12,3.12,0,0,1,1.48-.33,2.86,2.86,0,0,1,2.49,1.27,3.82,3.82,0,0,1,.55,1.3,5.74,5.74,0,0,1,.14,1.49H227.8A3.93,3.93,0,0,0,227.94,176.34Zm4.37-2.7a2.68,2.68,0,0,0-.46-.82,2.26,2.26,0,0,0-.71-.57,2.23,2.23,0,0,0-1.92,0,2.26,2.26,0,0,0-.71.57,2.87,2.87,0,0,0-.47.83,4.1,4.1,0,0,0-.23,1h4.68A3.25,3.25,0,0,0,232.31,173.65Z"/><path class="cls-3" d="M235.36,171.5v1.69h0a2.77,2.77,0,0,1,1-1.36,2.74,2.74,0,0,1,1.69-.43v.88a2.67,2.67,0,0,0-1.09.16,2.41,2.41,0,0,0-1.4,1.37,2.77,2.77,0,0,0-.2,1.06v3.85h-.88V171.5Z"/><path class="cls-3" d="M238.19,177.24h1.18v1.48h-1.18Z"/></g></svg>