<svg id="Layer_1" data-name="Layer 1" xmlns="http://www.w3.org/2000/svg" viewBox="0 0 360 360"><defs><style>.cls-1{fill:#f29d35;}.cls-2{opacity:0.58;}.cls-3{fill:#fef5f3;}</style></defs><title>buttons_female</title><polygon class="cls-1" points="112.48 163.58 215.34 148.45 257.34 183.77 184.3 194.58 93 198.18 89.96 167.91 112.48 163.58"/><g class="cls-2"><path class="cls-3" d="M103,167.61l6.09,8.27h0l-.26-8.45,1,0,.31,10-1.06,0-6.09-8.27h0l.26,8.45-1,0-.31-10Z"/><path class="cls-3" d="M116.2,170.07a3.19,3.19,0,0,1,1.1.79,3.58,3.58,0,0,1,.7,1.19,5,5,0,0,1,.09,3,3.58,3.58,0,0,1-.62,1.23,3.1,3.1,0,0,1-1,.85,3.71,3.71,0,0,1-2.92.09,3.11,3.11,0,0,1-1.1-.79,3.58,3.58,0,0,1-.7-1.19,5,5,0,0,1-.09-3,3.58,3.58,0,0,1,.62-1.23,3.2,3.2,0,0,1,1-.86,3.63,3.63,0,0,1,2.92-.09Zm-2.55.78a2.43,2.43,0,0,0-.77.72,3.17,3.17,0,0,0-.45,1,4,4,0,0,0,.07,2.25,3.18,3.18,0,0,0,.51,1,2.43,2.43,0,0,0,.81.67,2.43,2.43,0,0,0,2.21-.07,2.42,2.42,0,0,0,.77-.72,3.19,3.19,0,0,0,.44-1,4,4,0,0,0-.07-2.25,3.2,3.2,0,0,0-.51-1,2.43,2.43,0,0,0-.81-.67,2.43,2.43,0,0,0-2.21.07Z"/><path class="cls-3" d="M123.56,169.74l2,6.13h0l1.57-6.24,1,0,2,6.13h0l1.65-6.24.94,0-2.1,7.29-1,0-2-6h0l-1.57,6.13-1,0-2.55-7.15Z"/><path class="cls-3" d="M133.94,170.54a2.06,2.06,0,0,1,.58-.77,2.58,2.58,0,0,1,.89-.46,4.41,4.41,0,0,1,1.14-.18,5.1,5.1,0,0,1,1,.06,2.29,2.29,0,0,1,.86.32,1.86,1.86,0,0,1,.64.69,2.55,2.55,0,0,1,.28,1.18l.12,3.83a.46.46,0,0,0,.54.52.69.69,0,0,0,.28-.06l0,.74-.27.05-.3,0a1.34,1.34,0,0,1-.54-.07.72.72,0,0,1-.32-.25,1,1,0,0,1-.16-.39,3.33,3.33,0,0,1-.05-.51h0a5.69,5.69,0,0,1-.46.64,2.32,2.32,0,0,1-.53.47,2.52,2.52,0,0,1-.68.3,3.82,3.82,0,0,1-.91.13,3.64,3.64,0,0,1-.95-.09,2.11,2.11,0,0,1-.78-.35,1.8,1.8,0,0,1-.54-.64,2.17,2.17,0,0,1-.22-.94,1.86,1.86,0,0,1,.3-1.19,2.11,2.11,0,0,1,.87-.68,5.06,5.06,0,0,1,1.24-.35l1.4-.22.49-.08a.87.87,0,0,0,.34-.16.68.68,0,0,0,.21-.29,1.24,1.24,0,0,0,.06-.48,1.63,1.63,0,0,0-.17-.73,1.17,1.17,0,0,0-.42-.44,1.65,1.65,0,0,0-.61-.21,4.09,4.09,0,0,0-.74,0,2.22,2.22,0,0,0-1.36.44,1.56,1.56,0,0,0-.52,1.3l-.88,0A2.94,2.94,0,0,1,133.94,170.54Zm4.47,2a.5.5,0,0,1-.31.23l-.42.11-1.15.21a6.39,6.39,0,0,0-1.08.26,2.13,2.13,0,0,0-.79.47,1.05,1.05,0,0,0-.29.83,1.27,1.27,0,0,0,.15.59,1.45,1.45,0,0,0,.37.44,1.54,1.54,0,0,0,.53.27,1.87,1.87,0,0,0,.61.08,3,3,0,0,0,1-.18,2.38,2.38,0,0,0,.79-.47,2.13,2.13,0,0,0,.7-1.69l0-1.15Z"/><path class="cls-3" d="M141.11,169.19l2.57,6.08,2-6.23.88,0-2.87,8.41a7.9,7.9,0,0,1-.34.77,1.75,1.75,0,0,1-.36.49,1.24,1.24,0,0,1-.47.27,2.64,2.64,0,0,1-.69.1h-.41a.85.85,0,0,1-.26,0l0-.74.3,0h.3a1.2,1.2,0,0,0,.48-.1,1,1,0,0,0,.32-.24,1.32,1.32,0,0,0,.23-.36l.2-.47.28-.82-3.11-7.1Z"/><path class="cls-3" d="M146.88,174.75l1.18,0,0,1.48-1.18,0Z"/><path class="cls-3" d="M155.06,166l.31,10-1,0-.31-10Z"/><path class="cls-3" d="M158.74,167.36a2.49,2.49,0,0,1-.06.61,2.13,2.13,0,0,1-.21.57,1.81,1.81,0,0,1-.37.47,1.37,1.37,0,0,1-.54.3l0-.6a.65.65,0,0,0,.3-.21,1.35,1.35,0,0,0,.2-.35,1.85,1.85,0,0,0,.11-.4,1.42,1.42,0,0,0,0-.37l-.59,0,0-1.48,1.18,0Z"/><path class="cls-3" d="M161.76,168.55l0,1.22h0a2.77,2.77,0,0,1,.88-1.08,2.56,2.56,0,0,1,1.44-.42,2.46,2.46,0,0,1,1.31.31,1.71,1.71,0,0,1,.81,1,2.22,2.22,0,0,1,.92-1.09,2.73,2.73,0,0,1,1.33-.39q2.39-.07,2.47,2.46l.15,4.9-.88,0-.15-4.86a2.13,2.13,0,0,0-.42-1.35,1.62,1.62,0,0,0-1.34-.43,1.89,1.89,0,0,0-.94.25,1.67,1.67,0,0,0-.58.6,2.49,2.49,0,0,0-.29.84,5.07,5.07,0,0,0-.06,1l.13,4.09-.88,0-.15-4.9a3.07,3.07,0,0,0-.1-.69,1.6,1.6,0,0,0-.27-.57,1.19,1.19,0,0,0-.48-.37A1.67,1.67,0,0,0,164,169a2.19,2.19,0,0,0-1,.23,1.79,1.79,0,0,0-.65.58,2.48,2.48,0,0,0-.36.85,4.23,4.23,0,0,0-.09,1.06l.13,4-.88,0-.23-7.22Z"/><path class="cls-3" d="M176.72,169.2a2.07,2.07,0,0,1,.59-.77,2.58,2.58,0,0,1,.89-.46,4.41,4.41,0,0,1,1.14-.18,5,5,0,0,1,1,.06,2.31,2.31,0,0,1,.86.32,1.86,1.86,0,0,1,.64.69,2.53,2.53,0,0,1,.28,1.18l.12,3.83a.46.46,0,0,0,.53.52.69.69,0,0,0,.28-.06l0,.74-.27.05-.3,0a1.34,1.34,0,0,1-.54-.07.72.72,0,0,1-.32-.25,1,1,0,0,1-.16-.39,3.35,3.35,0,0,1-.05-.51h0a5.83,5.83,0,0,1-.46.64,2.35,2.35,0,0,1-.53.47,2.47,2.47,0,0,1-.68.3,3.76,3.76,0,0,1-.91.13,3.65,3.65,0,0,1-.95-.09A2.12,2.12,0,0,1,177,175a1.8,1.8,0,0,1-.54-.64,2.18,2.18,0,0,1-.22-.94,1.87,1.87,0,0,1,.3-1.19,2.11,2.11,0,0,1,.87-.68,5.06,5.06,0,0,1,1.24-.35l1.4-.22.49-.09a.86.86,0,0,0,.34-.16.68.68,0,0,0,.21-.29,1.22,1.22,0,0,0,.06-.48,1.61,1.61,0,0,0-.17-.73,1.16,1.16,0,0,0-.42-.44,1.63,1.63,0,0,0-.61-.21,4,4,0,0,0-.74,0,2.23,2.23,0,0,0-1.36.44,1.56,1.56,0,0,0-.52,1.3l-.88,0A3,3,0,0,1,176.72,169.2Zm4.48,2a.51.51,0,0,1-.31.23l-.42.11-1.15.21a6.39,6.39,0,0,0-1.08.26,2.12,2.12,0,0,0-.79.47,1,1,0,0,0-.29.83,1.28,1.28,0,0,0,.15.59,1.47,1.47,0,0,0,.37.44,1.55,1.55,0,0,0,.53.27,1.89,1.89,0,0,0,.6.08,3,3,0,0,0,1-.18,2.4,2.4,0,0,0,.79-.47,2.14,2.14,0,0,0,.7-1.69l0-1.15Z"/><path class="cls-3" d="M187.86,167.73l2,6.13h0l1.57-6.24,1,0,2,6.13h0l1.65-6.24.94,0-2.1,7.29-1,0-2-6h0l-1.57,6.13-1,0-2.55-7.15Z"/><path class="cls-3" d="M202.54,167.37a3.19,3.19,0,0,1,1.1.79,3.56,3.56,0,0,1,.7,1.19,5,5,0,0,1,.09,3,3.57,3.57,0,0,1-.62,1.23,3.12,3.12,0,0,1-1,.85,3.71,3.71,0,0,1-2.92.09,3.11,3.11,0,0,1-1.1-.79,3.56,3.56,0,0,1-.7-1.19,5,5,0,0,1-.09-3,3.57,3.57,0,0,1,.62-1.23,3.19,3.19,0,0,1,1-.86,3.63,3.63,0,0,1,2.92-.09Zm-2.55.78a2.43,2.43,0,0,0-.77.72,3.17,3.17,0,0,0-.45,1,4.06,4.06,0,0,0,.07,2.25,3.18,3.18,0,0,0,.51,1,2.44,2.44,0,0,0,.81.68,2.44,2.44,0,0,0,2.21-.07,2.41,2.41,0,0,0,.77-.72,3.18,3.18,0,0,0,.44-1,4,4,0,0,0-.07-2.25,3.2,3.2,0,0,0-.51-1,2.42,2.42,0,0,0-.81-.67,2.43,2.43,0,0,0-2.21.07Z"/><path class="cls-3" d="M206.61,167.14l0,1.22h0a2.77,2.77,0,0,1,.88-1.08,2.55,2.55,0,0,1,1.44-.42,2.46,2.46,0,0,1,1.31.31,1.71,1.71,0,0,1,.81,1,2.22,2.22,0,0,1,.92-1.09,2.73,2.73,0,0,1,1.33-.39q2.39-.07,2.47,2.46l.15,4.9-.88,0-.15-4.86a2.13,2.13,0,0,0-.42-1.35,1.62,1.62,0,0,0-1.34-.43,1.89,1.89,0,0,0-.94.25,1.67,1.67,0,0,0-.58.6,2.49,2.49,0,0,0-.29.84,5.07,5.07,0,0,0-.06,1l.13,4.09-.88,0-.15-4.9a3.07,3.07,0,0,0-.1-.69,1.62,1.62,0,0,0-.27-.57,1.2,1.2,0,0,0-.48-.37,1.66,1.66,0,0,0-.72-.12,2.19,2.19,0,0,0-1,.23,1.79,1.79,0,0,0-.65.58,2.48,2.48,0,0,0-.36.85,4.23,4.23,0,0,0-.09,1.06l.13,4-.88,0-.23-7.22Z"/><path class="cls-3" d="M217.67,167.92a2.06,2.06,0,0,1,.58-.77,2.59,2.59,0,0,1,.89-.46,4.41,4.41,0,0,1,1.14-.18,5,5,0,0,1,1,.06,2.29,2.29,0,0,1,.86.32,1.87,1.87,0,0,1,.64.69,2.55,2.55,0,0,1,.28,1.18l.12,3.83a.46.46,0,0,0,.54.52A.69.69,0,0,0,224,173l0,.74-.27.05-.3,0a1.34,1.34,0,0,1-.54-.07.72.72,0,0,1-.32-.25,1,1,0,0,1-.16-.39,3.35,3.35,0,0,1-.05-.51h0a5.83,5.83,0,0,1-.46.64,2.33,2.33,0,0,1-.53.47,2.5,2.5,0,0,1-.68.3,3.8,3.8,0,0,1-.91.13,3.65,3.65,0,0,1-.95-.09,2.13,2.13,0,0,1-.78-.35,1.79,1.79,0,0,1-.54-.64,2.17,2.17,0,0,1-.22-.94,1.87,1.87,0,0,1,.3-1.19,2.12,2.12,0,0,1,.87-.68,5.08,5.08,0,0,1,1.24-.35l1.4-.22.49-.09a.86.86,0,0,0,.34-.16.67.67,0,0,0,.21-.29,1.22,1.22,0,0,0,.06-.48,1.62,1.62,0,0,0-.17-.73,1.17,1.17,0,0,0-.42-.44,1.64,1.64,0,0,0-.61-.21,4,4,0,0,0-.74,0,2.23,2.23,0,0,0-1.36.44,1.56,1.56,0,0,0-.52,1.3l-.88,0A2.94,2.94,0,0,1,217.67,167.92Zm4.47,2a.5.5,0,0,1-.31.23l-.42.11-1.15.21a6.34,6.34,0,0,0-1.08.27,2.12,2.12,0,0,0-.79.47,1.05,1.05,0,0,0-.29.83,1.26,1.26,0,0,0,.15.59,1.43,1.43,0,0,0,.37.44,1.54,1.54,0,0,0,.53.27,1.89,1.89,0,0,0,.61.08,3,3,0,0,0,1-.18,2.39,2.39,0,0,0,.79-.47,2.13,2.13,0,0,0,.7-1.69l0-1.15Z"/><path class="cls-3" d="M225.59,166.55l0,1.25h0a2.12,2.12,0,0,1,.86-1.08,2.63,2.63,0,0,1,1.4-.44,3.57,3.57,0,0,1,1.27.16,2,2,0,0,1,.84.53,2.07,2.07,0,0,1,.46.86,4.93,4.93,0,0,1,.16,1.16l.15,4.65-.88,0-.14-4.51a4.26,4.26,0,0,0-.11-.86,1.8,1.8,0,0,0-.32-.68,1.42,1.42,0,0,0-.58-.44,2.08,2.08,0,0,0-.9-.14,2.25,2.25,0,0,0-.94.22,2,2,0,0,0-.68.54,2.39,2.39,0,0,0-.42.8,3.17,3.17,0,0,0-.14,1l.13,4.21-.88,0-.23-7.22Z"/><path class="cls-3" d="M127.24,179.86l.14,4.34,5.93-.19-.14-4.34,1,0,.31,10-1,0-.15-4.84-5.93.19.15,4.84-1,0-.31-10Z"/><path class="cls-3" d="M136.87,187.17a2.68,2.68,0,0,0,.46.9,2.43,2.43,0,0,0,.76.65,2.08,2.08,0,0,0,1.09.23,2.14,2.14,0,0,0,1.49-.55,2.65,2.65,0,0,0,.71-1.37l.88,0a3.52,3.52,0,0,1-1,1.93,3.07,3.07,0,0,1-2.1.74,3.37,3.37,0,0,1-1.49-.25,2.73,2.73,0,0,1-1-.79,3.57,3.57,0,0,1-.62-1.2,5.49,5.49,0,0,1-.24-1.46,5.21,5.21,0,0,1,.15-1.4,3.74,3.74,0,0,1,.54-1.24,2.92,2.92,0,0,1,1-.9,3.12,3.12,0,0,1,1.47-.38,2.86,2.86,0,0,1,2.52,1.19,3.78,3.78,0,0,1,.59,1.28,5.78,5.78,0,0,1,.19,1.49l-5.56.17A3.88,3.88,0,0,0,136.87,187.17Zm4.28-2.83a2.65,2.65,0,0,0-.48-.8,2.26,2.26,0,0,0-.73-.55,2,2,0,0,0-1-.19,2.07,2.07,0,0,0-1,.25,2.27,2.27,0,0,0-.7.6,2.9,2.9,0,0,0-.44.84,4.1,4.1,0,0,0-.2,1l4.67-.15A3.22,3.22,0,0,0,141.15,184.34Z"/><path class="cls-3" d="M143.54,183.24a2.07,2.07,0,0,1,.58-.77A2.59,2.59,0,0,1,145,182a4.4,4.4,0,0,1,1.14-.18,5,5,0,0,1,1,.06,2.3,2.3,0,0,1,.86.32,1.86,1.86,0,0,1,.64.69,2.56,2.56,0,0,1,.28,1.18l.12,3.83a.46.46,0,0,0,.53.52.69.69,0,0,0,.28-.06l0,.74-.27.05-.3,0a1.33,1.33,0,0,1-.54-.07.71.71,0,0,1-.32-.25.94.94,0,0,1-.16-.39,3.35,3.35,0,0,1-.05-.51h0a5.79,5.79,0,0,1-.46.64,2.41,2.41,0,0,1-.53.47,2.49,2.49,0,0,1-.68.3,3.76,3.76,0,0,1-.91.13,3.62,3.62,0,0,1-.95-.09,2.11,2.11,0,0,1-.78-.35,1.81,1.81,0,0,1-.54-.64,2.18,2.18,0,0,1-.22-.94,1.86,1.86,0,0,1,.3-1.19,2.1,2.1,0,0,1,.87-.68,5.06,5.06,0,0,1,1.24-.35l1.4-.22.49-.09a.86.86,0,0,0,.34-.16.68.68,0,0,0,.21-.29A1.23,1.23,0,0,0,148,184a1.6,1.6,0,0,0-.17-.73,1.17,1.17,0,0,0-.42-.44,1.65,1.65,0,0,0-.61-.21,4,4,0,0,0-.74,0,2.23,2.23,0,0,0-1.36.44,1.56,1.56,0,0,0-.52,1.3l-.88,0A2.92,2.92,0,0,1,143.54,183.24Zm4.47,2a.5.5,0,0,1-.31.23l-.42.11-1.15.21a6.44,6.44,0,0,0-1.08.26,2.14,2.14,0,0,0-.79.47,1.06,1.06,0,0,0-.29.83,1.28,1.28,0,0,0,.15.59,1.42,1.42,0,0,0,.37.44,1.53,1.53,0,0,0,.53.27,1.9,1.9,0,0,0,.6.08,3,3,0,0,0,1-.18,2.36,2.36,0,0,0,.79-.47,2.18,2.18,0,0,0,.52-.73,2.15,2.15,0,0,0,.17-1l0-1.15Z"/><path class="cls-3" d="M151.4,181.88l.05,1.69h0a2.78,2.78,0,0,1,1-1.39,2.73,2.73,0,0,1,1.67-.49l0,.88a2.67,2.67,0,0,0-1.09.19,2.41,2.41,0,0,0-1.36,1.42,2.8,2.8,0,0,0-.16,1.06l.12,3.85-.88,0-.23-7.22Z"/><path class="cls-3" d="M159.7,181.62l0,1.22h0a2.75,2.75,0,0,1,.88-1.08,2.56,2.56,0,0,1,1.44-.42,2.47,2.47,0,0,1,1.31.31,1.72,1.72,0,0,1,.81,1,2.22,2.22,0,0,1,.92-1.09,2.73,2.73,0,0,1,1.33-.39q2.39-.07,2.47,2.46l.15,4.9-.88,0-.15-4.86a2.13,2.13,0,0,0-.42-1.35,1.62,1.62,0,0,0-1.34-.43,1.89,1.89,0,0,0-.95.25,1.67,1.67,0,0,0-.58.6,2.47,2.47,0,0,0-.29.84,5.15,5.15,0,0,0-.06,1l.13,4.09-.88,0-.15-4.9a3.07,3.07,0,0,0-.1-.69,1.61,1.61,0,0,0-.27-.57,1.17,1.17,0,0,0-.48-.37,1.64,1.64,0,0,0-.72-.12,2.19,2.19,0,0,0-1,.23,1.79,1.79,0,0,0-.65.58,2.5,2.5,0,0,0-.36.85,4.19,4.19,0,0,0-.09,1.06l.13,4-.88,0-.23-7.22Z"/><path class="cls-3" d="M171.34,186.09a2.7,2.7,0,0,0,.46.9,2.44,2.44,0,0,0,.76.65,2.08,2.08,0,0,0,1.09.23,2.14,2.14,0,0,0,1.49-.55,2.65,2.65,0,0,0,.71-1.37l.88,0a3.52,3.52,0,0,1-1,1.93,3.07,3.07,0,0,1-2.1.74,3.37,3.37,0,0,1-1.49-.25,2.72,2.72,0,0,1-1-.79,3.58,3.58,0,0,1-.62-1.2,5.5,5.5,0,0,1-.24-1.46,5.21,5.21,0,0,1,.15-1.4,3.76,3.76,0,0,1,.54-1.24,2.92,2.92,0,0,1,1-.9,3.12,3.12,0,0,1,1.47-.38,2.85,2.85,0,0,1,2.52,1.19,3.78,3.78,0,0,1,.59,1.28,5.73,5.73,0,0,1,.19,1.49l-5.56.17A3.88,3.88,0,0,0,171.34,186.09Zm4.28-2.83a2.67,2.67,0,0,0-.48-.8,2.26,2.26,0,0,0-.73-.55,2,2,0,0,0-1-.19,2.07,2.07,0,0,0-1,.25,2.26,2.26,0,0,0-.7.6,2.88,2.88,0,0,0-.44.84,4.06,4.06,0,0,0-.2,1l4.67-.15A3.21,3.21,0,0,0,175.62,183.26Z"/><path class="cls-3" d="M182.5,180.9l.05,1.69h0a2.78,2.78,0,0,1,1-1.39,2.73,2.73,0,0,1,1.67-.49l0,.88a2.66,2.66,0,0,0-1.09.2,2.41,2.41,0,0,0-1.36,1.41,2.8,2.8,0,0,0-.16,1.06l.12,3.85-.88,0-.23-7.22Z"/><path class="cls-3" d="M190.36,180.75a3.19,3.19,0,0,1,1.1.79,3.58,3.58,0,0,1,.7,1.19,5,5,0,0,1,.09,3,3.58,3.58,0,0,1-.62,1.23,3.11,3.11,0,0,1-1,.85,3.71,3.71,0,0,1-2.93.09,3.12,3.12,0,0,1-1.1-.79,3.57,3.57,0,0,1-.7-1.19,5,5,0,0,1-.09-3,3.56,3.56,0,0,1,.62-1.23,3.19,3.19,0,0,1,1-.86,3.63,3.63,0,0,1,2.93-.09Zm-2.54.78a2.39,2.39,0,0,0-.77.72,3.18,3.18,0,0,0-.45,1,4,4,0,0,0,.07,2.25,3.17,3.17,0,0,0,.51,1,2.41,2.41,0,0,0,.81.68,2.44,2.44,0,0,0,2.21-.07,2.44,2.44,0,0,0,.77-.73,3.18,3.18,0,0,0,.44-1,4,4,0,0,0-.07-2.25,3.21,3.21,0,0,0-.51-1,2.45,2.45,0,0,0-.81-.67,2.42,2.42,0,0,0-2.21.07Z"/><path class="cls-3" d="M193.85,181.67a2,2,0,0,1,.58-.77,2.58,2.58,0,0,1,.89-.46,4.4,4.4,0,0,1,1.14-.18,5,5,0,0,1,1,.06,2.29,2.29,0,0,1,.87.32,1.86,1.86,0,0,1,.64.69,2.56,2.56,0,0,1,.28,1.18l.12,3.83a.46.46,0,0,0,.53.52.69.69,0,0,0,.28-.06l0,.74-.27.05-.3,0a1.32,1.32,0,0,1-.54-.07.71.71,0,0,1-.32-.25.94.94,0,0,1-.16-.39,3.35,3.35,0,0,1-.05-.51h0a5.62,5.62,0,0,1-.46.64,2.37,2.37,0,0,1-.53.47,2.49,2.49,0,0,1-.68.3,3.78,3.78,0,0,1-.91.13,3.62,3.62,0,0,1-.95-.09,2.1,2.1,0,0,1-.78-.35,1.81,1.81,0,0,1-.54-.64,2.18,2.18,0,0,1-.22-.94,1.86,1.86,0,0,1,.3-1.19,2.1,2.1,0,0,1,.87-.68,5.06,5.06,0,0,1,1.24-.35l1.4-.22.49-.09a.86.86,0,0,0,.34-.16.68.68,0,0,0,.21-.29,1.23,1.23,0,0,0,.06-.48,1.61,1.61,0,0,0-.17-.73,1.17,1.17,0,0,0-.42-.44,1.64,1.64,0,0,0-.61-.21,4,4,0,0,0-.74,0,2.23,2.23,0,0,0-1.36.44,1.56,1.56,0,0,0-.52,1.3l-.88,0A2.92,2.92,0,0,1,193.85,181.67Zm4.47,2a.5.5,0,0,1-.31.23l-.42.11-1.15.21a6.44,6.44,0,0,0-1.08.26,2.14,2.14,0,0,0-.79.47,1.06,1.06,0,0,0-.29.83,1.28,1.28,0,0,0,.15.59,1.42,1.42,0,0,0,.37.44,1.53,1.53,0,0,0,.52.27,1.91,1.91,0,0,0,.61.08,3,3,0,0,0,1-.18,2.36,2.36,0,0,0,.79-.47,2.18,2.18,0,0,0,.52-.73,2.15,2.15,0,0,0,.17-1l0-1.15Z"/><path class="cls-3" d="M201.7,180.3l.05,1.69h0a2.78,2.78,0,0,1,1-1.39,2.73,2.73,0,0,1,1.67-.49l0,.88a2.66,2.66,0,0,0-1.09.19,2.41,2.41,0,0,0-1.36,1.42,2.8,2.8,0,0,0-.16,1.06l.12,3.85-.88,0-.23-7.22Z"/><path class="cls-3" d="M205.59,177.41l1,0,.09,3-.07,4.53-.53,0-.35-4.51Zm.15,8.51,1.18,0,0,1.48-1.18,0Z"/></g></svg>