<svg id="Layer_1" data-name="Layer 1" xmlns="http://www.w3.org/2000/svg" viewBox="0 0 360 360"><defs><style>.cls-1{fill:#f29d35;}.cls-2{opacity:0.58;}.cls-3{fill:#fef5f3;}</style></defs><title>buttons_female</title><polygon class="cls-1" points="127.31 157.49 182.69 152.66 232.15 164.48 235.38 195.67 159.57 186.53 111.18 178.46 127.31 157.49"/><g class="cls-2"><path class="cls-3" d="M139,166.06l-.47,10-1,0,.47-10Z"/><path class="cls-3" d="M141.63,169l-.06,1.24h0a2.11,2.11,0,0,1,.95-1,2.63,2.63,0,0,1,1.43-.33,3.55,3.55,0,0,1,1.26.26,2,2,0,0,1,.79.59,2,2,0,0,1,.39.89,5,5,0,0,1,.07,1.17l-.22,4.64-.88,0,.21-4.5a4.19,4.19,0,0,0,0-.86,1.78,1.78,0,0,0-.26-.71,1.43,1.43,0,0,0-.54-.49,2.09,2.09,0,0,0-.88-.21,2.24,2.24,0,0,0-1,.14,2,2,0,0,0-.72.48,2.41,2.41,0,0,0-.49.76,3.2,3.2,0,0,0-.22,1l-.2,4.21-.88,0,.34-7.22Z"/><path class="cls-3" d="M152.29,170.59a2.06,2.06,0,0,1,.64-.73,2.58,2.58,0,0,1,.92-.39,4.43,4.43,0,0,1,1.15-.09,5.15,5.15,0,0,1,.95.14,2.29,2.29,0,0,1,.84.38,1.85,1.85,0,0,1,.58.74,2.55,2.55,0,0,1,.18,1.19l-.18,3.83a.46.46,0,0,0,.49.56.68.68,0,0,0,.28,0l0,.74-.27,0h-.3a1.33,1.33,0,0,1-.53-.12.72.72,0,0,1-.3-.27.94.94,0,0,1-.13-.41,3.34,3.34,0,0,1,0-.51h0a5.81,5.81,0,0,1-.51.6,2.33,2.33,0,0,1-.57.43,2.5,2.5,0,0,1-.7.25,3.85,3.85,0,0,1-.92.05,3.62,3.62,0,0,1-.94-.16,2.1,2.1,0,0,1-.75-.41,1.8,1.8,0,0,1-.49-.68,2.17,2.17,0,0,1-.14-1,1.86,1.86,0,0,1,.39-1.17,2.11,2.11,0,0,1,.92-.61,5.06,5.06,0,0,1,1.26-.26l1.41-.11.49,0a.88.88,0,0,0,.36-.13.69.69,0,0,0,.23-.28,1.22,1.22,0,0,0,.1-.47,1.61,1.61,0,0,0-.11-.74,1.18,1.18,0,0,0-.38-.47,1.65,1.65,0,0,0-.59-.26,4.09,4.09,0,0,0-.73-.1,2.22,2.22,0,0,0-1.39.33,1.56,1.56,0,0,0-.62,1.25l-.88,0A2.93,2.93,0,0,1,152.29,170.59Zm4.3,2.36a.5.5,0,0,1-.33.21l-.42.08-1.16.12a6.37,6.37,0,0,0-1.09.18,2.13,2.13,0,0,0-.83.4,1.05,1.05,0,0,0-.35.8,1.27,1.27,0,0,0,.1.6,1.44,1.44,0,0,0,.34.46,1.55,1.55,0,0,0,.5.31,1.9,1.9,0,0,0,.6.13,3,3,0,0,0,1-.11,2.37,2.37,0,0,0,.82-.41,2.17,2.17,0,0,0,.58-.69,2.15,2.15,0,0,0,.25-.94l.06-1.15Z"/><path class="cls-3" d="M164.3,167.26l-.19,4h0a2.12,2.12,0,0,1,.95-1,2.64,2.64,0,0,1,1.43-.33,3.56,3.56,0,0,1,1.26.26,2,2,0,0,1,.79.59,2.08,2.08,0,0,1,.39.89,5,5,0,0,1,.07,1.17l-.22,4.64-.88,0,.21-4.5a4.17,4.17,0,0,0,0-.86,1.81,1.81,0,0,0-.26-.71,1.43,1.43,0,0,0-.54-.49,2.09,2.09,0,0,0-.88-.21,2.26,2.26,0,0,0-1,.14,2,2,0,0,0-.72.48,2.38,2.38,0,0,0-.49.76,3.17,3.17,0,0,0-.22,1l-.2,4.21-.88,0,.47-10Z"/><path class="cls-3" d="M171.23,175.21a2.72,2.72,0,0,0,.38.94,2.47,2.47,0,0,0,.71.71,2.07,2.07,0,0,0,1.06.32,2.14,2.14,0,0,0,1.53-.43,2.64,2.64,0,0,0,.82-1.31l.88,0a3.52,3.52,0,0,1-1.12,1.85,3.07,3.07,0,0,1-2.15.57,3.38,3.38,0,0,1-1.46-.37,2.71,2.71,0,0,1-1-.87,3.57,3.57,0,0,1-.52-1.24,5.57,5.57,0,0,1-.12-1.47,5.25,5.25,0,0,1,.26-1.39,3.75,3.75,0,0,1,.64-1.2,2.89,2.89,0,0,1,1.05-.82,3.11,3.11,0,0,1,1.49-.26,2.86,2.86,0,0,1,2.42,1.38,3.81,3.81,0,0,1,.49,1.33,5.74,5.74,0,0,1,.07,1.5l-5.55-.26A3.93,3.93,0,0,0,171.23,175.21Zm4.49-2.48a2.68,2.68,0,0,0-.42-.84,2.27,2.27,0,0,0-.69-.61,2.23,2.23,0,0,0-1.92-.09,2.26,2.26,0,0,0-.74.54,2.88,2.88,0,0,0-.51.8,4.05,4.05,0,0,0-.28.95l4.67.22A3.21,3.21,0,0,0,175.72,172.72Z"/><path class="cls-3" d="M178.2,171.82a2.07,2.07,0,0,1,.64-.73,2.56,2.56,0,0,1,.92-.39,4.35,4.35,0,0,1,1.15-.09,5.06,5.06,0,0,1,.95.14,2.31,2.31,0,0,1,.84.38,1.86,1.86,0,0,1,.58.74,2.53,2.53,0,0,1,.18,1.19l-.18,3.83a.46.46,0,0,0,.49.56.67.67,0,0,0,.28,0l0,.74-.27,0h-.3a1.33,1.33,0,0,1-.53-.12.73.73,0,0,1-.3-.27.94.94,0,0,1-.13-.41,3.33,3.33,0,0,1,0-.51h0a5.74,5.74,0,0,1-.51.6,2.31,2.31,0,0,1-.57.43,2.49,2.49,0,0,1-.7.25,3.83,3.83,0,0,1-.92.05,3.63,3.63,0,0,1-.94-.16,2.13,2.13,0,0,1-.75-.41,1.81,1.81,0,0,1-.49-.68,2.19,2.19,0,0,1-.14-1,1.87,1.87,0,0,1,.39-1.17,2.12,2.12,0,0,1,.92-.61A5.1,5.1,0,0,1,180,174l1.41-.11.49,0a.86.86,0,0,0,.36-.13.68.68,0,0,0,.23-.28,1.22,1.22,0,0,0,.1-.47,1.61,1.61,0,0,0-.11-.74,1.16,1.16,0,0,0-.38-.47,1.65,1.65,0,0,0-.59-.26,4.09,4.09,0,0,0-.73-.1,2.22,2.22,0,0,0-1.39.33,1.56,1.56,0,0,0-.62,1.25l-.88,0A3,3,0,0,1,178.2,171.82Zm4.3,2.36a.51.51,0,0,1-.33.21l-.42.08-1.16.12a6.34,6.34,0,0,0-1.09.18,2.13,2.13,0,0,0-.83.4,1,1,0,0,0-.35.8,1.29,1.29,0,0,0,.1.6,1.46,1.46,0,0,0,.34.46,1.54,1.54,0,0,0,.5.31,1.88,1.88,0,0,0,.6.13,3,3,0,0,0,1-.11,2.42,2.42,0,0,0,.82-.41,2.14,2.14,0,0,0,.83-1.63l.06-1.15Z"/><path class="cls-3" d="M186.14,171.07l-.08,1.69h0a2.77,2.77,0,0,1,1.11-1.31,2.73,2.73,0,0,1,1.71-.35l0,.88a2.67,2.67,0,0,0-1.1.11,2.41,2.41,0,0,0-1.46,1.3,2.79,2.79,0,0,0-.25,1l-.18,3.85-.88,0,.34-7.22Z"/><path class="cls-3" d="M192.6,171.38l0,.74-1.47-.07-.23,4.87a1.56,1.56,0,0,0,.09.68q.11.25.58.3a7,7,0,0,0,.76,0l0,.74h-.78a1.3,1.3,0,0,1-1.49-1.68l.24-4.94L189,172l0-.74,1.26.06.1-2.17.88,0-.1,2.17Z"/><path class="cls-3" d="M194.88,168.71l-.2,4.14h0a2.09,2.09,0,0,1,.43-.67,2.51,2.51,0,0,1,.62-.47,2.63,2.63,0,0,1,.74-.27,3.22,3.22,0,0,1,.79-.06,3.15,3.15,0,0,1,1.42.38,2.94,2.94,0,0,1,1,.88,3.53,3.53,0,0,1,.54,1.25,5.56,5.56,0,0,1-.14,2.92,3.55,3.55,0,0,1-.66,1.19,2.89,2.89,0,0,1-1.05.78,3.21,3.21,0,0,1-1.45.23,3.06,3.06,0,0,1-1.55-.48,2.32,2.32,0,0,1-.94-1.21h0l-.07,1.37-.81,0,.47-10Zm4.51,5.49a3.1,3.1,0,0,0-.37-1,2.31,2.31,0,0,0-.7-.74,2,2,0,0,0-1.06-.32,2.36,2.36,0,0,0-1.19.22,2.33,2.33,0,0,0-.82.67,2.89,2.89,0,0,0-.48,1,4.68,4.68,0,0,0-.11,2.22,2.89,2.89,0,0,0,.39,1,2.32,2.32,0,0,0,.75.74,2.36,2.36,0,0,0,1.17.33,2,2,0,0,0,1.09-.22,2.29,2.29,0,0,0,.77-.67,3.09,3.09,0,0,0,.47-1,4.72,4.72,0,0,0,.11-2.22Z"/><path class="cls-3" d="M202.32,176.68a2.74,2.74,0,0,0,.38.94,2.46,2.46,0,0,0,.71.71,2.07,2.07,0,0,0,1.06.32,2.14,2.14,0,0,0,1.53-.43,2.64,2.64,0,0,0,.82-1.31l.88,0a3.53,3.53,0,0,1-1.12,1.85,3.07,3.07,0,0,1-2.15.57A3.38,3.38,0,0,1,203,179a2.71,2.71,0,0,1-1-.87,3.57,3.57,0,0,1-.52-1.24,5.57,5.57,0,0,1-.12-1.47,5.26,5.26,0,0,1,.26-1.39,3.75,3.75,0,0,1,.64-1.19,2.89,2.89,0,0,1,1.05-.82,3.11,3.11,0,0,1,1.49-.26,2.86,2.86,0,0,1,2.42,1.38,3.83,3.83,0,0,1,.49,1.33,5.74,5.74,0,0,1,.07,1.5l-5.55-.26A4,4,0,0,0,202.32,176.68Zm4.49-2.49a2.69,2.69,0,0,0-.42-.84,2.26,2.26,0,0,0-.69-.61,2.23,2.23,0,0,0-1.92-.09,2.27,2.27,0,0,0-.74.54,2.9,2.9,0,0,0-.51.8,4.05,4.05,0,0,0-.28.95l4.67.22A3.25,3.25,0,0,0,206.81,174.2Z"/><path class="cls-3" d="M209.28,173.29a2.06,2.06,0,0,1,.64-.73,2.56,2.56,0,0,1,.92-.39,4.39,4.39,0,0,1,1.15-.08,5,5,0,0,1,.95.14,2.32,2.32,0,0,1,.84.38,1.86,1.86,0,0,1,.58.74,2.53,2.53,0,0,1,.18,1.19l-.18,3.83a.46.46,0,0,0,.49.56.7.7,0,0,0,.28,0l0,.74-.27,0h-.3a1.35,1.35,0,0,1-.53-.12.73.73,0,0,1-.3-.27,1,1,0,0,1-.13-.41,3.33,3.33,0,0,1,0-.51h0a5.74,5.74,0,0,1-.51.6,2.36,2.36,0,0,1-.57.43,2.49,2.49,0,0,1-.7.25,3.78,3.78,0,0,1-.92.05,3.67,3.67,0,0,1-.94-.16,2.13,2.13,0,0,1-.75-.41,1.81,1.81,0,0,1-.49-.68,2.18,2.18,0,0,1-.14-1,1.87,1.87,0,0,1,.39-1.17,2.11,2.11,0,0,1,.92-.61,5.07,5.07,0,0,1,1.26-.26l1.41-.11.49,0a.86.86,0,0,0,.36-.13.68.68,0,0,0,.23-.28,1.21,1.21,0,0,0,.1-.47,1.62,1.62,0,0,0-.11-.74,1.16,1.16,0,0,0-.38-.47,1.63,1.63,0,0,0-.59-.26,4,4,0,0,0-.73-.1,2.22,2.22,0,0,0-1.39.33,1.56,1.56,0,0,0-.62,1.25l-.88,0A3,3,0,0,1,209.28,173.29Zm4.3,2.36a.51.51,0,0,1-.33.21,3.21,3.21,0,0,1-.42.08l-1.16.12a6.43,6.43,0,0,0-1.09.18,2.12,2.12,0,0,0-.83.4,1,1,0,0,0-.35.8,1.28,1.28,0,0,0,.1.6,1.47,1.47,0,0,0,.34.46,1.54,1.54,0,0,0,.5.31,1.88,1.88,0,0,0,.6.13,3,3,0,0,0,1-.11,2.4,2.4,0,0,0,.82-.41,2.13,2.13,0,0,0,.83-1.63l.06-1.15Z"/><path class="cls-3" d="M219.28,172.65l0,.74-1.47-.07-.23,4.87a1.56,1.56,0,0,0,.09.68c.07.17.26.27.58.3a6.54,6.54,0,0,0,.76,0l0,.74h-.78a1.74,1.74,0,0,1-1.21-.4,1.72,1.72,0,0,1-.28-1.28l.24-4.94-1.26-.06,0-.74,1.26.06.1-2.17.88,0-.1,2.17Z"/></g></svg>