<svg id="Layer_1" data-name="Layer 1" xmlns="http://www.w3.org/2000/svg" viewBox="0 0 360 360"><defs><style>.cls-1{fill:#f27649;}.cls-2{opacity:0.58;}.cls-3{fill:#fef5f3;}</style></defs><title>buttons_female</title><polygon class="cls-1" points="120.17 169.47 157.14 147.43 203.03 150.66 230.76 170.55 226.3 193.13 196.02 202.81 146.62 192.59 115.7 180.23 120.17 169.47"/><g class="cls-2"><path class="cls-3" d="M139.48,168.47a2.12,2.12,0,0,0,.67.85,2.91,2.91,0,0,0,1,.47,5.88,5.88,0,0,0,1.28.17,3.63,3.63,0,0,0,.86-.08,3,3,0,0,0,.87-.33,2.2,2.2,0,0,0,.68-.61,1.6,1.6,0,0,0,.3-.92,1.38,1.38,0,0,0-.17-.73,1.73,1.73,0,0,0-.47-.53,2.91,2.91,0,0,0-.65-.36,6.71,6.71,0,0,0-.71-.24l-2.21-.62a6.5,6.5,0,0,1-.84-.31,2.37,2.37,0,0,1-.71-.47,2.11,2.11,0,0,1-.48-.7,2.34,2.34,0,0,1-.16-1,3.22,3.22,0,0,1,.17-.85,2.38,2.38,0,0,1,.55-.91,3.05,3.05,0,0,1,1.08-.7,4.25,4.25,0,0,1,1.73-.25,5,5,0,0,1,1.41.24,3.49,3.49,0,0,1,1.16.63,2.83,2.83,0,0,1,1,2.36l-1,0a2.33,2.33,0,0,0-.23-1,2.26,2.26,0,0,0-.58-.73,2.65,2.65,0,0,0-.84-.46,3.49,3.49,0,0,0-1-.18,4.17,4.17,0,0,0-.95.08,2.35,2.35,0,0,0-.81.31,1.73,1.73,0,0,0-.57.59,1.91,1.91,0,0,0-.24.93,1.43,1.43,0,0,0,.1.61,1.25,1.25,0,0,0,.31.45,1.75,1.75,0,0,0,.47.31,3.82,3.82,0,0,0,.58.2l2.42.68a7,7,0,0,1,1,.37,3.28,3.28,0,0,1,.81.53,2.12,2.12,0,0,1,.54.75,2.47,2.47,0,0,1,.17,1.06,3.92,3.92,0,0,1-.05.45,2.29,2.29,0,0,1-.19.59,2.94,2.94,0,0,1-.4.63,2.39,2.39,0,0,1-.69.56,3.92,3.92,0,0,1-1.07.39,6.19,6.19,0,0,1-1.52.11,6.27,6.27,0,0,1-1.63-.25,3.51,3.51,0,0,1-1.27-.66,2.73,2.73,0,0,1-.78-1.1,3.52,3.52,0,0,1-.2-1.59l1,0A2.8,2.8,0,0,0,139.48,168.47Z"/><path class="cls-3" d="M149.23,160.77l3,8.86L156,161l1.4,0-.31,10-1,0,.27-8.63h0l-3.68,8.53-.9,0-3-8.74h0l-.27,8.63-1,0,.31-10Z"/><path class="cls-3" d="M163.33,161.22l3.6,10.11-1,0-1.12-3.15-4.55-.14-1.3,3.07-1,0,4.33-9.86Zm1.17,6.12-1.77-5.18-2.16,5.06Z"/><path class="cls-3" d="M168.6,169.38a2.11,2.11,0,0,0,.67.85,2.92,2.92,0,0,0,1,.47,5.94,5.94,0,0,0,1.28.17,3.68,3.68,0,0,0,.86-.08,3,3,0,0,0,.87-.33,2.2,2.2,0,0,0,.68-.61,1.6,1.6,0,0,0,.3-.92,1.38,1.38,0,0,0-.17-.73,1.73,1.73,0,0,0-.47-.53,2.87,2.87,0,0,0-.65-.36,6.67,6.67,0,0,0-.71-.24l-2.21-.62a6.62,6.62,0,0,1-.84-.31,2.38,2.38,0,0,1-.71-.47,2.11,2.11,0,0,1-.48-.7,2.33,2.33,0,0,1-.16-1,3.22,3.22,0,0,1,.17-.85,2.38,2.38,0,0,1,.55-.91,3,3,0,0,1,1.08-.7,4.23,4.23,0,0,1,1.73-.25,5,5,0,0,1,1.41.24,3.49,3.49,0,0,1,1.16.62,2.83,2.83,0,0,1,1,2.36l-1,0a2.32,2.32,0,0,0-.23-1,2.26,2.26,0,0,0-.58-.73,2.67,2.67,0,0,0-.84-.46,3.45,3.45,0,0,0-1-.18,4.23,4.23,0,0,0-.95.08,2.37,2.37,0,0,0-.81.31,1.74,1.74,0,0,0-.57.59,1.91,1.91,0,0,0-.24.93,1.43,1.43,0,0,0,.1.61,1.25,1.25,0,0,0,.31.45,1.74,1.74,0,0,0,.47.31,3.7,3.7,0,0,0,.58.2l2.42.68a7,7,0,0,1,1,.37,3.29,3.29,0,0,1,.81.53,2.15,2.15,0,0,1,.54.75,2.49,2.49,0,0,1,.17,1.06,3.92,3.92,0,0,1-.05.45,2.33,2.33,0,0,1-.19.59,3,3,0,0,1-.4.62,2.36,2.36,0,0,1-.69.56,3.92,3.92,0,0,1-1.07.39,6.19,6.19,0,0,1-1.52.11,6.36,6.36,0,0,1-1.63-.25,3.51,3.51,0,0,1-1.27-.66,2.73,2.73,0,0,1-.79-1.1,3.52,3.52,0,0,1-.2-1.59l1,0A2.8,2.8,0,0,0,168.6,169.38Z"/><path class="cls-3" d="M177.93,161.68l-.14,4.34,5.93.19.14-4.34,1,0-.31,10-1,0,.15-4.84-5.93-.19-.15,4.84-1,0,.31-10Z"/><path class="cls-3" d="M197.56,162.3l0,.81L194,163l-.29,9.18-1,0,.29-9.18-3.47-.11,0-.81Z"/><path class="cls-3" d="M199.45,162.36l-.14,4.34,5.93.19.14-4.34,1,0-.31,10-1,0,.15-4.84-5.93-.19-.15,4.84-1,0,.31-10Z"/><path class="cls-3" d="M215.25,162.86l0,.81-5.95-.19-.11,3.61,5.57.18,0,.81-5.57-.18-.12,3.95,6,.19,0,.81-7-.22.31-10Z"/><path class="cls-3" d="M140.74,173.51a3.7,3.7,0,0,1,1.21.23,2.56,2.56,0,0,1,.92.59,2.45,2.45,0,0,1,.57.92,3.55,3.55,0,0,1-.08,2.41,2.46,2.46,0,0,1-.63.88,2.58,2.58,0,0,1-1,.53,3.72,3.72,0,0,1-1.22.15l-3.48-.11-.14,4.28-1,0,.32-10Zm-.36,4.89A2.47,2.47,0,0,0,142,178a2.23,2.23,0,0,0,.1-3.08,2.46,2.46,0,0,0-1.59-.56l-3.28-.1-.13,4.09Z"/><path class="cls-3" d="M148.07,173.74l3.6,10.11-1,0-1.12-3.15-4.55-.14-1.3,3.07-1,0,4.33-9.86Zm1.17,6.11-1.77-5.18-2.16,5.06Z"/><path class="cls-3" d="M158.79,174.08l0,.81-3.48-.11L155,184l-1,0,.29-9.18-3.47-.11,0-.81Z"/><path class="cls-3" d="M164.3,174.26a4.33,4.33,0,0,1,1.16.19,2.81,2.81,0,0,1,.95.5,2.26,2.26,0,0,1,.63.83,2.64,2.64,0,0,1,.21,1.18,2.8,2.8,0,0,1-.54,1.64,2.24,2.24,0,0,1-1.48.85v0a2.21,2.21,0,0,1,.8.28,1.64,1.64,0,0,1,.51.5,2,2,0,0,1,.27.69,5,5,0,0,1,.09.84c0,.17,0,.37,0,.62s0,.49,0,.74a4.6,4.6,0,0,0,.11.7,1.37,1.37,0,0,0,.23.52l-1,0a1.24,1.24,0,0,1-.12-.35,3.24,3.24,0,0,1-.06-.42c0-.15,0-.29,0-.43s0-.26,0-.36q0-.53-.06-1.06a2.89,2.89,0,0,0-.24-.95,1.65,1.65,0,0,0-.57-.68,1.78,1.78,0,0,0-1-.26l-3.61-.11-.14,4.43-1,0,.32-10Zm-.22,4.74a2.54,2.54,0,0,0,.83-.11,2.06,2.06,0,0,0,.7-.36,1.91,1.91,0,0,0,.49-.59,1.83,1.83,0,0,0,.2-.81,2,2,0,0,0-.49-1.47,2.21,2.21,0,0,0-1.61-.58l-3.55-.11-.12,3.93Z"/><path class="cls-3" d="M170.08,174.44l-.32,10-1,0,.32-10Z"/><path class="cls-3" d="M176.15,174.63l3.6,10.11-1,0-1.12-3.14-4.55-.14-1.3,3.07-1,0,4.33-9.86Zm1.17,6.12-1.77-5.18-2.16,5.06Z"/><path class="cls-3" d="M185.56,174.93a4.33,4.33,0,0,1,1.16.19,2.81,2.81,0,0,1,.95.5,2.27,2.27,0,0,1,.63.83,2.62,2.62,0,0,1,.21,1.18,2.81,2.81,0,0,1-.54,1.64,2.24,2.24,0,0,1-1.48.85v0a2.21,2.21,0,0,1,.8.28,1.62,1.62,0,0,1,.51.5,2,2,0,0,1,.27.69,5.06,5.06,0,0,1,.09.84c0,.17,0,.37,0,.62s0,.49,0,.74a4.6,4.6,0,0,0,.11.7,1.34,1.34,0,0,0,.23.52l-1,0a1.24,1.24,0,0,1-.12-.35,3.09,3.09,0,0,1-.06-.42c0-.15,0-.29,0-.43s0-.26,0-.36q0-.53-.06-1.06a2.86,2.86,0,0,0-.24-.95,1.65,1.65,0,0,0-.57-.68,1.78,1.78,0,0,0-1-.26l-3.61-.11-.14,4.43-1,0,.32-10Zm-.22,4.74a2.55,2.55,0,0,0,.83-.11,2.08,2.08,0,0,0,.7-.36,1.94,1.94,0,0,0,.49-.59,1.84,1.84,0,0,0,.2-.81,2,2,0,0,0-.49-1.47,2.21,2.21,0,0,0-1.61-.58l-3.55-.11-.12,3.93Z"/><path class="cls-3" d="M197.15,177.29a2.84,2.84,0,0,0-.68-.78,3.1,3.1,0,0,0-.9-.5,3.33,3.33,0,0,0-1-.19,3.61,3.61,0,0,0-1.72.32,3.4,3.4,0,0,0-1.2,1,4.32,4.32,0,0,0-.72,1.39,6.08,6.08,0,0,0-.1,3.21,4.29,4.29,0,0,0,.63,1.44,3.38,3.38,0,0,0,1.14,1,3.6,3.6,0,0,0,1.7.43,3,3,0,0,0,1.27-.21,3,3,0,0,0,1-.66,3.48,3.48,0,0,0,.69-1,4.27,4.27,0,0,0,.36-1.24l1,0a5.34,5.34,0,0,1-.49,1.65,4.09,4.09,0,0,1-.91,1.23,3.68,3.68,0,0,1-1.28.76,4.38,4.38,0,0,1-1.61.23,4.72,4.72,0,0,1-2.05-.49,4.28,4.28,0,0,1-1.44-1.19,4.85,4.85,0,0,1-.83-1.68,6.76,6.76,0,0,1,.12-3.95,4.92,4.92,0,0,1,.93-1.63,4.23,4.23,0,0,1,1.51-1.1,4.71,4.71,0,0,1,2.08-.36,4.65,4.65,0,0,1,1.39.25,4,4,0,0,1,1.21.66,3.62,3.62,0,0,1,.89,1,3.41,3.41,0,0,1,.43,1.4l-1,0A3.22,3.22,0,0,0,197.15,177.29Z"/><path class="cls-3" d="M201.12,175.42l-.14,4.34,5.93.19.14-4.34,1,0-.32,10-1,0,.15-4.84-5.93-.19-.15,4.84-1,0,.32-10Z"/><path class="cls-3" d="M208.88,175.66l1.12,0,3.13,5.17,3.43-5,1.13,0-4.13,5.75-.13,4.11-1,0,.13-4.11Z"/></g></svg>