<svg id="Layer_1" data-name="Layer 1" xmlns="http://www.w3.org/2000/svg" viewBox="0 0 360 360"><defs><style>.cls-1{fill:#f29d35;}.cls-2{opacity:0.58;}.cls-3{fill:#fef5f3;}</style></defs><title>buttons_female</title><polygon class="cls-1" points="124.05 154.53 157.97 155.16 212.63 151.79 252.59 170.27 244.6 186 206.64 197.64 93.45 189.32 99.41 170.95 124.05 154.53"/><g class="cls-2"><path class="cls-3" d="M115.32,162.48l2.53,8.68h0l2.17-8.82,1.19,0L124,171h0l2-8.82,1,0L124.5,172.2l-1,0-2.8-8.86h0l-2.25,9-1,0-3.07-9.91Z"/><path class="cls-3" d="M128.7,162.07l.12,4h0a2.12,2.12,0,0,1,.86-1.08,2.64,2.64,0,0,1,1.4-.44,3.58,3.58,0,0,1,1.27.16,2,2,0,0,1,.83.53,2.09,2.09,0,0,1,.46.86,5,5,0,0,1,.16,1.16l.14,4.65-.88,0-.14-4.51a4.19,4.19,0,0,0-.11-.86,1.82,1.82,0,0,0-.31-.68,1.42,1.42,0,0,0-.58-.44,2.09,2.09,0,0,0-.89-.14,2.24,2.24,0,0,0-.94.22,2,2,0,0,0-.68.54,2.39,2.39,0,0,0-.42.8,3.17,3.17,0,0,0-.14,1l.13,4.21-.88,0-.3-10Z"/><path class="cls-3" d="M139.95,164.6a3.2,3.2,0,0,1,1.1.79,3.58,3.58,0,0,1,.69,1.19,5,5,0,0,1,.09,3,3.58,3.58,0,0,1-.62,1.23,3.13,3.13,0,0,1-1,.85,3.71,3.71,0,0,1-2.93.09,3.11,3.11,0,0,1-1.09-.79,3.56,3.56,0,0,1-.69-1.19,5,5,0,0,1-.09-3,3.57,3.57,0,0,1,.62-1.23,3.19,3.19,0,0,1,1-.86,3.63,3.63,0,0,1,2.93-.09Zm-2.55.78a2.44,2.44,0,0,0-.77.72,3.2,3.2,0,0,0-.45,1,4.06,4.06,0,0,0,.07,2.25,3.21,3.21,0,0,0,.51,1,2.45,2.45,0,0,0,.81.68,2.43,2.43,0,0,0,2.21-.07,2.4,2.4,0,0,0,.77-.72,3.17,3.17,0,0,0,.45-1,4,4,0,0,0-.07-2.25,3.18,3.18,0,0,0-.51-1,2.41,2.41,0,0,0-.81-.68,2.43,2.43,0,0,0-2.21.07Z"/><path class="cls-3" d="M152.86,171.34l0-1.37h0a2.09,2.09,0,0,1-.39.66,2.72,2.72,0,0,1-.61.52,3.22,3.22,0,0,1-.74.34,2.94,2.94,0,0,1-.79.14,3.21,3.21,0,0,1-1.44-.26,2.87,2.87,0,0,1-1-.8,3.53,3.53,0,0,1-.64-1.2,5.59,5.59,0,0,1-.09-2.92,3.57,3.57,0,0,1,.57-1.24,3,3,0,0,1,1-.86A3.15,3.15,0,0,1,150,164a3.2,3.2,0,0,1,.79.07,2.66,2.66,0,0,1,.73.28,2.56,2.56,0,0,1,.61.48,2.12,2.12,0,0,1,.42.67h0l-.13-4.14.88,0,.3,10ZM147.95,169a3.07,3.07,0,0,0,.45,1,2.31,2.31,0,0,0,.76.68,2,2,0,0,0,1.09.24,2.37,2.37,0,0,0,1.17-.31,2.33,2.33,0,0,0,.76-.73,2.91,2.91,0,0,0,.4-1,4.69,4.69,0,0,0-.07-2.22,2.91,2.91,0,0,0-.46-1,2.33,2.33,0,0,0-.81-.68,2.36,2.36,0,0,0-1.19-.24A2,2,0,0,0,149,165a2.32,2.32,0,0,0-.71.73,3.07,3.07,0,0,0-.39,1,4.72,4.72,0,0,0,.07,2.22Z"/><path class="cls-3" d="M159.65,164a3.19,3.19,0,0,1,1.09.79,3.56,3.56,0,0,1,.69,1.19,5,5,0,0,1,.09,3,3.57,3.57,0,0,1-.62,1.23,3.12,3.12,0,0,1-1,.85,3.71,3.71,0,0,1-2.93.09,3.11,3.11,0,0,1-1.09-.79,3.56,3.56,0,0,1-.69-1.19,5,5,0,0,1-.09-3,3.57,3.57,0,0,1,.62-1.23,3.19,3.19,0,0,1,1-.86,3.63,3.63,0,0,1,2.93-.09Zm-2.55.78a2.43,2.43,0,0,0-.77.72,3.17,3.17,0,0,0-.45,1,4.06,4.06,0,0,0,.07,2.25,3.18,3.18,0,0,0,.51,1,2.44,2.44,0,0,0,.81.68,2.44,2.44,0,0,0,2.21-.07,2.41,2.41,0,0,0,.77-.72,3.18,3.18,0,0,0,.45-1,4,4,0,0,0-.07-2.25,3.2,3.2,0,0,0-.51-1,2.42,2.42,0,0,0-.81-.68,2.43,2.43,0,0,0-2.21.07Z"/><path class="cls-3" d="M163.71,168.62a2.72,2.72,0,0,0,.45.9,2.45,2.45,0,0,0,.76.65,2.08,2.08,0,0,0,1.09.23,2.14,2.14,0,0,0,1.5-.55,2.64,2.64,0,0,0,.71-1.37l.88,0a3.53,3.53,0,0,1-1,1.93,3.07,3.07,0,0,1-2.1.74,3.36,3.36,0,0,1-1.49-.26,2.7,2.7,0,0,1-1-.8,3.56,3.56,0,0,1-.62-1.2,5.53,5.53,0,0,1-.23-1.46,5.22,5.22,0,0,1,.15-1.41,3.76,3.76,0,0,1,.54-1.24,2.9,2.9,0,0,1,1-.9,3.13,3.13,0,0,1,1.47-.37,2.86,2.86,0,0,1,2.52,1.19,3.84,3.84,0,0,1,.59,1.28,5.74,5.74,0,0,1,.18,1.49l-5.56.17A4,4,0,0,0,163.71,168.62ZM168,165.8a2.69,2.69,0,0,0-.48-.81,2.26,2.26,0,0,0-.73-.55,2.23,2.23,0,0,0-1.92.06,2.26,2.26,0,0,0-.7.6,2.89,2.89,0,0,0-.44.84,4.06,4.06,0,0,0-.2,1l4.67-.14A3.24,3.24,0,0,0,168,165.8Z"/><path class="cls-3" d="M174.37,164.87a1.43,1.43,0,0,0-.43-.48,1.74,1.74,0,0,0-.6-.27,2.72,2.72,0,0,0-.72-.07,2.88,2.88,0,0,0-.59.08,1.84,1.84,0,0,0-.55.23,1.2,1.2,0,0,0-.39.4,1.07,1.07,0,0,0-.13.59.83.83,0,0,0,.16.49,1.3,1.3,0,0,0,.38.33,2.36,2.36,0,0,0,.5.22l.5.13,1.18.23a3.37,3.37,0,0,1,.75.18,2.39,2.39,0,0,1,.67.36,1.88,1.88,0,0,1,.49.57,1.76,1.76,0,0,1,.21.82,1.82,1.82,0,0,1-.23,1,2.18,2.18,0,0,1-.66.69,2.9,2.9,0,0,1-.92.4,4.83,4.83,0,0,1-1,.14,3.32,3.32,0,0,1-2.08-.54,2.57,2.57,0,0,1-1-1.9l.88,0a1.74,1.74,0,0,0,.69,1.33,2.36,2.36,0,0,0,1.49.41,3.33,3.33,0,0,0,.66-.09,2.12,2.12,0,0,0,.63-.26,1.52,1.52,0,0,0,.47-.44,1,1,0,0,0,.17-.64,1,1,0,0,0-.15-.53,1.15,1.15,0,0,0-.37-.35,2.22,2.22,0,0,0-.52-.23q-.29-.09-.59-.15l-1.14-.22a6.29,6.29,0,0,1-.81-.23,2.55,2.55,0,0,1-.65-.35,1.51,1.51,0,0,1-.44-.52,1.77,1.77,0,0,1-.18-.77,1.75,1.75,0,0,1,.22-.95,1.92,1.92,0,0,1,.62-.65,3,3,0,0,1,.86-.38,4.23,4.23,0,0,1,1-.14,3.55,3.55,0,0,1,1,.11,2.33,2.33,0,0,1,.84.41,2.12,2.12,0,0,1,.59.71,2.62,2.62,0,0,1,.27,1l-.88,0A1.67,1.67,0,0,0,174.37,164.87Z"/><path class="cls-3" d="M177.77,163.36l0,1.25h0a2.12,2.12,0,0,1,.86-1.08,2.63,2.63,0,0,1,1.4-.44,3.56,3.56,0,0,1,1.27.16,2,2,0,0,1,.83.53,2.07,2.07,0,0,1,.46.86,4.92,4.92,0,0,1,.16,1.16l.14,4.65-.88,0-.14-4.51a4.19,4.19,0,0,0-.11-.86,1.79,1.79,0,0,0-.31-.68A1.42,1.42,0,0,0,181,164a2.09,2.09,0,0,0-.9-.14,2.25,2.25,0,0,0-.94.22,2,2,0,0,0-.68.54,2.41,2.41,0,0,0-.42.8,3.2,3.2,0,0,0-.14,1l.13,4.21-.88,0-.22-7.22Z"/><path class="cls-3" d="M186.1,161.83a2.48,2.48,0,0,1-.06.61,2.12,2.12,0,0,1-.21.57,1.78,1.78,0,0,1-.37.47,1.38,1.38,0,0,1-.54.3l0-.6a.66.66,0,0,0,.3-.21,1.36,1.36,0,0,0,.2-.35,1.86,1.86,0,0,0,.11-.4,1.46,1.46,0,0,0,0-.37l-.59,0,0-1.48,1.18,0Z"/><path class="cls-3" d="M190.93,163l0,.74-1.47,0,.15,4.87a1.56,1.56,0,0,0,.14.67c.08.16.28.25.6.25a6.66,6.66,0,0,0,.75-.06l0,.74-.39,0-.39,0a1.74,1.74,0,0,1-1.24-.31,1.72,1.72,0,0,1-.37-1.26l-.15-4.94-1.26,0,0-.74,1.26,0-.07-2.17.88,0,.07,2.17Z"/><path class="cls-3" d="M196.9,160l.3,10-.88,0-.3-10Z"/><path class="cls-3" d="M203.19,162.69a3.19,3.19,0,0,1,1.09.79,3.56,3.56,0,0,1,.69,1.19,5,5,0,0,1,.09,3,3.57,3.57,0,0,1-.62,1.23,3.12,3.12,0,0,1-1,.85,3.71,3.71,0,0,1-2.93.09,3.1,3.1,0,0,1-1.09-.79,3.56,3.56,0,0,1-.69-1.19,5,5,0,0,1-.09-3,3.57,3.57,0,0,1,.62-1.23,3.19,3.19,0,0,1,1-.86,3.63,3.63,0,0,1,2.93-.09Zm-2.55.78a2.44,2.44,0,0,0-.77.72,3.17,3.17,0,0,0-.45,1,4,4,0,0,0,.07,2.25,3.18,3.18,0,0,0,.51,1,2.45,2.45,0,0,0,.81.68A2.43,2.43,0,0,0,203,169a2.42,2.42,0,0,0,.77-.72,3.17,3.17,0,0,0,.44-1,4,4,0,0,0-.07-2.25,3.18,3.18,0,0,0-.5-1,2.43,2.43,0,0,0-.81-.68,2.43,2.43,0,0,0-2.21.07Z"/><path class="cls-3" d="M206.63,162.49l2.46,6.27h0l2-6.41.91,0-2.48,7.3-.94,0-3-7.14Z"/><path class="cls-3" d="M213.74,167.11a2.7,2.7,0,0,0,.45.9,2.44,2.44,0,0,0,.76.65,2.08,2.08,0,0,0,1.09.23,2.14,2.14,0,0,0,1.5-.55,2.65,2.65,0,0,0,.71-1.37l.88,0a3.53,3.53,0,0,1-1,1.93,3.07,3.07,0,0,1-2.1.74,3.36,3.36,0,0,1-1.49-.26,2.71,2.71,0,0,1-1-.8,3.56,3.56,0,0,1-.62-1.2,5.53,5.53,0,0,1-.23-1.46,5.22,5.22,0,0,1,.15-1.41,3.75,3.75,0,0,1,.54-1.24,2.91,2.91,0,0,1,1-.9,3.12,3.12,0,0,1,1.47-.37,2.86,2.86,0,0,1,2.52,1.19,3.82,3.82,0,0,1,.59,1.28,5.74,5.74,0,0,1,.18,1.49l-5.55.17A3.93,3.93,0,0,0,213.74,167.11Zm4.28-2.83a2.67,2.67,0,0,0-.48-.8,2.24,2.24,0,0,0-.73-.55,2,2,0,0,0-1-.19,2.08,2.08,0,0,0-1,.25,2.27,2.27,0,0,0-.7.6,2.91,2.91,0,0,0-.44.84,4.15,4.15,0,0,0-.2,1l4.67-.14A3.22,3.22,0,0,0,218,164.28Z"/><path class="cls-3" d="M224.31,163.07a2.05,2.05,0,0,1,.59-.77,2.58,2.58,0,0,1,.89-.46,4.43,4.43,0,0,1,1.14-.17,5.1,5.1,0,0,1,1,.06,2.29,2.29,0,0,1,.86.32,1.87,1.87,0,0,1,.64.69,2.55,2.55,0,0,1,.27,1.18l.12,3.83a.46.46,0,0,0,.53.52.67.67,0,0,0,.28-.06l0,.74-.27,0-.3,0a1.34,1.34,0,0,1-.54-.07.72.72,0,0,1-.32-.25,1,1,0,0,1-.16-.39,3.35,3.35,0,0,1-.05-.51h0a5.69,5.69,0,0,1-.46.64,2.34,2.34,0,0,1-.53.47,2.53,2.53,0,0,1-.68.3,3.8,3.8,0,0,1-.91.13,3.65,3.65,0,0,1-.95-.09,2.13,2.13,0,0,1-.78-.35,1.79,1.79,0,0,1-.54-.64,2.17,2.17,0,0,1-.22-.94,1.87,1.87,0,0,1,.3-1.19,2.12,2.12,0,0,1,.87-.68,5.06,5.06,0,0,1,1.24-.35l1.4-.22.49-.08a.87.87,0,0,0,.34-.16.67.67,0,0,0,.21-.29,1.22,1.22,0,0,0,.06-.48,1.63,1.63,0,0,0-.17-.73,1.17,1.17,0,0,0-.42-.44,1.65,1.65,0,0,0-.61-.21,4.09,4.09,0,0,0-.74,0,2.22,2.22,0,0,0-1.36.44,1.56,1.56,0,0,0-.52,1.3l-.88,0A2.93,2.93,0,0,1,224.31,163.07Zm4.47,2a.5.5,0,0,1-.31.23l-.42.11-1.15.21a6.34,6.34,0,0,0-1.08.26,2.13,2.13,0,0,0-.79.47,1.05,1.05,0,0,0-.29.83,1.28,1.28,0,0,0,.15.59,1.44,1.44,0,0,0,.37.44,1.55,1.55,0,0,0,.53.27,1.89,1.89,0,0,0,.61.08,3,3,0,0,0,1-.18,2.38,2.38,0,0,0,.79-.47,2.13,2.13,0,0,0,.7-1.69l0-1.15Z"/><path class="cls-3" d="M108.56,186.54a2.79,2.79,0,0,1-.52,1.11,2.4,2.4,0,0,1-1,.72,4.12,4.12,0,0,1-1.48.28,4.47,4.47,0,0,1-1.07-.09,3,3,0,0,1-.94-.36,2.32,2.32,0,0,1-.71-.66,2,2,0,0,1-.34-1l.88,0a1.56,1.56,0,0,0,.29.67,1.62,1.62,0,0,0,.5.43,2.2,2.2,0,0,0,.65.23,3.35,3.35,0,0,0,.72.06,2.11,2.11,0,0,0,1.76-.75,3.22,3.22,0,0,0,.49-2l0-1h0a2.59,2.59,0,0,1-.87,1.1,2.41,2.41,0,0,1-1.38.45,3.5,3.5,0,0,1-1.49-.24,2.74,2.74,0,0,1-1-.76,3.2,3.2,0,0,1-.62-1.16,5.51,5.51,0,0,1-.23-1.44,4.44,4.44,0,0,1,.18-1.41,3.48,3.48,0,0,1,.59-1.18,2.94,2.94,0,0,1,1-.81,3.23,3.23,0,0,1,1.38-.33,2.52,2.52,0,0,1,.77.09,2.41,2.41,0,0,1,.66.29,2.79,2.79,0,0,1,.54.45,2.16,2.16,0,0,1,.37.55h0l0-1.25.88,0,.2,6.63A5.52,5.52,0,0,1,108.56,186.54Zm-2.08-1.86a2.29,2.29,0,0,0,.71-.67,2.79,2.79,0,0,0,.41-.93,3.89,3.89,0,0,0,.12-1.07,4.59,4.59,0,0,0-.16-1.06,3.08,3.08,0,0,0-.43-1,2.23,2.23,0,0,0-.74-.68,2,2,0,0,0-1.08-.23,2.12,2.12,0,0,0-1.07.29,2.3,2.3,0,0,0-.72.7,2.81,2.81,0,0,0-.4,1,4.5,4.5,0,0,0-.1,1.1,4,4,0,0,0,.17,1.06,2.74,2.74,0,0,0,.46.9,2.26,2.26,0,0,0,.76.62,2.19,2.19,0,0,0,1.07.21A2,2,0,0,0,106.48,184.68Z"/><path class="cls-3" d="M114.69,178.37a3.2,3.2,0,0,1,1.1.79,3.58,3.58,0,0,1,.69,1.19,5,5,0,0,1,.09,3,3.58,3.58,0,0,1-.62,1.23,3.11,3.11,0,0,1-1,.85,3.71,3.71,0,0,1-2.93.09,3.1,3.1,0,0,1-1.09-.79,3.55,3.55,0,0,1-.69-1.19,5,5,0,0,1-.09-3,3.55,3.55,0,0,1,.62-1.23,3.18,3.18,0,0,1,1-.86,3.63,3.63,0,0,1,2.93-.09Zm-2.55.78a2.41,2.41,0,0,0-.77.72,3.2,3.2,0,0,0-.45,1,4.06,4.06,0,0,0,.07,2.25,3.19,3.19,0,0,0,.51,1,2.41,2.41,0,0,0,.81.68,2.44,2.44,0,0,0,2.21-.07,2.42,2.42,0,0,0,.77-.72,3.17,3.17,0,0,0,.45-1,4,4,0,0,0-.07-2.25,3.19,3.19,0,0,0-.51-1,2.44,2.44,0,0,0-.81-.68,2.43,2.43,0,0,0-2.21.07Z"/><path class="cls-3" d="M122.47,178.14a3.19,3.19,0,0,1,1.09.79,3.58,3.58,0,0,1,.69,1.19,5,5,0,0,1,.09,3,3.58,3.58,0,0,1-.62,1.23,3.12,3.12,0,0,1-1,.85,3.71,3.71,0,0,1-2.92.09,3.11,3.11,0,0,1-1.1-.79,3.57,3.57,0,0,1-.69-1.19,5,5,0,0,1-.09-3,3.56,3.56,0,0,1,.62-1.23,3.17,3.17,0,0,1,1-.86,3.63,3.63,0,0,1,2.93-.09Zm-2.55.78a2.41,2.41,0,0,0-.77.72,3.18,3.18,0,0,0-.45,1,4,4,0,0,0,.07,2.25,3.17,3.17,0,0,0,.51,1,2.41,2.41,0,0,0,.81.68,2.44,2.44,0,0,0,2.21-.07,2.43,2.43,0,0,0,.77-.72,3.19,3.19,0,0,0,.45-1,4,4,0,0,0-.07-2.25,3.2,3.2,0,0,0-.51-1,2.45,2.45,0,0,0-.81-.68,2.43,2.43,0,0,0-2.21.07Z"/><path class="cls-3" d="M131.49,185l0-1.37h0a2.08,2.08,0,0,1-.39.66,2.7,2.7,0,0,1-.61.52,3.3,3.3,0,0,1-.74.34,2.94,2.94,0,0,1-.79.14,3.21,3.21,0,0,1-1.44-.26,2.88,2.88,0,0,1-1-.8,3.53,3.53,0,0,1-.64-1.2,5.57,5.57,0,0,1-.09-2.93,3.55,3.55,0,0,1,.56-1.24,3,3,0,0,1,1-.86,3.39,3.39,0,0,1,2.22-.28,2.66,2.66,0,0,1,.73.28,2.56,2.56,0,0,1,.61.48,2.06,2.06,0,0,1,.42.67h0l-.12-4.14.88,0,.3,10Zm-4.91-2.35a3,3,0,0,0,.45,1,2.28,2.28,0,0,0,.76.68,2,2,0,0,0,1.09.24,2.26,2.26,0,0,0,1.94-1,2.92,2.92,0,0,0,.4-1,4.72,4.72,0,0,0-.07-2.22,2.94,2.94,0,0,0-.46-1,2.26,2.26,0,0,0-2-.92,2,2,0,0,0-1.07.31,2.3,2.3,0,0,0-.71.73,3.05,3.05,0,0,0-.39,1,4.72,4.72,0,0,0,.07,2.22Z"/><path class="cls-3" d="M138.47,177.55l0,1.37h0a2.37,2.37,0,0,1,1-1.2,3,3,0,0,1,1.56-.46,3.14,3.14,0,0,1,1.44.26,2.94,2.94,0,0,1,1,.8,3.55,3.55,0,0,1,.64,1.2,5.57,5.57,0,0,1,.09,2.93,3.58,3.58,0,0,1-.56,1.24,2.89,2.89,0,0,1-1,.86,3.43,3.43,0,0,1-2.21.27,2.78,2.78,0,0,1-.74-.27,2.41,2.41,0,0,1-.61-.47,2.07,2.07,0,0,1-.42-.67h0l.12,4-.88,0-.3-9.88Zm4.91,2.35a3.13,3.13,0,0,0-.45-1,2.33,2.33,0,0,0-.76-.68,2,2,0,0,0-1.09-.24,2.64,2.64,0,0,0-1.21.29,2.12,2.12,0,0,0-.76.7,2.64,2.64,0,0,0-.38,1,5.63,5.63,0,0,0-.08,1.18,4.7,4.7,0,0,0,.17,1.11,2.87,2.87,0,0,0,.46,1,2.31,2.31,0,0,0,.81.68,2.37,2.37,0,0,0,1.19.24,2,2,0,0,0,1.07-.31,2.32,2.32,0,0,0,.71-.73,3.11,3.11,0,0,0,.39-1,4.75,4.75,0,0,0-.07-2.22Z"/><path class="cls-3" d="M145.91,178.45a2.05,2.05,0,0,1,.59-.77,2.58,2.58,0,0,1,.89-.46,4.42,4.42,0,0,1,1.14-.17,5.07,5.07,0,0,1,1,.06,2.3,2.3,0,0,1,.86.32,1.86,1.86,0,0,1,.64.69,2.56,2.56,0,0,1,.27,1.18l.12,3.83a.46.46,0,0,0,.53.52.68.68,0,0,0,.28-.06l0,.74-.27.05-.3,0a1.33,1.33,0,0,1-.54-.07.71.71,0,0,1-.32-.25,1,1,0,0,1-.16-.39,3.35,3.35,0,0,1-.05-.51h0a5.78,5.78,0,0,1-.46.64,2.38,2.38,0,0,1-.53.47,2.49,2.49,0,0,1-.68.3,3.78,3.78,0,0,1-.91.13,3.62,3.62,0,0,1-.95-.09,2.12,2.12,0,0,1-.78-.35,1.81,1.81,0,0,1-.54-.64,2.18,2.18,0,0,1-.22-.94,1.86,1.86,0,0,1,.3-1.19,2.1,2.1,0,0,1,.87-.68,5.06,5.06,0,0,1,1.24-.35l1.4-.22.49-.08a.87.87,0,0,0,.34-.16.68.68,0,0,0,.21-.29,1.22,1.22,0,0,0,.06-.48,1.6,1.6,0,0,0-.17-.73,1.17,1.17,0,0,0-.42-.44,1.65,1.65,0,0,0-.61-.21,4.09,4.09,0,0,0-.74,0,2.22,2.22,0,0,0-1.36.44,1.56,1.56,0,0,0-.52,1.3l-.88,0A2.92,2.92,0,0,1,145.91,178.45Zm4.47,2a.5.5,0,0,1-.31.23l-.42.11-1.15.21a6.47,6.47,0,0,0-1.08.26,2.14,2.14,0,0,0-.79.47,1.06,1.06,0,0,0-.29.83,1.28,1.28,0,0,0,.15.59,1.42,1.42,0,0,0,.37.44,1.55,1.55,0,0,0,.53.27,1.91,1.91,0,0,0,.61.08,3,3,0,0,0,1-.18,2.37,2.37,0,0,0,.79-.47,2.18,2.18,0,0,0,.52-.73,2.15,2.15,0,0,0,.17-1l0-1.15Z"/><path class="cls-3" d="M153.76,174.32l0,1.41-.88,0,0-1.41Zm.08,2.77.22,7.22-.88,0-.22-7.22Z"/><path class="cls-3" d="M156.35,177l.05,1.69h0a2.78,2.78,0,0,1,1-1.39,2.73,2.73,0,0,1,1.67-.48l0,.88a2.66,2.66,0,0,0-1.09.19,2.42,2.42,0,0,0-1.36,1.41,2.8,2.8,0,0,0-.16,1.06l.12,3.85-.88,0-.22-7.22Z"/><path class="cls-3" d="M168.35,176.75a3.21,3.21,0,0,1,1.1.79,3.59,3.59,0,0,1,.69,1.19,5,5,0,0,1,.09,3,3.6,3.6,0,0,1-.62,1.23,3.13,3.13,0,0,1-1,.85,3.71,3.71,0,0,1-2.93.09,3.1,3.1,0,0,1-1.09-.79,3.54,3.54,0,0,1-.69-1.19,5,5,0,0,1-.09-3,3.55,3.55,0,0,1,.62-1.23,3.18,3.18,0,0,1,1-.86,3.63,3.63,0,0,1,2.93-.09Zm-2.55.78a2.43,2.43,0,0,0-.77.72,3.2,3.2,0,0,0-.45,1,4.06,4.06,0,0,0,.07,2.25,3.19,3.19,0,0,0,.51,1,2.43,2.43,0,0,0,.81.68,2.44,2.44,0,0,0,2.21-.07,2.41,2.41,0,0,0,.77-.72,3.16,3.16,0,0,0,.45-1,4,4,0,0,0-.07-2.25,3.18,3.18,0,0,0-.51-1,2.43,2.43,0,0,0-.81-.68,2.43,2.43,0,0,0-2.21.07Z"/><path class="cls-3" d="M173,177.25l.2,6.48-.88,0-.2-6.48-1.23,0,0-.74,1.23,0,0-.66a4.87,4.87,0,0,1,0-.86,1.66,1.66,0,0,1,.25-.68,1.27,1.27,0,0,1,.52-.45,2.14,2.14,0,0,1,.87-.18h.36l.38,0,0,.76-.34,0h-.31a1.15,1.15,0,0,0-.56.13.7.7,0,0,0-.28.31,1.13,1.13,0,0,0-.09.44c0,.17,0,.35,0,.55l0,.63,1.43,0,0,.74Z"/><path class="cls-3" d="M179.93,173.53l.19,6.27,3.9-3.62,1.18,0-3,2.77,3.43,4.45-1.11,0-3-3.85-1.39,1.23.08,2.74-.88,0-.3-10Z"/><path class="cls-3" d="M187,176.09l0,1.25h0a2.12,2.12,0,0,1,.86-1.08,2.64,2.64,0,0,1,1.4-.44,3.56,3.56,0,0,1,1.27.16,2,2,0,0,1,.83.53,2.06,2.06,0,0,1,.46.86,4.86,4.86,0,0,1,.16,1.16l.14,4.65-.88,0-.14-4.51a4.13,4.13,0,0,0-.11-.86,1.8,1.8,0,0,0-.31-.68,1.43,1.43,0,0,0-.58-.45,2.09,2.09,0,0,0-.89-.14,2.26,2.26,0,0,0-.94.22,2.05,2.05,0,0,0-.68.54,2.4,2.4,0,0,0-.42.8,3.19,3.19,0,0,0-.14,1l.13,4.21-.88,0-.22-7.22Z"/><path class="cls-3" d="M198.16,175.85a3.2,3.2,0,0,1,1.1.79,3.58,3.58,0,0,1,.69,1.19,5,5,0,0,1,.09,3,3.58,3.58,0,0,1-.62,1.23,3.11,3.11,0,0,1-1,.85,3.72,3.72,0,0,1-2.93.09,3.11,3.11,0,0,1-1.09-.79,3.57,3.57,0,0,1-.69-1.19,5,5,0,0,1-.09-3,3.56,3.56,0,0,1,.62-1.23,3.18,3.18,0,0,1,1-.86,3.63,3.63,0,0,1,2.93-.09Zm-2.55.78a2.41,2.41,0,0,0-.77.72,3.18,3.18,0,0,0-.45,1,4,4,0,0,0,.07,2.25,3.17,3.17,0,0,0,.51,1,2.41,2.41,0,0,0,.81.68,2.44,2.44,0,0,0,2.21-.07,2.44,2.44,0,0,0,.77-.72,3.16,3.16,0,0,0,.44-1,4,4,0,0,0-.07-2.25,3.18,3.18,0,0,0-.5-1,2.45,2.45,0,0,0-.81-.68,2.43,2.43,0,0,0-2.21.07Z"/><path class="cls-3" d="M205.88,176.51a1.92,1.92,0,0,0-1.39-.42,2.23,2.23,0,0,0-1.1.3,2.43,2.43,0,0,0-.77.72,3.17,3.17,0,0,0-.45,1,4,4,0,0,0,.07,2.25,3.17,3.17,0,0,0,.51,1,2.42,2.42,0,0,0,.81.68,2.23,2.23,0,0,0,1.11.23,2,2,0,0,0,.76-.18,2.08,2.08,0,0,0,.63-.45,2.29,2.29,0,0,0,.44-.67,2.4,2.4,0,0,0,.2-.83l.88,0a3.33,3.33,0,0,1-.9,2.08,2.83,2.83,0,0,1-2,.8,3.39,3.39,0,0,1-1.47-.26,3.1,3.1,0,0,1-1.09-.79,3.55,3.55,0,0,1-.69-1.19,5,5,0,0,1-.09-3,3.55,3.55,0,0,1,.62-1.23,3.18,3.18,0,0,1,1-.86,3.33,3.33,0,0,1,1.45-.35,3.14,3.14,0,0,1,2,.56,2.64,2.64,0,0,1,1,1.83l-.88,0A2.43,2.43,0,0,0,205.88,176.51Z"/><path class="cls-3" d="M209.48,172.63l.19,6.27,3.9-3.62,1.18,0-3,2.77,3.43,4.45-1.11,0-3-3.85-1.39,1.23.08,2.74-.88,0-.3-10Z"/><path class="cls-3" d="M216.48,180a2.72,2.72,0,0,0,.45.9,2.46,2.46,0,0,0,.76.65,2.09,2.09,0,0,0,1.09.23,2.14,2.14,0,0,0,1.5-.55,2.65,2.65,0,0,0,.71-1.37l.88,0a3.52,3.52,0,0,1-1,1.93,3.07,3.07,0,0,1-2.1.74,3.37,3.37,0,0,1-1.49-.26,2.71,2.71,0,0,1-1-.8,3.56,3.56,0,0,1-.62-1.2,5.5,5.5,0,0,1-.23-1.46,5.21,5.21,0,0,1,.15-1.4,3.74,3.74,0,0,1,.54-1.24,2.92,2.92,0,0,1,1-.9,3.13,3.13,0,0,1,1.47-.37,2.86,2.86,0,0,1,2.52,1.19,3.79,3.79,0,0,1,.59,1.28,5.77,5.77,0,0,1,.18,1.49l-5.55.17A3.92,3.92,0,0,0,216.48,180Zm4.29-2.83a2.68,2.68,0,0,0-.48-.8,2.27,2.27,0,0,0-.73-.55,2,2,0,0,0-1-.19,2.07,2.07,0,0,0-1,.25,2.24,2.24,0,0,0-.7.6,2.88,2.88,0,0,0-.44.84,4.1,4.1,0,0,0-.2,1l4.67-.14A3.22,3.22,0,0,0,220.77,177.21Z"/><path class="cls-3" d="M223.76,175l.05,1.69h0a2.78,2.78,0,0,1,1-1.39,2.73,2.73,0,0,1,1.67-.48l0,.88a2.66,2.66,0,0,0-1.09.19,2.42,2.42,0,0,0-1.36,1.41,2.82,2.82,0,0,0-.16,1.06l.12,3.85-.88,0-.22-7.22Z"/><path class="cls-3" d="M231.55,176.14a1.44,1.44,0,0,0-.43-.48,1.75,1.75,0,0,0-.6-.27,2.75,2.75,0,0,0-.72-.07,2.92,2.92,0,0,0-.59.08,1.84,1.84,0,0,0-.55.23,1.2,1.2,0,0,0-.39.4,1.07,1.07,0,0,0-.13.59.82.82,0,0,0,.16.49,1.31,1.31,0,0,0,.38.33,2.36,2.36,0,0,0,.5.22l.5.13,1.18.23a3.39,3.39,0,0,1,.75.18,2.41,2.41,0,0,1,.67.36,1.88,1.88,0,0,1,.49.57,1.77,1.77,0,0,1,.21.82,1.81,1.81,0,0,1-.24,1,2.17,2.17,0,0,1-.66.69,2.9,2.9,0,0,1-.92.4,4.83,4.83,0,0,1-1,.14,3.32,3.32,0,0,1-2.08-.54,2.57,2.57,0,0,1-1-1.9l.88,0a1.74,1.74,0,0,0,.69,1.33,2.36,2.36,0,0,0,1.49.41,3.36,3.36,0,0,0,.66-.09,2.16,2.16,0,0,0,.63-.26,1.52,1.52,0,0,0,.47-.44,1,1,0,0,0,.17-.64,1,1,0,0,0-.15-.53,1.16,1.16,0,0,0-.37-.35,2.28,2.28,0,0,0-.52-.23l-.59-.15-1.14-.22a6.41,6.41,0,0,1-.81-.23,2.56,2.56,0,0,1-.65-.34,1.52,1.52,0,0,1-.44-.52,1.76,1.76,0,0,1-.18-.77,1.74,1.74,0,0,1,.22-.94,1.91,1.91,0,0,1,.62-.65,3,3,0,0,1,.86-.38,4.21,4.21,0,0,1,1-.14,3.55,3.55,0,0,1,1,.11,2.32,2.32,0,0,1,.84.41,2.12,2.12,0,0,1,.59.71,2.62,2.62,0,0,1,.27,1l-.88,0A1.65,1.65,0,0,0,231.55,176.14Z"/><path class="cls-3" d="M234.18,173.61a2.78,2.78,0,0,1,.59-1.05,2.89,2.89,0,0,1,1-.69,3.55,3.55,0,0,1,1.34-.28,3.35,3.35,0,0,1,1.1.14,2.72,2.72,0,0,1,.92.48,2.4,2.4,0,0,1,.64.79,2.53,2.53,0,0,1,.26,1.08,2.46,2.46,0,0,1-.3,1.34,5.49,5.49,0,0,1-.84,1.08l-.67.7a1.93,1.93,0,0,0-.37.49,1.68,1.68,0,0,0-.15.59c0,.23,0,.56,0,1l-.88,0a5.14,5.14,0,0,1,0-1.08,2.73,2.73,0,0,1,.25-.79,3,3,0,0,1,.48-.69q.31-.33.74-.75a3.48,3.48,0,0,0,.63-.83,2,2,0,0,0,.23-1,1.83,1.83,0,0,0-.18-.77,1.8,1.8,0,0,0-.45-.58,2.07,2.07,0,0,0-.65-.37,2.14,2.14,0,0,0-.77-.12,2.39,2.39,0,0,0-1,.23,1.93,1.93,0,0,0-.7.56,2.34,2.34,0,0,0-.4.82,3.2,3.2,0,0,0-.1,1l-.88,0A4.14,4.14,0,0,1,234.18,173.61Zm3.65,6.68,0,1.48-1.18,0,0-1.48Z"/><path class="cls-3" d="M241.89,171.65l1,0,.09,3-.07,4.53-.53,0-.35-4.51Zm.15,8.51,1.18,0,0,1.48-1.18,0Z"/></g></svg>