<svg id="Layer_1" data-name="Layer 1" xmlns="http://www.w3.org/2000/svg" viewBox="0 0 360 360"><defs><style>.cls-1{fill:#f29d35;}.cls-2{opacity:0.58;}.cls-3{fill:#fef5f3;}</style></defs><title>buttons_female</title><polygon class="cls-1" points="119.76 151.47 269.76 158.07 270.29 196.39 116.81 192.65 76.17 161.1 119.76 151.47"/><g class="cls-2"><path class="cls-3" d="M99.18,160.07a3.71,3.71,0,0,1,1.21.24,2.56,2.56,0,0,1,.92.6,2.47,2.47,0,0,1,.57.93,3.55,3.55,0,0,1-.09,2.41,2.45,2.45,0,0,1-.64.88,2.54,2.54,0,0,1-1,.52,3.7,3.7,0,0,1-1.22.14l-3.48-.13-.17,4.28-1,0,.39-10Zm-.4,4.89a2.46,2.46,0,0,0,1.63-.44,2.23,2.23,0,0,0,.12-3.08,2.46,2.46,0,0,0-1.59-.57l-3.27-.13-.16,4.09Z"/><path class="cls-3" d="M104.09,163l-.07,1.69h0a2.77,2.77,0,0,1,1.09-1.32,2.73,2.73,0,0,1,1.7-.37l0,.88a2.66,2.66,0,0,0-1.1.12,2.41,2.41,0,0,0-1.45,1.32,2.77,2.77,0,0,0-.24,1l-.15,3.85-.88,0,.28-7.22Z"/><path class="cls-3" d="M111.95,163.44a3.19,3.19,0,0,1,1,.87,3.57,3.57,0,0,1,.61,1.24,5,5,0,0,1-.11,3,3.56,3.56,0,0,1-.71,1.18,3.1,3.1,0,0,1-1.1.78,3.71,3.71,0,0,1-2.92-.11,3.1,3.1,0,0,1-1-.86,3.56,3.56,0,0,1-.61-1.24,5,5,0,0,1,.11-3,3.57,3.57,0,0,1,.71-1.18,3.19,3.19,0,0,1,1.1-.78,3.63,3.63,0,0,1,2.92.11Zm-2.59.6a2.43,2.43,0,0,0-.82.67,3.2,3.2,0,0,0-.51,1,4.06,4.06,0,0,0-.09,2.25,3.2,3.2,0,0,0,.44,1,2.44,2.44,0,0,0,.76.73,2.43,2.43,0,0,0,2.21.09,2.4,2.4,0,0,0,.82-.67,3.16,3.16,0,0,0,.51-1,4,4,0,0,0,.09-2.25,3.19,3.19,0,0,0-.44-1,2.42,2.42,0,0,0-.76-.73,2.43,2.43,0,0,0-2.21-.09Z"/><path class="cls-3" d="M116.2,160.73l-.16,4.14h0a2.09,2.09,0,0,1,.43-.67,2.49,2.49,0,0,1,.61-.47,2.63,2.63,0,0,1,.74-.27,3.24,3.24,0,0,1,.79-.07,3.15,3.15,0,0,1,1.42.36,2.94,2.94,0,0,1,1,.87,3.53,3.53,0,0,1,.55,1.24,5.56,5.56,0,0,1-.11,2.92,3.54,3.54,0,0,1-.65,1.19,2.88,2.88,0,0,1-1,.79,3.2,3.2,0,0,1-1.45.25,3.06,3.06,0,0,1-1.56-.47,2.32,2.32,0,0,1-1-1.2h0l-.05,1.37-.81,0,.39-10Zm4.56,5.45a3.1,3.1,0,0,0-.38-1,2.3,2.3,0,0,0-.71-.73,2,2,0,0,0-1.07-.31,2.37,2.37,0,0,0-1.19.23,2.34,2.34,0,0,0-.81.68,2.89,2.89,0,0,0-.47,1,4.68,4.68,0,0,0-.09,2.22,2.89,2.89,0,0,0,.4,1,2.33,2.33,0,0,0,.76.74,2.37,2.37,0,0,0,1.17.32,2,2,0,0,0,1.09-.23,2.29,2.29,0,0,0,.76-.68,3.09,3.09,0,0,0,.46-1,4.72,4.72,0,0,0,.09-2.22Z"/><path class="cls-3" d="M123.38,164.9a2.06,2.06,0,0,1,.64-.73,2.58,2.58,0,0,1,.92-.4,4.43,4.43,0,0,1,1.15-.1,5,5,0,0,1,.95.13,2.31,2.31,0,0,1,.84.38,1.86,1.86,0,0,1,.59.73,2.54,2.54,0,0,1,.19,1.19l-.15,3.83a.46.46,0,0,0,.5.55.67.67,0,0,0,.28,0l0,.74-.27,0h-.3a1.35,1.35,0,0,1-.54-.11.73.73,0,0,1-.31-.27.94.94,0,0,1-.13-.4,3.35,3.35,0,0,1,0-.51h0a5.83,5.83,0,0,1-.51.6,2.35,2.35,0,0,1-.56.43,2.49,2.49,0,0,1-.7.25,3.76,3.76,0,0,1-.92.06,3.65,3.65,0,0,1-.94-.16,2.12,2.12,0,0,1-.75-.41,1.8,1.8,0,0,1-.49-.68,2.18,2.18,0,0,1-.15-1,1.87,1.87,0,0,1,.38-1.17,2.11,2.11,0,0,1,.91-.62,5.09,5.09,0,0,1,1.26-.27l1.41-.12.49-.05a.86.86,0,0,0,.36-.13.68.68,0,0,0,.23-.28,1.22,1.22,0,0,0,.1-.47,1.61,1.61,0,0,0-.12-.74,1.17,1.17,0,0,0-.39-.47,1.64,1.64,0,0,0-.59-.25,4,4,0,0,0-.73-.09,2.23,2.23,0,0,0-1.39.35A1.56,1.56,0,0,0,124,166l-.88,0A3,3,0,0,1,123.38,164.9Zm4.32,2.32a.51.51,0,0,1-.33.21l-.42.08-1.16.13a6.34,6.34,0,0,0-1.09.19,2.11,2.11,0,0,0-.82.41,1,1,0,0,0-.35.81,1.28,1.28,0,0,0,.11.6,1.47,1.47,0,0,0,.34.46,1.54,1.54,0,0,0,.51.31,1.89,1.89,0,0,0,.6.12,3,3,0,0,0,1-.12,2.4,2.4,0,0,0,.82-.42,2.14,2.14,0,0,0,.81-1.64l0-1.15Z"/><path class="cls-3" d="M131.49,161.32l-.16,4.14h0a2.07,2.07,0,0,1,.42-.67,2.53,2.53,0,0,1,.61-.47,2.64,2.64,0,0,1,.74-.27,3.27,3.27,0,0,1,.79-.07,3.15,3.15,0,0,1,1.42.36,3,3,0,0,1,1,.87,3.54,3.54,0,0,1,.55,1.24,5.54,5.54,0,0,1-.11,2.92,3.56,3.56,0,0,1-.65,1.19,2.9,2.9,0,0,1-1,.79,3.2,3.2,0,0,1-1.45.24,3.06,3.06,0,0,1-1.56-.47,2.32,2.32,0,0,1-1-1.2h0l-.05,1.37-.81,0,.39-10Zm4.56,5.45a3.09,3.09,0,0,0-.38-1A2.31,2.31,0,0,0,135,165a2,2,0,0,0-1.07-.31,2.37,2.37,0,0,0-1.19.23,2.34,2.34,0,0,0-.81.68,2.89,2.89,0,0,0-.47,1,4.72,4.72,0,0,0-.09,2.22,2.9,2.9,0,0,0,.4,1,2.34,2.34,0,0,0,.76.74,2.37,2.37,0,0,0,1.17.32,2,2,0,0,0,1.09-.23,2.29,2.29,0,0,0,.76-.68,3.09,3.09,0,0,0,.46-1,4.72,4.72,0,0,0,.09-2.22Z"/><path class="cls-3" d="M139.54,161.63l-.39,10-.88,0,.39-10Z"/><path class="cls-3" d="M141.25,164.48l2.14,6.25,2.46-6.07.88,0-3.46,8.19a8.16,8.16,0,0,1-.39.75,1.78,1.78,0,0,1-.39.46,1.24,1.24,0,0,1-.49.23,2.6,2.6,0,0,1-.7,0l-.41,0a.85.85,0,0,1-.26-.06l0-.74.3.06.3,0a1.2,1.2,0,0,0,.49-.07,1.05,1.05,0,0,0,.34-.22,1.34,1.34,0,0,0,.25-.35l.23-.45.34-.8-2.6-7.3Z"/><path class="cls-3" d="M152.36,164.91l0,1.24h0a2.12,2.12,0,0,1,.94-1,2.63,2.63,0,0,1,1.43-.34A3.56,3.56,0,0,1,156,165a2,2,0,0,1,.8.58,2.05,2.05,0,0,1,.4.89,5,5,0,0,1,.08,1.17l-.18,4.64-.88,0,.17-4.5a4.26,4.26,0,0,0,0-.86,1.79,1.79,0,0,0-.27-.7,1.42,1.42,0,0,0-.55-.48,2.08,2.08,0,0,0-.88-.2,2.25,2.25,0,0,0-1,.15,2,2,0,0,0-.72.49,2.39,2.39,0,0,0-.48.77,3.17,3.17,0,0,0-.21,1l-.16,4.21-.88,0,.28-7.22Z"/><path class="cls-3" d="M163.51,165.44a3.19,3.19,0,0,1,1,.87,3.56,3.56,0,0,1,.61,1.24,5,5,0,0,1-.11,3,3.56,3.56,0,0,1-.7,1.18,3.1,3.1,0,0,1-1.1.78,3.71,3.71,0,0,1-2.92-.11,3.11,3.11,0,0,1-1-.86,3.58,3.58,0,0,1-.61-1.24,5,5,0,0,1,.11-3,3.58,3.58,0,0,1,.7-1.18,3.2,3.2,0,0,1,1.1-.78,3.63,3.63,0,0,1,2.92.11Zm-2.59.6a2.41,2.41,0,0,0-.82.67,3.17,3.17,0,0,0-.51,1,4,4,0,0,0-.09,2.25,3.18,3.18,0,0,0,.44,1,2.43,2.43,0,0,0,.76.73,2.43,2.43,0,0,0,2.21.09,2.41,2.41,0,0,0,.82-.67,3.18,3.18,0,0,0,.51-1,4,4,0,0,0,.09-2.25,3.21,3.21,0,0,0-.44-1,2.43,2.43,0,0,0-.76-.73,2.43,2.43,0,0,0-2.21-.09Z"/><path class="cls-3" d="M169.65,165.57l0,.74-1.47-.06-.19,4.87a1.58,1.58,0,0,0,.09.68q.11.25.58.3a6.86,6.86,0,0,0,.76,0l0,.74h-.78a1.3,1.3,0,0,1-1.5-1.67l.19-4.94-1.26,0,0-.74,1.26,0,.08-2.17.88,0-.08,2.17Z"/><path class="cls-3" d="M172.33,172.91a2.44,2.44,0,0,1-.1.61,2.1,2.1,0,0,1-.25.55,1.78,1.78,0,0,1-.4.44,1.38,1.38,0,0,1-.55.26l0-.6a.62.62,0,0,0,.3-.2,1.46,1.46,0,0,0,.22-.33,1.61,1.61,0,0,0,.14-.39,1.43,1.43,0,0,0,0-.36l-.59,0,.06-1.48,1.17,0Z"/><path class="cls-3" d="M179.69,163.19l-.16,4.14h0a2.08,2.08,0,0,1,.43-.67,2.5,2.5,0,0,1,.61-.47,2.64,2.64,0,0,1,.74-.27,3.23,3.23,0,0,1,.79-.07,3.15,3.15,0,0,1,1.42.36,2.94,2.94,0,0,1,1,.87,3.53,3.53,0,0,1,.55,1.24,5.54,5.54,0,0,1-.11,2.92,3.54,3.54,0,0,1-.65,1.19,2.89,2.89,0,0,1-1,.79,3.21,3.21,0,0,1-1.45.24,3.05,3.05,0,0,1-1.56-.47,2.32,2.32,0,0,1-1-1.2h0l-.05,1.37-.81,0,.39-10Zm4.56,5.45a3.13,3.13,0,0,0-.38-1,2.31,2.31,0,0,0-.71-.73,2,2,0,0,0-1.07-.31,2.37,2.37,0,0,0-1.19.23,2.33,2.33,0,0,0-.81.68,2.85,2.85,0,0,0-.47,1,4.68,4.68,0,0,0-.09,2.22,2.86,2.86,0,0,0,.4,1,2.32,2.32,0,0,0,.76.74,2.37,2.37,0,0,0,1.17.32,2,2,0,0,0,1.09-.23,2.31,2.31,0,0,0,.76-.68,3.11,3.11,0,0,0,.46-1,4.75,4.75,0,0,0,.09-2.22Z"/><path class="cls-3" d="M191.49,173.65l.05-1.3h0a2.5,2.5,0,0,1-1.06,1.07,2.9,2.9,0,0,1-1.49.33,3.21,3.21,0,0,1-1.16-.23,1.94,1.94,0,0,1-.76-.57,2.17,2.17,0,0,1-.41-.87,4.27,4.27,0,0,1-.1-1.15l.18-4.69.88,0-.18,4.7a2.36,2.36,0,0,0,.4,1.5,1.85,1.85,0,0,0,1.46.56,1.87,1.87,0,0,0,1-.21,2.11,2.11,0,0,0,.7-.62,3,3,0,0,0,.43-.92,4.57,4.57,0,0,0,.17-1.07l.15-3.79.88,0-.28,7.22Z"/><path class="cls-3" d="M197.11,166.64l0,.74-1.47-.06-.19,4.87a1.56,1.56,0,0,0,.09.68c.07.17.27.26.58.3a6.72,6.72,0,0,0,.76,0l0,.74H196a1.74,1.74,0,0,1-1.22-.39,1.72,1.72,0,0,1-.29-1.28l.19-4.94-1.26,0,0-.74,1.26,0,.08-2.17.88,0-.08,2.17Z"/><path class="cls-3" d="M203.57,164.11l-.39,10-1,0,.39-10Z"/><path class="cls-3" d="M207.14,165.75a2.53,2.53,0,0,1-.1.61,2.12,2.12,0,0,1-.25.55,1.78,1.78,0,0,1-.4.44,1.37,1.37,0,0,1-.56.26l0-.6a.66.66,0,0,0,.31-.19,1.33,1.33,0,0,0,.22-.34,1.86,1.86,0,0,0,.13-.39,1.41,1.41,0,0,0,0-.37l-.59,0,.06-1.48,1.17,0Z"/><path class="cls-3" d="M214.52,174.54l.05-1.37h0a2.07,2.07,0,0,1-.44.63,2.71,2.71,0,0,1-.64.47,3.22,3.22,0,0,1-.76.29,2.94,2.94,0,0,1-.79.08,3.21,3.21,0,0,1-1.42-.36,2.88,2.88,0,0,1-1-.86,3.56,3.56,0,0,1-.55-1.24,5.56,5.56,0,0,1,.11-2.92,3.59,3.59,0,0,1,.65-1.19,3,3,0,0,1,1-.79,3.14,3.14,0,0,1,1.45-.25,3.2,3.2,0,0,1,.79.13,2.66,2.66,0,0,1,.71.33,2.59,2.59,0,0,1,.58.52,2.1,2.1,0,0,1,.37.7h0l.16-4.14.88,0-.39,10Zm-4.74-2.68a3.07,3.07,0,0,0,.38,1,2.31,2.31,0,0,0,.71.73,2,2,0,0,0,1.07.31,2.37,2.37,0,0,0,1.19-.23,2.33,2.33,0,0,0,.81-.68,2.93,2.93,0,0,0,.47-1,4.72,4.72,0,0,0,.09-2.22,2.94,2.94,0,0,0-.4-1,2.34,2.34,0,0,0-.76-.74,2.37,2.37,0,0,0-1.17-.32,2,2,0,0,0-1.09.23,2.32,2.32,0,0,0-.76.68,3.07,3.07,0,0,0-.46,1,4.72,4.72,0,0,0-.09,2.22Z"/><path class="cls-3" d="M222.17,164.83,222,169h0a2.09,2.09,0,0,1,.43-.67,2.5,2.5,0,0,1,.61-.47,2.63,2.63,0,0,1,.74-.27,3.23,3.23,0,0,1,.79-.07,3.14,3.14,0,0,1,1.42.36,2.94,2.94,0,0,1,1,.87,3.52,3.52,0,0,1,.55,1.24,5.56,5.56,0,0,1-.11,2.92,3.55,3.55,0,0,1-.65,1.19,2.89,2.89,0,0,1-1,.79,3.21,3.21,0,0,1-1.45.25,3.06,3.06,0,0,1-1.56-.47,2.32,2.32,0,0,1-1-1.2h0l-.05,1.37-.81,0,.39-10Zm4.56,5.45a3.1,3.1,0,0,0-.38-1,2.31,2.31,0,0,0-.71-.73,2,2,0,0,0-1.07-.31,2.37,2.37,0,0,0-1.19.23,2.33,2.33,0,0,0-.81.68,2.87,2.87,0,0,0-.47,1,4.68,4.68,0,0,0-.09,2.22,2.88,2.88,0,0,0,.4,1,2.33,2.33,0,0,0,.76.74,2.36,2.36,0,0,0,1.17.32,2,2,0,0,0,1.09-.23,2.3,2.3,0,0,0,.76-.68,3.09,3.09,0,0,0,.46-1,4.72,4.72,0,0,0,.09-2.22Z"/><path class="cls-3" d="M229.68,172.74a2.72,2.72,0,0,0,.39.93,2.46,2.46,0,0,0,.72.7,2.08,2.08,0,0,0,1.07.31,2.14,2.14,0,0,0,1.53-.45,2.64,2.64,0,0,0,.81-1.31l.88,0a3.53,3.53,0,0,1-1.1,1.86,3.07,3.07,0,0,1-2.15.59,3.37,3.37,0,0,1-1.46-.36,2.71,2.71,0,0,1-1-.86,3.57,3.57,0,0,1-.53-1.24,5.54,5.54,0,0,1-.13-1.47,5.21,5.21,0,0,1,.24-1.39,3.75,3.75,0,0,1,.63-1.2,2.89,2.89,0,0,1,1-.83,3.12,3.12,0,0,1,1.49-.27,2.86,2.86,0,0,1,2.43,1.36,3.81,3.81,0,0,1,.5,1.32,5.74,5.74,0,0,1,.08,1.5l-5.55-.21A4,4,0,0,0,229.68,172.74Zm4.47-2.52a2.68,2.68,0,0,0-.42-.84,2.26,2.26,0,0,0-.69-.6,2.23,2.23,0,0,0-1.92-.07,2.26,2.26,0,0,0-.74.55,2.87,2.87,0,0,0-.5.81,4.05,4.05,0,0,0-.27.95l4.67.18A3.24,3.24,0,0,0,234.15,170.22Z"/><path class="cls-3" d="M244.87,168.58a3.2,3.2,0,0,1,1,.87,3.56,3.56,0,0,1,.61,1.24,5,5,0,0,1-.11,3,3.56,3.56,0,0,1-.7,1.18,3.1,3.1,0,0,1-1.1.78,3.71,3.71,0,0,1-2.92-.11,3.11,3.11,0,0,1-1-.86,3.58,3.58,0,0,1-.61-1.24,5,5,0,0,1,.11-3,3.58,3.58,0,0,1,.7-1.18,3.2,3.2,0,0,1,1.1-.78,3.63,3.63,0,0,1,2.92.11Zm-2.59.6a2.42,2.42,0,0,0-.82.67,3.17,3.17,0,0,0-.51,1,4,4,0,0,0-.09,2.25,3.18,3.18,0,0,0,.44,1,2.42,2.42,0,0,0,.76.73,2.43,2.43,0,0,0,2.21.09,2.42,2.42,0,0,0,.82-.67,3.18,3.18,0,0,0,.51-1,4,4,0,0,0,.09-2.25,3.21,3.21,0,0,0-.44-1,2.43,2.43,0,0,0-.76-.73,2.43,2.43,0,0,0-2.21-.09Z"/><path class="cls-3" d="M249.13,165.88l-.24,6.27L253,168.8l1.18,0L251,171.4l3.11,4.67L253,176l-2.7-4-1.47,1.13-.11,2.74-.88,0,.39-10Z"/><path class="cls-3" d="M255.27,170a2.06,2.06,0,0,1,.64-.73,2.59,2.59,0,0,1,.92-.4,4.41,4.41,0,0,1,1.15-.1,5.06,5.06,0,0,1,.95.13,2.3,2.3,0,0,1,.84.38,1.86,1.86,0,0,1,.59.73,2.54,2.54,0,0,1,.19,1.19L260.4,175a.46.46,0,0,0,.5.55.67.67,0,0,0,.28,0l0,.74-.27,0h-.3a1.33,1.33,0,0,1-.53-.11.72.72,0,0,1-.31-.27,1,1,0,0,1-.13-.4,3.35,3.35,0,0,1,0-.51h0a5.83,5.83,0,0,1-.51.6,2.34,2.34,0,0,1-.56.43,2.51,2.51,0,0,1-.7.25,3.78,3.78,0,0,1-.92.06,3.65,3.65,0,0,1-.94-.16,2.12,2.12,0,0,1-.75-.41,1.79,1.79,0,0,1-.49-.68,2.17,2.17,0,0,1-.15-1,1.87,1.87,0,0,1,.38-1.17,2.12,2.12,0,0,1,.91-.62,5.08,5.08,0,0,1,1.26-.27l1.41-.12L259,172a.86.86,0,0,0,.35-.13.67.67,0,0,0,.23-.28,1.22,1.22,0,0,0,.1-.47,1.61,1.61,0,0,0-.12-.74,1.16,1.16,0,0,0-.39-.47,1.64,1.64,0,0,0-.59-.25,4,4,0,0,0-.73-.09,2.22,2.22,0,0,0-1.39.35,1.56,1.56,0,0,0-.61,1.26l-.88,0A2.94,2.94,0,0,1,255.27,170Zm4.32,2.33a.5.5,0,0,1-.33.21l-.42.08-1.16.13a6.34,6.34,0,0,0-1.09.19,2.12,2.12,0,0,0-.82.41,1.05,1.05,0,0,0-.35.81,1.28,1.28,0,0,0,.11.6,1.44,1.44,0,0,0,.34.46,1.54,1.54,0,0,0,.51.31,1.89,1.89,0,0,0,.6.12,3,3,0,0,0,1-.12,2.39,2.39,0,0,0,.82-.42,2.13,2.13,0,0,0,.81-1.64l0-1.15Z"/><path class="cls-3" d="M262.52,169.17l2.14,6.25,2.46-6.07.88,0-3.46,8.19a8.16,8.16,0,0,1-.39.75,1.78,1.78,0,0,1-.39.46,1.24,1.24,0,0,1-.49.23,2.6,2.6,0,0,1-.7,0l-.41,0a.85.85,0,0,1-.26-.06l0-.74.3.06.3,0a1.2,1.2,0,0,0,.49-.07,1.05,1.05,0,0,0,.34-.22,1.35,1.35,0,0,0,.25-.35l.23-.45.34-.8-2.6-7.3Z"/><path class="cls-3" d="M117.12,176.55l1.61,6.26h0l2-6.12,1,0,1.52,6.25h0l2.09-6.11.94,0-2.6,7.13-1,0-1.54-6.14h0l-2,6-1,0-2-7.31Z"/><path class="cls-3" d="M128.28,174.21l-.05,1.41-.88,0,.05-1.41Zm-.11,2.77-.28,7.22-.88,0,.28-7.22Z"/><path class="cls-3" d="M132.73,177.16l0,.74-1.47-.06-.19,4.87a1.58,1.58,0,0,0,.09.68c.07.17.27.27.58.3a6.78,6.78,0,0,0,.76,0l0,.74h-.78a1.3,1.3,0,0,1-1.5-1.67l.19-4.94-1.26,0,0-.74,1.26,0,.08-2.17.88,0-.08,2.17Z"/><path class="cls-3" d="M135,174.47l-.16,4h0a2.12,2.12,0,0,1,.94-1,2.64,2.64,0,0,1,1.43-.34,3.57,3.57,0,0,1,1.26.25,2,2,0,0,1,.8.58,2.08,2.08,0,0,1,.4.89,4.92,4.92,0,0,1,.08,1.17l-.18,4.64-.88,0,.17-4.5a4.13,4.13,0,0,0,0-.86,1.83,1.83,0,0,0-.27-.7,1.43,1.43,0,0,0-.55-.48,2.09,2.09,0,0,0-.88-.2,2.25,2.25,0,0,0-1,.15,2,2,0,0,0-.72.49,2.37,2.37,0,0,0-.48.77,3.16,3.16,0,0,0-.21,1l-.16,4.21-.88,0,.39-10Z"/><path class="cls-3" d="M150.66,185.08l.05-1.37h0a2.06,2.06,0,0,1-.44.63,2.69,2.69,0,0,1-.64.47,3.28,3.28,0,0,1-.76.29,2.92,2.92,0,0,1-.79.08,3.2,3.2,0,0,1-1.42-.36,2.88,2.88,0,0,1-1-.87,3.54,3.54,0,0,1-.55-1.24,5.59,5.59,0,0,1,.11-2.92,3.55,3.55,0,0,1,.65-1.19,3,3,0,0,1,1-.79,3.16,3.16,0,0,1,1.45-.25,3.21,3.21,0,0,1,.79.13,2.66,2.66,0,0,1,.71.33,2.55,2.55,0,0,1,.58.52,2.1,2.1,0,0,1,.37.7h0l.16-4.14.88,0-.39,10Zm-4.74-2.68a3.07,3.07,0,0,0,.38,1,2.3,2.3,0,0,0,.71.74,2,2,0,0,0,1.07.31,2.37,2.37,0,0,0,1.19-.23,2.34,2.34,0,0,0,.81-.68,2.92,2.92,0,0,0,.47-1,4.69,4.69,0,0,0,.09-2.22,2.94,2.94,0,0,0-.4-1,2.27,2.27,0,0,0-1.93-1.06,2,2,0,0,0-1.09.23,2.31,2.31,0,0,0-.76.68,3.08,3.08,0,0,0-.46,1,4.72,4.72,0,0,0-.09,2.22Z"/><path class="cls-3" d="M154.24,178l-.07,1.69h0a2.78,2.78,0,0,1,1.09-1.32A2.73,2.73,0,0,1,157,178l0,.88a2.66,2.66,0,0,0-1.1.12,2.42,2.42,0,0,0-1.45,1.32,2.8,2.8,0,0,0-.24,1l-.15,3.85-.88,0,.28-7.22Z"/><path class="cls-3" d="M158.05,183a2.72,2.72,0,0,0,.39.93,2.45,2.45,0,0,0,.72.7,2.08,2.08,0,0,0,1.07.31,2.15,2.15,0,0,0,1.53-.44,2.65,2.65,0,0,0,.81-1.31l.88,0a3.52,3.52,0,0,1-1.1,1.86,3.07,3.07,0,0,1-2.15.59,3.36,3.36,0,0,1-1.46-.36,2.7,2.7,0,0,1-1-.86,3.57,3.57,0,0,1-.53-1.24,5.53,5.53,0,0,1-.13-1.47,5.25,5.25,0,0,1,.24-1.39,3.77,3.77,0,0,1,.63-1.2,2.92,2.92,0,0,1,1-.83,3.13,3.13,0,0,1,1.49-.27,2.85,2.85,0,0,1,2.43,1.36,3.8,3.8,0,0,1,.5,1.32,5.78,5.78,0,0,1,.08,1.5L158,182A3.92,3.92,0,0,0,158.05,183Zm4.47-2.52a2.67,2.67,0,0,0-.42-.84,2.27,2.27,0,0,0-.69-.6,2.23,2.23,0,0,0-1.92-.07,2.24,2.24,0,0,0-.74.55,2.87,2.87,0,0,0-.5.81,4.06,4.06,0,0,0-.27.95l4.67.18A3.22,3.22,0,0,0,162.52,180.45Z"/><path class="cls-3" d="M168.95,180a1.43,1.43,0,0,0-.39-.51,1.73,1.73,0,0,0-.58-.31,2.71,2.71,0,0,0-.71-.12,2.86,2.86,0,0,0-.6,0,1.83,1.83,0,0,0-.56.19,1.2,1.2,0,0,0-.42.37,1.06,1.06,0,0,0-.18.58.82.82,0,0,0,.13.5,1.3,1.3,0,0,0,.36.36,2.3,2.3,0,0,0,.48.25l.48.17,1.16.31a3.38,3.38,0,0,1,.74.23,2.42,2.42,0,0,1,.64.41,1.89,1.89,0,0,1,.44.61,1.76,1.76,0,0,1,.15.83,1.81,1.81,0,0,1-.3,1,2.16,2.16,0,0,1-.7.65,2.86,2.86,0,0,1-.94.33,4.79,4.79,0,0,1-1,.07,3.32,3.32,0,0,1-2-.68,2.57,2.57,0,0,1-.83-2l.88,0a1.74,1.74,0,0,0,.6,1.38,2.37,2.37,0,0,0,1.46.51,3.33,3.33,0,0,0,.67,0,2.15,2.15,0,0,0,.64-.21,1.53,1.53,0,0,0,.5-.41,1.05,1.05,0,0,0,.21-.63,1,1,0,0,0-.11-.54,1.16,1.16,0,0,0-.34-.38,2.29,2.29,0,0,0-.5-.26c-.19-.07-.38-.14-.58-.19l-1.12-.29a6.37,6.37,0,0,1-.79-.29,2.56,2.56,0,0,1-.62-.39,1.52,1.52,0,0,1-.41-.55,1.76,1.76,0,0,1-.12-.78,1.74,1.74,0,0,1,.28-.93,1.91,1.91,0,0,1,.66-.6,3,3,0,0,1,.89-.32,4.24,4.24,0,0,1,1-.08,3.56,3.56,0,0,1,1,.18,2.35,2.35,0,0,1,.81.47,2.12,2.12,0,0,1,.54.75,2.6,2.6,0,0,1,.2,1l-.88,0A1.67,1.67,0,0,0,168.95,180Z"/><path class="cls-3" d="M175.68,180.23a1.45,1.45,0,0,0-.39-.51,1.74,1.74,0,0,0-.58-.31,2.72,2.72,0,0,0-.71-.12,2.92,2.92,0,0,0-.6,0,1.84,1.84,0,0,0-.56.19,1.21,1.21,0,0,0-.42.37,1.07,1.07,0,0,0-.18.58.83.83,0,0,0,.13.5,1.31,1.31,0,0,0,.36.36,2.36,2.36,0,0,0,.48.25l.48.17,1.16.31a3.37,3.37,0,0,1,.74.23,2.4,2.4,0,0,1,.64.41,1.89,1.89,0,0,1,.45.61,1.77,1.77,0,0,1,.15.83,1.8,1.8,0,0,1-.3,1,2.16,2.16,0,0,1-.7.65,2.88,2.88,0,0,1-.94.33,4.76,4.76,0,0,1-1,.07,3.32,3.32,0,0,1-2-.68,2.56,2.56,0,0,1-.83-2l.88,0a1.74,1.74,0,0,0,.6,1.38,2.37,2.37,0,0,0,1.46.51,3.32,3.32,0,0,0,.67,0,2.14,2.14,0,0,0,.64-.21,1.52,1.52,0,0,0,.5-.41,1,1,0,0,0,.21-.63,1,1,0,0,0-.11-.54,1.16,1.16,0,0,0-.34-.38,2.32,2.32,0,0,0-.5-.26l-.57-.19-1.12-.29a6.28,6.28,0,0,1-.79-.29,2.54,2.54,0,0,1-.62-.39,1.52,1.52,0,0,1-.41-.55,1.76,1.76,0,0,1-.12-.78,1.74,1.74,0,0,1,.28-.93,1.91,1.91,0,0,1,.66-.6,3,3,0,0,1,.89-.32,4.28,4.28,0,0,1,1-.08,3.57,3.57,0,0,1,1,.18,2.35,2.35,0,0,1,.81.47,2.13,2.13,0,0,1,.54.75,2.62,2.62,0,0,1,.2,1l-.88,0A1.68,1.68,0,0,0,175.68,180.23Z"/><path class="cls-3" d="M179.31,176.18l-.05,1.41-.88,0,.05-1.41ZM179.2,179l-.28,7.22-.88,0,.28-7.22Z"/><path class="cls-3" d="M181.76,179.05l0,1.25h0a2.12,2.12,0,0,1,.94-1,2.64,2.64,0,0,1,1.43-.34,3.55,3.55,0,0,1,1.26.25,2,2,0,0,1,.8.58,2.06,2.06,0,0,1,.4.89,4.86,4.86,0,0,1,.08,1.17l-.18,4.64-.88,0,.17-4.5a4.19,4.19,0,0,0,0-.86,1.83,1.83,0,0,0-.27-.7,1.43,1.43,0,0,0-.55-.48,2.09,2.09,0,0,0-.88-.2,2.25,2.25,0,0,0-1,.15,2,2,0,0,0-.72.49,2.38,2.38,0,0,0-.48.77,3.16,3.16,0,0,0-.21,1l-.16,4.21-.88,0,.28-7.22Z"/><path class="cls-3" d="M194,187.61a2.79,2.79,0,0,1-.59,1.07,2.41,2.41,0,0,1-1,.65,4.1,4.1,0,0,1-1.5.18,4.47,4.47,0,0,1-1.06-.17,3,3,0,0,1-.92-.43,2.34,2.34,0,0,1-.66-.71,2,2,0,0,1-.28-1l.88,0a1.56,1.56,0,0,0,.25.69,1.63,1.63,0,0,0,.47.46,2.19,2.19,0,0,0,.63.27,3.32,3.32,0,0,0,.71.1,2.12,2.12,0,0,0,1.8-.63,3.22,3.22,0,0,0,.62-2l0-1h0a2.58,2.58,0,0,1-.94,1,2.41,2.41,0,0,1-1.41.35,3.49,3.49,0,0,1-1.47-.34,2.73,2.73,0,0,1-1-.83,3.2,3.2,0,0,1-.54-1.2,5.55,5.55,0,0,1-.13-1.45,4.44,4.44,0,0,1,.27-1.4,3.5,3.5,0,0,1,.67-1.14,3,3,0,0,1,1.05-.74,3.24,3.24,0,0,1,1.4-.23,2.54,2.54,0,0,1,.76.14,2.39,2.39,0,0,1,.64.34,2.77,2.77,0,0,1,.51.49,2.15,2.15,0,0,1,.34.57h0l0-1.25.88,0-.26,6.63A5.52,5.52,0,0,1,194,187.61Zm-1.95-2a2.29,2.29,0,0,0,.75-.62,2.81,2.81,0,0,0,.48-.9,3.94,3.94,0,0,0,.19-1.06,4.58,4.58,0,0,0-.09-1.07,3.08,3.08,0,0,0-.37-1,2.22,2.22,0,0,0-.7-.73,2,2,0,0,0-1.06-.31,2.12,2.12,0,0,0-1.09.22,2.29,2.29,0,0,0-.77.65,2.81,2.81,0,0,0-.46.94,4.51,4.51,0,0,0-.18,1.09,4,4,0,0,0,.1,1.07,2.74,2.74,0,0,0,.4.93,2.26,2.26,0,0,0,.72.67,2.19,2.19,0,0,0,1.05.29A2,2,0,0,0,192.07,185.61Z"/><path class="cls-3" d="M201.07,177l-.05,1.41-.88,0,.05-1.41ZM201,179.8l-.28,7.22-.88,0,.28-7.22Z"/><path class="cls-3" d="M203.53,179.9l0,1.25h0a2.11,2.11,0,0,1,.94-1,2.64,2.64,0,0,1,1.43-.34,3.57,3.57,0,0,1,1.26.25,2,2,0,0,1,.8.58,2.08,2.08,0,0,1,.4.89,4.92,4.92,0,0,1,.08,1.17l-.18,4.64-.88,0,.17-4.5a4.13,4.13,0,0,0,0-.86,1.83,1.83,0,0,0-.27-.7,1.43,1.43,0,0,0-.55-.48,2.09,2.09,0,0,0-.88-.2,2.25,2.25,0,0,0-1,.15,2.05,2.05,0,0,0-.72.49,2.38,2.38,0,0,0-.48.77,3.16,3.16,0,0,0-.21,1l-.16,4.21-.88,0,.28-7.22Z"/><path class="cls-3" d="M219.32,187.74l.05-1.37h0a2.1,2.1,0,0,1-.44.63,2.71,2.71,0,0,1-.64.47,3.28,3.28,0,0,1-.76.29,2.91,2.91,0,0,1-.79.08,3.21,3.21,0,0,1-1.42-.36,2.87,2.87,0,0,1-1-.86,3.52,3.52,0,0,1-.56-1.24,5.59,5.59,0,0,1,.11-2.92,3.55,3.55,0,0,1,.65-1.19,3,3,0,0,1,1-.79,3.4,3.4,0,0,1,2.23-.12,2.66,2.66,0,0,1,.71.33,2.55,2.55,0,0,1,.58.52,2.1,2.1,0,0,1,.37.7h0l.16-4.14.88,0-.39,10Zm-4.74-2.68a3.07,3.07,0,0,0,.38,1,2.29,2.29,0,0,0,.71.73,2,2,0,0,0,1.07.31,2.37,2.37,0,0,0,1.19-.23,2.34,2.34,0,0,0,.81-.68,2.91,2.91,0,0,0,.47-1,4.69,4.69,0,0,0,.09-2.22,2.92,2.92,0,0,0-.4-1,2.26,2.26,0,0,0-1.93-1.06,2,2,0,0,0-1.09.23,2.3,2.3,0,0,0-.76.68,3.07,3.07,0,0,0-.46,1,4.72,4.72,0,0,0-.09,2.22Z"/><path class="cls-3" d="M222.9,180.65l-.07,1.69h0A2.78,2.78,0,0,1,224,181a2.73,2.73,0,0,1,1.7-.37l0,.88a2.67,2.67,0,0,0-1.1.12,2.42,2.42,0,0,0-1.45,1.32,2.8,2.8,0,0,0-.24,1l-.15,3.85-.88,0,.28-7.22Z"/><path class="cls-3" d="M226.64,181.91a2.06,2.06,0,0,1,.64-.73,2.57,2.57,0,0,1,.92-.4,4.4,4.4,0,0,1,1.15-.1,5,5,0,0,1,.95.13,2.28,2.28,0,0,1,.84.38,1.86,1.86,0,0,1,.59.73,2.56,2.56,0,0,1,.19,1.19l-.15,3.83a.46.46,0,0,0,.5.55.7.7,0,0,0,.28,0l0,.74-.27,0h-.3a1.33,1.33,0,0,1-.53-.11.71.71,0,0,1-.31-.27,1,1,0,0,1-.13-.4,3.34,3.34,0,0,1,0-.51h0a5.78,5.78,0,0,1-.51.6,2.4,2.4,0,0,1-.56.43,2.49,2.49,0,0,1-.7.25,3.78,3.78,0,0,1-.92.06,3.62,3.62,0,0,1-.94-.15,2.11,2.11,0,0,1-.75-.41,1.81,1.81,0,0,1-.49-.68,2.18,2.18,0,0,1-.15-1,1.86,1.86,0,0,1,.38-1.17,2.1,2.1,0,0,1,.91-.62,5.06,5.06,0,0,1,1.26-.27l1.41-.12.49-.05a.87.87,0,0,0,.35-.13.68.68,0,0,0,.23-.28A1.23,1.23,0,0,0,231,183a1.6,1.6,0,0,0-.12-.74,1.17,1.17,0,0,0-.39-.47,1.64,1.64,0,0,0-.59-.25,4,4,0,0,0-.73-.09,2.23,2.23,0,0,0-1.39.35,1.56,1.56,0,0,0-.61,1.26l-.88,0A2.92,2.92,0,0,1,226.64,181.91Zm4.32,2.32a.5.5,0,0,1-.33.21l-.42.08-1.16.13a6.44,6.44,0,0,0-1.09.19,2.14,2.14,0,0,0-.82.41,1.06,1.06,0,0,0-.35.81,1.28,1.28,0,0,0,.11.6,1.42,1.42,0,0,0,.34.46,1.55,1.55,0,0,0,.51.31,1.9,1.9,0,0,0,.6.12,3,3,0,0,0,1-.12,2.36,2.36,0,0,0,.82-.42,2.18,2.18,0,0,0,.57-.69,2.15,2.15,0,0,0,.24-.94l0-1.15Z"/><path class="cls-3" d="M239.37,189.37a2.8,2.8,0,0,1-.59,1.07,2.41,2.41,0,0,1-1,.65,4.12,4.12,0,0,1-1.5.18,4.47,4.47,0,0,1-1.06-.17,3,3,0,0,1-.92-.43,2.32,2.32,0,0,1-.66-.71,2,2,0,0,1-.28-1l.88,0a1.56,1.56,0,0,0,.25.69,1.61,1.61,0,0,0,.47.46,2.18,2.18,0,0,0,.63.27,3.35,3.35,0,0,0,.71.1,2.11,2.11,0,0,0,1.8-.63,3.22,3.22,0,0,0,.62-2l0-1h0a2.58,2.58,0,0,1-.94,1,2.41,2.41,0,0,1-1.41.35,3.5,3.5,0,0,1-1.47-.34,2.74,2.74,0,0,1-1-.83,3.21,3.21,0,0,1-.54-1.2,5.51,5.51,0,0,1-.13-1.45,4.44,4.44,0,0,1,.27-1.4,3.5,3.5,0,0,1,.67-1.14,3,3,0,0,1,1.05-.74,3.23,3.23,0,0,1,1.4-.23,2.52,2.52,0,0,1,.76.14,2.41,2.41,0,0,1,.64.34,2.79,2.79,0,0,1,.51.49,2.14,2.14,0,0,1,.34.57h0l0-1.25.88,0-.26,6.63A5.52,5.52,0,0,1,239.37,189.37Zm-1.95-2a2.28,2.28,0,0,0,.75-.62,2.77,2.77,0,0,0,.48-.9,3.89,3.89,0,0,0,.19-1.06,4.59,4.59,0,0,0-.09-1.07,3.08,3.08,0,0,0-.37-1,2.23,2.23,0,0,0-.69-.73,2,2,0,0,0-1.06-.31,2.12,2.12,0,0,0-1.09.22,2.3,2.3,0,0,0-.77.65,2.81,2.81,0,0,0-.46.94,4.5,4.5,0,0,0-.18,1.09,4,4,0,0,0,.1,1.07,2.75,2.75,0,0,0,.4.93,2.25,2.25,0,0,0,.72.67,2.19,2.19,0,0,0,1.05.29A2,2,0,0,0,237.42,187.37Z"/><path class="cls-3" d="M241.83,187.12l1.17,0-.06,1.48-1.17,0Z"/></g></svg>