<svg id="Layer_1" data-name="Layer 1" xmlns="http://www.w3.org/2000/svg" viewBox="0 0 360 360"><defs><style>.cls-1{fill:#14a697;}.cls-2{opacity:0.58;}.cls-3{fill:#fef5f3;}</style></defs><title>buttons_female</title><polygon class="cls-1" points="130.62 159.42 158.16 148.46 196.11 154.25 240.36 177.85 232.45 200.04 174.82 196.92 107.12 192.53 110.55 169.78 130.62 159.42"/><g class="cls-2"><path class="cls-3" d="M130.53,163.39l2,8.83h0l2.74-8.66,1.19,0,2.14,8.83h0l2.59-8.66,1,0L139,173.7l-1,0-2.21-9h0L133,173.48l-1,0-2.41-10.09Z"/><path class="cls-3" d="M144.27,163.88l-.05,1.41-.88,0,.05-1.41Zm-.1,2.77-.26,7.22-.88,0,.26-7.22Z"/><path class="cls-3" d="M148.73,166.81l0,.74-1.47-.05-.17,4.87a1.56,1.56,0,0,0,.1.68q.11.25.58.29a6.86,6.86,0,0,0,.76,0l0,.74h-.78a1.3,1.3,0,0,1-1.51-1.66l.18-4.94-1.26,0,0-.74,1.26,0,.08-2.17.88,0-.08,2.17Z"/><path class="cls-3" d="M151,164.12l-.14,4h0a2.12,2.12,0,0,1,.93-1,2.64,2.64,0,0,1,1.43-.35,3.57,3.57,0,0,1,1.26.24,2,2,0,0,1,.8.58,2.08,2.08,0,0,1,.4.89,5,5,0,0,1,.08,1.17l-.17,4.65-.88,0,.16-4.5a4.18,4.18,0,0,0-.05-.86,1.81,1.81,0,0,0-.27-.7,1.43,1.43,0,0,0-.55-.48,2.09,2.09,0,0,0-.88-.2,2.25,2.25,0,0,0-1,.16,2,2,0,0,0-.72.49,2.39,2.39,0,0,0-.48.77,3.16,3.16,0,0,0-.21,1l-.15,4.21-.88,0,.36-10Z"/><path class="cls-3" d="M164.28,167.37l0,.74-1.47-.05-.17,4.87a1.56,1.56,0,0,0,.1.68c.07.17.27.26.59.29a6.89,6.89,0,0,0,.76,0l0,.74h-.78a1.74,1.74,0,0,1-1.22-.39,1.72,1.72,0,0,1-.29-1.28l.18-4.94-1.26,0,0-.74,1.26,0,.08-2.17.88,0-.08,2.17Z"/><path class="cls-3" d="M166.52,164.67l-.14,4h0a2.11,2.11,0,0,1,.93-1,2.63,2.63,0,0,1,1.43-.35,3.57,3.57,0,0,1,1.26.24,2,2,0,0,1,.8.58,2.07,2.07,0,0,1,.4.89,4.92,4.92,0,0,1,.08,1.17l-.17,4.65-.88,0,.16-4.5a4.25,4.25,0,0,0-.05-.86,1.8,1.8,0,0,0-.27-.7,1.43,1.43,0,0,0-.55-.48,2.09,2.09,0,0,0-.88-.2,2.25,2.25,0,0,0-.95.16,2,2,0,0,0-.72.49,2.39,2.39,0,0,0-.48.77,3.17,3.17,0,0,0-.21,1l-.15,4.21-.88,0,.36-10Z"/><path class="cls-3" d="M173.54,172.54a2.7,2.7,0,0,0,.39.93,2.45,2.45,0,0,0,.72.7,2.07,2.07,0,0,0,1.07.3,2.14,2.14,0,0,0,1.53-.45,2.64,2.64,0,0,0,.8-1.32l.88,0a3.53,3.53,0,0,1-1.1,1.87,3.07,3.07,0,0,1-2.14.6,3.37,3.37,0,0,1-1.47-.35,2.7,2.7,0,0,1-1-.86,3.57,3.57,0,0,1-.54-1.24,5.53,5.53,0,0,1-.14-1.47,5.21,5.21,0,0,1,.24-1.39,3.75,3.75,0,0,1,.63-1.2,2.9,2.9,0,0,1,1-.83,3.12,3.12,0,0,1,1.49-.28,2.86,2.86,0,0,1,2.44,1.35,3.81,3.81,0,0,1,.51,1.32,5.74,5.74,0,0,1,.09,1.5l-5.55-.2A3.94,3.94,0,0,0,173.54,172.54ZM178,170a2.69,2.69,0,0,0-.43-.83,2.26,2.26,0,0,0-.69-.6,2,2,0,0,0-.94-.25,2.08,2.08,0,0,0-1,.18,2.25,2.25,0,0,0-.73.55,2.86,2.86,0,0,0-.5.81,4.1,4.1,0,0,0-.27,1l4.67.17A3.24,3.24,0,0,0,178,170Z"/><path class="cls-3" d="M184.42,168.09l1.63,6.25h0l2-6.12,1,0,1.54,6.25h0l2.07-6.12.94,0L191,175.55l-1,0-1.56-6.14h0l-2,6-1,0-2.06-7.3Z"/><path class="cls-3" d="M195.39,168.48l-.06,1.69h0a2.78,2.78,0,0,1,1.09-1.32,2.73,2.73,0,0,1,1.7-.37l0,.88a2.65,2.65,0,0,0-1.1.12,2.47,2.47,0,0,0-.87.51,2.43,2.43,0,0,0-.58.81,2.77,2.77,0,0,0-.23,1l-.14,3.85-.88,0,.26-7.22Z"/><path class="cls-3" d="M199.13,169.73a2.05,2.05,0,0,1,.63-.73,2.57,2.57,0,0,1,.92-.4,4.41,4.41,0,0,1,1.15-.1,5.1,5.1,0,0,1,.95.12,2.29,2.29,0,0,1,.84.37,1.86,1.86,0,0,1,.59.73,2.53,2.53,0,0,1,.2,1.19l-.14,3.83a.46.46,0,0,0,.5.55.69.69,0,0,0,.28,0l0,.74-.27,0h-.3a1.34,1.34,0,0,1-.54-.11.72.72,0,0,1-.31-.27,1,1,0,0,1-.13-.4,3.33,3.33,0,0,1,0-.51h0a5.82,5.82,0,0,1-.51.6,2.32,2.32,0,0,1-.56.44,2.52,2.52,0,0,1-.7.26,3.8,3.8,0,0,1-.92.06,3.65,3.65,0,0,1-.94-.15,2.13,2.13,0,0,1-.75-.41,1.8,1.8,0,0,1-.49-.68,2.17,2.17,0,0,1-.16-1,1.87,1.87,0,0,1,.38-1.17,2.12,2.12,0,0,1,.91-.62,5.06,5.06,0,0,1,1.26-.27l1.41-.12.49-.05a.88.88,0,0,0,.35-.13.68.68,0,0,0,.23-.28,1.22,1.22,0,0,0,.1-.47,1.61,1.61,0,0,0-.12-.74,1.16,1.16,0,0,0-.39-.47,1.65,1.65,0,0,0-.59-.25,4.09,4.09,0,0,0-.73-.09,2.22,2.22,0,0,0-1.39.35,1.56,1.56,0,0,0-.61,1.26l-.88,0A2.94,2.94,0,0,1,199.13,169.73Zm4.33,2.31a.5.5,0,0,1-.33.21l-.42.08-1.16.13a6.34,6.34,0,0,0-1.09.19,2.12,2.12,0,0,0-.82.41,1.05,1.05,0,0,0-.34.81,1.27,1.27,0,0,0,.11.6,1.44,1.44,0,0,0,.34.46,1.54,1.54,0,0,0,.51.3,1.87,1.87,0,0,0,.6.12,3,3,0,0,0,1-.12,2.39,2.39,0,0,0,.82-.42,2.13,2.13,0,0,0,.81-1.64l0-1.15Z"/><path class="cls-3" d="M209.12,169l0,.74-1.47-.05-.17,4.87a1.57,1.57,0,0,0,.09.68q.11.25.59.29a6.78,6.78,0,0,0,.76,0l0,.74h-.78a1.3,1.3,0,0,1-1.51-1.66l.18-4.94-1.26,0,0-.74,1.26,0,.08-2.17.88,0-.08,2.17Z"/><path class="cls-3" d="M211.35,166.27l-.14,4h0a2.12,2.12,0,0,1,.93-1,2.63,2.63,0,0,1,1.43-.35,3.57,3.57,0,0,1,1.26.24,2,2,0,0,1,.8.58,2.09,2.09,0,0,1,.4.89,5,5,0,0,1,.08,1.17l-.16,4.65-.88,0,.16-4.5a4.18,4.18,0,0,0-.05-.86,1.8,1.8,0,0,0-.27-.7,1.43,1.43,0,0,0-.55-.48,2.09,2.09,0,0,0-.88-.2,2.25,2.25,0,0,0-.95.16,2,2,0,0,0-.72.49,2.37,2.37,0,0,0-.48.77,3.16,3.16,0,0,0-.21,1l-.15,4.21-.88,0,.36-10Z"/><path class="cls-3" d="M118.53,178.84a3.2,3.2,0,0,1,1,.86,3.6,3.6,0,0,1,.61,1.23,5,5,0,0,1-.1,3,3.6,3.6,0,0,1-.7,1.19,3.13,3.13,0,0,1-1.1.78,3.71,3.71,0,0,1-2.93-.1,3.1,3.1,0,0,1-1-.86,3.55,3.55,0,0,1-.61-1.23,5,5,0,0,1,.1-3,3.55,3.55,0,0,1,.7-1.19,3.16,3.16,0,0,1,1.1-.79,3.63,3.63,0,0,1,2.93.1Zm-2.59.61a2.42,2.42,0,0,0-.82.67,3.18,3.18,0,0,0-.51,1,4,4,0,0,0-.08,2.25,3.18,3.18,0,0,0,.44,1,2.43,2.43,0,0,0,.77.73,2.44,2.44,0,0,0,2.21.08,2.41,2.41,0,0,0,.82-.67,3.16,3.16,0,0,0,.51-1,4,4,0,0,0,.08-2.25,3.18,3.18,0,0,0-.44-1,2.43,2.43,0,0,0-.77-.73,2.43,2.43,0,0,0-2.21-.08Z"/><path class="cls-3" d="M123.13,179.65l-.23,6.48-.88,0,.23-6.48-1.23,0,0-.74,1.23,0,0-.66a4.87,4.87,0,0,1,.1-.85,1.66,1.66,0,0,1,.29-.66,1.27,1.27,0,0,1,.55-.41,2.13,2.13,0,0,1,.88-.12l.36,0,.38.06,0,.76-.33-.06-.31,0a1.15,1.15,0,0,0-.56.09.7.7,0,0,0-.3.29,1.13,1.13,0,0,0-.12.44c0,.17,0,.35,0,.55l0,.63,1.43.05,0,.74Z"/><path class="cls-3" d="M129.45,180.25a2.06,2.06,0,0,1,.63-.73,2.6,2.6,0,0,1,.92-.4,4.4,4.4,0,0,1,1.15-.1,5,5,0,0,1,.95.13,2.3,2.3,0,0,1,.84.37,1.87,1.87,0,0,1,.59.73,2.56,2.56,0,0,1,.2,1.19l-.14,3.83a.46.46,0,0,0,.5.55.68.68,0,0,0,.28,0l0,.74-.27,0h-.3a1.32,1.32,0,0,1-.54-.11.71.71,0,0,1-.31-.27,1,1,0,0,1-.13-.4,3.35,3.35,0,0,1,0-.51h0a5.75,5.75,0,0,1-.51.61,2.4,2.4,0,0,1-.56.43,2.49,2.49,0,0,1-.69.26,3.78,3.78,0,0,1-.92.06,3.6,3.6,0,0,1-.94-.15,2.12,2.12,0,0,1-.76-.4,1.81,1.81,0,0,1-.5-.68,2.18,2.18,0,0,1-.15-1,1.86,1.86,0,0,1,.38-1.17,2.1,2.1,0,0,1,.91-.62,5.08,5.08,0,0,1,1.26-.27l1.41-.12.49-.05a.86.86,0,0,0,.35-.13.68.68,0,0,0,.23-.28,1.22,1.22,0,0,0,.09-.47,1.6,1.6,0,0,0-.12-.74,1.17,1.17,0,0,0-.39-.47,1.65,1.65,0,0,0-.59-.25,4,4,0,0,0-.73-.09,2.23,2.23,0,0,0-1.39.35,1.56,1.56,0,0,0-.61,1.26l-.88,0A2.92,2.92,0,0,1,129.45,180.25Zm4.33,2.31a.5.5,0,0,1-.33.21,3.23,3.23,0,0,1-.42.08l-1.16.13a6.4,6.4,0,0,0-1.09.19,2.14,2.14,0,0,0-.82.41,1.06,1.06,0,0,0-.34.81,1.28,1.28,0,0,0,.11.6,1.43,1.43,0,0,0,.34.46,1.55,1.55,0,0,0,.51.31,1.91,1.91,0,0,0,.6.12,3,3,0,0,0,1-.12,2.37,2.37,0,0,0,.82-.42,2.18,2.18,0,0,0,.57-.69,2.15,2.15,0,0,0,.24-.94l0-1.15Z"/><path class="cls-3" d="M143.33,179.63l0,.74-1.47-.05-.17,4.87a1.58,1.58,0,0,0,.09.68c.07.17.27.26.58.29a6.75,6.75,0,0,0,.76,0l0,.74h-.78a1.3,1.3,0,0,1-1.51-1.67l.18-4.94-1.26,0,0-.74,1.26,0,.08-2.17.88,0-.08,2.17Z"/><path class="cls-3" d="M145.57,176.94l-.14,4h0a2.12,2.12,0,0,1,.93-1,2.63,2.63,0,0,1,1.43-.35,3.55,3.55,0,0,1,1.26.24,2,2,0,0,1,.8.58,2.07,2.07,0,0,1,.4.89,4.86,4.86,0,0,1,.08,1.17l-.17,4.64-.88,0,.16-4.5a4.13,4.13,0,0,0-.05-.86,1.84,1.84,0,0,0-.27-.7,1.43,1.43,0,0,0-.55-.48,2.08,2.08,0,0,0-.88-.2,2.24,2.24,0,0,0-.95.16,2,2,0,0,0-.72.49,2.39,2.39,0,0,0-.48.77,3.16,3.16,0,0,0-.21,1l-.15,4.21-.88,0,.36-10Z"/><path class="cls-3" d="M156.62,180.2a3.2,3.2,0,0,1,1,.86,3.6,3.6,0,0,1,.61,1.23,5,5,0,0,1-.1,3,3.6,3.6,0,0,1-.7,1.19,3.13,3.13,0,0,1-1.1.78,3.71,3.71,0,0,1-2.92-.1,3.1,3.1,0,0,1-1-.86,3.55,3.55,0,0,1-.61-1.23,5,5,0,0,1,.1-3,3.55,3.55,0,0,1,.7-1.19,3.16,3.16,0,0,1,1.1-.79,3.63,3.63,0,0,1,2.92.1Zm-2.59.61a2.42,2.42,0,0,0-.82.67,3.2,3.2,0,0,0-.51,1,4.06,4.06,0,0,0-.08,2.25,3.2,3.2,0,0,0,.44,1,2.43,2.43,0,0,0,.77.73,2.44,2.44,0,0,0,2.21.08,2.42,2.42,0,0,0,.82-.67,3.16,3.16,0,0,0,.51-1,4,4,0,0,0,.08-2.25,3.18,3.18,0,0,0-.44-1,2.44,2.44,0,0,0-.77-.73,2.43,2.43,0,0,0-2.21-.08Z"/><path class="cls-3" d="M164.67,187.62l0-1.3h0a2.5,2.5,0,0,1-1.05,1.08,2.89,2.89,0,0,1-1.49.33,3.2,3.2,0,0,1-1.16-.23,1.94,1.94,0,0,1-.76-.57,2.19,2.19,0,0,1-.41-.87,4.37,4.37,0,0,1-.1-1.15l.17-4.69.88,0-.17,4.7a2.34,2.34,0,0,0,.4,1.5,2.28,2.28,0,0,0,2.45.35,2.08,2.08,0,0,0,.69-.63,2.91,2.91,0,0,0,.42-.92,4.51,4.51,0,0,0,.16-1.07l.14-3.79.88,0-.26,7.22Z"/><path class="cls-3" d="M171.51,182a1.43,1.43,0,0,0-.39-.51,1.73,1.73,0,0,0-.58-.31,2.72,2.72,0,0,0-.71-.12,2.93,2.93,0,0,0-.6,0,1.82,1.82,0,0,0-.56.19,1.19,1.19,0,0,0-.42.37,1.06,1.06,0,0,0-.17.58.82.82,0,0,0,.13.5,1.29,1.29,0,0,0,.36.36,2.34,2.34,0,0,0,.48.25l.48.16,1.17.31a3.35,3.35,0,0,1,.74.23,2.42,2.42,0,0,1,.64.41,1.88,1.88,0,0,1,.45.6,1.77,1.77,0,0,1,.15.83,1.81,1.81,0,0,1-.3,1,2.16,2.16,0,0,1-.7.65,2.89,2.89,0,0,1-.94.34,4.83,4.83,0,0,1-1,.08,3.32,3.32,0,0,1-2-.67,2.57,2.57,0,0,1-.83-2l.88,0a1.74,1.74,0,0,0,.6,1.37,2.37,2.37,0,0,0,1.46.51,3.37,3.37,0,0,0,.67,0,2.15,2.15,0,0,0,.64-.21,1.52,1.52,0,0,0,.5-.41,1.05,1.05,0,0,0,.21-.63,1,1,0,0,0-.11-.54,1.17,1.17,0,0,0-.34-.38,2.32,2.32,0,0,0-.5-.26l-.58-.19-1.12-.29a6.37,6.37,0,0,1-.79-.29,2.55,2.55,0,0,1-.62-.39,1.53,1.53,0,0,1-.41-.55,1.76,1.76,0,0,1-.13-.78,1.74,1.74,0,0,1,.28-.93,1.92,1.92,0,0,1,.66-.61,3,3,0,0,1,.89-.32,4.21,4.21,0,0,1,1-.08,3.53,3.53,0,0,1,1,.18,2.35,2.35,0,0,1,.81.46,2.12,2.12,0,0,1,.54.75,2.61,2.61,0,0,1,.2,1l-.88,0A1.66,1.66,0,0,0,171.51,182Z"/><path class="cls-3" d="M174.28,181.85a2.06,2.06,0,0,1,.64-.73,2.56,2.56,0,0,1,.92-.4,4.38,4.38,0,0,1,1.15-.1,5,5,0,0,1,.95.13,2.31,2.31,0,0,1,.84.37,1.87,1.87,0,0,1,.59.73,2.55,2.55,0,0,1,.2,1.19l-.14,3.83a.46.46,0,0,0,.5.55.68.68,0,0,0,.28,0l0,.74-.27,0h-.3a1.33,1.33,0,0,1-.54-.11.72.72,0,0,1-.31-.27,1,1,0,0,1-.13-.4,3.34,3.34,0,0,1,0-.51h0a5.88,5.88,0,0,1-.51.61,2.39,2.39,0,0,1-.56.44,2.5,2.5,0,0,1-.69.26,3.8,3.8,0,0,1-.92.06,3.62,3.62,0,0,1-.94-.15,2.12,2.12,0,0,1-.75-.41,1.81,1.81,0,0,1-.5-.68,2.19,2.19,0,0,1-.15-1,1.86,1.86,0,0,1,.38-1.17,2.1,2.1,0,0,1,.91-.62,5.07,5.07,0,0,1,1.26-.27l1.41-.12.49-.05a.86.86,0,0,0,.35-.13.68.68,0,0,0,.23-.28,1.21,1.21,0,0,0,.09-.47,1.6,1.6,0,0,0-.12-.74,1.16,1.16,0,0,0-.39-.47,1.65,1.65,0,0,0-.59-.25,4,4,0,0,0-.73-.09,2.23,2.23,0,0,0-1.39.35,1.56,1.56,0,0,0-.6,1.26l-.88,0A2.94,2.94,0,0,1,174.28,181.85Zm4.33,2.31a.5.5,0,0,1-.33.21l-.42.08-1.16.13a6.44,6.44,0,0,0-1.09.19,2.13,2.13,0,0,0-.82.41,1.05,1.05,0,0,0-.35.81,1.28,1.28,0,0,0,.11.6,1.44,1.44,0,0,0,.34.46,1.54,1.54,0,0,0,.51.31,1.89,1.89,0,0,0,.6.12,3,3,0,0,0,1-.12,2.39,2.39,0,0,0,.82-.42,2.18,2.18,0,0,0,.57-.69,2.15,2.15,0,0,0,.24-.94l0-1.15Z"/><path class="cls-3" d="M182.26,181l0,1.25h0a2.12,2.12,0,0,1,.93-1,2.64,2.64,0,0,1,1.43-.35,3.57,3.57,0,0,1,1.26.24,2,2,0,0,1,.8.58,2.07,2.07,0,0,1,.4.89,4.86,4.86,0,0,1,.08,1.17l-.17,4.64-.88,0,.16-4.5a4.13,4.13,0,0,0-.05-.86,1.84,1.84,0,0,0-.27-.7,1.43,1.43,0,0,0-.55-.48,2.08,2.08,0,0,0-.88-.2,2.24,2.24,0,0,0-1,.16,2,2,0,0,0-.72.49,2.39,2.39,0,0,0-.48.77,3.16,3.16,0,0,0-.21,1l-.15,4.21-.88,0,.26-7.22Z"/><path class="cls-3" d="M194.19,188.67l0-1.37h0a2.09,2.09,0,0,1-.44.63,2.72,2.72,0,0,1-.64.47,3.29,3.29,0,0,1-.76.29,2.93,2.93,0,0,1-.79.08,3.21,3.21,0,0,1-1.42-.35,2.86,2.86,0,0,1-1-.86,3.54,3.54,0,0,1-.56-1.24,5.59,5.59,0,0,1,.1-2.92,3.56,3.56,0,0,1,.65-1.2,3,3,0,0,1,1-.8,3.15,3.15,0,0,1,1.45-.26,3.2,3.2,0,0,1,.79.13,2.67,2.67,0,0,1,.71.33,2.58,2.58,0,0,1,.58.52,2.08,2.08,0,0,1,.37.7h0l.15-4.14.88,0-.36,10ZM189.45,186a3.09,3.09,0,0,0,.38,1,2.3,2.3,0,0,0,.71.73,2,2,0,0,0,1.07.31,2.37,2.37,0,0,0,1.19-.23,2.33,2.33,0,0,0,.81-.68,2.88,2.88,0,0,0,.47-1,4.68,4.68,0,0,0,.08-2.22,2.9,2.9,0,0,0-.4-1,2.34,2.34,0,0,0-.76-.73,2.37,2.37,0,0,0-1.17-.31,2,2,0,0,0-1.09.23,2.33,2.33,0,0,0-.76.68,3.09,3.09,0,0,0-.45,1,4.75,4.75,0,0,0-.08,2.22Z"/><path class="cls-3" d="M204.94,183.24a1.43,1.43,0,0,0-.39-.51,1.75,1.75,0,0,0-.58-.31,2.72,2.72,0,0,0-.71-.12,2.86,2.86,0,0,0-.6,0,1.83,1.83,0,0,0-.56.19,1.2,1.2,0,0,0-.42.37,1.07,1.07,0,0,0-.17.58.82.82,0,0,0,.13.5,1.29,1.29,0,0,0,.36.36,2.3,2.3,0,0,0,.48.25l.48.16,1.17.31a3.35,3.35,0,0,1,.74.23,2.42,2.42,0,0,1,.64.41,1.88,1.88,0,0,1,.45.6,1.76,1.76,0,0,1,.15.83,1.81,1.81,0,0,1-.3,1,2.16,2.16,0,0,1-.7.65,2.89,2.89,0,0,1-.94.34,4.79,4.79,0,0,1-1,.07,3.32,3.32,0,0,1-2-.67,2.57,2.57,0,0,1-.83-2l.88,0a1.74,1.74,0,0,0,.6,1.37,2.37,2.37,0,0,0,1.46.51,3.37,3.37,0,0,0,.67,0,2.16,2.16,0,0,0,.64-.22,1.53,1.53,0,0,0,.5-.41,1.05,1.05,0,0,0,.21-.63,1,1,0,0,0-.11-.54,1.17,1.17,0,0,0-.34-.38,2.29,2.29,0,0,0-.5-.26c-.19-.07-.38-.14-.58-.19l-1.12-.29a6.37,6.37,0,0,1-.79-.29,2.58,2.58,0,0,1-.62-.39,1.53,1.53,0,0,1-.41-.55,1.76,1.76,0,0,1-.13-.78,1.74,1.74,0,0,1,.28-.93,1.91,1.91,0,0,1,.66-.61,3,3,0,0,1,.89-.32,4.21,4.21,0,0,1,1-.08,3.55,3.55,0,0,1,1,.18,2.35,2.35,0,0,1,.81.46,2.12,2.12,0,0,1,.54.75,2.6,2.6,0,0,1,.2,1l-.88,0A1.66,1.66,0,0,0,204.94,183.24Z"/><path class="cls-3" d="M212.34,189.32l0-1.3h0a2.5,2.5,0,0,1-1.05,1.08,2.89,2.89,0,0,1-1.49.33,3.2,3.2,0,0,1-1.16-.23,1.94,1.94,0,0,1-.76-.57,2.19,2.19,0,0,1-.41-.87,4.36,4.36,0,0,1-.1-1.15l.17-4.69.88,0-.17,4.7a2.34,2.34,0,0,0,.4,1.5,1.85,1.85,0,0,0,1.46.56,1.87,1.87,0,0,0,1-.21,2.1,2.1,0,0,0,.69-.63,2.91,2.91,0,0,0,.42-.92,4.51,4.51,0,0,0,.16-1.07l.14-3.79.88,0-.26,7.22Z"/><path class="cls-3" d="M215.94,182.22l0,1.25h0a2.11,2.11,0,0,1,.93-1,2.64,2.64,0,0,1,1.43-.35,3.57,3.57,0,0,1,1.26.24,2,2,0,0,1,.8.58,2.06,2.06,0,0,1,.4.89,4.86,4.86,0,0,1,.08,1.17l-.17,4.64-.88,0,.16-4.5a4.13,4.13,0,0,0-.05-.86,1.82,1.82,0,0,0-.27-.7,1.43,1.43,0,0,0-.55-.48,2.09,2.09,0,0,0-.88-.2,2.26,2.26,0,0,0-1,.16,2.05,2.05,0,0,0-.72.49,2.4,2.4,0,0,0-.48.77,3.19,3.19,0,0,0-.21,1l-.15,4.21-.88,0,.26-7.22Z"/><path class="cls-3" d="M226.69,184a1.45,1.45,0,0,0-.39-.51,1.74,1.74,0,0,0-.58-.31,2.72,2.72,0,0,0-.71-.12,2.92,2.92,0,0,0-.6,0,1.83,1.83,0,0,0-.56.19,1.2,1.2,0,0,0-.42.37,1.07,1.07,0,0,0-.17.58.82.82,0,0,0,.13.5,1.32,1.32,0,0,0,.36.36,2.34,2.34,0,0,0,.48.25l.49.16,1.17.31a3.37,3.37,0,0,1,.74.23,2.43,2.43,0,0,1,.64.41,1.9,1.9,0,0,1,.45.6,1.78,1.78,0,0,1,.15.83,1.81,1.81,0,0,1-.3,1,2.18,2.18,0,0,1-.7.65,2.92,2.92,0,0,1-.94.34,4.83,4.83,0,0,1-1,.08,3.32,3.32,0,0,1-2-.67,2.57,2.57,0,0,1-.83-2l.88,0a1.74,1.74,0,0,0,.6,1.37,2.37,2.37,0,0,0,1.46.51,3.4,3.4,0,0,0,.67,0,2.16,2.16,0,0,0,.64-.22,1.52,1.52,0,0,0,.5-.41,1,1,0,0,0,.21-.63,1,1,0,0,0-.11-.54,1.17,1.17,0,0,0-.34-.38,2.3,2.3,0,0,0-.5-.26l-.57-.19-1.12-.29a6.28,6.28,0,0,1-.79-.29,2.54,2.54,0,0,1-.62-.39,1.53,1.53,0,0,1-.41-.55,1.77,1.77,0,0,1-.13-.78,1.74,1.74,0,0,1,.28-.93,1.91,1.91,0,0,1,.66-.61,2.94,2.94,0,0,1,.89-.32,4.22,4.22,0,0,1,1-.08,3.53,3.53,0,0,1,1,.18,2.33,2.33,0,0,1,.81.46,2.12,2.12,0,0,1,.54.75,2.61,2.61,0,0,1,.2,1l-.88,0A1.68,1.68,0,0,0,226.69,184Z"/><path class="cls-3" d="M229.63,188.45l1.17,0-.05,1.48-1.17,0Z"/></g></svg>