<svg id="Layer_1" data-name="Layer 1" xmlns="http://www.w3.org/2000/svg" viewBox="0 0 360 360"><defs><style>.cls-1{fill:#f2c12e;}.cls-2{opacity:0.58;}.cls-3{fill:#fef5f3;}</style></defs><title>buttons_female</title><polygon class="cls-1" points="130.83 169.15 169.46 154.43 216.83 161.79 221.43 182.94 193.38 192.6 124.85 185.7 130.83 169.15"/><g class="cls-2"><path class="cls-3" d="M155,168.37l5.44,8.71h0l.37-8.45,1,0-.44,10-1.06,0-5.44-8.71h0l-.37,8.45-1,0,.44-10Z"/><path class="cls-3" d="M168,171.82a3.2,3.2,0,0,1,1,.87,3.58,3.58,0,0,1,.6,1.24,5,5,0,0,1-.13,3,3.58,3.58,0,0,1-.71,1.18,3.11,3.11,0,0,1-1.11.77,3.71,3.71,0,0,1-2.92-.13,3.11,3.11,0,0,1-1-.87,3.56,3.56,0,0,1-.6-1.24,5,5,0,0,1,.13-3,3.57,3.57,0,0,1,.71-1.18,3.19,3.19,0,0,1,1.11-.78,3.63,3.63,0,0,1,2.92.13Zm-2.6.59a2.44,2.44,0,0,0-.82.66,3.17,3.17,0,0,0-.52,1,4,4,0,0,0-.1,2.25,3.18,3.18,0,0,0,.43,1,2.45,2.45,0,0,0,.76.73,2.44,2.44,0,0,0,2.21.1,2.4,2.4,0,0,0,.82-.66,3.14,3.14,0,0,0,.52-1,4,4,0,0,0,.1-2.25,3.16,3.16,0,0,0-.43-1,2.42,2.42,0,0,0-.76-.73,2.43,2.43,0,0,0-2.21-.1Z"/><path class="cls-3" d="M175.41,172l1.57,6.26h0l2-6.1,1,0,1.49,6.26h0l2.12-6.1.94,0L182,179.56l-1,0-1.51-6.15h0l-2,6-1,0-2-7.32Z"/><path class="cls-3" d="M185.7,173.62a2.07,2.07,0,0,1,.64-.73,2.58,2.58,0,0,1,.92-.39,4.41,4.41,0,0,1,1.15-.09,5,5,0,0,1,.95.13,2.3,2.3,0,0,1,.84.38,1.86,1.86,0,0,1,.58.73,2.53,2.53,0,0,1,.19,1.19l-.17,3.83a.46.46,0,0,0,.49.55.69.69,0,0,0,.28,0l0,.74-.27,0H191a1.34,1.34,0,0,1-.54-.11.73.73,0,0,1-.3-.27,1,1,0,0,1-.13-.4,3.35,3.35,0,0,1,0-.51h0a5.78,5.78,0,0,1-.51.6,2.34,2.34,0,0,1-.57.43,2.47,2.47,0,0,1-.7.25,3.78,3.78,0,0,1-.92.06,3.65,3.65,0,0,1-.94-.16,2.13,2.13,0,0,1-.75-.41,1.8,1.8,0,0,1-.49-.68,2.18,2.18,0,0,1-.15-1,1.87,1.87,0,0,1,.39-1.17,2.12,2.12,0,0,1,.92-.61,5.06,5.06,0,0,1,1.26-.26l1.41-.11.49,0a.86.86,0,0,0,.36-.13.68.68,0,0,0,.23-.28,1.22,1.22,0,0,0,.1-.47A1.61,1.61,0,0,0,190,174a1.16,1.16,0,0,0-.39-.47,1.63,1.63,0,0,0-.59-.26,4,4,0,0,0-.73-.1,2.23,2.23,0,0,0-1.39.34,1.56,1.56,0,0,0-.62,1.25l-.88,0A3,3,0,0,1,185.7,173.62ZM190,176a.51.51,0,0,1-.33.21l-.42.08-1.16.12a6.39,6.39,0,0,0-1.09.18,2.12,2.12,0,0,0-.82.41,1,1,0,0,0-.35.8,1.28,1.28,0,0,0,.11.6,1.46,1.46,0,0,0,.34.46,1.55,1.55,0,0,0,.5.31,1.89,1.89,0,0,0,.6.12,3,3,0,0,0,1-.11,2.4,2.4,0,0,0,.82-.41,2.14,2.14,0,0,0,.82-1.63L190,176Z"/><path class="cls-3" d="M192.95,172.82l2.1,6.26,2.5-6.06.88,0-3.5,8.17a8.14,8.14,0,0,1-.4.75,1.76,1.76,0,0,1-.39.46,1.25,1.25,0,0,1-.49.23,2.62,2.62,0,0,1-.7,0l-.41,0a.85.85,0,0,1-.26-.06l0-.74.3.06.3,0a1.19,1.19,0,0,0,.49-.06,1.05,1.05,0,0,0,.34-.22,1.37,1.37,0,0,0,.25-.35l.23-.45.35-.8L192,172.78Z"/></g></svg>