<svg id="Layer_1" data-name="Layer 1" xmlns="http://www.w3.org/2000/svg" viewBox="0 0 360 360"><defs><style>.cls-1{fill:#f27649;}.cls-2{opacity:0.58;}.cls-3{fill:#fef5f3;}</style></defs><title>buttons_female</title><polygon class="cls-1" points="70.18 158.63 122.87 157.56 179.32 152.72 267.5 153.79 292.96 172.01 273.95 194.12 127.17 191.43 81.11 195.32 53.78 184.81 70.18 158.63"/><g class="cls-2"><path class="cls-3" d="M72.82,167.83a4.92,4.92,0,0,1,.85-1.68A4.25,4.25,0,0,1,75.13,165a5.19,5.19,0,0,1,4.12-.08A4.27,4.27,0,0,1,80.74,166a4.93,4.93,0,0,1,.91,1.64,6.76,6.76,0,0,1,.08,3.95,4.83,4.83,0,0,1-.85,1.67,4.3,4.3,0,0,1-1.45,1.17,5.18,5.18,0,0,1-4.12.08,4.26,4.26,0,0,1-1.5-1.11,4.86,4.86,0,0,1-.91-1.63,6.78,6.78,0,0,1-.08-3.95Zm.95,3.56a4.29,4.29,0,0,0,.7,1.4,3.36,3.36,0,0,0,1.19,1,4,4,0,0,0,3.41-.07,3.39,3.39,0,0,0,1.14-1,4.3,4.3,0,0,0,.64-1.43,6,6,0,0,0,.19-1.61,5.91,5.91,0,0,0-.25-1.6,4.32,4.32,0,0,0-.7-1.39,3.4,3.4,0,0,0-1.18-1,3.54,3.54,0,0,0-1.71-.34,3.59,3.59,0,0,0-1.7.41,3.37,3.37,0,0,0-1.15,1,4.32,4.32,0,0,0-.65,1.42,6.05,6.05,0,0,0,.06,3.21Z"/><path class="cls-3" d="M84.09,164.59l.08,4.14h0a2.09,2.09,0,0,1,.39-.69,2.49,2.49,0,0,1,.58-.51,2.61,2.61,0,0,1,.72-.32,3.26,3.26,0,0,1,.78-.11,3.15,3.15,0,0,1,1.44.28,2.93,2.93,0,0,1,1,.81,3.51,3.51,0,0,1,.63,1.21,5.56,5.56,0,0,1,.06,2.92,3.54,3.54,0,0,1-.58,1.23,2.88,2.88,0,0,1-1,.85,3.2,3.2,0,0,1-1.43.33,3.06,3.06,0,0,1-1.58-.38,2.32,2.32,0,0,1-1-1.14h0l0,1.37-.81,0-.2-10ZM89,169.76a3.11,3.11,0,0,0-.44-1,2.31,2.31,0,0,0-.75-.69,2,2,0,0,0-1.08-.25,2.37,2.37,0,0,0-1.18.3,2.33,2.33,0,0,0-.77.72,2.87,2.87,0,0,0-.41,1,4.69,4.69,0,0,0,0,2.23,2.87,2.87,0,0,0,.45,1,2.33,2.33,0,0,0,.8.69,2.36,2.36,0,0,0,1.19.25,2,2,0,0,0,1.07-.29,2.31,2.31,0,0,0,.72-.72,3.11,3.11,0,0,0,.4-1,4.72,4.72,0,0,0,0-2.22Z"/><path class="cls-3" d="M92.14,164.43l.2,10-.88,0-.2-10Z"/><path class="cls-3" d="M94.73,164.38l0,1.41-.88,0,0-1.41Zm.06,2.77.14,7.22-.88,0-.14-7.22Z"/><path class="cls-3" d="M102.56,175.08a2.81,2.81,0,0,1-.53,1.1,2.41,2.41,0,0,1-1,.71,4.11,4.11,0,0,1-1.49.27A4.56,4.56,0,0,1,98.5,177a3,3,0,0,1-.94-.37,2.31,2.31,0,0,1-.7-.67,2,2,0,0,1-.33-1l.88,0a1.58,1.58,0,0,0,.29.67,1.65,1.65,0,0,0,.5.43,2.19,2.19,0,0,0,.64.23,3.33,3.33,0,0,0,.72.06,2.12,2.12,0,0,0,1.76-.73,3.22,3.22,0,0,0,.51-2l0-1h0a2.59,2.59,0,0,1-.88,1.1,2.41,2.41,0,0,1-1.38.43,3.51,3.51,0,0,1-1.49-.26,2.75,2.75,0,0,1-1-.77,3.2,3.2,0,0,1-.6-1.17,5.52,5.52,0,0,1-.21-1.45,4.47,4.47,0,0,1,.19-1.41A3.5,3.5,0,0,1,97,168a2.94,2.94,0,0,1,1-.8,3.23,3.23,0,0,1,1.39-.31,2.55,2.55,0,0,1,.76.1,2.38,2.38,0,0,1,.66.3,2.78,2.78,0,0,1,.53.46,2.14,2.14,0,0,1,.37.55h0l0-1.25.88,0,.13,6.63A5.49,5.49,0,0,1,102.56,175.08Zm-2.06-1.89a2.29,2.29,0,0,0,.71-.66,2.83,2.83,0,0,0,.42-.93,3.89,3.89,0,0,0,.13-1.07,4.59,4.59,0,0,0-.15-1.06,3.1,3.1,0,0,0-.42-1,2.21,2.21,0,0,0-.74-.69,2,2,0,0,0-1.08-.25,2.14,2.14,0,0,0-1.07.28,2.32,2.32,0,0,0-.73.69,2.85,2.85,0,0,0-.41,1,4.59,4.59,0,0,0-.11,1.1,4.07,4.07,0,0,0,.16,1.06,2.75,2.75,0,0,0,.45.91,2.26,2.26,0,0,0,.75.63,2.19,2.19,0,0,0,1.07.22A2,2,0,0,0,100.5,173.19Z"/><path class="cls-3" d="M105,171.79a2.73,2.73,0,0,0,.44.91,2.46,2.46,0,0,0,.76.66,2.08,2.08,0,0,0,1.08.24,2.15,2.15,0,0,0,1.5-.53,2.64,2.64,0,0,0,.73-1.36l.88,0a3.52,3.52,0,0,1-1,1.92,3.07,3.07,0,0,1-2.11.71,3.36,3.36,0,0,1-1.48-.27,2.7,2.7,0,0,1-1-.81,3.59,3.59,0,0,1-.61-1.21,5.57,5.57,0,0,1-.22-1.46,5.25,5.25,0,0,1,.16-1.4,3.77,3.77,0,0,1,.56-1.24,2.9,2.9,0,0,1,1-.89,3.13,3.13,0,0,1,1.47-.36,2.86,2.86,0,0,1,2.51,1.22,3.81,3.81,0,0,1,.58,1.29,5.74,5.74,0,0,1,.17,1.49l-5.56.11A3.92,3.92,0,0,0,105,171.79Zm4.31-2.78a2.66,2.66,0,0,0-.47-.81,2.25,2.25,0,0,0-.72-.56,2,2,0,0,0-1-.2,2.08,2.08,0,0,0-1,.24,2.27,2.27,0,0,0-.7.59,2.88,2.88,0,0,0-.45.84,4.05,4.05,0,0,0-.21,1l4.67-.09A3.21,3.21,0,0,0,109.32,169Z"/><path class="cls-3" d="M116.26,164l0,1.41-.88,0,0-1.41Zm.06,2.77.14,7.22-.88,0-.14-7.22Z"/><path class="cls-3" d="M122.19,168a1.42,1.42,0,0,0-.42-.49,1.71,1.71,0,0,0-.6-.27,2.68,2.68,0,0,0-.72-.08,2.86,2.86,0,0,0-.59.07,1.83,1.83,0,0,0-.55.22,1.2,1.2,0,0,0-.4.39,1.07,1.07,0,0,0-.14.59.83.83,0,0,0,.16.49,1.29,1.29,0,0,0,.38.34,2.3,2.3,0,0,0,.49.22l.49.14,1.18.24a3.33,3.33,0,0,1,.75.19,2.41,2.41,0,0,1,.67.37,1.9,1.9,0,0,1,.48.58,1.76,1.76,0,0,1,.2.82,1.82,1.82,0,0,1-.25,1,2.19,2.19,0,0,1-.67.69,2.91,2.91,0,0,1-.92.39,4.82,4.82,0,0,1-1,.13,3.32,3.32,0,0,1-2.08-.56,2.57,2.57,0,0,1-.94-1.91l.88,0a1.74,1.74,0,0,0,.68,1.34,2.36,2.36,0,0,0,1.49.43,3.34,3.34,0,0,0,.66-.08A2.15,2.15,0,0,0,122,173a1.52,1.52,0,0,0,.47-.44,1,1,0,0,0,.18-.64,1,1,0,0,0-.14-.54,1.15,1.15,0,0,0-.36-.36,2.26,2.26,0,0,0-.51-.23c-.19-.06-.39-.11-.58-.16l-1.14-.23a6.17,6.17,0,0,1-.8-.24,2.56,2.56,0,0,1-.64-.35,1.52,1.52,0,0,1-.44-.52,1.77,1.77,0,0,1-.17-.77,1.74,1.74,0,0,1,.23-.94,1.92,1.92,0,0,1,.62-.64,3,3,0,0,1,.87-.37,4.26,4.26,0,0,1,1-.13,3.57,3.57,0,0,1,1,.12,2.33,2.33,0,0,1,.83.42,2.11,2.11,0,0,1,.58.72,2.6,2.6,0,0,1,.26,1l-.88,0A1.67,1.67,0,0,0,122.19,168Z"/><path class="cls-3" d="M128.83,167.6a2.07,2.07,0,0,1,.59-.77,2.6,2.6,0,0,1,.89-.45,4.39,4.39,0,0,1,1.14-.16,5,5,0,0,1,1,.07,2.31,2.31,0,0,1,.86.33,1.86,1.86,0,0,1,.63.69,2.55,2.55,0,0,1,.26,1.18l.08,3.84a.46.46,0,0,0,.53.52.69.69,0,0,0,.28-.06l0,.74-.27,0-.3,0a1.34,1.34,0,0,1-.54-.08.72.72,0,0,1-.32-.25,1,1,0,0,1-.15-.4,3.33,3.33,0,0,1,0-.51h0a5.74,5.74,0,0,1-.47.63,2.38,2.38,0,0,1-.54.47,2.47,2.47,0,0,1-.68.29,3.8,3.8,0,0,1-.92.12,3.66,3.66,0,0,1-.95-.1,2.12,2.12,0,0,1-.78-.36,1.79,1.79,0,0,1-.53-.65,2.16,2.16,0,0,1-.21-.94,1.86,1.86,0,0,1,.31-1.19,2.11,2.11,0,0,1,.88-.67,5.06,5.06,0,0,1,1.24-.34l1.4-.2.49-.08a.85.85,0,0,0,.35-.15.68.68,0,0,0,.21-.29,1.23,1.23,0,0,0,.07-.48,1.61,1.61,0,0,0-.16-.73,1.17,1.17,0,0,0-.41-.45,1.64,1.64,0,0,0-.61-.22,4,4,0,0,0-.74,0,2.23,2.23,0,0,0-1.36.43,1.56,1.56,0,0,0-.54,1.29l-.88,0A2.94,2.94,0,0,1,128.83,167.6Zm4.45,2.07a.5.5,0,0,1-.32.23l-.42.11-1.15.2a6.43,6.43,0,0,0-1.08.25,2.13,2.13,0,0,0-.8.46,1.05,1.05,0,0,0-.3.82,1.28,1.28,0,0,0,.14.59,1.46,1.46,0,0,0,.37.44,1.53,1.53,0,0,0,.52.28,1.87,1.87,0,0,0,.6.09,3,3,0,0,0,1-.17,2.4,2.4,0,0,0,.8-.46,2.18,2.18,0,0,0,.53-.73,2.16,2.16,0,0,0,.18-1l0-1.15Z"/><path class="cls-3" d="M136.76,166.33l0,1.25h0a2.12,2.12,0,0,1,.88-1.07,2.64,2.64,0,0,1,1.41-.43,3.55,3.55,0,0,1,1.27.17,2,2,0,0,1,.83.54,2.07,2.07,0,0,1,.45.87,5,5,0,0,1,.15,1.16l.09,4.65-.88,0-.09-4.51a4.19,4.19,0,0,0-.1-.86,1.81,1.81,0,0,0-.31-.69,1.44,1.44,0,0,0-.58-.45,2.09,2.09,0,0,0-.89-.15,2.24,2.24,0,0,0-.94.21,2,2,0,0,0-.69.53,2.39,2.39,0,0,0-.43.79,3.17,3.17,0,0,0-.16,1l.08,4.21-.88,0-.14-7.22Z"/><path class="cls-3" d="M152.48,173.24l0-1.3h0a2.51,2.51,0,0,1-1,1.13,2.88,2.88,0,0,1-1.47.41,3.18,3.18,0,0,1-1.17-.17,1.93,1.93,0,0,1-.79-.52,2.18,2.18,0,0,1-.46-.85,4.31,4.31,0,0,1-.16-1.14l-.09-4.69.88,0,.09,4.7a2.35,2.35,0,0,0,.48,1.48,2.28,2.28,0,0,0,2.46.21,2.1,2.1,0,0,0,.66-.66,3,3,0,0,0,.37-.94,4.56,4.56,0,0,0,.1-1.07l-.07-3.79.88,0,.14,7.22Z"/><path class="cls-3" d="M155.68,166l0,1.25h0a2.11,2.11,0,0,1,.88-1.07,2.63,2.63,0,0,1,1.41-.43,3.55,3.55,0,0,1,1.27.17,2,2,0,0,1,.83.54,2.06,2.06,0,0,1,.45.87,5,5,0,0,1,.15,1.16l.09,4.65-.88,0-.09-4.51a4.26,4.26,0,0,0-.1-.86,1.79,1.79,0,0,0-.31-.69,1.42,1.42,0,0,0-.57-.45,2.09,2.09,0,0,0-.89-.15,2.24,2.24,0,0,0-.94.21,2,2,0,0,0-.69.53,2.39,2.39,0,0,0-.43.79,3.16,3.16,0,0,0-.16,1l.08,4.21-.88,0L154.8,166Z"/><path class="cls-3" d="M168,172.94l0-1.37h0a2.08,2.08,0,0,1-.4.65,2.73,2.73,0,0,1-.61.51,3.26,3.26,0,0,1-.74.33,3,3,0,0,1-.79.13,3.21,3.21,0,0,1-1.44-.27,2.87,2.87,0,0,1-1-.81,3.54,3.54,0,0,1-.63-1.21,5.56,5.56,0,0,1-.06-2.92,3.58,3.58,0,0,1,.58-1.23,3,3,0,0,1,1-.85,3.13,3.13,0,0,1,1.43-.34,3.23,3.23,0,0,1,.79.08,2.65,2.65,0,0,1,.73.29,2.6,2.6,0,0,1,.61.49,2.08,2.08,0,0,1,.41.68h0l-.08-4.14.88,0,.2,10Zm-4.89-2.4a3.07,3.07,0,0,0,.44,1,2.29,2.29,0,0,0,.75.69,2,2,0,0,0,1.08.25,2.36,2.36,0,0,0,1.18-.3,2.33,2.33,0,0,0,.77-.72,2.92,2.92,0,0,0,.41-1,4.72,4.72,0,0,0,0-2.23,2.94,2.94,0,0,0-.45-1,2.34,2.34,0,0,0-.8-.69,2.36,2.36,0,0,0-1.19-.25,2,2,0,0,0-1.07.29,2.32,2.32,0,0,0-.72.72,3.06,3.06,0,0,0-.4,1,4.72,4.72,0,0,0,0,2.23Z"/><path class="cls-3" d="M171.11,170.49a2.72,2.72,0,0,0,.44.91,2.47,2.47,0,0,0,.76.66,2.08,2.08,0,0,0,1.08.24,2.14,2.14,0,0,0,1.5-.53,2.64,2.64,0,0,0,.73-1.36l.88,0a3.53,3.53,0,0,1-1,1.92,3.07,3.07,0,0,1-2.11.71,3.38,3.38,0,0,1-1.48-.27,2.71,2.71,0,0,1-1-.81,3.57,3.57,0,0,1-.61-1.21,5.57,5.57,0,0,1-.22-1.46,5.25,5.25,0,0,1,.16-1.4,3.75,3.75,0,0,1,.56-1.24,2.89,2.89,0,0,1,1-.89,3.11,3.11,0,0,1,1.47-.36,2.86,2.86,0,0,1,2.51,1.22,3.81,3.81,0,0,1,.58,1.29,5.74,5.74,0,0,1,.17,1.49l-5.56.11A4,4,0,0,0,171.11,170.49Zm4.32-2.78a2.68,2.68,0,0,0-.47-.81,2.26,2.26,0,0,0-.72-.56,2.23,2.23,0,0,0-1.92,0,2.24,2.24,0,0,0-.7.59,2.86,2.86,0,0,0-.45.83,4.05,4.05,0,0,0-.21,1l4.68-.09A3.24,3.24,0,0,0,175.42,167.71Z"/><path class="cls-3" d="M178.44,165.51l0,1.69h0a2.77,2.77,0,0,1,1-1.38,2.73,2.73,0,0,1,1.68-.47l0,.88a2.67,2.67,0,0,0-1.09.18,2.47,2.47,0,0,0-.84.56,2.44,2.44,0,0,0-.54.84,2.77,2.77,0,0,0-.18,1.06l.08,3.85-.88,0-.14-7.22Z"/><path class="cls-3" d="M186.22,166.76a1.44,1.44,0,0,0-.42-.49,1.74,1.74,0,0,0-.6-.28,2.76,2.76,0,0,0-.72-.08,3,3,0,0,0-.59.07,1.86,1.86,0,0,0-.55.22,1.19,1.19,0,0,0-.4.39,1.07,1.07,0,0,0-.14.59.82.82,0,0,0,.16.49,1.28,1.28,0,0,0,.38.34,2.37,2.37,0,0,0,.49.22l.49.14,1.18.24a3.4,3.4,0,0,1,.75.19,2.41,2.41,0,0,1,.67.37,1.89,1.89,0,0,1,.48.58,1.77,1.77,0,0,1,.2.82,1.82,1.82,0,0,1-.25,1,2.2,2.2,0,0,1-.67.69,2.93,2.93,0,0,1-.92.39,4.82,4.82,0,0,1-1,.13,3.32,3.32,0,0,1-2.08-.56,2.56,2.56,0,0,1-.94-1.91l.88,0a1.74,1.74,0,0,0,.68,1.34,2.36,2.36,0,0,0,1.49.43,3.41,3.41,0,0,0,.66-.08,2.14,2.14,0,0,0,.63-.25,1.52,1.52,0,0,0,.47-.44,1,1,0,0,0,.18-.64,1,1,0,0,0-.14-.54,1.16,1.16,0,0,0-.36-.36,2.27,2.27,0,0,0-.52-.23q-.29-.09-.58-.16l-1.14-.23a6.27,6.27,0,0,1-.8-.24,2.55,2.55,0,0,1-.64-.35,1.53,1.53,0,0,1-.44-.52,1.78,1.78,0,0,1-.17-.77,1.75,1.75,0,0,1,.23-.94,1.92,1.92,0,0,1,.62-.64,3,3,0,0,1,.87-.37,4.21,4.21,0,0,1,1-.13,3.56,3.56,0,0,1,1,.12,2.35,2.35,0,0,1,.83.42,2.12,2.12,0,0,1,.58.72,2.6,2.6,0,0,1,.26,1l-.88,0A1.69,1.69,0,0,0,186.22,166.76Z"/><path class="cls-3" d="M191.64,165.25l0,.74-1.47,0,.1,4.87a1.56,1.56,0,0,0,.13.68c.08.16.28.25.6.26a6.72,6.72,0,0,0,.75-.06v.74l-.39,0-.39,0a1.3,1.3,0,0,1-1.6-1.58l-.1-4.94-1.26,0v-.74l1.26,0,0-2.17.88,0,0,2.17Z"/><path class="cls-3" d="M193.12,166.34a2.05,2.05,0,0,1,.59-.77,2.59,2.59,0,0,1,.89-.45,4.43,4.43,0,0,1,1.14-.16,5.06,5.06,0,0,1,1,.07,2.28,2.28,0,0,1,.86.33,1.85,1.85,0,0,1,.63.69,2.53,2.53,0,0,1,.26,1.18l.08,3.84a.46.46,0,0,0,.53.52.68.68,0,0,0,.28-.06v.74l-.27,0-.3,0a1.34,1.34,0,0,1-.54-.08.72.72,0,0,1-.32-.25,1,1,0,0,1-.15-.4,3.37,3.37,0,0,1,0-.51h0a5.92,5.92,0,0,1-.47.63,2.32,2.32,0,0,1-.54.47,2.51,2.51,0,0,1-.68.29,3.78,3.78,0,0,1-.91.12,3.63,3.63,0,0,1-.95-.1,2.12,2.12,0,0,1-.78-.36,1.78,1.78,0,0,1-.53-.65,2.17,2.17,0,0,1-.21-.94,1.87,1.87,0,0,1,.31-1.19,2.13,2.13,0,0,1,.88-.67,5.06,5.06,0,0,1,1.24-.34l1.4-.2.49-.08a.87.87,0,0,0,.35-.15.68.68,0,0,0,.21-.29,1.22,1.22,0,0,0,.07-.48,1.61,1.61,0,0,0-.16-.73A1.16,1.16,0,0,0,197,166a1.63,1.63,0,0,0-.61-.22,4.09,4.09,0,0,0-.74,0,2.23,2.23,0,0,0-1.36.43,1.56,1.56,0,0,0-.53,1.29l-.88,0A2.93,2.93,0,0,1,193.12,166.34Zm4.45,2.07a.51.51,0,0,1-.32.23l-.42.11-1.15.2a6.34,6.34,0,0,0-1.08.25,2.12,2.12,0,0,0-.8.46,1,1,0,0,0-.3.82,1.27,1.27,0,0,0,.14.59,1.44,1.44,0,0,0,.37.44,1.56,1.56,0,0,0,.52.28,1.91,1.91,0,0,0,.6.09,3,3,0,0,0,1-.17,2.37,2.37,0,0,0,.8-.46,2.13,2.13,0,0,0,.72-1.68l0-1.15Z"/><path class="cls-3" d="M203,165l0,.74-1.47,0,.1,4.87a1.56,1.56,0,0,0,.13.68c.08.16.28.25.6.26a6.78,6.78,0,0,0,.75-.06v.74l-.39,0-.39,0a1.74,1.74,0,0,1-1.24-.32,1.72,1.72,0,0,1-.36-1.26l-.1-4.94-1.26,0,0-.74,1.26,0,0-2.17.88,0,0,2.17Z"/><path class="cls-3" d="M205.07,169.82a2.7,2.7,0,0,0,.44.91,2.45,2.45,0,0,0,.76.66,2.08,2.08,0,0,0,1.08.24,2.14,2.14,0,0,0,1.5-.53,2.65,2.65,0,0,0,.73-1.36l.88,0a3.52,3.52,0,0,1-1,1.92,3.07,3.07,0,0,1-2.11.71,3.35,3.35,0,0,1-1.48-.27,2.71,2.71,0,0,1-1-.81,3.58,3.58,0,0,1-.6-1.21,5.54,5.54,0,0,1-.22-1.46,5.21,5.21,0,0,1,.16-1.4,3.75,3.75,0,0,1,.56-1.24,2.91,2.91,0,0,1,1-.89,3.13,3.13,0,0,1,1.47-.36,2.86,2.86,0,0,1,2.51,1.22,3.81,3.81,0,0,1,.58,1.29,5.74,5.74,0,0,1,.17,1.49l-5.56.11A3.92,3.92,0,0,0,205.07,169.82Zm4.31-2.78a2.64,2.64,0,0,0-.47-.81,2.25,2.25,0,0,0-.72-.56,2,2,0,0,0-1-.2,2.08,2.08,0,0,0-1,.24,2.28,2.28,0,0,0-.7.59,2.91,2.91,0,0,0-.45.84,4.15,4.15,0,0,0-.21,1l4.68-.09A3.22,3.22,0,0,0,209.38,167Z"/><path class="cls-3" d="M212.4,164.84l0,1.22h0a2.77,2.77,0,0,1,.9-1.07,2.56,2.56,0,0,1,1.44-.41,2.46,2.46,0,0,1,1.3.32,1.72,1.72,0,0,1,.8,1,2.23,2.23,0,0,1,.93-1.08,2.73,2.73,0,0,1,1.34-.38q2.39,0,2.44,2.49l.1,4.9-.88,0-.1-4.86a2.13,2.13,0,0,0-.41-1.36,1.63,1.63,0,0,0-1.34-.44,1.89,1.89,0,0,0-.95.24,1.67,1.67,0,0,0-.59.59,2.48,2.48,0,0,0-.3.84,5.08,5.08,0,0,0-.07,1l.08,4.09-.88,0-.1-4.9a3.07,3.07,0,0,0-.09-.69,1.59,1.59,0,0,0-.26-.57,1.19,1.19,0,0,0-.48-.38,1.65,1.65,0,0,0-.72-.13,2.18,2.18,0,0,0-1,.22,1.78,1.78,0,0,0-.66.57,2.48,2.48,0,0,0-.37.85,4.23,4.23,0,0,0-.11,1.06l.08,4-.88,0-.14-7.22Z"/><path class="cls-3" d="M224,169.45a2.72,2.72,0,0,0,.44.91,2.47,2.47,0,0,0,.76.66,2.07,2.07,0,0,0,1.08.24,2.15,2.15,0,0,0,1.5-.53,2.65,2.65,0,0,0,.73-1.36l.88,0a3.52,3.52,0,0,1-1,1.92,3.07,3.07,0,0,1-2.11.71,3.38,3.38,0,0,1-1.48-.27,2.71,2.71,0,0,1-1-.81,3.59,3.59,0,0,1-.61-1.21,5.57,5.57,0,0,1-.22-1.46,5.25,5.25,0,0,1,.16-1.4,3.77,3.77,0,0,1,.56-1.24,2.89,2.89,0,0,1,1-.89,3.11,3.11,0,0,1,1.47-.36,2.85,2.85,0,0,1,2.51,1.22,3.83,3.83,0,0,1,.58,1.29,5.78,5.78,0,0,1,.17,1.49l-5.56.11A4,4,0,0,0,224,169.45Zm4.31-2.78a2.66,2.66,0,0,0-.47-.81,2.26,2.26,0,0,0-.72-.56,2,2,0,0,0-1-.2,2.08,2.08,0,0,0-1,.24,2.26,2.26,0,0,0-.7.59,2.88,2.88,0,0,0-.45.83,4.05,4.05,0,0,0-.21,1l4.67-.09A3.18,3.18,0,0,0,228.3,166.67Z"/><path class="cls-3" d="M231.38,164.47l0,1.25h0a2.12,2.12,0,0,1,.87-1.07,2.64,2.64,0,0,1,1.41-.43,3.57,3.57,0,0,1,1.27.17,2,2,0,0,1,.83.54,2.07,2.07,0,0,1,.45.87,4.92,4.92,0,0,1,.15,1.16l.09,4.65-.88,0-.09-4.51a4.19,4.19,0,0,0-.1-.86,1.78,1.78,0,0,0-.31-.69,1.42,1.42,0,0,0-.57-.45,2.09,2.09,0,0,0-.89-.15,2.26,2.26,0,0,0-.94.21,2.05,2.05,0,0,0-.69.53,2.41,2.41,0,0,0-.43.79,3.19,3.19,0,0,0-.15,1l.08,4.21-.88,0-.14-7.22Z"/><path class="cls-3" d="M240.89,164.28l0,.74-1.47,0,.1,4.87a1.57,1.57,0,0,0,.13.68q.12.24.6.26a6.52,6.52,0,0,0,.75-.06v.74l-.39,0-.39,0a1.75,1.75,0,0,1-1.24-.32,1.73,1.73,0,0,1-.36-1.26l-.1-4.94-1.26,0,0-.74,1.26,0,0-2.17.88,0,0,2.17Z"/><path class="cls-3" d="M242.8,170l1.18,0,0,1.48-1.18,0Z"/><path class="cls-3" d="M251.08,161.31l.2,10-1,0-.2-10Z"/><path class="cls-3" d="M257.79,161.18l.2,10-.88,0-.2-10Z"/><path class="cls-3" d="M260.28,168.74a2.7,2.7,0,0,0,.44.91,2.46,2.46,0,0,0,.76.66,2.07,2.07,0,0,0,1.08.24,2.15,2.15,0,0,0,1.5-.53,2.65,2.65,0,0,0,.73-1.36l.88,0a3.52,3.52,0,0,1-1,1.92,3.07,3.07,0,0,1-2.11.71,3.38,3.38,0,0,1-1.48-.27,2.72,2.72,0,0,1-1-.81,3.59,3.59,0,0,1-.6-1.21,5.53,5.53,0,0,1-.22-1.46,5.21,5.21,0,0,1,.16-1.4,3.77,3.77,0,0,1,.56-1.24,2.9,2.9,0,0,1,1-.89,3.11,3.11,0,0,1,1.47-.36,2.85,2.85,0,0,1,2.51,1.22,3.81,3.81,0,0,1,.58,1.29,5.73,5.73,0,0,1,.17,1.49l-5.56.11A3.93,3.93,0,0,0,260.28,168.74Zm4.31-2.78a2.66,2.66,0,0,0-.47-.81,2.25,2.25,0,0,0-.73-.56,2,2,0,0,0-1-.2,2.07,2.07,0,0,0-1,.24,2.27,2.27,0,0,0-.7.59,2.88,2.88,0,0,0-.45.83,4.1,4.1,0,0,0-.21,1l4.68-.09A3.21,3.21,0,0,0,264.59,166Z"/><path class="cls-3" d="M268.17,164.49l.13,6.48-.88,0-.13-6.48-1.23,0,0-.74,1.23,0v-.66a4.87,4.87,0,0,1,.05-.85,1.69,1.69,0,0,1,.25-.68,1.29,1.29,0,0,1,.53-.44A2.14,2.14,0,0,1,269,161h.36l.38,0v.76l-.34,0h-.31a1.13,1.13,0,0,0-.56.12.67.67,0,0,0-.28.31,1.12,1.12,0,0,0-.1.44c0,.17,0,.35,0,.55v.63l1.43,0v.74Z"/><path class="cls-3" d="M273.29,163.65v.74l-1.47,0,.1,4.87a1.57,1.57,0,0,0,.13.68c.08.16.28.25.6.26a6.78,6.78,0,0,0,.75-.06v.74l-.39,0-.39,0a1.3,1.3,0,0,1-1.6-1.58l-.1-4.94-1.26,0v-.74l1.26,0,0-2.17.88,0,0,2.17Z"/><path class="cls-3" d="M69.43,180.65l2,6.15h0l1.64-6.22,1,0,1.89,6.15h0l1.73-6.22.94,0-2.18,7.27-1,0-1.9-6h0l-1.65,6.11-1,0-2.46-7.18Z"/><path class="cls-3" d="M84.11,180.46a3.19,3.19,0,0,1,1.09.81,3.58,3.58,0,0,1,.68,1.2,5,5,0,0,1,.06,3,3.59,3.59,0,0,1-.64,1.22,3.12,3.12,0,0,1-1.05.84,3.71,3.71,0,0,1-2.93.06,3.12,3.12,0,0,1-1.09-.8,3.57,3.57,0,0,1-.68-1.2,5,5,0,0,1-.06-3,3.56,3.56,0,0,1,.63-1.22,3.17,3.17,0,0,1,1.05-.85,3.63,3.63,0,0,1,2.93-.06Zm-2.55.75a2.41,2.41,0,0,0-.78.71,3.18,3.18,0,0,0-.46,1,4,4,0,0,0,0,2.25,3.18,3.18,0,0,0,.5,1,2.41,2.41,0,0,0,.8.68,2.43,2.43,0,0,0,2.21,0,2.43,2.43,0,0,0,.78-.72,3.2,3.2,0,0,0,.46-1,4,4,0,0,0,0-2.25,3.21,3.21,0,0,0-.5-1,2.46,2.46,0,0,0-.81-.68,2.43,2.43,0,0,0-2.21,0Z"/><path class="cls-3" d="M88.18,180.28l0,1.69h0a2.78,2.78,0,0,1,1-1.38,2.73,2.73,0,0,1,1.68-.47l0,.88a2.66,2.66,0,0,0-1.09.18,2.41,2.41,0,0,0-1.37,1.4,2.8,2.8,0,0,0-.18,1.06l.08,3.85-.88,0-.14-7.22Z"/><path class="cls-3" d="M92.61,177.42l.12,6.27,3.93-3.58,1.18,0-3,2.73,3.38,4.48-1.11,0-2.93-3.88-1.4,1.22.05,2.74-.88,0-.2-10Z"/><path class="cls-3" d="M102.88,181.11a2,2,0,0,1,.59-.77,2.58,2.58,0,0,1,.89-.45,4.38,4.38,0,0,1,1.14-.16,5,5,0,0,1,1,.07,2.3,2.3,0,0,1,.86.33,1.88,1.88,0,0,1,.63.69,2.55,2.55,0,0,1,.26,1.18l.07,3.84a.46.46,0,0,0,.53.52.7.7,0,0,0,.28-.06V187l-.27,0-.3,0A1.32,1.32,0,0,1,108,187a.71.71,0,0,1-.32-.25.94.94,0,0,1-.15-.4,3.33,3.33,0,0,1,0-.51h0a6,6,0,0,1-.47.63,2.37,2.37,0,0,1-.54.47,2.5,2.5,0,0,1-.68.29,3.8,3.8,0,0,1-.92.11,3.66,3.66,0,0,1-.95-.1,2.13,2.13,0,0,1-.78-.36,1.81,1.81,0,0,1-.53-.65,2.19,2.19,0,0,1-.21-.94,1.86,1.86,0,0,1,.31-1.19,2.09,2.09,0,0,1,.88-.67,5.05,5.05,0,0,1,1.24-.34l1.4-.2.49-.08a.85.85,0,0,0,.35-.15.69.69,0,0,0,.21-.29,1.22,1.22,0,0,0,.07-.48,1.6,1.6,0,0,0-.16-.73,1.15,1.15,0,0,0-.41-.45,1.64,1.64,0,0,0-.61-.22,4,4,0,0,0-.74,0,2.23,2.23,0,0,0-1.36.43,1.56,1.56,0,0,0-.53,1.29l-.88,0A2.94,2.94,0,0,1,102.88,181.11Zm4.45,2.07a.5.5,0,0,1-.32.23l-.42.11-1.15.2a6.35,6.35,0,0,0-1.08.25,2.12,2.12,0,0,0-.8.46,1.05,1.05,0,0,0-.3.83,1.29,1.29,0,0,0,.15.59,1.44,1.44,0,0,0,.37.44,1.55,1.55,0,0,0,.52.28,1.91,1.91,0,0,0,.6.09,3,3,0,0,0,1-.17,2.4,2.4,0,0,0,.8-.46,2.18,2.18,0,0,0,.53-.73,2.15,2.15,0,0,0,.18-1l0-1.15Z"/><path class="cls-3" d="M114.12,181.18a1.44,1.44,0,0,0-.42-.49,1.74,1.74,0,0,0-.6-.28,2.73,2.73,0,0,0-.72-.08,2.85,2.85,0,0,0-.59.07,1.85,1.85,0,0,0-.55.22,1.2,1.2,0,0,0-.4.39,1.07,1.07,0,0,0-.14.59.82.82,0,0,0,.16.49,1.28,1.28,0,0,0,.38.34,2.34,2.34,0,0,0,.49.22l.49.14,1.18.24a3.39,3.39,0,0,1,.75.19,2.41,2.41,0,0,1,.67.37,1.88,1.88,0,0,1,.48.58,1.77,1.77,0,0,1,.2.82,1.8,1.8,0,0,1-.25,1,2.15,2.15,0,0,1-.67.69,2.85,2.85,0,0,1-.92.39,4.83,4.83,0,0,1-1,.13,3.32,3.32,0,0,1-2.08-.56,2.57,2.57,0,0,1-.94-1.91l.88,0a1.74,1.74,0,0,0,.68,1.34,2.36,2.36,0,0,0,1.49.43,3.32,3.32,0,0,0,.66-.08,2.13,2.13,0,0,0,.63-.25,1.52,1.52,0,0,0,.47-.44,1,1,0,0,0,.18-.64,1,1,0,0,0-.14-.54,1.15,1.15,0,0,0-.36-.36,2.24,2.24,0,0,0-.52-.23l-.58-.16-1.14-.23a6.41,6.41,0,0,1-.8-.24,2.55,2.55,0,0,1-.64-.35,1.52,1.52,0,0,1-.44-.52,1.76,1.76,0,0,1-.17-.77,1.73,1.73,0,0,1,.23-.94,1.9,1.9,0,0,1,.62-.64,2.92,2.92,0,0,1,.87-.37,4.21,4.21,0,0,1,1-.13,3.53,3.53,0,0,1,1,.12,2.32,2.32,0,0,1,.83.42,2.13,2.13,0,0,1,.58.72,2.62,2.62,0,0,1,.26,1l-.88,0A1.67,1.67,0,0,0,114.12,181.18Z"/><path class="cls-3" d="M116.87,180.84a2,2,0,0,1,.59-.77,2.59,2.59,0,0,1,.89-.45,4.42,4.42,0,0,1,1.14-.16,5.06,5.06,0,0,1,1,.07,2.29,2.29,0,0,1,.86.33,1.87,1.87,0,0,1,.63.69,2.56,2.56,0,0,1,.26,1.18l.08,3.84a.46.46,0,0,0,.53.52.68.68,0,0,0,.28-.06v.74l-.27,0-.3,0a1.32,1.32,0,0,1-.54-.08.7.7,0,0,1-.32-.25.94.94,0,0,1-.15-.4,3.37,3.37,0,0,1,0-.51h0a5.62,5.62,0,0,1-.47.63,2.37,2.37,0,0,1-.54.47,2.52,2.52,0,0,1-.68.29,3.81,3.81,0,0,1-.92.11,3.59,3.59,0,0,1-.95-.1,2.12,2.12,0,0,1-.78-.36,1.8,1.8,0,0,1-.53-.65,2.19,2.19,0,0,1-.21-.94,1.87,1.87,0,0,1,.31-1.19,2.12,2.12,0,0,1,.88-.67,5.1,5.1,0,0,1,1.24-.34l1.4-.2.49-.08a.86.86,0,0,0,.35-.15.67.67,0,0,0,.21-.29,1.22,1.22,0,0,0,.07-.48,1.61,1.61,0,0,0-.16-.73,1.18,1.18,0,0,0-.41-.45,1.64,1.64,0,0,0-.61-.22,4.09,4.09,0,0,0-.74,0,2.22,2.22,0,0,0-1.36.43,1.56,1.56,0,0,0-.54,1.29l-.88,0A2.92,2.92,0,0,1,116.87,180.84Zm4.45,2.07a.5.5,0,0,1-.32.23,3.23,3.23,0,0,1-.42.11l-1.15.2a6.44,6.44,0,0,0-1.08.25,2.13,2.13,0,0,0-.8.46,1.06,1.06,0,0,0-.3.82,1.28,1.28,0,0,0,.15.59,1.4,1.4,0,0,0,.37.44,1.53,1.53,0,0,0,.52.28,1.91,1.91,0,0,0,.61.09,3,3,0,0,0,1-.17,2.37,2.37,0,0,0,.8-.46,2.13,2.13,0,0,0,.72-1.68l0-1.15Z"/><path class="cls-3" d="M124.74,179.56l0,1.37h0a2.37,2.37,0,0,1,1-1.19,3,3,0,0,1,1.57-.44,3.15,3.15,0,0,1,1.44.28,2.94,2.94,0,0,1,1,.81,3.53,3.53,0,0,1,.63,1.21,5.54,5.54,0,0,1,.06,2.93,3.56,3.56,0,0,1-.58,1.23,2.88,2.88,0,0,1-1,.85,3.2,3.2,0,0,1-1.43.33,3.26,3.26,0,0,1-.79-.08,2.8,2.8,0,0,1-.73-.28,2.38,2.38,0,0,1-.6-.48,2.07,2.07,0,0,1-.41-.68h0l.08,4-.88,0-.19-9.88Zm4.89,2.4a3.12,3.12,0,0,0-.44-1,2.33,2.33,0,0,0-.75-.69,2,2,0,0,0-1.08-.25,2.64,2.64,0,0,0-1.21.28,2.12,2.12,0,0,0-.77.69,2.63,2.63,0,0,0-.39,1,5.63,5.63,0,0,0-.1,1.18,4.71,4.71,0,0,0,.16,1.11,2.85,2.85,0,0,0,.45,1,2.31,2.31,0,0,0,.8.69,2.36,2.36,0,0,0,1.19.25,2,2,0,0,0,1.07-.29,2.32,2.32,0,0,0,.72-.72,3.1,3.1,0,0,0,.4-1,4.75,4.75,0,0,0,0-2.22Z"/><path class="cls-3" d="M138.73,179.29V180l-1.47,0,.1,4.87a1.59,1.59,0,0,0,.13.68c.08.16.28.25.6.26a6.55,6.55,0,0,0,.75-.06l0,.74-.39,0-.39,0a1.3,1.3,0,0,1-1.6-1.58l-.1-4.94-1.26,0v-.74l1.26,0,0-2.17.88,0,0,2.17Z"/><path class="cls-3" d="M144.52,179.28a3.19,3.19,0,0,1,1.09.8,3.59,3.59,0,0,1,.68,1.2,5,5,0,0,1,.06,3,3.58,3.58,0,0,1-.63,1.22,3.11,3.11,0,0,1-1.05.84,3.71,3.71,0,0,1-2.93.06,3.1,3.1,0,0,1-1.09-.8,3.55,3.55,0,0,1-.68-1.2,5,5,0,0,1-.06-3,3.55,3.55,0,0,1,.63-1.22,3.17,3.17,0,0,1,1.05-.85,3.63,3.63,0,0,1,2.93-.06ZM142,180a2.41,2.41,0,0,0-.78.72,3.16,3.16,0,0,0-.46,1,4,4,0,0,0,0,2.25,3.18,3.18,0,0,0,.5,1,2.43,2.43,0,0,0,.8.69,2.44,2.44,0,0,0,2.21,0,2.43,2.43,0,0,0,.78-.72,3.15,3.15,0,0,0,.46-1,4,4,0,0,0,0-2.25,3.18,3.18,0,0,0-.49-1,2.45,2.45,0,0,0-.8-.68,2.43,2.43,0,0,0-2.21,0Z"/><path class="cls-3" d="M152.5,176.25l.08,4.14h0a2.07,2.07,0,0,1,.39-.69,2.54,2.54,0,0,1,.58-.51,2.61,2.61,0,0,1,.72-.31,3.22,3.22,0,0,1,.78-.11,3.14,3.14,0,0,1,1.44.28,2.94,2.94,0,0,1,1,.81,3.53,3.53,0,0,1,.63,1.21,5.54,5.54,0,0,1,.06,2.93,3.54,3.54,0,0,1-.58,1.23,2.87,2.87,0,0,1-1,.85,3.19,3.19,0,0,1-1.43.33,3.07,3.07,0,0,1-1.58-.37,2.33,2.33,0,0,1-1-1.14h0l0,1.37-.81,0-.2-10Zm4.87,5.18a3.08,3.08,0,0,0-.44-1,2.32,2.32,0,0,0-.75-.69,2,2,0,0,0-1.08-.25,2.26,2.26,0,0,0-1.95,1,2.9,2.9,0,0,0-.41,1,4.72,4.72,0,0,0,0,2.23,2.89,2.89,0,0,0,.45,1,2.33,2.33,0,0,0,.8.69,2.36,2.36,0,0,0,1.19.25,2,2,0,0,0,1.07-.29,2.3,2.3,0,0,0,.72-.72,3.06,3.06,0,0,0,.4-1,4.72,4.72,0,0,0,0-2.22Z"/><path class="cls-3" d="M164.89,186l0-1.3h0a2.49,2.49,0,0,1-1,1.13,2.91,2.91,0,0,1-1.47.41,3.2,3.2,0,0,1-1.17-.17,1.93,1.93,0,0,1-.79-.52,2.18,2.18,0,0,1-.46-.85,4.32,4.32,0,0,1-.16-1.14l-.09-4.69.88,0,.09,4.7a2.33,2.33,0,0,0,.48,1.47,2.27,2.27,0,0,0,2.46.21,2.07,2.07,0,0,0,.66-.66,3,3,0,0,0,.37-.94,4.56,4.56,0,0,0,.1-1.07l-.07-3.79.88,0,.14,7.22Z"/><path class="cls-3" d="M167.35,178.73l2.5,6.11,2.1-6.2.88,0-3,8.38a8,8,0,0,1-.35.77,1.76,1.76,0,0,1-.36.48,1.25,1.25,0,0,1-.47.26,2.61,2.61,0,0,1-.69.09h-.41a.87.87,0,0,1-.26,0v-.74l.3,0h.3a1.2,1.2,0,0,0,.48-.09,1,1,0,0,0,.32-.24,1.33,1.33,0,0,0,.23-.36l.2-.47.29-.82-3-7.14Z"/><path class="cls-3" d="M177.8,179.64a2.06,2.06,0,0,1,.59-.77,2.57,2.57,0,0,1,.89-.45,4.38,4.38,0,0,1,1.14-.16,4.91,4.91,0,0,1,1,.07,2.29,2.29,0,0,1,.86.33,1.86,1.86,0,0,1,.63.69,2.57,2.57,0,0,1,.26,1.18l.08,3.84a.46.46,0,0,0,.53.52.7.7,0,0,0,.28-.06v.74l-.27,0-.3,0a1.34,1.34,0,0,1-.54-.08.71.71,0,0,1-.32-.25,1,1,0,0,1-.15-.4,3.33,3.33,0,0,1,0-.51h0a5.84,5.84,0,0,1-.47.63,2.4,2.4,0,0,1-.54.47,2.47,2.47,0,0,1-.68.29,3.75,3.75,0,0,1-.92.12,3.66,3.66,0,0,1-.95-.1,2.12,2.12,0,0,1-.78-.36,1.8,1.8,0,0,1-.53-.65,2.18,2.18,0,0,1-.21-.94,1.86,1.86,0,0,1,.31-1.19,2.09,2.09,0,0,1,.88-.67,5,5,0,0,1,1.24-.34l1.4-.2.49-.08a.85.85,0,0,0,.35-.15.68.68,0,0,0,.21-.29,1.21,1.21,0,0,0,.07-.48,1.6,1.6,0,0,0-.16-.73,1.15,1.15,0,0,0-.41-.45,1.64,1.64,0,0,0-.61-.22,4,4,0,0,0-.74,0,2.23,2.23,0,0,0-1.36.43,1.56,1.56,0,0,0-.54,1.29l-.88,0A2.92,2.92,0,0,1,177.8,179.64Zm4.45,2.07a.5.5,0,0,1-.32.23l-.42.11q-.56.11-1.15.2a6.48,6.48,0,0,0-1.08.25,2.15,2.15,0,0,0-.8.46,1.06,1.06,0,0,0-.3.83,1.29,1.29,0,0,0,.15.59,1.43,1.43,0,0,0,.37.44,1.55,1.55,0,0,0,.52.28,1.9,1.9,0,0,0,.6.09,3,3,0,0,0,1-.17,2.37,2.37,0,0,0,.8-.46,2.18,2.18,0,0,0,.53-.72,2.15,2.15,0,0,0,.18-1l0-1.15Z"/><path class="cls-3" d="M189.62,178.29l0,1.25h0a2.12,2.12,0,0,1,.88-1.08A2.64,2.64,0,0,1,192,178a3.55,3.55,0,0,1,1.27.17,2,2,0,0,1,.83.54,2.07,2.07,0,0,1,.45.87,4.91,4.91,0,0,1,.15,1.16l.09,4.65-.88,0-.09-4.51a4.14,4.14,0,0,0-.1-.86,1.84,1.84,0,0,0-.31-.69,1.44,1.44,0,0,0-.58-.45,2.08,2.08,0,0,0-.89-.15,2.24,2.24,0,0,0-.94.21,2,2,0,0,0-.69.53,2.39,2.39,0,0,0-.43.79,3.16,3.16,0,0,0-.16,1l.08,4.21-.88,0-.14-7.22Z"/><path class="cls-3" d="M197,183a2.72,2.72,0,0,0,.44.91,2.44,2.44,0,0,0,.76.66,2.08,2.08,0,0,0,1.08.24,2.14,2.14,0,0,0,1.5-.53,2.63,2.63,0,0,0,.73-1.36l.88,0a3.52,3.52,0,0,1-1,1.92,3.08,3.08,0,0,1-2.11.71,3.37,3.37,0,0,1-1.48-.27,2.7,2.7,0,0,1-1-.81,3.57,3.57,0,0,1-.6-1.21,5.53,5.53,0,0,1-.22-1.46,5.25,5.25,0,0,1,.16-1.4,3.78,3.78,0,0,1,.56-1.24,2.92,2.92,0,0,1,1-.89,3.13,3.13,0,0,1,1.47-.36,2.85,2.85,0,0,1,2.51,1.22,3.77,3.77,0,0,1,.58,1.29,5.73,5.73,0,0,1,.17,1.49l-5.56.11A3.88,3.88,0,0,0,197,183Zm4.32-2.78a2.68,2.68,0,0,0-.47-.81,2.26,2.26,0,0,0-.72-.56,2.23,2.23,0,0,0-1.92,0,2.24,2.24,0,0,0-.7.59,2.87,2.87,0,0,0-.45.84,4,4,0,0,0-.21,1l4.67-.09A3.22,3.22,0,0,0,201.33,180.2Z"/><path class="cls-3" d="M203.74,178l2,6.15h0l1.64-6.22,1,0,1.89,6.15h0l1.73-6.22.94,0-2.18,7.27-1,0-1.9-6h0l-1.65,6.11-1,0L202.8,178Z"/><path class="cls-3" d="M218,177.73l2,6.15h0l1.64-6.22,1,0,1.89,6.15h0l1.73-6.22.94,0L225,184.82l-1,0-1.9-6h0l-1.65,6.11-1,0-2.46-7.18Z"/><path class="cls-3" d="M228.37,178.65a2.06,2.06,0,0,1,.59-.77,2.57,2.57,0,0,1,.89-.45,4.44,4.44,0,0,1,1.14-.16,5.07,5.07,0,0,1,1,.07,2.32,2.32,0,0,1,.86.33,1.86,1.86,0,0,1,.63.69,2.55,2.55,0,0,1,.26,1.18l.07,3.84a.46.46,0,0,0,.53.52.67.67,0,0,0,.28-.06v.74l-.27,0-.3,0a1.34,1.34,0,0,1-.54-.08.73.73,0,0,1-.32-.25.94.94,0,0,1-.15-.4,3.37,3.37,0,0,1,0-.51h0a5.74,5.74,0,0,1-.47.63,2.4,2.4,0,0,1-.54.47,2.49,2.49,0,0,1-.68.29,3.74,3.74,0,0,1-.91.12,3.58,3.58,0,0,1-.95-.1,2.1,2.1,0,0,1-.78-.36,1.82,1.82,0,0,1-.53-.65,2.2,2.2,0,0,1-.21-.94,1.87,1.87,0,0,1,.31-1.19,2.11,2.11,0,0,1,.88-.67,5.11,5.11,0,0,1,1.24-.34l1.4-.2.49-.08a.87.87,0,0,0,.35-.15.68.68,0,0,0,.21-.29,1.22,1.22,0,0,0,.07-.48,1.6,1.6,0,0,0-.16-.73,1.17,1.17,0,0,0-.41-.45,1.65,1.65,0,0,0-.61-.22,4.09,4.09,0,0,0-.74,0,2.23,2.23,0,0,0-1.36.43,1.56,1.56,0,0,0-.53,1.29l-.88,0A2.94,2.94,0,0,1,228.37,178.65Zm4.45,2.07a.5.5,0,0,1-.32.23l-.42.11c-.37.07-.76.14-1.15.2a6.44,6.44,0,0,0-1.08.25,2.14,2.14,0,0,0-.8.46,1.05,1.05,0,0,0-.3.82,1.28,1.28,0,0,0,.14.59,1.44,1.44,0,0,0,.37.44,1.53,1.53,0,0,0,.52.28,1.87,1.87,0,0,0,.6.09,3,3,0,0,0,1-.17,2.38,2.38,0,0,0,.8-.46,2.18,2.18,0,0,0,.53-.72,2.16,2.16,0,0,0,.18-1l0-1.15Z"/><path class="cls-3" d="M236.24,177.38l0,1.69h0a2.77,2.77,0,0,1,1-1.38,2.73,2.73,0,0,1,1.68-.47l0,.88a2.67,2.67,0,0,0-1.09.18,2.41,2.41,0,0,0-1.37,1.4,2.8,2.8,0,0,0-.18,1.06l.08,3.85-.88,0-.14-7.22Z"/><path class="cls-3" d="M245.27,184.42l0-1.37h0a2.1,2.1,0,0,1-.4.65,2.7,2.7,0,0,1-.61.51,3.26,3.26,0,0,1-.74.33,2.91,2.91,0,0,1-.79.13,3.2,3.2,0,0,1-1.44-.27,2.87,2.87,0,0,1-1-.81,3.55,3.55,0,0,1-.63-1.2,5.59,5.59,0,0,1-.06-2.93,3.56,3.56,0,0,1,.58-1.23,2.94,2.94,0,0,1,1-.85,3.16,3.16,0,0,1,1.43-.34,3.23,3.23,0,0,1,.79.08,2.65,2.65,0,0,1,.73.29,2.57,2.57,0,0,1,.6.48,2.08,2.08,0,0,1,.41.68h0l-.08-4.14.88,0,.2,10Zm-4.89-2.4a3.09,3.09,0,0,0,.44,1,2.31,2.31,0,0,0,.75.69,2,2,0,0,0,1.08.25,2.36,2.36,0,0,0,1.18-.3,2.33,2.33,0,0,0,.77-.72,2.9,2.9,0,0,0,.41-1,4.69,4.69,0,0,0,0-2.23,2.92,2.92,0,0,0-.45-1,2.35,2.35,0,0,0-.8-.69,2.37,2.37,0,0,0-1.19-.25,2,2,0,0,0-1.07.29,2.32,2.32,0,0,0-.72.72,3.09,3.09,0,0,0-.4,1,4.75,4.75,0,0,0,0,2.23Z"/><path class="cls-3" d="M248.44,177.14l0,1.69h0a2.78,2.78,0,0,1,1-1.38,2.74,2.74,0,0,1,1.68-.47l0,.88a2.66,2.66,0,0,0-1.09.18,2.41,2.41,0,0,0-1.37,1.4,2.82,2.82,0,0,0-.18,1.06l.08,3.85-.88,0-.14-7.22Z"/><path class="cls-3" d="M256.3,177.08a3.2,3.2,0,0,1,1.09.81,3.59,3.59,0,0,1,.68,1.2,5,5,0,0,1,.06,3,3.6,3.6,0,0,1-.63,1.22,3.12,3.12,0,0,1-1.05.84,3.71,3.71,0,0,1-2.93.06,3.1,3.1,0,0,1-1.09-.8,3.55,3.55,0,0,1-.68-1.2,5,5,0,0,1-.06-3,3.54,3.54,0,0,1,.63-1.22,3.17,3.17,0,0,1,1.05-.85,3.63,3.63,0,0,1,2.93-.06Zm-2.55.75a2.42,2.42,0,0,0-.78.71,3.18,3.18,0,0,0-.46,1,4,4,0,0,0,0,2.25,3.17,3.17,0,0,0,.5,1,2.42,2.42,0,0,0,.8.68,2.44,2.44,0,0,0,2.21,0,2.42,2.42,0,0,0,.78-.72,3.15,3.15,0,0,0,.46-1,4,4,0,0,0,0-2.25,3.17,3.17,0,0,0-.5-1,2.44,2.44,0,0,0-.8-.68,2.43,2.43,0,0,0-2.21,0Z"/><path class="cls-3" d="M260.39,174.13l.08,4.14h0a2.08,2.08,0,0,1,.39-.69,2.54,2.54,0,0,1,.58-.51,2.67,2.67,0,0,1,.72-.31,3.22,3.22,0,0,1,.78-.11,3.13,3.13,0,0,1,1.44.28,3,3,0,0,1,1,.81,3.55,3.55,0,0,1,.63,1.21,5.54,5.54,0,0,1,.06,2.93,3.57,3.57,0,0,1-.58,1.23,2.89,2.89,0,0,1-1,.85,3.22,3.22,0,0,1-1.43.33,3.07,3.07,0,0,1-1.58-.37,2.33,2.33,0,0,1-1-1.14h0l0,1.37-.81,0-.2-10Zm4.87,5.18a3.09,3.09,0,0,0-.44-1,2.31,2.31,0,0,0-.75-.69,2,2,0,0,0-1.08-.25,2.36,2.36,0,0,0-1.18.3,2.33,2.33,0,0,0-.77.72,2.9,2.9,0,0,0-.41,1,4.71,4.71,0,0,0,0,2.22,2.89,2.89,0,0,0,.45,1,2.33,2.33,0,0,0,.8.69,2.37,2.37,0,0,0,1.19.25,2,2,0,0,0,1.07-.29,2.3,2.3,0,0,0,.72-.72,3.06,3.06,0,0,0,.4-1,4.72,4.72,0,0,0,0-2.22Z"/><path class="cls-3" d="M268.34,181.58a2.71,2.71,0,0,0,.44.91,2.44,2.44,0,0,0,.76.66,2.08,2.08,0,0,0,1.08.24,2.15,2.15,0,0,0,1.5-.53,2.65,2.65,0,0,0,.73-1.36l.88,0a3.52,3.52,0,0,1-1,1.92,3.07,3.07,0,0,1-2.11.71,3.38,3.38,0,0,1-1.48-.27,2.73,2.73,0,0,1-1-.81,3.57,3.57,0,0,1-.6-1.21,5.5,5.5,0,0,1-.22-1.46,5.21,5.21,0,0,1,.16-1.4,3.74,3.74,0,0,1,.56-1.24,2.92,2.92,0,0,1,1-.89,3.12,3.12,0,0,1,1.47-.36,2.85,2.85,0,0,1,2.51,1.22,3.79,3.79,0,0,1,.58,1.29,5.78,5.78,0,0,1,.17,1.49l-5.56.11A3.92,3.92,0,0,0,268.34,181.58Zm4.32-2.78a2.68,2.68,0,0,0-.47-.81,2.27,2.27,0,0,0-.72-.56,2.23,2.23,0,0,0-1.92,0,2.24,2.24,0,0,0-.7.59,2.87,2.87,0,0,0-.45.83,4.11,4.11,0,0,0-.21,1l4.68-.09A3.21,3.21,0,0,0,272.66,178.8Z"/><path class="cls-3" d="M275.49,182.35l1.18,0,0,1.48-1.18,0Z"/></g></svg>