<svg id="Layer_1" data-name="Layer 1" xmlns="http://www.w3.org/2000/svg" viewBox="0 0 360 360"><defs><style>.cls-1{fill:#f2c12e;}.cls-2{fill:#fef5f3;}</style></defs><title>buttons_female</title><polygon class="cls-1" points="122.87 162.38 179.32 150.94 222.6 166.19 224.48 179.54 186.22 196.7 128.52 194.79 122.87 162.38"/><path class="cls-2" d="M138.5,161.73l-.33,10-1,0,.33-10Z"/><path class="cls-2" d="M142.09,163.35a2.53,2.53,0,0,1-.1.61,2.13,2.13,0,0,1-.25.55,1.78,1.78,0,0,1-.4.44,1.37,1.37,0,0,1-.56.26l0-.6a.66.66,0,0,0,.31-.19,1.33,1.33,0,0,0,.22-.34,1.86,1.86,0,0,0,.13-.39,1.46,1.46,0,0,0,0-.37l-.59,0,0-1.48,1.18,0Z"/><path class="cls-2" d="M145,164.72l0,1.22h0a2.77,2.77,0,0,1,1-1,2.56,2.56,0,0,1,1.46-.33,2.46,2.46,0,0,1,1.28.39,1.72,1.72,0,0,1,.74,1.09,2.22,2.22,0,0,1,1-1,2.72,2.72,0,0,1,1.35-.31q2.39.08,2.31,2.61l-.16,4.9-.88,0,.16-4.86a2.13,2.13,0,0,0-.33-1.38,1.62,1.62,0,0,0-1.31-.51,1.89,1.89,0,0,0-1,.19,1.67,1.67,0,0,0-.62.56,2.47,2.47,0,0,0-.34.82,5.07,5.07,0,0,0-.12,1l-.13,4.09-.88,0,.16-4.9a3.07,3.07,0,0,0-.05-.7,1.62,1.62,0,0,0-.23-.58,1.21,1.21,0,0,0-.46-.4,1.67,1.67,0,0,0-.71-.16,2.19,2.19,0,0,0-1,.17,1.79,1.79,0,0,0-.69.54,2.5,2.5,0,0,0-.41.83,4.23,4.23,0,0,0-.16,1.05l-.13,4-.88,0,.24-7.22Z"/><path class="cls-2" d="M160.75,162.46l-.33,10-.88,0,.33-10Z"/><path class="cls-2" d="M163.34,162.54l0,1.41-.88,0,0-1.41Zm-.09,2.77-.24,7.22-.88,0,.24-7.22Z"/><path class="cls-2" d="M167.81,165.46l0,.74-1.47,0-.16,4.87a1.56,1.56,0,0,0,.1.68c.07.17.27.26.59.29a6.72,6.72,0,0,0,.76,0l0,.74h-.78a1.3,1.3,0,0,1-1.51-1.66l.16-4.94-1.26,0,0-.74,1.26,0,.07-2.17.88,0-.07,2.17Z"/><path class="cls-2" d="M169.58,170.36a2.72,2.72,0,0,0,.4.93,2.45,2.45,0,0,0,.72.7,2.07,2.07,0,0,0,1.07.3,2.14,2.14,0,0,0,1.53-.45,2.64,2.64,0,0,0,.8-1.32l.88,0a3.52,3.52,0,0,1-1.09,1.87,3.07,3.07,0,0,1-2.14.6,3.37,3.37,0,0,1-1.47-.35,2.71,2.71,0,0,1-1-.86,3.59,3.59,0,0,1-.54-1.24,5.57,5.57,0,0,1-.14-1.47,5.26,5.26,0,0,1,.23-1.39,3.77,3.77,0,0,1,.62-1.2,2.89,2.89,0,0,1,1-.83,3.12,3.12,0,0,1,1.49-.28,2.86,2.86,0,0,1,2.44,1.35,3.82,3.82,0,0,1,.51,1.32,5.74,5.74,0,0,1,.09,1.5l-5.55-.18A3.93,3.93,0,0,0,169.58,170.36Zm4.45-2.55a2.67,2.67,0,0,0-.43-.83,2.25,2.25,0,0,0-.69-.6,2,2,0,0,0-.95-.25,2.07,2.07,0,0,0-1,.19,2.27,2.27,0,0,0-.73.55,2.89,2.89,0,0,0-.5.81,4.05,4.05,0,0,0-.26,1l4.67.15A3.21,3.21,0,0,0,174,167.81Z"/><path class="cls-2" d="M177.16,165.77l-.06,1.69h0a2.77,2.77,0,0,1,1.09-1.32,2.74,2.74,0,0,1,1.7-.38l0,.88a2.66,2.66,0,0,0-1.1.13,2.41,2.41,0,0,0-1.45,1.32,2.78,2.78,0,0,0-.23,1.05L177,173l-.88,0,.24-7.22Z"/><path class="cls-2" d="M180.9,167a2.07,2.07,0,0,1,.63-.74,2.6,2.6,0,0,1,.92-.4,4.41,4.41,0,0,1,1.15-.1,5.07,5.07,0,0,1,.95.12,2.3,2.3,0,0,1,.84.37,1.86,1.86,0,0,1,.59.73,2.55,2.55,0,0,1,.2,1.19l-.13,3.83a.46.46,0,0,0,.5.55.68.68,0,0,0,.28,0l0,.74-.27,0h-.3a1.33,1.33,0,0,1-.54-.11.72.72,0,0,1-.31-.27.94.94,0,0,1-.13-.4,3.35,3.35,0,0,1,0-.51h0a5.83,5.83,0,0,1-.5.61,2.34,2.34,0,0,1-.56.44,2.5,2.5,0,0,1-.69.26,3.79,3.79,0,0,1-.92.07,3.64,3.64,0,0,1-.94-.15,2.11,2.11,0,0,1-.76-.4,1.8,1.8,0,0,1-.5-.68,2.17,2.17,0,0,1-.16-1,1.86,1.86,0,0,1,.37-1.17,2.11,2.11,0,0,1,.91-.62,5.08,5.08,0,0,1,1.26-.27l1.41-.13.49-.05a.85.85,0,0,0,.35-.14.68.68,0,0,0,.23-.28,1.22,1.22,0,0,0,.09-.47,1.61,1.61,0,0,0-.12-.74,1.17,1.17,0,0,0-.39-.47,1.65,1.65,0,0,0-.59-.25,4.06,4.06,0,0,0-.73-.09,2.23,2.23,0,0,0-1.38.35,1.56,1.56,0,0,0-.6,1.26l-.88,0A2.94,2.94,0,0,1,180.9,167Zm4.34,2.3a.5.5,0,0,1-.33.21l-.42.08-1.16.14a6.35,6.35,0,0,0-1.09.2,2.12,2.12,0,0,0-.82.41,1.05,1.05,0,0,0-.34.81,1.28,1.28,0,0,0,.11.6,1.45,1.45,0,0,0,.34.46,1.53,1.53,0,0,0,.51.3,1.89,1.89,0,0,0,.6.12,3,3,0,0,0,1-.12,2.39,2.39,0,0,0,.82-.42,2.13,2.13,0,0,0,.8-1.64l0-1.15Z"/><path class="cls-2" d="M189,163.38l-.33,10-.88,0,.33-10Z"/><path class="cls-2" d="M191.59,163.47l-.33,10-.88,0,.33-10Z"/><path class="cls-2" d="M193.32,166.3l2.18,6.23,2.43-6.08.88,0-3.41,8.21a8.09,8.09,0,0,1-.39.75,1.78,1.78,0,0,1-.39.46,1.25,1.25,0,0,1-.48.24,2.62,2.62,0,0,1-.69.05l-.41,0a.84.84,0,0,1-.26-.06l0-.74.3.06.3,0a1.21,1.21,0,0,0,.49-.07,1.05,1.05,0,0,0,.34-.22,1.37,1.37,0,0,0,.25-.35l.23-.45.34-.8-2.65-7.29Z"/><path class="cls-2" d="M132,177.3l0,1.37h0a2.37,2.37,0,0,1,1-1.14,3,3,0,0,1,1.59-.36,3.15,3.15,0,0,1,1.42.35,2.94,2.94,0,0,1,1,.87,3.55,3.55,0,0,1,.56,1.24,5.56,5.56,0,0,1-.1,2.92,3.56,3.56,0,0,1-.64,1.2,2.87,2.87,0,0,1-1,.79,3.2,3.2,0,0,1-1.44.25,3.25,3.25,0,0,1-.78-.12,2.78,2.78,0,0,1-.72-.32,2.4,2.4,0,0,1-.58-.51,2.09,2.09,0,0,1-.38-.7h0l-.13,4-.88,0,.32-9.88Zm4.75,2.66a3.13,3.13,0,0,0-.39-1,2.34,2.34,0,0,0-.71-.73,2,2,0,0,0-1.07-.31,2.64,2.64,0,0,0-1.23.21,2.13,2.13,0,0,0-.81.65,2.65,2.65,0,0,0-.44,1,5.63,5.63,0,0,0-.16,1.17,4.71,4.71,0,0,0,.1,1.12,2.87,2.87,0,0,0,.4,1,2.31,2.31,0,0,0,.76.73,2.37,2.37,0,0,0,1.17.31,2,2,0,0,0,1.09-.24,2.32,2.32,0,0,0,.76-.68,3.1,3.1,0,0,0,.45-1,4.75,4.75,0,0,0,.07-2.22Z"/><path class="cls-2" d="M140.06,177.56l-.06,1.69h0a2.78,2.78,0,0,1,1.09-1.32,2.73,2.73,0,0,1,1.7-.38l0,.88a2.66,2.66,0,0,0-1.1.13,2.41,2.41,0,0,0-1.44,1.32,2.8,2.8,0,0,0-.23,1l-.13,3.85-.88,0,.24-7.22Z"/><path class="cls-2" d="M143.9,182.53a2.69,2.69,0,0,0,.4.93,2.43,2.43,0,0,0,.72.7,2.08,2.08,0,0,0,1.07.3,2.15,2.15,0,0,0,1.53-.45,2.64,2.64,0,0,0,.8-1.32l.88,0a3.53,3.53,0,0,1-1.09,1.87,3.07,3.07,0,0,1-2.14.6,3.36,3.36,0,0,1-1.47-.35,2.71,2.71,0,0,1-1-.86,3.56,3.56,0,0,1-.54-1.24,5.53,5.53,0,0,1-.14-1.47,5.25,5.25,0,0,1,.23-1.39,3.75,3.75,0,0,1,.62-1.2,2.92,2.92,0,0,1,1-.84,3.13,3.13,0,0,1,1.49-.28,2.86,2.86,0,0,1,2.44,1.35,3.78,3.78,0,0,1,.51,1.32,5.74,5.74,0,0,1,.09,1.5l-5.56-.18A3.88,3.88,0,0,0,143.9,182.53Zm4.46-2.55a2.69,2.69,0,0,0-.43-.83,2.28,2.28,0,0,0-.69-.6,2.23,2.23,0,0,0-1.92-.06,2.24,2.24,0,0,0-.73.55,2.85,2.85,0,0,0-.5.81,4.06,4.06,0,0,0-.26,1l4.67.15A3.25,3.25,0,0,0,148.35,180Z"/><path class="cls-2" d="M156.33,186.18a2.79,2.79,0,0,1-.59,1.07,2.41,2.41,0,0,1-1,.65,4.11,4.11,0,0,1-1.5.19,4.49,4.49,0,0,1-1.06-.16,3,3,0,0,1-.92-.42,2.34,2.34,0,0,1-.66-.7,2,2,0,0,1-.28-1l.88,0a1.56,1.56,0,0,0,.25.69,1.62,1.62,0,0,0,.47.46,2.19,2.19,0,0,0,.63.27,3.32,3.32,0,0,0,.71.1,2.12,2.12,0,0,0,1.8-.64,3.22,3.22,0,0,0,.61-2l0-1h0a2.58,2.58,0,0,1-.94,1,2.41,2.41,0,0,1-1.41.36,3.49,3.49,0,0,1-1.47-.34,2.73,2.73,0,0,1-1-.82,3.2,3.2,0,0,1-.54-1.2,5.55,5.55,0,0,1-.13-1.45,4.46,4.46,0,0,1,.26-1.4,3.48,3.48,0,0,1,.67-1.14,2.93,2.93,0,0,1,1-.75,3.23,3.23,0,0,1,1.4-.24,2.53,2.53,0,0,1,.76.14,2.39,2.39,0,0,1,.64.34,2.78,2.78,0,0,1,.51.49,2.15,2.15,0,0,1,.34.57h0l0-1.25.88,0-.22,6.63A5.52,5.52,0,0,1,156.33,186.18Zm-2-2a2.3,2.3,0,0,0,.75-.62,2.81,2.81,0,0,0,.47-.9,3.94,3.94,0,0,0,.18-1.06,4.63,4.63,0,0,0-.09-1.07,3.1,3.1,0,0,0-.37-1,2.23,2.23,0,0,0-.7-.72,2,2,0,0,0-1.06-.3,2.12,2.12,0,0,0-1.09.22,2.29,2.29,0,0,0-.76.65,2.83,2.83,0,0,0-.46.94,4.51,4.51,0,0,0-.17,1.09,4,4,0,0,0,.1,1.07,2.74,2.74,0,0,0,.4.93,2.26,2.26,0,0,0,.72.67,2.19,2.19,0,0,0,1.06.28A2,2,0,0,0,154.37,184.19Z"/><path class="cls-2" d="M159.31,178.19l0,1.25h0a2.11,2.11,0,0,1,.93-1,2.64,2.64,0,0,1,1.43-.35,3.57,3.57,0,0,1,1.26.24,2,2,0,0,1,.8.58,2.07,2.07,0,0,1,.4.89,4.92,4.92,0,0,1,.09,1.17l-.15,4.65-.88,0,.15-4.51a4.13,4.13,0,0,0-.06-.86,1.83,1.83,0,0,0-.27-.7,1.43,1.43,0,0,0-.55-.48,2.08,2.08,0,0,0-.88-.2,2.25,2.25,0,0,0-.95.16,2,2,0,0,0-.72.5,2.38,2.38,0,0,0-.47.77,3.16,3.16,0,0,0-.21,1l-.14,4.21-.88,0,.24-7.22Z"/><path class="cls-2" d="M166.1,179.53a2.06,2.06,0,0,1,.63-.74,2.57,2.57,0,0,1,.92-.4,4.38,4.38,0,0,1,1.15-.1,5,5,0,0,1,.95.12,2.31,2.31,0,0,1,.84.37,1.87,1.87,0,0,1,.59.73,2.55,2.55,0,0,1,.2,1.19l-.13,3.83a.46.46,0,0,0,.5.55.69.69,0,0,0,.28,0l0,.74-.27,0h-.3a1.33,1.33,0,0,1-.54-.11.72.72,0,0,1-.31-.27.94.94,0,0,1-.13-.4,3.35,3.35,0,0,1,0-.51h0a5.75,5.75,0,0,1-.5.61,2.39,2.39,0,0,1-.56.44,2.49,2.49,0,0,1-.69.26,3.77,3.77,0,0,1-.92.07,3.59,3.59,0,0,1-.94-.15,2.13,2.13,0,0,1-.76-.4,1.83,1.83,0,0,1-.5-.67,2.2,2.2,0,0,1-.16-1,1.87,1.87,0,0,1,.37-1.17,2.11,2.11,0,0,1,.91-.62,5.08,5.08,0,0,1,1.26-.27l1.41-.13.49-.05a.87.87,0,0,0,.35-.14.69.69,0,0,0,.23-.28,1.22,1.22,0,0,0,.09-.47,1.6,1.6,0,0,0-.12-.74,1.15,1.15,0,0,0-.39-.47,1.65,1.65,0,0,0-.59-.25,4.09,4.09,0,0,0-.73-.09,2.23,2.23,0,0,0-1.39.35,1.56,1.56,0,0,0-.6,1.26l-.88,0A2.94,2.94,0,0,1,166.1,179.53Zm4.34,2.3a.5.5,0,0,1-.33.21l-.42.08-1.16.14a6.35,6.35,0,0,0-1.09.2,2.13,2.13,0,0,0-.82.41,1.05,1.05,0,0,0-.34.81,1.3,1.3,0,0,0,.11.6,1.44,1.44,0,0,0,.34.46,1.55,1.55,0,0,0,.51.3,1.91,1.91,0,0,0,.6.12,3,3,0,0,0,1-.12,2.39,2.39,0,0,0,.82-.42,2.18,2.18,0,0,0,.57-.7,2.15,2.15,0,0,0,.23-.94l0-1.15Z"/><path class="cls-2" d="M174.09,178.68l0,1.25h0a2.11,2.11,0,0,1,.93-1,2.64,2.64,0,0,1,1.43-.35,3.57,3.57,0,0,1,1.26.24,2,2,0,0,1,.8.58,2.06,2.06,0,0,1,.4.89,4.86,4.86,0,0,1,.09,1.17l-.15,4.65-.88,0,.15-4.51a4.13,4.13,0,0,0-.06-.86,1.82,1.82,0,0,0-.27-.7,1.43,1.43,0,0,0-.55-.48,2.09,2.09,0,0,0-.88-.2,2.25,2.25,0,0,0-1,.16,2.06,2.06,0,0,0-.72.5,2.4,2.4,0,0,0-.47.77,3.19,3.19,0,0,0-.21,1l-.14,4.21-.88,0,.24-7.22Z"/><path class="cls-2" d="M183.6,179l0,.74-1.47,0-.16,4.87a1.58,1.58,0,0,0,.1.68c.07.17.27.26.59.29a6.63,6.63,0,0,0,.76,0l0,.74h-.78a1.3,1.3,0,0,1-1.51-1.66l.16-4.94-1.26,0,0-.74,1.26,0,.07-2.17.88,0-.07,2.17Z"/><path class="cls-2" d="M189.58,179.18l-.06,1.69h0a2.78,2.78,0,0,1,1.09-1.32,2.73,2.73,0,0,1,1.7-.38l0,.88a2.67,2.67,0,0,0-1.1.13,2.41,2.41,0,0,0-1.44,1.33,2.8,2.8,0,0,0-.23,1l-.13,3.85-.88,0,.24-7.22Z"/><path class="cls-2" d="M194.29,179.34l0,1.25h0a2.12,2.12,0,0,1,.93-1,2.64,2.64,0,0,1,1.43-.35,3.55,3.55,0,0,1,1.26.24,2,2,0,0,1,.8.58,2.06,2.06,0,0,1,.4.89,4.86,4.86,0,0,1,.09,1.17l-.15,4.65-.88,0,.15-4.51a4.12,4.12,0,0,0-.05-.86,1.82,1.82,0,0,0-.27-.7,1.43,1.43,0,0,0-.55-.48,2.08,2.08,0,0,0-.88-.2,2.25,2.25,0,0,0-.95.16,2,2,0,0,0-.72.5,2.37,2.37,0,0,0-.47.77,3.16,3.16,0,0,0-.21,1l-.14,4.21-.88,0,.24-7.22Z"/></svg>