<svg id="Layer_1" data-name="Layer 1" xmlns="http://www.w3.org/2000/svg" viewBox="0 0 360 360"><defs><style>.cls-1{fill:#f27649;}.cls-2{opacity:0.58;}.cls-3{fill:#fef5f3;}</style></defs><title>buttons_female</title><polygon class="cls-1" points="140.48 155.29 194.24 155.29 219.17 170.93 225.03 192.92 121.9 188.03 130.21 171.41 140.48 155.29"/><g class="cls-2"><path class="cls-3" d="M153.79,167.19l-.37,4.32,5.92.5.37-4.32.95.08-.85,10-.95-.08.41-4.83-5.92-.5-.41,4.83-.95-.08.85-10Z"/><path class="cls-3" d="M162.5,175.57a2.67,2.67,0,0,0,.35.95,2.43,2.43,0,0,0,.68.73,2.07,2.07,0,0,0,1.05.36,2.14,2.14,0,0,0,1.55-.37A2.65,2.65,0,0,0,167,176l.88.07a3.53,3.53,0,0,1-1.19,1.81,3.07,3.07,0,0,1-2.17.49,3.36,3.36,0,0,1-1.45-.43,2.71,2.71,0,0,1-.94-.91,3.56,3.56,0,0,1-.48-1.26,5.53,5.53,0,0,1-.07-1.47,5.22,5.22,0,0,1,.31-1.38,3.75,3.75,0,0,1,.68-1.17,2.91,2.91,0,0,1,1.08-.78,3.12,3.12,0,0,1,1.5-.2,2.86,2.86,0,0,1,2.37,1.47,3.82,3.82,0,0,1,.44,1.34,5.74,5.74,0,0,1,0,1.5l-5.54-.47A3.89,3.89,0,0,0,162.5,175.57Zm4.58-2.31a2.64,2.64,0,0,0-.38-.85,2.24,2.24,0,0,0-.66-.63,2,2,0,0,0-.93-.3,2.08,2.08,0,0,0-1,.13,2.27,2.27,0,0,0-.76.51,2.91,2.91,0,0,0-.54.78,4.15,4.15,0,0,0-.31.94l4.66.4A3.21,3.21,0,0,0,167.08,173.26Z"/><path class="cls-3" d="M169.74,176.19a2.69,2.69,0,0,0,.35.95,2.44,2.44,0,0,0,.68.73,2.07,2.07,0,0,0,1.05.36,2.14,2.14,0,0,0,1.55-.37,2.65,2.65,0,0,0,.87-1.27l.88.07a3.52,3.52,0,0,1-1.19,1.81,3.07,3.07,0,0,1-2.17.49,3.37,3.37,0,0,1-1.45-.42,2.72,2.72,0,0,1-.94-.91,3.59,3.59,0,0,1-.48-1.26,5.54,5.54,0,0,1-.07-1.47,5.21,5.21,0,0,1,.31-1.38,3.77,3.77,0,0,1,.68-1.17,2.91,2.91,0,0,1,1.08-.78,3.12,3.12,0,0,1,1.5-.2,2.86,2.86,0,0,1,2.37,1.47,3.82,3.82,0,0,1,.44,1.34,5.78,5.78,0,0,1,0,1.5l-5.54-.47A3.88,3.88,0,0,0,169.74,176.19Zm4.58-2.31a2.66,2.66,0,0,0-.38-.85,2.26,2.26,0,0,0-.66-.63,2,2,0,0,0-.93-.3,2.08,2.08,0,0,0-1,.13,2.28,2.28,0,0,0-.76.51,2.94,2.94,0,0,0-.54.78,4.15,4.15,0,0,0-.31.94l4.66.4A3.22,3.22,0,0,0,174.32,173.88Z"/><path class="cls-3" d="M177.87,169.25l-.85,10-.88-.07.85-10Z"/><path class="cls-3" d="M183.34,173.91a1.42,1.42,0,0,0-.37-.53,1.72,1.72,0,0,0-.57-.34,2.71,2.71,0,0,0-.7-.15,2.88,2.88,0,0,0-.6,0,1.81,1.81,0,0,0-.57.16,1.21,1.21,0,0,0-.44.35,1.07,1.07,0,0,0-.2.57.83.83,0,0,0,.1.51,1.33,1.33,0,0,0,.34.37,2.36,2.36,0,0,0,.47.27l.48.19,1.15.37a3.34,3.34,0,0,1,.73.27,2.39,2.39,0,0,1,.62.44,1.89,1.89,0,0,1,.42.63,1.75,1.75,0,0,1,.11.84,1.81,1.81,0,0,1-.35,1,2.18,2.18,0,0,1-.73.61,2.89,2.89,0,0,1-1,.29,4.86,4.86,0,0,1-1,0,3.32,3.32,0,0,1-2-.78,2.57,2.57,0,0,1-.74-2l.88.07a1.74,1.74,0,0,0,.53,1.4,2.36,2.36,0,0,0,1.43.58,3.29,3.29,0,0,0,.67,0,2.14,2.14,0,0,0,.66-.18,1.52,1.52,0,0,0,.52-.38,1,1,0,0,0,.24-.62,1,1,0,0,0-.09-.55,1.15,1.15,0,0,0-.32-.39,2.25,2.25,0,0,0-.49-.29c-.18-.08-.37-.15-.56-.22l-1.11-.35a6.23,6.23,0,0,1-.77-.33,2.51,2.51,0,0,1-.6-.42,1.5,1.5,0,0,1-.38-.57A1.77,1.77,0,0,1,179,174a1.75,1.75,0,0,1,.32-.91,1.93,1.93,0,0,1,.69-.57,3,3,0,0,1,.9-.27,4.26,4.26,0,0,1,1,0,3.53,3.53,0,0,1,1,.23,2.33,2.33,0,0,1,.79.5,2.12,2.12,0,0,1,.5.77,2.62,2.62,0,0,1,.15,1l-.88-.07A1.66,1.66,0,0,0,183.34,173.91Z"/></g></svg>