<svg xmlns="http://www.w3.org/2000/svg" xmlns:xlink="http://www.w3.org/1999/xlink" viewBox="0 0 360 360"><defs><style>.cls-1,.cls-7{fill:none;}.cls-2{clip-path:url(#clip-path);}.cls-3{fill:#f15252;}.cls-4{opacity:0.5;}.cls-5{clip-path:url(#clip-path-3);}.cls-6{fill:#fff;}.cls-7{stroke:#fff;stroke-width:0.56px;}.cls-8{font-size:18px;fill:#221f1f;font-family:HelveticaNeue-Bold, Helvetica Neue;font-weight:700;}.cls-9{letter-spacing:-0.05em;}.cls-10{letter-spacing:-0.02em;}.cls-11{letter-spacing:0em;}.cls-12{letter-spacing:-0.02em;}</style><clipPath id="clip-path"><rect class="cls-1" x="56" y="56.1" width="246.91" height="246.91"/></clipPath><clipPath id="clip-path-3"><rect class="cls-1" x="70.93" y="62.44" width="117.26" height="98.29"/></clipPath></defs><title>circles_female</title><g id="Layer_7" data-name="Layer 7"><g class="cls-2"><g class="cls-2"><path class="cls-3" d="M179.46,303A123.45,123.45,0,1,0,56,179.55,123.45,123.45,0,0,0,179.46,303"/><g class="cls-4"><g class="cls-5"><path class="cls-6" d="M80.15,105.79c16.56-21.6,40.25-34.78,43.18-36L179,159.59"/><path class="cls-7" d="M80.15,105.79c16.56-21.6,40.25-34.78,43.18-36L179,159.59"/></g></g></g></g><text class="cls-8" transform="translate(92.83 143.57)">An inte<tspan class="cls-9" x="59.99" y="0">r</tspan><tspan x="66.01" y="0">-o</tspan><tspan class="cls-10" x="84.33" y="0">f</tspan><tspan x="90" y="0">fice email </tspan><tspan class="cls-10" x="-25.55" y="21.6">r</tspan><tspan x="-18.87" y="21.6">equests that women step </tspan><tspan x="-21.19" y="43.2">up their atti</tspan><tspan class="cls-10" x="77.13" y="43.2">r</tspan><tspan class="cls-11" x="83.81" y="43.2">e. While men </tspan><tspan x="-9.23" y="64.8">have no </tspan><tspan class="cls-10" x="63.14" y="64.8">r</tspan><tspan x="69.82" y="64.8">equi</tspan><tspan class="cls-12" x="106.47" y="64.8">r</tspan><tspan x="113.15" y="64.8">ements. </tspan><tspan x="27.3" y="86.4">Do you oblige</tspan></text></g></svg>