<svg xmlns="http://www.w3.org/2000/svg" xmlns:xlink="http://www.w3.org/1999/xlink" viewBox="0 0 360 360"><defs><style>.cls-1{fill:none;}.cls-2{clip-path:url(#clip-path);}.cls-3{fill:#14a596;}.cls-4{opacity:0.5;}.cls-5{clip-path:url(#clip-path-3);}.cls-6{fill:#fff;}.cls-7{font-size:18px;fill:#221f1f;font-family:HelveticaNeue-Bold, Helvetica Neue;font-weight:700;}.cls-8{letter-spacing:-0.02em;}.cls-9{letter-spacing:-0.02em;}.cls-10{letter-spacing:-0.11em;}.cls-11{letter-spacing:-0.02em;}</style><clipPath id="clip-path"><rect class="cls-1" x="56" y="55.73" width="247.28" height="247.28"/></clipPath><clipPath id="clip-path-3"><rect class="cls-1" x="178.98" y="185.64" width="113.72" height="104.83"/></clipPath></defs><title>circles_female</title><g id="Layer_8" data-name="Layer 8"><g class="cls-2"><g class="cls-2"><path class="cls-3" d="M179.64,303A123.64,123.64,0,1,0,56,179.37,123.64,123.64,0,0,0,179.64,303"/><g class="cls-4"><g class="cls-5"><path class="cls-6" d="M283.7,246.39c-18,26.64-37.4,37.08-37.4,37.08L188,186.64"/></g></g></g></g><text class="cls-7" transform="translate(112.76 108.78)">A majority male <tspan x="-14.22" y="21.6">c</tspan><tspan class="cls-8" x="-3.89" y="21.6">r</tspan><tspan x="2.79" y="21.6">eative team have </tspan><tspan x="-26.18" y="43.2">called themselves the </tspan><tspan x="-45.04" y="64.8">‘MANagement G</tspan><tspan class="cls-9" x="95.93" y="64.8">r</tspan><tspan x="102.61" y="64.8">oup’ that </tspan><tspan x="-42.88" y="86.4">serves scotch, cigars and </tspan><tspan x="-19.38" y="108">nudie mags at every </tspan><tspan x="-32.38" y="129.6">meeting. </tspan><tspan class="cls-10" x="47.25" y="129.6">Y</tspan><tspan x="57.26" y="129.6">ou’</tspan><tspan class="cls-11" x="83.93" y="129.6">r</tspan><tspan x="90.61" y="129.6">e on that </tspan><tspan x="-5.21" y="151.2">team. Thoughts?</tspan></text></g></svg>