<svg xmlns="http://www.w3.org/2000/svg" xmlns:xlink="http://www.w3.org/1999/xlink" viewBox="0 0 360 360"><defs><style>.cls-1{fill:none;}.cls-2{clip-path:url(#clip-path);}.cls-3{fill:#f1c02e;}.cls-4{opacity:0.5;}.cls-5{clip-path:url(#clip-path-3);}.cls-6{fill:#fff;}.cls-7{font-size:18px;fill:#221f1f;font-family:HelveticaNeue-Bold, Helvetica Neue;font-weight:700;}.cls-8{letter-spacing:-0.11em;}.cls-9{letter-spacing:-0.02em;}.cls-10{letter-spacing:-0.02em;}.cls-11{letter-spacing:-0.02em;}.cls-12{fill:#f29d35;}.cls-13{opacity:0.58;}.cls-14{fill:#fef5f3;}</style><clipPath id="clip-path"><rect class="cls-1" x="61" y="61.58" width="237.43" height="237.43"/></clipPath><clipPath id="clip-path-3"><rect class="cls-1" x="52.18" y="184.11" width="132.29" height="63.49"/></clipPath></defs><title>questions_female</title><g id="Layer_9" data-name="Layer 9"><g class="cls-2"><g class="cls-2"><path class="cls-3" d="M179.71,299A118.71,118.71,0,1,0,61,180.29,118.71,118.71,0,0,0,179.71,299"/><g class="cls-4"><g class="cls-5"><path class="cls-6" d="M175.46,185.11H61.18s-.84,26.49,16.3,55.49"/></g></g></g></g><text class="cls-7" transform="translate(106.72 142.57)"><tspan class="cls-8">Y</tspan><tspan x="10.01" y="0">ou get o</tspan><tspan class="cls-9" x="80.35" y="0">f</tspan><tspan x="86.02" y="0">fe</tspan><tspan class="cls-10" x="102.35" y="0">r</tspan><tspan x="109.03" y="0">ed a </tspan><tspan x="-8.49" y="21.6">p</tspan><tspan class="cls-11" x="2.51" y="21.6">r</tspan><tspan x="9.19" y="21.6">omotion, but you </tspan><tspan x="-13.44" y="43.2">feel others will think </tspan><tspan x="-12.66" y="64.8">you slept to the top. </tspan><tspan x="8.5" y="86.4">Do you take it?</tspan></text><polygon class="cls-12" points="214.31 82.49 269.69 77.66 319.15 89.48 322.38 120.67 246.57 111.53 198.18 103.46 214.31 82.49"/><polygon class="cls-12" points="90.69 254.69 116.15 251.15 143.13 256.38 164.17 274.05 153.69 286.09 98.97 280.96 69.34 270.11 90.69 254.69"/><g class="cls-13"><path class="cls-14" d="M226,91.06l-.47,10-1,0L225,91Z"/><path class="cls-14" d="M228.63,94l-.06,1.24h0a2.11,2.11,0,0,1,.95-1,2.63,2.63,0,0,1,1.43-.33,3.55,3.55,0,0,1,1.26.26,2,2,0,0,1,.79.59,2,2,0,0,1,.39.89,5,5,0,0,1,.07,1.17l-.22,4.64-.88,0,.21-4.5a4.19,4.19,0,0,0,0-.86,1.78,1.78,0,0,0-.26-.71,1.43,1.43,0,0,0-.54-.49,2.09,2.09,0,0,0-.88-.21,2.24,2.24,0,0,0-1,.14,2,2,0,0,0-.72.48,2.41,2.41,0,0,0-.49.76,3.2,3.2,0,0,0-.22,1l-.2,4.21-.88,0,.34-7.22Z"/><path class="cls-14" d="M239.29,95.59a2.06,2.06,0,0,1,.64-.73,2.58,2.58,0,0,1,.92-.39,4.43,4.43,0,0,1,1.15-.09,5.15,5.15,0,0,1,.95.14,2.29,2.29,0,0,1,.84.38,1.85,1.85,0,0,1,.58.74,2.55,2.55,0,0,1,.18,1.19l-.18,3.83a.46.46,0,0,0,.49.56.68.68,0,0,0,.28,0l0,.74-.27,0h-.3a1.33,1.33,0,0,1-.53-.12.72.72,0,0,1-.3-.27.94.94,0,0,1-.13-.41,3.34,3.34,0,0,1,0-.51h0a5.81,5.81,0,0,1-.51.6,2.33,2.33,0,0,1-.57.43,2.5,2.5,0,0,1-.7.25,3.85,3.85,0,0,1-.92.05,3.62,3.62,0,0,1-.94-.16,2.1,2.1,0,0,1-.75-.41,1.8,1.8,0,0,1-.49-.68,2.17,2.17,0,0,1-.14-1,1.86,1.86,0,0,1,.39-1.17,2.11,2.11,0,0,1,.92-.61,5.06,5.06,0,0,1,1.26-.26l1.41-.11.49,0a.88.88,0,0,0,.36-.13.69.69,0,0,0,.23-.28,1.22,1.22,0,0,0,.1-.47,1.61,1.61,0,0,0-.11-.74,1.18,1.18,0,0,0-.38-.47,1.65,1.65,0,0,0-.59-.26,4.09,4.09,0,0,0-.73-.1,2.22,2.22,0,0,0-1.39.33,1.56,1.56,0,0,0-.62,1.25l-.88,0A2.93,2.93,0,0,1,239.29,95.59Zm4.3,2.36a.5.5,0,0,1-.33.21l-.42.08-1.16.12a6.37,6.37,0,0,0-1.09.18,2.13,2.13,0,0,0-.83.4,1.05,1.05,0,0,0-.35.8,1.27,1.27,0,0,0,.1.6,1.44,1.44,0,0,0,.34.46,1.55,1.55,0,0,0,.5.31,1.9,1.9,0,0,0,.6.13,3,3,0,0,0,1-.11,2.37,2.37,0,0,0,.82-.41,2.17,2.17,0,0,0,.58-.69,2.15,2.15,0,0,0,.25-.94l.06-1.15Z"/><path class="cls-14" d="M251.3,92.26l-.19,4h0a2.12,2.12,0,0,1,.95-1,2.64,2.64,0,0,1,1.43-.33,3.56,3.56,0,0,1,1.26.26,2,2,0,0,1,.79.59,2.08,2.08,0,0,1,.39.89,5,5,0,0,1,.07,1.17l-.22,4.64-.88,0,.21-4.5a4.17,4.17,0,0,0,0-.86,1.81,1.81,0,0,0-.26-.71,1.43,1.43,0,0,0-.54-.49,2.09,2.09,0,0,0-.88-.21,2.26,2.26,0,0,0-1,.14,2,2,0,0,0-.72.48,2.38,2.38,0,0,0-.49.76,3.17,3.17,0,0,0-.22,1l-.2,4.21-.88,0,.47-10Z"/><path class="cls-14" d="M258.23,100.21a2.72,2.72,0,0,0,.38.94,2.47,2.47,0,0,0,.71.71,2.07,2.07,0,0,0,1.06.32,2.14,2.14,0,0,0,1.53-.43,2.64,2.64,0,0,0,.82-1.31l.88,0a3.52,3.52,0,0,1-1.12,1.85,3.07,3.07,0,0,1-2.15.57,3.38,3.38,0,0,1-1.46-.37,2.71,2.71,0,0,1-1-.87,3.57,3.57,0,0,1-.52-1.24,5.57,5.57,0,0,1-.12-1.47,5.25,5.25,0,0,1,.26-1.39,3.75,3.75,0,0,1,.64-1.2,2.89,2.89,0,0,1,1.05-.82,3.11,3.11,0,0,1,1.49-.26,2.86,2.86,0,0,1,2.42,1.38,3.81,3.81,0,0,1,.49,1.33,5.74,5.74,0,0,1,.07,1.5l-5.55-.26A3.93,3.93,0,0,0,258.23,100.21Zm4.49-2.48a2.68,2.68,0,0,0-.42-.84,2.27,2.27,0,0,0-.69-.61,2.23,2.23,0,0,0-1.92-.09,2.26,2.26,0,0,0-.74.54,2.88,2.88,0,0,0-.51.8,4.05,4.05,0,0,0-.28.95l4.67.22A3.21,3.21,0,0,0,262.72,97.72Z"/><path class="cls-14" d="M265.2,96.82a2.07,2.07,0,0,1,.64-.73,2.56,2.56,0,0,1,.92-.39,4.35,4.35,0,0,1,1.15-.09,5.06,5.06,0,0,1,.95.14,2.31,2.31,0,0,1,.84.38,1.86,1.86,0,0,1,.58.74,2.53,2.53,0,0,1,.18,1.19l-.18,3.83a.46.46,0,0,0,.49.56.67.67,0,0,0,.28,0l0,.74-.27,0h-.3a1.33,1.33,0,0,1-.53-.12.73.73,0,0,1-.3-.27.94.94,0,0,1-.13-.41,3.33,3.33,0,0,1,0-.51h0a5.74,5.74,0,0,1-.51.6,2.31,2.31,0,0,1-.57.43,2.49,2.49,0,0,1-.7.25,3.83,3.83,0,0,1-.92.05,3.63,3.63,0,0,1-.94-.16,2.13,2.13,0,0,1-.75-.41,1.81,1.81,0,0,1-.49-.68,2.19,2.19,0,0,1-.14-1,1.87,1.87,0,0,1,.39-1.17,2.12,2.12,0,0,1,.92-.61A5.1,5.1,0,0,1,267,99l1.41-.11.49,0a.86.86,0,0,0,.36-.13.68.68,0,0,0,.23-.28,1.22,1.22,0,0,0,.1-.47,1.61,1.61,0,0,0-.11-.74,1.16,1.16,0,0,0-.38-.47,1.65,1.65,0,0,0-.59-.26,4.09,4.09,0,0,0-.73-.1,2.22,2.22,0,0,0-1.39.33,1.56,1.56,0,0,0-.62,1.25l-.88,0A3,3,0,0,1,265.2,96.82Zm4.3,2.36a.51.51,0,0,1-.33.21l-.42.08-1.16.12a6.34,6.34,0,0,0-1.09.18,2.13,2.13,0,0,0-.83.4,1,1,0,0,0-.35.8,1.29,1.29,0,0,0,.1.6,1.46,1.46,0,0,0,.34.46,1.54,1.54,0,0,0,.5.31,1.88,1.88,0,0,0,.6.13,3,3,0,0,0,1-.11,2.42,2.42,0,0,0,.82-.41,2.14,2.14,0,0,0,.83-1.63l.06-1.15Z"/><path class="cls-14" d="M273.14,96.07l-.08,1.69h0a2.77,2.77,0,0,1,1.11-1.31,2.73,2.73,0,0,1,1.71-.35l0,.88a2.67,2.67,0,0,0-1.1.11,2.41,2.41,0,0,0-1.46,1.3,2.79,2.79,0,0,0-.25,1l-.18,3.85-.88,0,.34-7.22Z"/><path class="cls-14" d="M279.6,96.38l0,.74-1.47-.07-.23,4.87a1.56,1.56,0,0,0,.09.68q.11.25.58.3a7,7,0,0,0,.76,0l0,.74h-.78a1.3,1.3,0,0,1-1.49-1.68l.24-4.94L276,97l0-.74,1.26.06.1-2.17.88,0-.1,2.17Z"/><path class="cls-14" d="M281.88,93.71l-.2,4.14h0a2.09,2.09,0,0,1,.43-.67,2.51,2.51,0,0,1,.62-.47,2.63,2.63,0,0,1,.74-.27,3.22,3.22,0,0,1,.79-.06,3.15,3.15,0,0,1,1.42.38,2.94,2.94,0,0,1,1,.88,3.53,3.53,0,0,1,.54,1.25,5.56,5.56,0,0,1-.14,2.92,3.55,3.55,0,0,1-.66,1.19,2.89,2.89,0,0,1-1.05.78,3.21,3.21,0,0,1-1.45.23,3.06,3.06,0,0,1-1.55-.48,2.32,2.32,0,0,1-.94-1.21h0l-.07,1.37-.81,0,.47-10Zm4.51,5.49a3.1,3.1,0,0,0-.37-1,2.31,2.31,0,0,0-.7-.74,2,2,0,0,0-1.06-.32,2.36,2.36,0,0,0-1.19.22,2.33,2.33,0,0,0-.82.67,2.89,2.89,0,0,0-.48,1,4.68,4.68,0,0,0-.11,2.22,2.89,2.89,0,0,0,.39,1,2.32,2.32,0,0,0,.75.74,2.36,2.36,0,0,0,1.17.33,2,2,0,0,0,1.09-.22,2.29,2.29,0,0,0,.77-.67,3.09,3.09,0,0,0,.47-1,4.72,4.72,0,0,0,.11-2.22Z"/><path class="cls-14" d="M289.32,101.68a2.74,2.74,0,0,0,.38.94,2.46,2.46,0,0,0,.71.71,2.07,2.07,0,0,0,1.06.32,2.14,2.14,0,0,0,1.53-.43,2.64,2.64,0,0,0,.82-1.31l.88,0a3.53,3.53,0,0,1-1.12,1.85,3.07,3.07,0,0,1-2.15.57A3.38,3.38,0,0,1,290,104a2.71,2.71,0,0,1-1-.87,3.57,3.57,0,0,1-.52-1.24,5.57,5.57,0,0,1-.12-1.47,5.26,5.26,0,0,1,.26-1.39,3.75,3.75,0,0,1,.64-1.19,2.89,2.89,0,0,1,1.05-.82,3.11,3.11,0,0,1,1.49-.26,2.86,2.86,0,0,1,2.42,1.38,3.83,3.83,0,0,1,.49,1.33,5.74,5.74,0,0,1,.07,1.5l-5.55-.26A4,4,0,0,0,289.32,101.68Zm4.49-2.49a2.69,2.69,0,0,0-.42-.84,2.26,2.26,0,0,0-.69-.61,2.23,2.23,0,0,0-1.92-.09,2.27,2.27,0,0,0-.74.54,2.9,2.9,0,0,0-.51.8,4.05,4.05,0,0,0-.28.95l4.67.22A3.25,3.25,0,0,0,293.81,99.2Z"/><path class="cls-14" d="M296.28,98.29a2.06,2.06,0,0,1,.64-.73,2.56,2.56,0,0,1,.92-.39,4.39,4.39,0,0,1,1.15-.08,5,5,0,0,1,.95.14,2.32,2.32,0,0,1,.84.38,1.86,1.86,0,0,1,.58.74,2.53,2.53,0,0,1,.18,1.19l-.18,3.83a.46.46,0,0,0,.49.56.7.7,0,0,0,.28,0l0,.74-.27,0h-.3a1.35,1.35,0,0,1-.53-.12.73.73,0,0,1-.3-.27,1,1,0,0,1-.13-.41,3.33,3.33,0,0,1,0-.51h0a5.74,5.74,0,0,1-.51.6,2.36,2.36,0,0,1-.57.43,2.49,2.49,0,0,1-.7.25,3.78,3.78,0,0,1-.92.05,3.67,3.67,0,0,1-.94-.16,2.13,2.13,0,0,1-.75-.41,1.81,1.81,0,0,1-.49-.68,2.18,2.18,0,0,1-.14-1,1.87,1.87,0,0,1,.39-1.17,2.11,2.11,0,0,1,.92-.61,5.07,5.07,0,0,1,1.26-.26l1.41-.11.49,0a.86.86,0,0,0,.36-.13.68.68,0,0,0,.23-.28,1.21,1.21,0,0,0,.1-.47,1.62,1.62,0,0,0-.11-.74,1.16,1.16,0,0,0-.38-.47,1.63,1.63,0,0,0-.59-.26,4,4,0,0,0-.73-.1,2.22,2.22,0,0,0-1.39.33,1.56,1.56,0,0,0-.62,1.25l-.88,0A3,3,0,0,1,296.28,98.29Zm4.3,2.36a.51.51,0,0,1-.33.21,3.21,3.21,0,0,1-.42.08l-1.16.12a6.43,6.43,0,0,0-1.09.18,2.12,2.12,0,0,0-.83.4,1,1,0,0,0-.35.8,1.28,1.28,0,0,0,.1.6,1.47,1.47,0,0,0,.34.46,1.54,1.54,0,0,0,.5.31,1.88,1.88,0,0,0,.6.13,3,3,0,0,0,1-.11,2.4,2.4,0,0,0,.82-.41,2.13,2.13,0,0,0,.83-1.63l.06-1.15Z"/><path class="cls-14" d="M306.28,97.65l0,.74-1.47-.07-.23,4.87a1.56,1.56,0,0,0,.09.68c.07.17.26.27.58.3a6.54,6.54,0,0,0,.76,0l0,.74h-.78a1.74,1.74,0,0,1-1.21-.4,1.72,1.72,0,0,1-.28-1.28l.24-4.94-1.26-.06,0-.74,1.26.06.1-2.17.88,0-.1,2.17Z"/></g><g class="cls-13"><path class="cls-14" d="M86.83,263.14a4.33,4.33,0,0,1,1.17.13,2.81,2.81,0,0,1,1,.45,2.26,2.26,0,0,1,.68.8,2.62,2.62,0,0,1,.27,1.16,2.8,2.8,0,0,1-.45,1.66,2.23,2.23,0,0,1-1.43.93v0a2.24,2.24,0,0,1,.82.24,1.64,1.64,0,0,1,.54.47,2,2,0,0,1,.31.67,5,5,0,0,1,.14.83c0,.17,0,.37,0,.62s0,.49.07.73a4.57,4.57,0,0,0,.15.7,1.36,1.36,0,0,0,.26.51l-1,0a1.23,1.23,0,0,1-.14-.34,3.26,3.26,0,0,1-.08-.42c0-.14,0-.29,0-.43s0-.26,0-.36c0-.35-.06-.71-.12-1.05a2.89,2.89,0,0,0-.29-.93,1.64,1.64,0,0,0-.6-.65,1.78,1.78,0,0,0-1.06-.2l-3.61.09.1,4.44-1,0-.24-10Zm0,4.75a2.51,2.51,0,0,0,.82-.15,2.07,2.07,0,0,0,.68-.4,1.9,1.9,0,0,0,.45-.62,1.84,1.84,0,0,0,.16-.82,2,2,0,0,0-.57-1.44,2.21,2.21,0,0,0-1.64-.49l-3.55.08.09,3.93Z"/><path class="cls-14" d="M92.25,270.62a2.75,2.75,0,0,0,.45.91,2.46,2.46,0,0,0,.76.65,2.09,2.09,0,0,0,1.08.24,2.15,2.15,0,0,0,1.5-.54,2.64,2.64,0,0,0,.72-1.36l.88,0a3.51,3.51,0,0,1-1,1.93,3.08,3.08,0,0,1-2.11.72,3.37,3.37,0,0,1-1.48-.27,2.69,2.69,0,0,1-1-.8,3.58,3.58,0,0,1-.61-1.2,5.57,5.57,0,0,1-.22-1.46,5.25,5.25,0,0,1,.16-1.4,3.76,3.76,0,0,1,.55-1.24,2.89,2.89,0,0,1,1-.89,3.13,3.13,0,0,1,1.47-.36,2.86,2.86,0,0,1,2.51,1.21,3.83,3.83,0,0,1,.58,1.29,5.78,5.78,0,0,1,.17,1.49l-5.56.13A4,4,0,0,0,92.25,270.62Zm4.3-2.8a2.67,2.67,0,0,0-.47-.81,2.26,2.26,0,0,0-.73-.56,2.23,2.23,0,0,0-1.92,0,2.28,2.28,0,0,0-.7.59,2.89,2.89,0,0,0-.45.84,4.1,4.1,0,0,0-.21,1l4.67-.11A3.19,3.19,0,0,0,96.55,267.83Z"/><path class="cls-14" d="M99.58,262.84l.24,10-.88,0-.24-10Z"/><path class="cls-14" d="M106.55,272.67l0-1.3h0a2.5,2.5,0,0,1-1,1.14,2.9,2.9,0,0,1-1.47.42,3.2,3.2,0,0,1-1.17-.16,2,2,0,0,1-.8-.52,2.16,2.16,0,0,1-.46-.84,4.26,4.26,0,0,1-.17-1.14l-.11-4.69.88,0,.11,4.7a2.36,2.36,0,0,0,.49,1.47,1.85,1.85,0,0,0,1.49.47,1.87,1.87,0,0,0,1-.27,2.09,2.09,0,0,0,.66-.67,3,3,0,0,0,.37-.94,4.55,4.55,0,0,0,.1-1.07l-.09-3.79.88,0,.17,7.22Z"/><path class="cls-14" d="M113.3,266.28a1.91,1.91,0,0,0-1.38-.43,2.22,2.22,0,0,0-1.1.29,2.43,2.43,0,0,0-.77.72,3.18,3.18,0,0,0-.45,1,4,4,0,0,0,.05,2.25,3.2,3.2,0,0,0,.5,1,2.44,2.44,0,0,0,.81.68,2.23,2.23,0,0,0,1.11.24,2,2,0,0,0,.77-.17,2.06,2.06,0,0,0,.63-.44,2.27,2.27,0,0,0,.45-.66,2.38,2.38,0,0,0,.2-.83l.88,0a3.33,3.33,0,0,1-.92,2.07,2.83,2.83,0,0,1-2,.78,3.39,3.39,0,0,1-1.47-.27,3.12,3.12,0,0,1-1.09-.79,3.59,3.59,0,0,1-.69-1.2,5,5,0,0,1-.07-3,3.59,3.59,0,0,1,.63-1.23,3.22,3.22,0,0,1,1.05-.85,3.32,3.32,0,0,1,1.45-.34,3.14,3.14,0,0,1,2,.57,2.63,2.63,0,0,1,1,1.84l-.88,0A2.42,2.42,0,0,0,113.3,266.28Z"/><path class="cls-14" d="M119,265.15l0,.74-1.47,0,.11,4.87a1.56,1.56,0,0,0,.14.68c.08.16.28.25.6.26a6.5,6.5,0,0,0,.75-.06l0,.74-.39,0-.39,0a1.74,1.74,0,0,1-1.24-.31,1.72,1.72,0,0,1-.37-1.26l-.12-4.94-1.26,0,0-.74,1.26,0-.05-2.17.88,0,.05,2.17Z"/><path class="cls-14" d="M120.47,266.24a2.07,2.07,0,0,1,.59-.77,2.59,2.59,0,0,1,.89-.45,4.35,4.35,0,0,1,1.14-.17,5,5,0,0,1,1,.07,2.28,2.28,0,0,1,.86.32,1.85,1.85,0,0,1,.63.69,2.53,2.53,0,0,1,.27,1.18l.09,3.83a.46.46,0,0,0,.53.52.67.67,0,0,0,.28-.06l0,.74-.27,0-.3,0a1.34,1.34,0,0,1-.54-.08.73.73,0,0,1-.32-.25,1,1,0,0,1-.16-.4,3.32,3.32,0,0,1,0-.51h0a5.73,5.73,0,0,1-.47.63,2.36,2.36,0,0,1-.53.47,2.54,2.54,0,0,1-.68.3,3.83,3.83,0,0,1-.91.12,3.59,3.59,0,0,1-.95-.1,2.13,2.13,0,0,1-.78-.36,1.79,1.79,0,0,1-.53-.65,2.17,2.17,0,0,1-.21-.94,1.87,1.87,0,0,1,.31-1.19,2.12,2.12,0,0,1,.87-.67,5.1,5.1,0,0,1,1.24-.35l1.4-.21.49-.08a.84.84,0,0,0,.35-.16.67.67,0,0,0,.21-.29,1.22,1.22,0,0,0,.07-.48,1.61,1.61,0,0,0-.16-.73,1.16,1.16,0,0,0-.42-.45,1.67,1.67,0,0,0-.61-.22,4.09,4.09,0,0,0-.74,0,2.22,2.22,0,0,0-1.36.43,1.56,1.56,0,0,0-.53,1.29l-.88,0A2.94,2.94,0,0,1,120.47,266.24Zm4.46,2.05a.51.51,0,0,1-.32.23l-.42.11-1.15.2a6.34,6.34,0,0,0-1.08.26,2.12,2.12,0,0,0-.8.46,1,1,0,0,0-.29.82,1.29,1.29,0,0,0,.15.59,1.45,1.45,0,0,0,.37.44,1.53,1.53,0,0,0,.52.28,1.94,1.94,0,0,0,.61.08,3,3,0,0,0,1-.18,2.41,2.41,0,0,0,.79-.47,2.19,2.19,0,0,0,.53-.73,2.17,2.17,0,0,0,.18-1l0-1.15Z"/><path class="cls-14" d="M128.39,264.93l0,1.25h0a2.12,2.12,0,0,1,.87-1.08,2.62,2.62,0,0,1,1.41-.43,3.51,3.51,0,0,1,1.27.17,2,2,0,0,1,.83.53,2.08,2.08,0,0,1,.46.86,5,5,0,0,1,.15,1.16l.11,4.65-.88,0-.11-4.51a4.18,4.18,0,0,0-.1-.86,1.77,1.77,0,0,0-.31-.69,1.42,1.42,0,0,0-.58-.45,2.09,2.09,0,0,0-.89-.15,2.26,2.26,0,0,0-.94.21,2.05,2.05,0,0,0-.69.53,2.41,2.41,0,0,0-.43.79,3.19,3.19,0,0,0-.15,1l.1,4.21-.88,0-.17-7.22Z"/><path class="cls-14" d="M137.91,264.71l0,.74-1.47,0,.11,4.87a1.57,1.57,0,0,0,.14.68q.12.24.6.26a7,7,0,0,0,.75-.06l0,.74-.39,0-.39,0a1.3,1.3,0,0,1-1.61-1.57l-.12-4.94-1.26,0,0-.74,1.26,0-.05-2.17.88,0,.05,2.17Z"/><path class="cls-14" d="M140,261.89l.24,10-.88,0-.24-10Z"/><path class="cls-14" d="M141.89,264.61l2.52,6.1,2.08-6.21.88,0-2.94,8.39a8,8,0,0,1-.35.77,1.77,1.77,0,0,1-.36.49,1.25,1.25,0,0,1-.47.26,2.62,2.62,0,0,1-.69.09h-.41a.87.87,0,0,1-.26,0l0-.74.3,0h.3a1.2,1.2,0,0,0,.48-.09,1.07,1.07,0,0,0,.32-.24,1.38,1.38,0,0,0,.23-.36l.2-.47.29-.82L141,264.64Z"/></g></g></svg>