<svg xmlns="http://www.w3.org/2000/svg" xmlns:xlink="http://www.w3.org/1999/xlink" viewBox="0 0 360 360"><defs><style>.cls-1,.cls-7{fill:none;}.cls-2{clip-path:url(#clip-path);}.cls-3{fill:#f1c02e;}.cls-4{opacity:0.5;}.cls-5{clip-path:url(#clip-path-3);}.cls-6{fill:#fff;}.cls-7{stroke:#fff;stroke-width:0.55px;}.cls-8{font-size:18px;fill:#221f1f;font-family:HelveticaNeue-Bold, Helvetica Neue;font-weight:700;}.cls-9{letter-spacing:-0.11em;}.cls-10{letter-spacing:-0.02em;}.cls-11{fill:#14a697;}.cls-12{opacity:0.58;}.cls-13{fill:#fef5f3;}</style><clipPath id="clip-path"><rect class="cls-1" x="56.38" y="57.15" width="245.73" height="245.47"/></clipPath><clipPath id="clip-path-3"><rect class="cls-1" x="169.77" y="178.12" width="141.34" height="58.07"/></clipPath></defs><title>questions_female</title><g id="Layer_4" data-name="Layer 4"><g class="cls-2"><g class="cls-2"><path class="cls-3" d="M179.11,302.61A122.73,122.73,0,1,0,56.38,179.88,122.73,122.73,0,0,0,179.11,302.61"/><g class="cls-4"><g class="cls-5"><path class="cls-6" d="M178.77,179.4H301.65s2.42,19.59-10.11,49.69"/><path class="cls-7" d="M178.77,179.4H301.65s2.42,19.59-10.11,49.69"/></g></g></g></g><text class="cls-8" transform="translate(89.79 152.26)"><tspan class="cls-9">Y</tspan><tspan x="10.01" y="0">our male co-worker </tspan><tspan x="18.5" y="21.6">tells you he likes </tspan><tspan x="-8.53" y="43.2">“your ass in that skirt.” </tspan><tspan x="-4.04" y="64.8">How do you </tspan><tspan class="cls-10" x="102.97" y="64.8">r</tspan><tspan x="109.65" y="64.8">espond?</tspan></text><polygon class="cls-11" points="171.48 89.03 193.75 111.63 269.35 112.17 327 107.65 318.19 86 256.19 73.5 185.15 75.99 171.48 89.03"/><polygon class="cls-11" points="63.62 245.42 91.16 234.46 129.11 240.25 173.36 263.85 165.45 286.04 107.82 282.92 40.12 278.53 43.55 255.78 63.62 245.42"/><g class="cls-12"><path class="cls-13" d="M183.87,87.76l2.27,8.75h0l2.43-8.75h1.19l2.45,8.75h0l2.28-8.75h1l-2.75,10h-1l-2.53-8.95h0l-2.52,8.95h-1l-2.78-10Z"/><path class="cls-13" d="M197.62,87.76v1.41h-.88V87.76Zm0,2.77v7.22h-.88V90.53Z"/><path class="cls-13" d="M202.18,90.53v.74h-1.47v4.87a1.56,1.56,0,0,0,.12.68q.12.25.59.27a6.75,6.75,0,0,0,.76,0v.74h-.78a1.74,1.74,0,0,1-1.23-.34,1.72,1.72,0,0,1-.34-1.27V91.27h-1.26v-.74h1.26V88.36h.88v2.17Z"/><path class="cls-13" d="M204.32,87.75v4h0a2.12,2.12,0,0,1,.9-1.06,2.64,2.64,0,0,1,1.41-.4,3.58,3.58,0,0,1,1.27.2,2,2,0,0,1,.82.55,2.09,2.09,0,0,1,.44.87,4.93,4.93,0,0,1,.12,1.16v4.65h-.88V93.24a4.19,4.19,0,0,0-.08-.86,1.82,1.82,0,0,0-.29-.69,1.42,1.42,0,0,0-.57-.46,2.08,2.08,0,0,0-.89-.17,2.23,2.23,0,0,0-.94.19,2,2,0,0,0-.7.52,2.39,2.39,0,0,0-.45.78,3.17,3.17,0,0,0-.18,1v4.21h-.88v-10Z"/><path class="cls-13" d="M215.73,90.52v1.25h0a2.11,2.11,0,0,1,.89-1.06,2.64,2.64,0,0,1,1.41-.4,3.56,3.56,0,0,1,1.27.2,2,2,0,0,1,.82.55,2.06,2.06,0,0,1,.44.87,4.93,4.93,0,0,1,.13,1.16v4.65h-.88V93.24a4.19,4.19,0,0,0-.08-.86,1.78,1.78,0,0,0-.29-.69,1.43,1.43,0,0,0-.57-.46,2.08,2.08,0,0,0-.89-.17,2.26,2.26,0,0,0-.94.19,2,2,0,0,0-.7.52,2.41,2.41,0,0,0-.45.78,3.19,3.19,0,0,0-.17,1v4.21h-.88V90.52Z"/><path class="cls-13" d="M223,95.36a2.68,2.68,0,0,0,.43.92,2.43,2.43,0,0,0,.74.67,2.08,2.08,0,0,0,1.08.27,2.14,2.14,0,0,0,1.51-.5,2.65,2.65,0,0,0,.76-1.34h.88a3.53,3.53,0,0,1-1,1.9,3.07,3.07,0,0,1-2.12.67,3.36,3.36,0,0,1-1.48-.3,2.72,2.72,0,0,1-1-.83,3.59,3.59,0,0,1-.58-1.22,5.53,5.53,0,0,1-.19-1.46,5.22,5.22,0,0,1,.19-1.4,3.77,3.77,0,0,1,.58-1.22,2.91,2.91,0,0,1,1-.87,3.12,3.12,0,0,1,1.48-.33,2.86,2.86,0,0,1,2.48,1.27,3.82,3.82,0,0,1,.55,1.3,5.74,5.74,0,0,1,.14,1.49H222.9A3.93,3.93,0,0,0,223,95.36Zm4.37-2.7a2.67,2.67,0,0,0-.45-.82,2.26,2.26,0,0,0-.71-.57,2,2,0,0,0-1-.22,2.08,2.08,0,0,0-1,.22,2.27,2.27,0,0,0-.71.57,2.92,2.92,0,0,0-.47.83,4.15,4.15,0,0,0-.23,1h4.68A3.21,3.21,0,0,0,227.4,92.66Z"/><path class="cls-13" d="M230.46,90.52v1.69h0a2.78,2.78,0,0,1,1-1.36,2.74,2.74,0,0,1,1.69-.43v.88a2.67,2.67,0,0,0-1.09.16,2.47,2.47,0,0,0-.85.54,2.43,2.43,0,0,0-.55.83,2.76,2.76,0,0,0-.2,1.06v3.85h-.88V90.52Z"/><path class="cls-13" d="M234.23,90.52l2.27,6.34h0l2.24-6.34h.91L237,97.74H236l-2.79-7.22Z"/><path class="cls-13" d="M245.06,90.61a3.2,3.2,0,0,1,1.07.83,3.58,3.58,0,0,1,.66,1.21,5,5,0,0,1,0,3,3.58,3.58,0,0,1-.66,1.21,3.13,3.13,0,0,1-1.07.82,3.71,3.71,0,0,1-2.93,0,3.11,3.11,0,0,1-1.07-.82,3.56,3.56,0,0,1-.66-1.21,5,5,0,0,1,0-3,3.56,3.56,0,0,1,.66-1.21,3.18,3.18,0,0,1,1.07-.83,3.63,3.63,0,0,1,2.93,0Zm-2.57.7a2.44,2.44,0,0,0-.79.7,3.19,3.19,0,0,0-.48,1,4.06,4.06,0,0,0,0,2.25,3.2,3.2,0,0,0,.48,1,2.45,2.45,0,0,0,.79.7,2.43,2.43,0,0,0,2.21,0,2.41,2.41,0,0,0,.79-.7,3.17,3.17,0,0,0,.48-1A4,4,0,0,0,246,93a3.18,3.18,0,0,0-.48-1,2.43,2.43,0,0,0-.79-.7,2.43,2.43,0,0,0-2.21,0Z"/><path class="cls-13" d="M253.37,97.74v-1.3h0a2.51,2.51,0,0,1-1,1.11,2.89,2.89,0,0,1-1.48.38,3.21,3.21,0,0,1-1.17-.19,1.94,1.94,0,0,1-.78-.54,2.16,2.16,0,0,1-.44-.85,4.28,4.28,0,0,1-.14-1.15V90.52h.88v4.7a2.35,2.35,0,0,0,.45,1.48,2.28,2.28,0,0,0,2.46.26,2.08,2.08,0,0,0,.67-.65,2.93,2.93,0,0,0,.39-.93,4.56,4.56,0,0,0,.13-1.07V90.52h.88v7.22Z"/><path class="cls-13" d="M260,91.92a1.42,1.42,0,0,0-.41-.5,1.73,1.73,0,0,0-.6-.29,2.72,2.72,0,0,0-.71-.09,2.93,2.93,0,0,0-.6.06,1.83,1.83,0,0,0-.55.21,1.19,1.19,0,0,0-.41.38,1.07,1.07,0,0,0-.15.59.83.83,0,0,0,.15.5,1.29,1.29,0,0,0,.37.34,2.34,2.34,0,0,0,.49.23l.49.15,1.18.27a3.33,3.33,0,0,1,.75.2,2.39,2.39,0,0,1,.66.38,1.89,1.89,0,0,1,.47.59,1.77,1.77,0,0,1,.18.83,1.82,1.82,0,0,1-.27,1,2.19,2.19,0,0,1-.68.67,2.92,2.92,0,0,1-.93.37,4.86,4.86,0,0,1-1,.11,3.32,3.32,0,0,1-2.07-.6,2.56,2.56,0,0,1-.9-1.93h.88a1.74,1.74,0,0,0,.65,1.35,2.36,2.36,0,0,0,1.48.45,3.37,3.37,0,0,0,.66-.07,2.14,2.14,0,0,0,.64-.24,1.52,1.52,0,0,0,.48-.43,1,1,0,0,0,.19-.64,1,1,0,0,0-.13-.54,1.16,1.16,0,0,0-.36-.36,2.26,2.26,0,0,0-.51-.24c-.19-.07-.38-.12-.58-.17l-1.13-.25a6.27,6.27,0,0,1-.8-.26,2.54,2.54,0,0,1-.64-.36,1.53,1.53,0,0,1-.43-.53,1.78,1.78,0,0,1-.15-.78,1.73,1.73,0,0,1,.24-.94,1.93,1.93,0,0,1,.64-.63,3,3,0,0,1,.87-.35,4.23,4.23,0,0,1,1-.11,3.53,3.53,0,0,1,1,.14,2.34,2.34,0,0,1,.83.43,2.12,2.12,0,0,1,.57.73,2.6,2.6,0,0,1,.24,1h-.88A1.67,1.67,0,0,0,260,91.92Z"/><path class="cls-13" d="M267.36,87.74v10h-.88v-10Z"/><path class="cls-13" d="M269.24,91.63a2.06,2.06,0,0,1,.61-.76,2.57,2.57,0,0,1,.9-.43,4.41,4.41,0,0,1,1.15-.14,5.11,5.11,0,0,1,1,.09,2.3,2.3,0,0,1,.85.34,1.86,1.86,0,0,1,.61.71,2.53,2.53,0,0,1,.24,1.18v3.84a.46.46,0,0,0,.52.53.67.67,0,0,0,.28-.06v.74l-.27,0h-.3a1.35,1.35,0,0,1-.54-.09.73.73,0,0,1-.32-.26,1,1,0,0,1-.15-.4,3.33,3.33,0,0,1,0-.51h0a5.82,5.82,0,0,1-.48.62,2.32,2.32,0,0,1-.55.46,2.5,2.5,0,0,1-.68.28,3.8,3.8,0,0,1-.92.1,3.65,3.65,0,0,1-.95-.12,2.12,2.12,0,0,1-.77-.38,1.81,1.81,0,0,1-.52-.66,2.18,2.18,0,0,1-.19-.94,1.87,1.87,0,0,1,.33-1.18,2.11,2.11,0,0,1,.89-.65,5.07,5.07,0,0,1,1.25-.32l1.41-.18.49-.07a.88.88,0,0,0,.35-.15.69.69,0,0,0,.22-.29,1.22,1.22,0,0,0,.08-.48,1.61,1.61,0,0,0-.15-.73,1.17,1.17,0,0,0-.41-.46,1.65,1.65,0,0,0-.6-.23,4.09,4.09,0,0,0-.73-.06,2.22,2.22,0,0,0-1.37.4,1.56,1.56,0,0,0-.56,1.28H269A3,3,0,0,1,269.24,91.63Zm4.41,2.16a.51.51,0,0,1-.32.22l-.42.1-1.16.18a6.29,6.29,0,0,0-1.08.23,2.12,2.12,0,0,0-.81.44,1,1,0,0,0-.31.82,1.27,1.27,0,0,0,.13.59,1.46,1.46,0,0,0,.36.45,1.54,1.54,0,0,0,.52.29,1.87,1.87,0,0,0,.6.1,3,3,0,0,0,1-.15,2.4,2.4,0,0,0,.8-.45,2.14,2.14,0,0,0,.75-1.67V93.79Z"/><path class="cls-13" d="M281.37,97.73v-1.3h0a2.51,2.51,0,0,1-1,1.11,2.9,2.9,0,0,1-1.48.39,3.23,3.23,0,0,1-1.17-.19,1.94,1.94,0,0,1-.78-.54,2.17,2.17,0,0,1-.44-.85,4.27,4.27,0,0,1-.14-1.15V90.51h.88v4.7a2.34,2.34,0,0,0,.46,1.48,2.28,2.28,0,0,0,2.46.26,2.1,2.1,0,0,0,.67-.65,2.93,2.93,0,0,0,.39-.93,4.57,4.57,0,0,0,.13-1.07V90.51h.88v7.22Z"/><path class="cls-13" d="M289.77,98.59a2.81,2.81,0,0,1-.55,1.09,2.41,2.41,0,0,1-1,.69,4.11,4.11,0,0,1-1.49.24,4.52,4.52,0,0,1-1.06-.13,3,3,0,0,1-.93-.39,2.32,2.32,0,0,1-.69-.68,2,2,0,0,1-.31-1h.88a1.57,1.57,0,0,0,.27.68,1.64,1.64,0,0,0,.49.44,2.17,2.17,0,0,0,.64.24,3.26,3.26,0,0,0,.71.08,2.12,2.12,0,0,0,1.78-.7,3.22,3.22,0,0,0,.55-2v-1h0a2.59,2.59,0,0,1-.9,1.08,2.41,2.41,0,0,1-1.39.41,3.49,3.49,0,0,1-1.48-.29,2.75,2.75,0,0,1-1-.79,3.21,3.21,0,0,1-.58-1.18,5.51,5.51,0,0,1-.18-1.45,4.49,4.49,0,0,1,.22-1.41,3.51,3.51,0,0,1,.63-1.16,3,3,0,0,1,1-.78,3.23,3.23,0,0,1,1.39-.29,2.55,2.55,0,0,1,.76.11,2.4,2.4,0,0,1,.65.32,2.79,2.79,0,0,1,.53.47,2.15,2.15,0,0,1,.36.56h0V90.51h.88v6.64A5.45,5.45,0,0,1,289.77,98.59Zm-2-1.92a2.3,2.3,0,0,0,.73-.64,2.84,2.84,0,0,0,.44-.92,3.9,3.9,0,0,0,.15-1.06,4.58,4.58,0,0,0-.13-1.06,3.07,3.07,0,0,0-.41-1,2.2,2.2,0,0,0-.72-.7,2,2,0,0,0-1.07-.27,2.12,2.12,0,0,0-1.08.26,2.28,2.28,0,0,0-.74.68,2.81,2.81,0,0,0-.43,1,4.55,4.55,0,0,0-.13,1.1,4,4,0,0,0,.14,1.06,2.7,2.7,0,0,0,.43.92,2.25,2.25,0,0,0,.74.64,2.19,2.19,0,0,0,1.06.24A2,2,0,0,0,287.75,96.66Z"/><path class="cls-13" d="M292.49,87.73v4h0a2.12,2.12,0,0,1,.89-1.06,2.64,2.64,0,0,1,1.41-.4,3.57,3.57,0,0,1,1.27.2,2,2,0,0,1,.82.55,2.06,2.06,0,0,1,.44.87,4.93,4.93,0,0,1,.13,1.16v4.65h-.88V93.22a4.19,4.19,0,0,0-.08-.86,1.78,1.78,0,0,0-.29-.69,1.42,1.42,0,0,0-.57-.46,2.08,2.08,0,0,0-.89-.17,2.26,2.26,0,0,0-.94.19,2.05,2.05,0,0,0-.7.52,2.41,2.41,0,0,0-.45.78,3.19,3.19,0,0,0-.17,1v4.21h-.88v-10Z"/><path class="cls-13" d="M302,90.5v.74h-1.47v4.87a1.56,1.56,0,0,0,.12.68q.12.25.59.27a6.63,6.63,0,0,0,.76,0v.74h-.78a1.74,1.74,0,0,1-1.23-.34,1.73,1.73,0,0,1-.34-1.27V91.25H298.4v-.74h1.26V88.33h.88v2.17Z"/><path class="cls-13" d="M303.94,95.34a2.7,2.7,0,0,0,.43.92,2.45,2.45,0,0,0,.74.67,2.07,2.07,0,0,0,1.08.27,2.14,2.14,0,0,0,1.51-.5,2.64,2.64,0,0,0,.76-1.34h.88a3.53,3.53,0,0,1-1,1.9,3.07,3.07,0,0,1-2.12.67,3.37,3.37,0,0,1-1.48-.3,2.71,2.71,0,0,1-1-.83,3.57,3.57,0,0,1-.58-1.22,5.58,5.58,0,0,1-.19-1.46,5.26,5.26,0,0,1,.19-1.4,3.75,3.75,0,0,1,.58-1.22,2.89,2.89,0,0,1,1-.87,3.12,3.12,0,0,1,1.48-.33,2.86,2.86,0,0,1,2.49,1.27,3.82,3.82,0,0,1,.55,1.3,5.74,5.74,0,0,1,.14,1.49H303.8A3.93,3.93,0,0,0,303.94,95.34Zm4.37-2.7a2.68,2.68,0,0,0-.46-.82,2.26,2.26,0,0,0-.71-.57,2.23,2.23,0,0,0-1.92,0,2.26,2.26,0,0,0-.71.57,2.87,2.87,0,0,0-.47.83,4.1,4.1,0,0,0-.23,1h4.68A3.25,3.25,0,0,0,308.31,92.65Z"/><path class="cls-13" d="M311.36,90.5V92.2h0a2.77,2.77,0,0,1,1-1.36,2.74,2.74,0,0,1,1.69-.43v.88a2.67,2.67,0,0,0-1.09.16,2.41,2.41,0,0,0-1.4,1.37,2.77,2.77,0,0,0-.2,1.06v3.85h-.88V90.5Z"/><path class="cls-13" d="M314.19,96.24h1.18v1.48h-1.18Z"/></g><g class="cls-12"><path class="cls-13" d="M63.53,249.39l2,8.83h0l2.74-8.66,1.19,0,2.14,8.83h0l2.59-8.66,1,0L72,259.7l-1,0-2.21-9h0L66,259.48l-1,0-2.41-10.09Z"/><path class="cls-13" d="M77.27,249.88l-.05,1.41-.88,0,.05-1.41Zm-.1,2.77-.26,7.22-.88,0,.26-7.22Z"/><path class="cls-13" d="M81.73,252.81l0,.74-1.47-.05-.17,4.87a1.56,1.56,0,0,0,.1.68q.11.25.58.29a6.86,6.86,0,0,0,.76,0l0,.74h-.78a1.3,1.3,0,0,1-1.51-1.66l.18-4.94-1.26,0,0-.74,1.26,0,.08-2.17.88,0-.08,2.17Z"/><path class="cls-13" d="M84,250.12l-.14,4h0a2.12,2.12,0,0,1,.93-1,2.64,2.64,0,0,1,1.43-.35,3.57,3.57,0,0,1,1.26.24,2,2,0,0,1,.8.58,2.08,2.08,0,0,1,.4.89,5,5,0,0,1,.08,1.17l-.17,4.65-.88,0,.16-4.5a4.18,4.18,0,0,0-.05-.86,1.81,1.81,0,0,0-.27-.7,1.43,1.43,0,0,0-.55-.48,2.09,2.09,0,0,0-.88-.2,2.25,2.25,0,0,0-1,.16,2,2,0,0,0-.72.49,2.39,2.39,0,0,0-.48.77,3.16,3.16,0,0,0-.21,1l-.15,4.21-.88,0,.36-10Z"/><path class="cls-13" d="M97.28,253.37l0,.74-1.47-.05-.17,4.87a1.56,1.56,0,0,0,.1.68c.07.17.27.26.59.29a6.89,6.89,0,0,0,.76,0l0,.74h-.78a1.74,1.74,0,0,1-1.22-.39,1.72,1.72,0,0,1-.29-1.28L94.9,254l-1.26,0,0-.74,1.26,0,.08-2.17.88,0-.08,2.17Z"/><path class="cls-13" d="M99.52,250.67l-.14,4h0a2.11,2.11,0,0,1,.93-1,2.63,2.63,0,0,1,1.43-.35,3.57,3.57,0,0,1,1.26.24,2,2,0,0,1,.8.58,2.07,2.07,0,0,1,.4.89,4.92,4.92,0,0,1,.08,1.17l-.17,4.65-.88,0,.16-4.5a4.25,4.25,0,0,0-.05-.86,1.8,1.8,0,0,0-.27-.7,1.43,1.43,0,0,0-.55-.48,2.09,2.09,0,0,0-.88-.2,2.25,2.25,0,0,0-.95.16,2,2,0,0,0-.72.49,2.39,2.39,0,0,0-.48.77,3.17,3.17,0,0,0-.21,1l-.15,4.21-.88,0,.36-10Z"/><path class="cls-13" d="M106.54,258.54a2.7,2.7,0,0,0,.39.93,2.45,2.45,0,0,0,.72.7,2.07,2.07,0,0,0,1.07.3,2.14,2.14,0,0,0,1.53-.45,2.64,2.64,0,0,0,.8-1.32l.88,0a3.53,3.53,0,0,1-1.1,1.87,3.07,3.07,0,0,1-2.14.6,3.37,3.37,0,0,1-1.47-.35,2.7,2.7,0,0,1-1-.86,3.57,3.57,0,0,1-.54-1.24,5.53,5.53,0,0,1-.14-1.47,5.21,5.21,0,0,1,.24-1.39,3.75,3.75,0,0,1,.63-1.2,2.9,2.9,0,0,1,1-.83,3.12,3.12,0,0,1,1.49-.28,2.86,2.86,0,0,1,2.44,1.35,3.81,3.81,0,0,1,.51,1.32,5.74,5.74,0,0,1,.09,1.5l-5.55-.2A3.94,3.94,0,0,0,106.54,258.54ZM111,256a2.69,2.69,0,0,0-.43-.83,2.26,2.26,0,0,0-.69-.6,2,2,0,0,0-.94-.25,2.08,2.08,0,0,0-1,.18,2.25,2.25,0,0,0-.73.55,2.86,2.86,0,0,0-.5.81,4.1,4.1,0,0,0-.27,1l4.67.17A3.24,3.24,0,0,0,111,256Z"/><path class="cls-13" d="M117.42,254.09l1.63,6.25h0l2-6.12,1,0,1.54,6.25h0l2.07-6.12.94,0L124,261.55l-1,0-1.56-6.14h0l-2,6-1,0-2.06-7.3Z"/><path class="cls-13" d="M128.39,254.48l-.06,1.69h0a2.78,2.78,0,0,1,1.09-1.32,2.73,2.73,0,0,1,1.7-.37l0,.88a2.65,2.65,0,0,0-1.1.12,2.47,2.47,0,0,0-.87.51,2.43,2.43,0,0,0-.58.81,2.77,2.77,0,0,0-.23,1l-.14,3.85-.88,0,.26-7.22Z"/><path class="cls-13" d="M132.13,255.73a2.05,2.05,0,0,1,.63-.73,2.57,2.57,0,0,1,.92-.4,4.41,4.41,0,0,1,1.15-.1,5.1,5.1,0,0,1,.95.12,2.29,2.29,0,0,1,.84.37,1.86,1.86,0,0,1,.59.73,2.53,2.53,0,0,1,.2,1.19l-.14,3.83a.46.46,0,0,0,.5.55.69.69,0,0,0,.28,0l0,.74-.27,0h-.3a1.34,1.34,0,0,1-.54-.11.72.72,0,0,1-.31-.27,1,1,0,0,1-.13-.4,3.33,3.33,0,0,1,0-.51h0a5.82,5.82,0,0,1-.51.6,2.32,2.32,0,0,1-.56.44,2.52,2.52,0,0,1-.7.26,3.8,3.8,0,0,1-.92.06,3.65,3.65,0,0,1-.94-.15,2.13,2.13,0,0,1-.75-.41,1.8,1.8,0,0,1-.49-.68,2.17,2.17,0,0,1-.16-1,1.87,1.87,0,0,1,.38-1.17,2.12,2.12,0,0,1,.91-.62,5.06,5.06,0,0,1,1.26-.27l1.41-.12.49-.05a.88.88,0,0,0,.35-.13.68.68,0,0,0,.23-.28,1.22,1.22,0,0,0,.1-.47,1.61,1.61,0,0,0-.12-.74,1.16,1.16,0,0,0-.39-.47,1.65,1.65,0,0,0-.59-.25,4.09,4.09,0,0,0-.73-.09,2.22,2.22,0,0,0-1.39.35,1.56,1.56,0,0,0-.61,1.26l-.88,0A2.94,2.94,0,0,1,132.13,255.73Zm4.33,2.31a.5.5,0,0,1-.33.21l-.42.08-1.16.13a6.34,6.34,0,0,0-1.09.19,2.12,2.12,0,0,0-.82.41,1.05,1.05,0,0,0-.34.81,1.27,1.27,0,0,0,.11.6,1.44,1.44,0,0,0,.34.46,1.54,1.54,0,0,0,.51.3,1.87,1.87,0,0,0,.6.12,3,3,0,0,0,1-.12,2.39,2.39,0,0,0,.82-.42,2.13,2.13,0,0,0,.81-1.64l0-1.15Z"/><path class="cls-13" d="M142.12,255l0,.74-1.47-.05-.17,4.87a1.57,1.57,0,0,0,.09.68q.11.25.59.29a6.78,6.78,0,0,0,.76,0l0,.74h-.78a1.3,1.3,0,0,1-1.51-1.66l.18-4.94-1.26,0,0-.74,1.26,0,.08-2.17.88,0-.08,2.17Z"/><path class="cls-13" d="M144.35,252.27l-.14,4h0a2.12,2.12,0,0,1,.93-1,2.63,2.63,0,0,1,1.43-.35,3.57,3.57,0,0,1,1.26.24,2,2,0,0,1,.8.58,2.09,2.09,0,0,1,.4.89,5,5,0,0,1,.08,1.17l-.16,4.65-.88,0,.16-4.5a4.18,4.18,0,0,0-.05-.86,1.8,1.8,0,0,0-.27-.7,1.43,1.43,0,0,0-.55-.48,2.09,2.09,0,0,0-.88-.2,2.25,2.25,0,0,0-.95.16,2,2,0,0,0-.72.49,2.37,2.37,0,0,0-.48.77,3.16,3.16,0,0,0-.21,1l-.15,4.21-.88,0,.36-10Z"/><path class="cls-13" d="M51.53,264.84a3.2,3.2,0,0,1,1,.86,3.6,3.6,0,0,1,.61,1.23,5,5,0,0,1-.1,3,3.6,3.6,0,0,1-.7,1.19,3.13,3.13,0,0,1-1.1.78,3.71,3.71,0,0,1-2.93-.1,3.1,3.1,0,0,1-1-.86,3.55,3.55,0,0,1-.61-1.23,5,5,0,0,1,.1-3,3.55,3.55,0,0,1,.7-1.19,3.16,3.16,0,0,1,1.1-.79,3.63,3.63,0,0,1,2.93.1Zm-2.59.61a2.42,2.42,0,0,0-.82.67,3.18,3.18,0,0,0-.51,1,4,4,0,0,0-.08,2.25,3.18,3.18,0,0,0,.44,1,2.43,2.43,0,0,0,.77.73,2.44,2.44,0,0,0,2.21.08,2.41,2.41,0,0,0,.82-.67,3.16,3.16,0,0,0,.51-1,4,4,0,0,0,.08-2.25,3.18,3.18,0,0,0-.44-1,2.43,2.43,0,0,0-.77-.73,2.43,2.43,0,0,0-2.21-.08Z"/><path class="cls-13" d="M56.13,265.65l-.23,6.48-.88,0,.23-6.48-1.23,0,0-.74,1.23,0,0-.66a4.87,4.87,0,0,1,.1-.85,1.66,1.66,0,0,1,.29-.66,1.27,1.27,0,0,1,.55-.41,2.13,2.13,0,0,1,.88-.12l.36,0,.38.06,0,.76-.33-.06-.31,0a1.15,1.15,0,0,0-.56.09.7.7,0,0,0-.3.29,1.13,1.13,0,0,0-.12.44c0,.17,0,.35,0,.55l0,.63,1.43.05,0,.74Z"/><path class="cls-13" d="M62.45,266.25a2.06,2.06,0,0,1,.63-.73,2.6,2.6,0,0,1,.92-.4,4.4,4.4,0,0,1,1.15-.1,5,5,0,0,1,.95.13,2.3,2.3,0,0,1,.84.37,1.87,1.87,0,0,1,.59.73,2.56,2.56,0,0,1,.2,1.19l-.14,3.83a.46.46,0,0,0,.5.55.68.68,0,0,0,.28,0l0,.74-.27,0h-.3a1.32,1.32,0,0,1-.54-.11.71.71,0,0,1-.31-.27,1,1,0,0,1-.13-.4,3.35,3.35,0,0,1,0-.51h0a5.75,5.75,0,0,1-.51.61,2.4,2.4,0,0,1-.56.43,2.49,2.49,0,0,1-.69.26,3.78,3.78,0,0,1-.92.06,3.6,3.6,0,0,1-.94-.15,2.12,2.12,0,0,1-.76-.4,1.81,1.81,0,0,1-.5-.68,2.18,2.18,0,0,1-.15-1,1.86,1.86,0,0,1,.38-1.17,2.1,2.1,0,0,1,.91-.62,5.08,5.08,0,0,1,1.26-.27l1.41-.12.49-.05a.86.86,0,0,0,.35-.13.68.68,0,0,0,.23-.28,1.22,1.22,0,0,0,.09-.47,1.6,1.6,0,0,0-.12-.74,1.17,1.17,0,0,0-.39-.47,1.65,1.65,0,0,0-.59-.25,4,4,0,0,0-.73-.09,2.23,2.23,0,0,0-1.39.35,1.56,1.56,0,0,0-.61,1.26l-.88,0A2.92,2.92,0,0,1,62.45,266.25Zm4.33,2.31a.5.5,0,0,1-.33.21,3.23,3.23,0,0,1-.42.08l-1.16.13a6.4,6.4,0,0,0-1.09.19,2.14,2.14,0,0,0-.82.41,1.06,1.06,0,0,0-.34.81,1.28,1.28,0,0,0,.11.6,1.43,1.43,0,0,0,.34.46,1.55,1.55,0,0,0,.51.31,1.91,1.91,0,0,0,.6.12,3,3,0,0,0,1-.12,2.37,2.37,0,0,0,.82-.42,2.18,2.18,0,0,0,.57-.69,2.15,2.15,0,0,0,.24-.94l0-1.15Z"/><path class="cls-13" d="M76.33,265.63l0,.74-1.47-.05-.17,4.87a1.58,1.58,0,0,0,.09.68c.07.17.27.26.58.29a6.75,6.75,0,0,0,.76,0l0,.74h-.78a1.3,1.3,0,0,1-1.51-1.67l.18-4.94-1.26,0,0-.74,1.26,0,.08-2.17.88,0-.08,2.17Z"/><path class="cls-13" d="M78.57,262.94l-.14,4h0a2.12,2.12,0,0,1,.93-1,2.63,2.63,0,0,1,1.43-.35,3.55,3.55,0,0,1,1.26.24,2,2,0,0,1,.8.58,2.07,2.07,0,0,1,.4.89,4.86,4.86,0,0,1,.08,1.17l-.17,4.64-.88,0,.16-4.5a4.13,4.13,0,0,0-.05-.86,1.84,1.84,0,0,0-.27-.7,1.43,1.43,0,0,0-.55-.48,2.08,2.08,0,0,0-.88-.2,2.24,2.24,0,0,0-.95.16A2,2,0,0,0,79,267a2.39,2.39,0,0,0-.48.77,3.16,3.16,0,0,0-.21,1l-.15,4.21-.88,0,.36-10Z"/><path class="cls-13" d="M89.62,266.2a3.2,3.2,0,0,1,1,.86,3.6,3.6,0,0,1,.61,1.23,5,5,0,0,1-.1,3,3.6,3.6,0,0,1-.7,1.19,3.13,3.13,0,0,1-1.1.78,3.71,3.71,0,0,1-2.92-.1,3.1,3.1,0,0,1-1-.86,3.55,3.55,0,0,1-.61-1.23,5,5,0,0,1,.1-3,3.55,3.55,0,0,1,.7-1.19,3.16,3.16,0,0,1,1.1-.79,3.63,3.63,0,0,1,2.92.1Zm-2.59.61a2.42,2.42,0,0,0-.82.67,3.2,3.2,0,0,0-.51,1,4.06,4.06,0,0,0-.08,2.25,3.2,3.2,0,0,0,.44,1,2.43,2.43,0,0,0,.77.73,2.44,2.44,0,0,0,2.21.08,2.42,2.42,0,0,0,.82-.67,3.16,3.16,0,0,0,.51-1,4,4,0,0,0,.08-2.25,3.18,3.18,0,0,0-.44-1,2.44,2.44,0,0,0-.77-.73,2.43,2.43,0,0,0-2.21-.08Z"/><path class="cls-13" d="M97.67,273.62l0-1.3h0a2.5,2.5,0,0,1-1.05,1.08,2.89,2.89,0,0,1-1.49.33,3.2,3.2,0,0,1-1.16-.23,1.94,1.94,0,0,1-.76-.57,2.19,2.19,0,0,1-.41-.87,4.37,4.37,0,0,1-.1-1.15l.17-4.69.88,0L93.6,271a2.34,2.34,0,0,0,.4,1.5,2.28,2.28,0,0,0,2.45.35,2.08,2.08,0,0,0,.69-.63,2.91,2.91,0,0,0,.42-.92,4.51,4.51,0,0,0,.16-1.07l.14-3.79.88,0-.26,7.22Z"/><path class="cls-13" d="M104.51,268a1.43,1.43,0,0,0-.39-.51,1.73,1.73,0,0,0-.58-.31,2.72,2.72,0,0,0-.71-.12,2.93,2.93,0,0,0-.6,0,1.82,1.82,0,0,0-.56.19,1.19,1.19,0,0,0-.42.37,1.06,1.06,0,0,0-.17.58.82.82,0,0,0,.13.5,1.29,1.29,0,0,0,.36.36,2.34,2.34,0,0,0,.48.25l.48.16,1.17.31a3.35,3.35,0,0,1,.74.23,2.42,2.42,0,0,1,.64.41,1.88,1.88,0,0,1,.45.6,1.77,1.77,0,0,1,.15.83,1.81,1.81,0,0,1-.3,1,2.16,2.16,0,0,1-.7.65,2.89,2.89,0,0,1-.94.34,4.83,4.83,0,0,1-1,.08,3.32,3.32,0,0,1-2-.67,2.57,2.57,0,0,1-.83-2l.88,0a1.74,1.74,0,0,0,.6,1.37,2.37,2.37,0,0,0,1.46.51,3.37,3.37,0,0,0,.67,0,2.15,2.15,0,0,0,.64-.21,1.52,1.52,0,0,0,.5-.41,1.05,1.05,0,0,0,.21-.63,1,1,0,0,0-.11-.54,1.17,1.17,0,0,0-.34-.38,2.32,2.32,0,0,0-.5-.26l-.58-.19-1.12-.29a6.37,6.37,0,0,1-.79-.29,2.55,2.55,0,0,1-.62-.39,1.53,1.53,0,0,1-.41-.55,1.76,1.76,0,0,1-.13-.78,1.74,1.74,0,0,1,.28-.93,1.92,1.92,0,0,1,.66-.61,3,3,0,0,1,.89-.32,4.21,4.21,0,0,1,1-.08,3.53,3.53,0,0,1,1,.18,2.35,2.35,0,0,1,.81.46,2.12,2.12,0,0,1,.54.75,2.61,2.61,0,0,1,.2,1l-.88,0A1.66,1.66,0,0,0,104.51,268Z"/><path class="cls-13" d="M107.28,267.85a2.06,2.06,0,0,1,.64-.73,2.56,2.56,0,0,1,.92-.4,4.38,4.38,0,0,1,1.15-.1,5,5,0,0,1,.95.13,2.31,2.31,0,0,1,.84.37,1.87,1.87,0,0,1,.59.73,2.55,2.55,0,0,1,.2,1.19l-.14,3.83a.46.46,0,0,0,.5.55.68.68,0,0,0,.28,0l0,.74-.27,0h-.3a1.33,1.33,0,0,1-.54-.11.72.72,0,0,1-.31-.27,1,1,0,0,1-.13-.4,3.34,3.34,0,0,1,0-.51h0a5.88,5.88,0,0,1-.51.61,2.39,2.39,0,0,1-.56.44,2.5,2.5,0,0,1-.69.26,3.8,3.8,0,0,1-.92.06,3.62,3.62,0,0,1-.94-.15,2.12,2.12,0,0,1-.75-.41,1.81,1.81,0,0,1-.5-.68,2.19,2.19,0,0,1-.15-1,1.86,1.86,0,0,1,.38-1.17,2.1,2.1,0,0,1,.91-.62,5.07,5.07,0,0,1,1.26-.27l1.41-.12.49-.05a.86.86,0,0,0,.35-.13.68.68,0,0,0,.23-.28,1.21,1.21,0,0,0,.09-.47,1.6,1.6,0,0,0-.12-.74,1.16,1.16,0,0,0-.39-.47,1.65,1.65,0,0,0-.59-.25,4,4,0,0,0-.73-.09,2.23,2.23,0,0,0-1.39.35,1.56,1.56,0,0,0-.6,1.26l-.88,0A2.94,2.94,0,0,1,107.28,267.85Zm4.33,2.31a.5.5,0,0,1-.33.21l-.42.08-1.16.13a6.44,6.44,0,0,0-1.09.19,2.13,2.13,0,0,0-.82.41,1.05,1.05,0,0,0-.35.81,1.28,1.28,0,0,0,.11.6,1.44,1.44,0,0,0,.34.46,1.54,1.54,0,0,0,.51.31,1.89,1.89,0,0,0,.6.12,3,3,0,0,0,1-.12,2.39,2.39,0,0,0,.82-.42,2.18,2.18,0,0,0,.57-.69,2.15,2.15,0,0,0,.24-.94l0-1.15Z"/><path class="cls-13" d="M115.26,267l0,1.25h0a2.12,2.12,0,0,1,.93-1,2.64,2.64,0,0,1,1.43-.35,3.57,3.57,0,0,1,1.26.24,2,2,0,0,1,.8.58,2.07,2.07,0,0,1,.4.89,4.86,4.86,0,0,1,.08,1.17l-.17,4.64-.88,0,.16-4.5a4.13,4.13,0,0,0-.05-.86,1.84,1.84,0,0,0-.27-.7,1.43,1.43,0,0,0-.55-.48,2.08,2.08,0,0,0-.88-.2,2.24,2.24,0,0,0-1,.16,2,2,0,0,0-.72.49,2.39,2.39,0,0,0-.48.77,3.16,3.16,0,0,0-.21,1l-.15,4.21-.88,0,.26-7.22Z"/><path class="cls-13" d="M127.19,274.67l0-1.37h0a2.09,2.09,0,0,1-.44.63,2.72,2.72,0,0,1-.64.47,3.29,3.29,0,0,1-.76.29,2.93,2.93,0,0,1-.79.08,3.21,3.21,0,0,1-1.42-.35,2.86,2.86,0,0,1-1-.86,3.54,3.54,0,0,1-.56-1.24,5.59,5.59,0,0,1,.1-2.92,3.56,3.56,0,0,1,.65-1.2,3,3,0,0,1,1-.8,3.15,3.15,0,0,1,1.45-.26,3.2,3.2,0,0,1,.79.13,2.67,2.67,0,0,1,.71.33,2.58,2.58,0,0,1,.58.52,2.08,2.08,0,0,1,.37.7h0l.15-4.14.88,0-.36,10ZM122.45,272a3.09,3.09,0,0,0,.38,1,2.3,2.3,0,0,0,.71.73,2,2,0,0,0,1.07.31,2.37,2.37,0,0,0,1.19-.23,2.33,2.33,0,0,0,.81-.68,2.88,2.88,0,0,0,.47-1,4.68,4.68,0,0,0,.08-2.22,2.9,2.9,0,0,0-.4-1,2.34,2.34,0,0,0-.76-.73,2.37,2.37,0,0,0-1.17-.31,2,2,0,0,0-1.09.23,2.33,2.33,0,0,0-.76.68,3.09,3.09,0,0,0-.45,1,4.75,4.75,0,0,0-.08,2.22Z"/><path class="cls-13" d="M137.94,269.24a1.43,1.43,0,0,0-.39-.51,1.75,1.75,0,0,0-.58-.31,2.72,2.72,0,0,0-.71-.12,2.86,2.86,0,0,0-.6,0,1.83,1.83,0,0,0-.56.19,1.2,1.2,0,0,0-.42.37,1.07,1.07,0,0,0-.17.58.82.82,0,0,0,.13.5,1.29,1.29,0,0,0,.36.36,2.3,2.3,0,0,0,.48.25l.48.16,1.17.31a3.35,3.35,0,0,1,.74.23,2.42,2.42,0,0,1,.64.41,1.88,1.88,0,0,1,.45.6,1.76,1.76,0,0,1,.15.83,1.81,1.81,0,0,1-.3,1,2.16,2.16,0,0,1-.7.65,2.89,2.89,0,0,1-.94.34,4.79,4.79,0,0,1-1,.07,3.32,3.32,0,0,1-2-.67,2.57,2.57,0,0,1-.83-2l.88,0a1.74,1.74,0,0,0,.6,1.37,2.37,2.37,0,0,0,1.46.51,3.37,3.37,0,0,0,.67,0,2.16,2.16,0,0,0,.64-.22,1.53,1.53,0,0,0,.5-.41,1.05,1.05,0,0,0,.21-.63,1,1,0,0,0-.11-.54,1.17,1.17,0,0,0-.34-.38,2.29,2.29,0,0,0-.5-.26c-.19-.07-.38-.14-.58-.19l-1.12-.29a6.37,6.37,0,0,1-.79-.29,2.58,2.58,0,0,1-.62-.39,1.53,1.53,0,0,1-.41-.55,1.76,1.76,0,0,1-.13-.78,1.74,1.74,0,0,1,.28-.93,1.91,1.91,0,0,1,.66-.61,3,3,0,0,1,.89-.32,4.21,4.21,0,0,1,1-.08,3.55,3.55,0,0,1,1,.18,2.35,2.35,0,0,1,.81.46,2.12,2.12,0,0,1,.54.75,2.6,2.6,0,0,1,.2,1l-.88,0A1.66,1.66,0,0,0,137.94,269.24Z"/><path class="cls-13" d="M145.34,275.32l0-1.3h0a2.5,2.5,0,0,1-1.05,1.08,2.89,2.89,0,0,1-1.49.33,3.2,3.2,0,0,1-1.16-.23,1.94,1.94,0,0,1-.76-.57,2.19,2.19,0,0,1-.41-.87,4.36,4.36,0,0,1-.1-1.15l.17-4.69.88,0-.17,4.7a2.34,2.34,0,0,0,.4,1.5,1.85,1.85,0,0,0,1.46.56,1.87,1.87,0,0,0,1-.21,2.1,2.1,0,0,0,.69-.63,2.91,2.91,0,0,0,.42-.92,4.51,4.51,0,0,0,.16-1.07l.14-3.79.88,0-.26,7.22Z"/><path class="cls-13" d="M148.94,268.22l0,1.25h0a2.11,2.11,0,0,1,.93-1,2.64,2.64,0,0,1,1.43-.35,3.57,3.57,0,0,1,1.26.24,2,2,0,0,1,.8.58,2.06,2.06,0,0,1,.4.89,4.86,4.86,0,0,1,.08,1.17l-.17,4.64-.88,0,.16-4.5a4.13,4.13,0,0,0-.05-.86,1.82,1.82,0,0,0-.27-.7,1.43,1.43,0,0,0-.55-.48,2.09,2.09,0,0,0-.88-.2,2.26,2.26,0,0,0-1,.16,2.05,2.05,0,0,0-.72.49,2.4,2.4,0,0,0-.48.77,3.19,3.19,0,0,0-.21,1l-.15,4.21-.88,0,.26-7.22Z"/><path class="cls-13" d="M159.69,270a1.45,1.45,0,0,0-.39-.51,1.74,1.74,0,0,0-.58-.31,2.72,2.72,0,0,0-.71-.12,2.92,2.92,0,0,0-.6,0,1.83,1.83,0,0,0-.56.19,1.2,1.2,0,0,0-.42.37,1.07,1.07,0,0,0-.17.58.82.82,0,0,0,.13.5,1.32,1.32,0,0,0,.36.36,2.34,2.34,0,0,0,.48.25l.49.16,1.17.31a3.37,3.37,0,0,1,.74.23,2.43,2.43,0,0,1,.64.41,1.9,1.9,0,0,1,.45.6,1.78,1.78,0,0,1,.15.83,1.81,1.81,0,0,1-.3,1,2.18,2.18,0,0,1-.7.65,2.92,2.92,0,0,1-.94.34,4.83,4.83,0,0,1-1,.08,3.32,3.32,0,0,1-2-.67,2.57,2.57,0,0,1-.83-2l.88,0a1.74,1.74,0,0,0,.6,1.37,2.37,2.37,0,0,0,1.46.51,3.4,3.4,0,0,0,.67,0,2.16,2.16,0,0,0,.64-.22,1.52,1.52,0,0,0,.5-.41,1,1,0,0,0,.21-.63,1,1,0,0,0-.11-.54,1.17,1.17,0,0,0-.34-.38,2.3,2.3,0,0,0-.5-.26l-.57-.19-1.12-.29a6.28,6.28,0,0,1-.79-.29,2.54,2.54,0,0,1-.62-.39,1.53,1.53,0,0,1-.41-.55,1.77,1.77,0,0,1-.13-.78,1.74,1.74,0,0,1,.28-.93,1.91,1.91,0,0,1,.66-.61,2.94,2.94,0,0,1,.89-.32,4.22,4.22,0,0,1,1-.08,3.53,3.53,0,0,1,1,.18,2.33,2.33,0,0,1,.81.46,2.12,2.12,0,0,1,.54.75,2.61,2.61,0,0,1,.2,1l-.88,0A1.68,1.68,0,0,0,159.69,270Z"/><path class="cls-13" d="M162.63,274.45l1.17,0-.05,1.48-1.17,0Z"/></g></g></svg>