<svg xmlns="http://www.w3.org/2000/svg" xmlns:xlink="http://www.w3.org/1999/xlink" viewBox="0 0 360 360"><defs><style>.cls-1{fill:none;}.cls-2{clip-path:url(#clip-path);}.cls-3{fill:#f15252;}.cls-4{opacity:0.5;}.cls-5{clip-path:url(#clip-path-3);}.cls-6{fill:#fff;}.cls-7{font-size:18px;fill:#221f1f;font-family:HelveticaNeue-Bold, Helvetica Neue;font-weight:700;}.cls-8{letter-spacing:-0.02em;}.cls-9{fill:#f2c12e;}.cls-10,.cls-11{fill:#fef5f3;}.cls-11,.cls-12{opacity:0.58;}.cls-11{font-size:14px;font-family:HelveticaNeue-Light, Helvetica Neue;}</style><clipPath id="clip-path"><rect class="cls-1" x="54" y="55.05" width="251.19" height="250.96"/></clipPath><clipPath id="clip-path-3"><rect class="cls-1" x="45" y="170.05" width="140.63" height="72.25"/></clipPath></defs><title>questions_female</title><g id="Layer_2" data-name="Layer 2"><g class="cls-2"><g class="cls-2"><path class="cls-3" d="M179.71,306A125.48,125.48,0,1,0,54.24,180.53,125.48,125.48,0,0,0,179.71,306"/><g class="cls-4"><g class="cls-5"><path class="cls-6" d="M176.62,171H55s-6.08,23.88,11.74,64.25"/></g></g></g></g><text class="cls-7" transform="translate(107.29 172.54)">A<tspan class="cls-8" x="12.33" y="0">r</tspan><tspan x="19.01" y="0">e you planning</tspan><tspan x="5" y="21.6">on having kids?</tspan></text><polygon class="cls-9" points="7.87 192.38 64.32 180.94 107.6 196.19 109.48 209.54 71.22 226.7 13.52 224.79 7.87 192.38"/><polygon class="cls-9" points="232.83 114.15 271.46 99.43 318.83 106.79 323.43 127.94 295.38 137.6 226.85 130.7 232.83 114.15"/><polygon class="cls-9" points="172.58 290.07 203.83 283.69 250.54 284.02 260.62 294.11 254.57 301.83 205.18 307.88 166.53 300.15 172.58 290.07"/><path class="cls-10" d="M23.5,191.73l-.33,10-1,0,.33-10Z"/><path class="cls-10" d="M27.09,193.35a2.53,2.53,0,0,1-.1.61,2.13,2.13,0,0,1-.25.55,1.78,1.78,0,0,1-.4.44,1.37,1.37,0,0,1-.56.26l0-.6a.66.66,0,0,0,.31-.19,1.33,1.33,0,0,0,.22-.34,1.86,1.86,0,0,0,.13-.39,1.46,1.46,0,0,0,0-.37l-.59,0,0-1.48,1.18,0Z"/><path class="cls-10" d="M30,194.72l0,1.22h0a2.77,2.77,0,0,1,1-1,2.56,2.56,0,0,1,1.46-.33,2.46,2.46,0,0,1,1.28.39,1.72,1.72,0,0,1,.74,1.09,2.22,2.22,0,0,1,1-1,2.72,2.72,0,0,1,1.35-.31q2.39.08,2.31,2.61l-.16,4.9-.88,0,.16-4.86A2.13,2.13,0,0,0,37.9,196a1.62,1.62,0,0,0-1.31-.51,1.89,1.89,0,0,0-1,.19,1.67,1.67,0,0,0-.62.56,2.47,2.47,0,0,0-.34.82,5.07,5.07,0,0,0-.12,1l-.13,4.09-.88,0,.16-4.9a3.07,3.07,0,0,0-.05-.7,1.62,1.62,0,0,0-.23-.58,1.21,1.21,0,0,0-.46-.4,1.67,1.67,0,0,0-.71-.16,2.19,2.19,0,0,0-1,.17,1.79,1.79,0,0,0-.69.54,2.5,2.5,0,0,0-.41.83,4.23,4.23,0,0,0-.16,1.05l-.13,4-.88,0,.24-7.22Z"/><path class="cls-10" d="M45.75,192.46l-.33,10-.88,0,.33-10Z"/><path class="cls-10" d="M48.34,192.54l0,1.41-.88,0,0-1.41Zm-.09,2.77L48,202.53l-.88,0,.24-7.22Z"/><path class="cls-10" d="M52.81,195.46l0,.74-1.47,0L51.16,201a1.56,1.56,0,0,0,.1.68c.07.17.27.26.59.29a6.72,6.72,0,0,0,.76,0l0,.74h-.78a1.3,1.3,0,0,1-1.51-1.66l.16-4.94-1.26,0,0-.74,1.26,0,.07-2.17.88,0-.07,2.17Z"/><path class="cls-10" d="M54.58,200.36a2.72,2.72,0,0,0,.4.93,2.45,2.45,0,0,0,.72.7,2.07,2.07,0,0,0,1.07.3,2.14,2.14,0,0,0,1.53-.45,2.64,2.64,0,0,0,.8-1.32l.88,0a3.52,3.52,0,0,1-1.09,1.87,3.07,3.07,0,0,1-2.14.6,3.37,3.37,0,0,1-1.47-.35,2.71,2.71,0,0,1-1-.86,3.59,3.59,0,0,1-.54-1.24,5.57,5.57,0,0,1-.14-1.47,5.26,5.26,0,0,1,.23-1.39,3.77,3.77,0,0,1,.62-1.2,2.89,2.89,0,0,1,1-.83,3.12,3.12,0,0,1,1.49-.28,2.86,2.86,0,0,1,2.44,1.35,3.82,3.82,0,0,1,.51,1.32,5.74,5.74,0,0,1,.09,1.5l-5.55-.18A3.93,3.93,0,0,0,54.58,200.36ZM59,197.81a2.67,2.67,0,0,0-.43-.83,2.25,2.25,0,0,0-.69-.6,2,2,0,0,0-.95-.25,2.07,2.07,0,0,0-1,.19,2.27,2.27,0,0,0-.73.55,2.89,2.89,0,0,0-.5.81,4.05,4.05,0,0,0-.26,1l4.67.15A3.21,3.21,0,0,0,59,197.81Z"/><path class="cls-10" d="M62.16,195.77l-.06,1.69h0a2.77,2.77,0,0,1,1.09-1.32,2.74,2.74,0,0,1,1.7-.38l0,.88a2.66,2.66,0,0,0-1.1.13,2.41,2.41,0,0,0-1.45,1.32,2.78,2.78,0,0,0-.23,1.05L62,203l-.88,0,.24-7.22Z"/><path class="cls-10" d="M65.9,197a2.07,2.07,0,0,1,.63-.74,2.6,2.6,0,0,1,.92-.4,4.41,4.41,0,0,1,1.15-.1,5.07,5.07,0,0,1,.95.12,2.3,2.3,0,0,1,.84.37A1.86,1.86,0,0,1,71,197a2.55,2.55,0,0,1,.2,1.19L71.06,202a.46.46,0,0,0,.5.55.68.68,0,0,0,.28,0l0,.74-.27,0h-.3a1.33,1.33,0,0,1-.54-.11.72.72,0,0,1-.31-.27.94.94,0,0,1-.13-.4,3.35,3.35,0,0,1,0-.51h0a5.83,5.83,0,0,1-.5.61,2.34,2.34,0,0,1-.56.44,2.5,2.5,0,0,1-.69.26,3.79,3.79,0,0,1-.92.07,3.64,3.64,0,0,1-.94-.15,2.11,2.11,0,0,1-.76-.4,1.8,1.8,0,0,1-.5-.68,2.17,2.17,0,0,1-.16-1,1.86,1.86,0,0,1,.37-1.17,2.11,2.11,0,0,1,.91-.62,5.08,5.08,0,0,1,1.26-.27l1.41-.13.49-.05a.85.85,0,0,0,.35-.14.68.68,0,0,0,.23-.28,1.22,1.22,0,0,0,.09-.47,1.61,1.61,0,0,0-.12-.74,1.17,1.17,0,0,0-.39-.47,1.65,1.65,0,0,0-.59-.25,4.06,4.06,0,0,0-.73-.09,2.23,2.23,0,0,0-1.38.35,1.56,1.56,0,0,0-.6,1.26l-.88,0A2.94,2.94,0,0,1,65.9,197Zm4.34,2.3a.5.5,0,0,1-.33.21l-.42.08-1.16.14a6.35,6.35,0,0,0-1.09.2,2.12,2.12,0,0,0-.82.41,1.05,1.05,0,0,0-.34.81,1.28,1.28,0,0,0,.11.6,1.45,1.45,0,0,0,.34.46,1.53,1.53,0,0,0,.51.3,1.89,1.89,0,0,0,.6.12,3,3,0,0,0,1-.12,2.39,2.39,0,0,0,.82-.42,2.13,2.13,0,0,0,.8-1.64l0-1.15Z"/><path class="cls-10" d="M74,193.38l-.33,10-.88,0,.33-10Z"/><path class="cls-10" d="M76.59,193.47l-.33,10-.88,0,.33-10Z"/><path class="cls-10" d="M78.32,196.3l2.18,6.23,2.43-6.08.88,0-3.41,8.21a8.09,8.09,0,0,1-.39.75,1.78,1.78,0,0,1-.39.46,1.25,1.25,0,0,1-.48.24,2.62,2.62,0,0,1-.69.05l-.41,0a.84.84,0,0,1-.26-.06l0-.74.3.06.3,0a1.21,1.21,0,0,0,.49-.07,1.05,1.05,0,0,0,.34-.22,1.37,1.37,0,0,0,.25-.35l.23-.45.34-.8-2.65-7.29Z"/><path class="cls-10" d="M17,207.3l0,1.37h0a2.37,2.37,0,0,1,1-1.14,3,3,0,0,1,1.59-.36,3.15,3.15,0,0,1,1.42.35,2.94,2.94,0,0,1,1,.87,3.55,3.55,0,0,1,.56,1.24,5.56,5.56,0,0,1-.1,2.92,3.56,3.56,0,0,1-.64,1.2,2.87,2.87,0,0,1-1,.79,3.2,3.2,0,0,1-1.44.25,3.25,3.25,0,0,1-.78-.12,2.78,2.78,0,0,1-.72-.32,2.4,2.4,0,0,1-.58-.51,2.09,2.09,0,0,1-.38-.7h0l-.13,4-.88,0,.32-9.88ZM21.78,210a3.13,3.13,0,0,0-.39-1,2.34,2.34,0,0,0-.71-.73,2,2,0,0,0-1.07-.31,2.64,2.64,0,0,0-1.23.21,2.13,2.13,0,0,0-.81.65,2.65,2.65,0,0,0-.44,1,5.63,5.63,0,0,0-.16,1.17,4.71,4.71,0,0,0,.1,1.12,2.87,2.87,0,0,0,.4,1,2.31,2.31,0,0,0,.76.73,2.37,2.37,0,0,0,1.17.31,2,2,0,0,0,1.09-.24,2.32,2.32,0,0,0,.76-.68,3.1,3.1,0,0,0,.45-1,4.75,4.75,0,0,0,.07-2.22Z"/><path class="cls-10" d="M25.06,207.56,25,209.25h0a2.78,2.78,0,0,1,1.09-1.32,2.73,2.73,0,0,1,1.7-.38l0,.88a2.66,2.66,0,0,0-1.1.13,2.41,2.41,0,0,0-1.44,1.32,2.8,2.8,0,0,0-.23,1l-.13,3.85-.88,0,.24-7.22Z"/><path class="cls-10" d="M28.9,212.53a2.69,2.69,0,0,0,.4.93,2.43,2.43,0,0,0,.72.7,2.08,2.08,0,0,0,1.07.3,2.15,2.15,0,0,0,1.53-.45,2.64,2.64,0,0,0,.8-1.32l.88,0a3.53,3.53,0,0,1-1.09,1.87,3.07,3.07,0,0,1-2.14.6,3.36,3.36,0,0,1-1.47-.35,2.71,2.71,0,0,1-1-.86,3.56,3.56,0,0,1-.54-1.24,5.53,5.53,0,0,1-.14-1.47,5.25,5.25,0,0,1,.23-1.39,3.75,3.75,0,0,1,.62-1.2,2.92,2.92,0,0,1,1-.84,3.13,3.13,0,0,1,1.49-.28,2.86,2.86,0,0,1,2.44,1.35,3.78,3.78,0,0,1,.51,1.32,5.74,5.74,0,0,1,.09,1.5l-5.56-.18A3.88,3.88,0,0,0,28.9,212.53ZM33.35,210a2.69,2.69,0,0,0-.43-.83,2.28,2.28,0,0,0-.69-.6,2.23,2.23,0,0,0-1.92-.06,2.24,2.24,0,0,0-.73.55,2.85,2.85,0,0,0-.5.81,4.06,4.06,0,0,0-.26,1l4.67.15A3.25,3.25,0,0,0,33.35,210Z"/><path class="cls-10" d="M41.33,216.18a2.79,2.79,0,0,1-.59,1.07,2.41,2.41,0,0,1-1,.65,4.11,4.11,0,0,1-1.5.19,4.49,4.49,0,0,1-1.06-.16,3,3,0,0,1-.92-.42,2.34,2.34,0,0,1-.66-.7,2,2,0,0,1-.28-1l.88,0a1.56,1.56,0,0,0,.25.69,1.62,1.62,0,0,0,.47.46,2.19,2.19,0,0,0,.63.27,3.32,3.32,0,0,0,.71.1,2.12,2.12,0,0,0,1.8-.64,3.22,3.22,0,0,0,.61-2l0-1h0a2.58,2.58,0,0,1-.94,1,2.41,2.41,0,0,1-1.41.36,3.49,3.49,0,0,1-1.47-.34,2.73,2.73,0,0,1-1-.82,3.2,3.2,0,0,1-.54-1.2,5.55,5.55,0,0,1-.13-1.45,4.46,4.46,0,0,1,.26-1.4,3.48,3.48,0,0,1,.67-1.14,2.93,2.93,0,0,1,1-.75,3.23,3.23,0,0,1,1.4-.24,2.53,2.53,0,0,1,.76.14,2.39,2.39,0,0,1,.64.34,2.78,2.78,0,0,1,.51.49,2.15,2.15,0,0,1,.34.57h0l0-1.25.88,0-.22,6.63A5.52,5.52,0,0,1,41.33,216.18Zm-2-2a2.3,2.3,0,0,0,.75-.62,2.81,2.81,0,0,0,.47-.9,3.94,3.94,0,0,0,.18-1.06,4.63,4.63,0,0,0-.09-1.07,3.1,3.1,0,0,0-.37-1,2.23,2.23,0,0,0-.7-.72,2,2,0,0,0-1.06-.3,2.12,2.12,0,0,0-1.09.22,2.29,2.29,0,0,0-.76.65,2.83,2.83,0,0,0-.46.94,4.51,4.51,0,0,0-.17,1.09,4,4,0,0,0,.1,1.07,2.74,2.74,0,0,0,.4.93,2.26,2.26,0,0,0,.72.67,2.19,2.19,0,0,0,1.06.28A2,2,0,0,0,39.37,214.19Z"/><path class="cls-10" d="M44.31,208.19l0,1.25h0a2.11,2.11,0,0,1,.93-1,2.64,2.64,0,0,1,1.43-.35,3.57,3.57,0,0,1,1.26.24,2,2,0,0,1,.8.58,2.07,2.07,0,0,1,.4.89,4.92,4.92,0,0,1,.09,1.17l-.15,4.65-.88,0,.15-4.51a4.13,4.13,0,0,0-.06-.86,1.83,1.83,0,0,0-.27-.7,1.43,1.43,0,0,0-.55-.48,2.08,2.08,0,0,0-.88-.2,2.25,2.25,0,0,0-.95.16,2,2,0,0,0-.72.5,2.38,2.38,0,0,0-.47.77,3.16,3.16,0,0,0-.21,1l-.14,4.21-.88,0,.24-7.22Z"/><path class="cls-10" d="M51.1,209.53a2.06,2.06,0,0,1,.63-.74,2.57,2.57,0,0,1,.92-.4,4.38,4.38,0,0,1,1.15-.1,5,5,0,0,1,.95.12,2.31,2.31,0,0,1,.84.37,1.87,1.87,0,0,1,.59.73,2.55,2.55,0,0,1,.2,1.19l-.13,3.83a.46.46,0,0,0,.5.55.69.69,0,0,0,.28,0l0,.74-.27,0h-.3a1.33,1.33,0,0,1-.54-.11.72.72,0,0,1-.31-.27.94.94,0,0,1-.13-.4,3.35,3.35,0,0,1,0-.51h0a5.75,5.75,0,0,1-.5.61,2.39,2.39,0,0,1-.56.44,2.49,2.49,0,0,1-.69.26,3.77,3.77,0,0,1-.92.07,3.59,3.59,0,0,1-.94-.15,2.13,2.13,0,0,1-.76-.4,1.83,1.83,0,0,1-.5-.67,2.2,2.2,0,0,1-.16-1,1.87,1.87,0,0,1,.37-1.17,2.11,2.11,0,0,1,.91-.62,5.08,5.08,0,0,1,1.26-.27l1.41-.13.49-.05a.87.87,0,0,0,.35-.14.69.69,0,0,0,.23-.28,1.22,1.22,0,0,0,.09-.47,1.6,1.6,0,0,0-.12-.74,1.15,1.15,0,0,0-.39-.47,1.65,1.65,0,0,0-.59-.25,4.09,4.09,0,0,0-.73-.09,2.23,2.23,0,0,0-1.39.35,1.56,1.56,0,0,0-.6,1.26l-.88,0A2.94,2.94,0,0,1,51.1,209.53Zm4.34,2.3a.5.5,0,0,1-.33.21l-.42.08-1.16.14a6.35,6.35,0,0,0-1.09.2,2.13,2.13,0,0,0-.82.41,1.05,1.05,0,0,0-.34.81,1.3,1.3,0,0,0,.11.6,1.44,1.44,0,0,0,.34.46,1.55,1.55,0,0,0,.51.3,1.91,1.91,0,0,0,.6.12,3,3,0,0,0,1-.12,2.39,2.39,0,0,0,.82-.42,2.18,2.18,0,0,0,.57-.7,2.15,2.15,0,0,0,.23-.94l0-1.15Z"/><path class="cls-10" d="M59.09,208.68l0,1.25h0a2.11,2.11,0,0,1,.93-1,2.64,2.64,0,0,1,1.43-.35,3.57,3.57,0,0,1,1.26.24,2,2,0,0,1,.8.58,2.06,2.06,0,0,1,.4.89,4.86,4.86,0,0,1,.09,1.17l-.15,4.65L63,216l.15-4.51a4.13,4.13,0,0,0-.06-.86,1.82,1.82,0,0,0-.27-.7,1.43,1.43,0,0,0-.55-.48,2.09,2.09,0,0,0-.88-.2,2.25,2.25,0,0,0-1,.16,2.06,2.06,0,0,0-.72.5,2.4,2.4,0,0,0-.47.77,3.19,3.19,0,0,0-.21,1l-.14,4.21-.88,0,.24-7.22Z"/><path class="cls-10" d="M68.6,209l0,.74-1.47,0L67,214.55a1.58,1.58,0,0,0,.1.68c.07.17.27.26.59.29a6.63,6.63,0,0,0,.76,0l0,.74h-.78a1.3,1.3,0,0,1-1.51-1.66l.16-4.94-1.26,0,0-.74,1.26,0,.07-2.17.88,0-.07,2.17Z"/><path class="cls-10" d="M74.58,209.18l-.06,1.69h0a2.78,2.78,0,0,1,1.09-1.32,2.73,2.73,0,0,1,1.7-.38l0,.88a2.67,2.67,0,0,0-1.1.13,2.41,2.41,0,0,0-1.44,1.33,2.8,2.8,0,0,0-.23,1l-.13,3.85-.88,0,.24-7.22Z"/><path class="cls-10" d="M79.29,209.34l0,1.25h0a2.12,2.12,0,0,1,.93-1,2.64,2.64,0,0,1,1.43-.35,3.55,3.55,0,0,1,1.26.24,2,2,0,0,1,.8.58,2.06,2.06,0,0,1,.4.89,4.86,4.86,0,0,1,.09,1.17L84,216.72l-.88,0,.15-4.51a4.12,4.12,0,0,0-.05-.86,1.82,1.82,0,0,0-.27-.7,1.43,1.43,0,0,0-.55-.48,2.08,2.08,0,0,0-.88-.2,2.25,2.25,0,0,0-.95.16,2,2,0,0,0-.72.5,2.37,2.37,0,0,0-.47.77,3.16,3.16,0,0,0-.21,1l-.14,4.21-.88,0,.24-7.22Z"/><text class="cls-11" transform="translate(193.05 300.48) rotate(-4.09)">Maybe</text><g class="cls-12"><path class="cls-10" d="M257,113.37l5.44,8.71h0l.37-8.45,1,0-.44,10-1.06,0-5.44-8.71h0l-.37,8.45-1,0,.44-10Z"/><path class="cls-10" d="M270,116.82a3.2,3.2,0,0,1,1,.87,3.58,3.58,0,0,1,.6,1.24,5,5,0,0,1-.13,3,3.58,3.58,0,0,1-.71,1.18,3.11,3.11,0,0,1-1.11.77,3.71,3.71,0,0,1-2.92-.13,3.11,3.11,0,0,1-1-.87,3.56,3.56,0,0,1-.6-1.24,5,5,0,0,1,.13-3,3.57,3.57,0,0,1,.71-1.18,3.19,3.19,0,0,1,1.11-.78,3.63,3.63,0,0,1,2.92.13Zm-2.6.59a2.44,2.44,0,0,0-.82.66,3.17,3.17,0,0,0-.52,1,4,4,0,0,0-.1,2.25,3.18,3.18,0,0,0,.43,1,2.45,2.45,0,0,0,.76.73,2.44,2.44,0,0,0,2.21.1,2.4,2.4,0,0,0,.82-.66,3.14,3.14,0,0,0,.52-1,4,4,0,0,0,.1-2.25,3.16,3.16,0,0,0-.43-1,2.42,2.42,0,0,0-.76-.73,2.43,2.43,0,0,0-2.21-.1Z"/><path class="cls-10" d="M277.41,117l1.57,6.26h0l2-6.1,1,0,1.49,6.26h0l2.12-6.1.94,0L284,124.56l-1,0-1.51-6.15h0l-2,6-1,0-2-7.32Z"/><path class="cls-10" d="M287.7,118.62a2.07,2.07,0,0,1,.64-.73,2.58,2.58,0,0,1,.92-.39,4.41,4.41,0,0,1,1.15-.09,5,5,0,0,1,.95.13,2.3,2.3,0,0,1,.84.38,1.86,1.86,0,0,1,.58.73,2.53,2.53,0,0,1,.19,1.19l-.17,3.83a.46.46,0,0,0,.49.55.69.69,0,0,0,.28,0l0,.74-.27,0H293a1.34,1.34,0,0,1-.54-.11.73.73,0,0,1-.3-.27,1,1,0,0,1-.13-.4,3.35,3.35,0,0,1,0-.51h0a5.78,5.78,0,0,1-.51.6,2.34,2.34,0,0,1-.57.43,2.47,2.47,0,0,1-.7.25,3.78,3.78,0,0,1-.92.06,3.65,3.65,0,0,1-.94-.16,2.13,2.13,0,0,1-.75-.41,1.8,1.8,0,0,1-.49-.68,2.18,2.18,0,0,1-.15-1,1.87,1.87,0,0,1,.39-1.17,2.12,2.12,0,0,1,.92-.61,5.06,5.06,0,0,1,1.26-.26l1.41-.11.49,0a.86.86,0,0,0,.36-.13.68.68,0,0,0,.23-.28,1.22,1.22,0,0,0,.1-.47A1.61,1.61,0,0,0,292,119a1.16,1.16,0,0,0-.39-.47,1.63,1.63,0,0,0-.59-.26,4,4,0,0,0-.73-.1,2.23,2.23,0,0,0-1.39.34,1.56,1.56,0,0,0-.62,1.25l-.88,0A3,3,0,0,1,287.7,118.62ZM292,121a.51.51,0,0,1-.33.21l-.42.08-1.16.12a6.39,6.39,0,0,0-1.09.18,2.12,2.12,0,0,0-.82.41,1,1,0,0,0-.35.8,1.28,1.28,0,0,0,.11.6,1.46,1.46,0,0,0,.34.46,1.55,1.55,0,0,0,.5.31,1.89,1.89,0,0,0,.6.12,3,3,0,0,0,1-.11,2.4,2.4,0,0,0,.82-.41,2.14,2.14,0,0,0,.82-1.63L292,121Z"/><path class="cls-10" d="M294.95,117.82l2.1,6.26,2.5-6.06.88,0-3.5,8.17a8.14,8.14,0,0,1-.4.75,1.76,1.76,0,0,1-.39.46,1.25,1.25,0,0,1-.49.23,2.62,2.62,0,0,1-.7,0l-.41,0a.85.85,0,0,1-.26-.06l0-.74.3.06.3,0a1.19,1.19,0,0,0,.49-.06,1.05,1.05,0,0,0,.34-.22,1.37,1.37,0,0,0,.25-.35l.23-.45.35-.8L294,117.78Z"/></g></g></svg>