<svg id="Layer_1" data-name="Layer 1" xmlns="http://www.w3.org/2000/svg" xmlns:xlink="http://www.w3.org/1999/xlink" viewBox="0 0 360 360"><defs><style>.cls-1{fill:none;}.cls-2{clip-path:url(#clip-path);}.cls-3{fill:#f17649;}.cls-4{opacity:0.5;}.cls-5{clip-path:url(#clip-path-3);}.cls-6{fill:#fff;}.cls-7{font-size:18px;fill:#221f1f;font-family:HelveticaNeue-Bold, Helvetica Neue;font-weight:700;}.cls-8{letter-spacing:-0.06em;}.cls-9{letter-spacing:-0.02em;}.cls-10{letter-spacing:-0.03em;}.cls-11{fill:#f29d35;}.cls-12,.cls-14{opacity:0.58;}.cls-12{font-size:14px;font-family:HelveticaNeue-Light, Helvetica Neue;}.cls-12,.cls-15{fill:#fef5f3;}.cls-13{letter-spacing:-0.09em;}</style><clipPath id="clip-path"><rect class="cls-1" x="53.01" y="55.38" width="251.92" height="248.62"/></clipPath><clipPath id="clip-path-3"><rect class="cls-1" x="169.23" y="140.66" width="144.7" height="39.76"/></clipPath></defs><title>questions_female</title><g class="cls-2"><g class="cls-2"><path class="cls-3" d="M178.57,304c69.35,0,125.56-55.66,125.56-124.31S247.91,55.38,178.57,55.38,53,111,53,179.69,109.22,304,178.57,304"/><g class="cls-4"><g class="cls-5"><path class="cls-6" d="M178.23,179.41H303.94s3.83-4-3.61-31.76"/></g></g></g></g><text class="cls-7" transform="translate(113.57 163.65)"><tspan class="cls-8">W</tspan><tspan x="15.97" y="0">ould you ever </tspan><tspan x="-4.33" y="21.6">consider gender </tspan><tspan class="cls-9" x="-32.42" y="43.2">r</tspan><tspan x="-25.74" y="43.2">eassignment su</tspan><tspan class="cls-10" x="109.56" y="43.2">r</tspan><tspan x="116.06" y="43.2">gery?</tspan></text><polygon class="cls-11" points="17.97 81.52 40.8 68.81 115.28 60.33 188.57 68.81 177.75 86.61 112.88 105.25 38.83 103.11 17.97 81.52"/><polygon class="cls-11" points="189.76 99.47 339.76 106.07 340.29 144.39 186.81 140.65 146.17 109.1 189.76 99.47"/><polygon class="cls-11" points="132.48 268.58 235.34 253.45 277.34 288.77 204.3 299.58 113 303.18 109.96 272.91 132.48 268.58"/><text class="cls-12" transform="translate(28.75 86.95) rotate(-4.09)">Definitel<tspan class="cls-13" x="47.18" y="0">y</tspan><tspan x="52.37" y="0">. Whatever I can </tspan><tspan x="25.14" y="13">do to get ahead.</tspan></text><g class="cls-14"><path class="cls-15" d="M169.18,108.07a3.71,3.71,0,0,1,1.21.24,2.56,2.56,0,0,1,.92.6,2.47,2.47,0,0,1,.57.93,3.55,3.55,0,0,1-.09,2.41,2.45,2.45,0,0,1-.64.88,2.54,2.54,0,0,1-1,.52,3.7,3.7,0,0,1-1.22.14l-3.48-.13-.17,4.28-1,0,.39-10Zm-.4,4.89a2.46,2.46,0,0,0,1.63-.44,2.23,2.23,0,0,0,.12-3.08,2.46,2.46,0,0,0-1.59-.57l-3.27-.13-.16,4.09Z"/><path class="cls-15" d="M174.09,111l-.07,1.69h0a2.77,2.77,0,0,1,1.09-1.32,2.73,2.73,0,0,1,1.7-.37l0,.88a2.66,2.66,0,0,0-1.1.12,2.41,2.41,0,0,0-1.45,1.32,2.77,2.77,0,0,0-.24,1l-.15,3.85-.88,0,.28-7.22Z"/><path class="cls-15" d="M181.95,111.44a3.19,3.19,0,0,1,1,.87,3.57,3.57,0,0,1,.61,1.24,5,5,0,0,1-.11,3,3.56,3.56,0,0,1-.71,1.18,3.1,3.1,0,0,1-1.1.78,3.71,3.71,0,0,1-2.92-.11,3.1,3.1,0,0,1-1-.86,3.56,3.56,0,0,1-.61-1.24,5,5,0,0,1,.11-3,3.57,3.57,0,0,1,.71-1.18,3.19,3.19,0,0,1,1.1-.78,3.63,3.63,0,0,1,2.92.11Zm-2.59.6a2.43,2.43,0,0,0-.82.67,3.2,3.2,0,0,0-.51,1,4.06,4.06,0,0,0-.09,2.25,3.2,3.2,0,0,0,.44,1,2.44,2.44,0,0,0,.76.73,2.43,2.43,0,0,0,2.21.09,2.4,2.4,0,0,0,.82-.67,3.16,3.16,0,0,0,.51-1,4,4,0,0,0,.09-2.25,3.19,3.19,0,0,0-.44-1,2.42,2.42,0,0,0-.76-.73,2.43,2.43,0,0,0-2.21-.09Z"/><path class="cls-15" d="M186.2,108.73l-.16,4.14h0a2.09,2.09,0,0,1,.43-.67,2.49,2.49,0,0,1,.61-.47,2.63,2.63,0,0,1,.74-.27,3.24,3.24,0,0,1,.79-.07,3.15,3.15,0,0,1,1.42.36,2.94,2.94,0,0,1,1,.87,3.53,3.53,0,0,1,.55,1.24,5.56,5.56,0,0,1-.11,2.92,3.54,3.54,0,0,1-.65,1.19,2.88,2.88,0,0,1-1,.79,3.2,3.2,0,0,1-1.45.25,3.06,3.06,0,0,1-1.56-.47,2.32,2.32,0,0,1-1-1.2h0l-.05,1.37-.81,0,.39-10Zm4.56,5.45a3.1,3.1,0,0,0-.38-1,2.3,2.3,0,0,0-.71-.73,2,2,0,0,0-1.07-.31,2.37,2.37,0,0,0-1.19.23,2.34,2.34,0,0,0-.81.68,2.89,2.89,0,0,0-.47,1,4.68,4.68,0,0,0-.09,2.22,2.89,2.89,0,0,0,.4,1,2.33,2.33,0,0,0,.76.74,2.37,2.37,0,0,0,1.17.32,2,2,0,0,0,1.09-.23,2.29,2.29,0,0,0,.76-.68,3.09,3.09,0,0,0,.46-1,4.72,4.72,0,0,0,.09-2.22Z"/><path class="cls-15" d="M193.38,112.9a2.06,2.06,0,0,1,.64-.73,2.58,2.58,0,0,1,.92-.4,4.43,4.43,0,0,1,1.15-.1,5,5,0,0,1,.95.13,2.31,2.31,0,0,1,.84.38,1.86,1.86,0,0,1,.59.73,2.54,2.54,0,0,1,.19,1.19l-.15,3.83a.46.46,0,0,0,.5.55.67.67,0,0,0,.28,0l0,.74-.27,0h-.3a1.35,1.35,0,0,1-.54-.11.73.73,0,0,1-.31-.27.94.94,0,0,1-.13-.4,3.35,3.35,0,0,1,0-.51h0a5.83,5.83,0,0,1-.51.6,2.35,2.35,0,0,1-.56.43,2.49,2.49,0,0,1-.7.25,3.76,3.76,0,0,1-.92.06,3.65,3.65,0,0,1-.94-.16,2.12,2.12,0,0,1-.75-.41,1.8,1.8,0,0,1-.49-.68,2.18,2.18,0,0,1-.15-1,1.87,1.87,0,0,1,.38-1.17,2.11,2.11,0,0,1,.91-.62,5.09,5.09,0,0,1,1.26-.27l1.41-.12.49-.05a.86.86,0,0,0,.36-.13.68.68,0,0,0,.23-.28,1.22,1.22,0,0,0,.1-.47,1.61,1.61,0,0,0-.12-.74,1.17,1.17,0,0,0-.39-.47,1.64,1.64,0,0,0-.59-.25,4,4,0,0,0-.73-.09,2.23,2.23,0,0,0-1.39.35A1.56,1.56,0,0,0,194,114l-.88,0A3,3,0,0,1,193.38,112.9Zm4.32,2.32a.51.51,0,0,1-.33.21l-.42.08-1.16.13a6.34,6.34,0,0,0-1.09.19,2.11,2.11,0,0,0-.82.41,1,1,0,0,0-.35.81,1.28,1.28,0,0,0,.11.6,1.47,1.47,0,0,0,.34.46,1.54,1.54,0,0,0,.51.31,1.89,1.89,0,0,0,.6.12,3,3,0,0,0,1-.12,2.4,2.4,0,0,0,.82-.42,2.14,2.14,0,0,0,.81-1.64l0-1.15Z"/><path class="cls-15" d="M201.49,109.32l-.16,4.14h0a2.07,2.07,0,0,1,.42-.67,2.53,2.53,0,0,1,.61-.47,2.64,2.64,0,0,1,.74-.27,3.27,3.27,0,0,1,.79-.07,3.15,3.15,0,0,1,1.42.36,3,3,0,0,1,1,.87,3.54,3.54,0,0,1,.55,1.24,5.54,5.54,0,0,1-.11,2.92,3.56,3.56,0,0,1-.65,1.19,2.9,2.9,0,0,1-1,.79,3.2,3.2,0,0,1-1.45.24,3.06,3.06,0,0,1-1.56-.47,2.32,2.32,0,0,1-1-1.2h0l-.05,1.37-.81,0,.39-10Zm4.56,5.45a3.09,3.09,0,0,0-.38-1A2.31,2.31,0,0,0,205,113a2,2,0,0,0-1.07-.31,2.37,2.37,0,0,0-1.19.23,2.34,2.34,0,0,0-.81.68,2.89,2.89,0,0,0-.47,1,4.72,4.72,0,0,0-.09,2.22,2.9,2.9,0,0,0,.4,1,2.34,2.34,0,0,0,.76.74,2.37,2.37,0,0,0,1.17.32,2,2,0,0,0,1.09-.23,2.29,2.29,0,0,0,.76-.68,3.09,3.09,0,0,0,.46-1,4.72,4.72,0,0,0,.09-2.22Z"/><path class="cls-15" d="M209.54,109.63l-.39,10-.88,0,.39-10Z"/><path class="cls-15" d="M211.25,112.48l2.14,6.25,2.46-6.07.88,0-3.46,8.19a8.16,8.16,0,0,1-.39.75,1.78,1.78,0,0,1-.39.46,1.24,1.24,0,0,1-.49.23,2.6,2.6,0,0,1-.7,0l-.41,0a.85.85,0,0,1-.26-.06l0-.74.3.06.3,0a1.2,1.2,0,0,0,.49-.07,1.05,1.05,0,0,0,.34-.22,1.34,1.34,0,0,0,.25-.35l.23-.45.34-.8-2.6-7.3Z"/><path class="cls-15" d="M222.36,112.91l0,1.24h0a2.12,2.12,0,0,1,.94-1,2.63,2.63,0,0,1,1.43-.34A3.56,3.56,0,0,1,226,113a2,2,0,0,1,.8.58,2.05,2.05,0,0,1,.4.89,5,5,0,0,1,.08,1.17l-.18,4.64-.88,0,.17-4.5a4.26,4.26,0,0,0,0-.86,1.79,1.79,0,0,0-.27-.7,1.42,1.42,0,0,0-.55-.48,2.08,2.08,0,0,0-.88-.2,2.25,2.25,0,0,0-1,.15,2,2,0,0,0-.72.49,2.39,2.39,0,0,0-.48.77,3.17,3.17,0,0,0-.21,1l-.16,4.21-.88,0,.28-7.22Z"/><path class="cls-15" d="M233.51,113.44a3.19,3.19,0,0,1,1,.87,3.56,3.56,0,0,1,.61,1.24,5,5,0,0,1-.11,3,3.56,3.56,0,0,1-.7,1.18,3.1,3.1,0,0,1-1.1.78,3.71,3.71,0,0,1-2.92-.11,3.11,3.11,0,0,1-1-.86,3.58,3.58,0,0,1-.61-1.24,5,5,0,0,1,.11-3,3.58,3.58,0,0,1,.7-1.18,3.2,3.2,0,0,1,1.1-.78,3.63,3.63,0,0,1,2.92.11Zm-2.59.6a2.41,2.41,0,0,0-.82.67,3.17,3.17,0,0,0-.51,1,4,4,0,0,0-.09,2.25,3.18,3.18,0,0,0,.44,1,2.43,2.43,0,0,0,.76.73,2.43,2.43,0,0,0,2.21.09,2.41,2.41,0,0,0,.82-.67,3.18,3.18,0,0,0,.51-1,4,4,0,0,0,.09-2.25,3.21,3.21,0,0,0-.44-1,2.43,2.43,0,0,0-.76-.73,2.43,2.43,0,0,0-2.21-.09Z"/><path class="cls-15" d="M239.65,113.57l0,.74-1.47-.06-.19,4.87a1.58,1.58,0,0,0,.09.68q.11.25.58.3a6.86,6.86,0,0,0,.76,0l0,.74h-.78a1.3,1.3,0,0,1-1.5-1.67l.19-4.94-1.26,0,0-.74,1.26,0,.08-2.17.88,0-.08,2.17Z"/><path class="cls-15" d="M242.33,120.91a2.44,2.44,0,0,1-.1.61,2.1,2.1,0,0,1-.25.55,1.78,1.78,0,0,1-.4.44,1.38,1.38,0,0,1-.55.26l0-.6a.62.62,0,0,0,.3-.2,1.46,1.46,0,0,0,.22-.33,1.61,1.61,0,0,0,.14-.39,1.43,1.43,0,0,0,0-.36l-.59,0,.06-1.48,1.17,0Z"/><path class="cls-15" d="M249.69,111.19l-.16,4.14h0a2.08,2.08,0,0,1,.43-.67,2.5,2.5,0,0,1,.61-.47,2.64,2.64,0,0,1,.74-.27,3.23,3.23,0,0,1,.79-.07,3.15,3.15,0,0,1,1.42.36,2.94,2.94,0,0,1,1,.87,3.53,3.53,0,0,1,.55,1.24,5.54,5.54,0,0,1-.11,2.92,3.54,3.54,0,0,1-.65,1.19,2.89,2.89,0,0,1-1,.79,3.21,3.21,0,0,1-1.45.24,3.05,3.05,0,0,1-1.56-.47,2.32,2.32,0,0,1-1-1.2h0l-.05,1.37-.81,0,.39-10Zm4.56,5.45a3.13,3.13,0,0,0-.38-1,2.31,2.31,0,0,0-.71-.73,2,2,0,0,0-1.07-.31,2.37,2.37,0,0,0-1.19.23,2.33,2.33,0,0,0-.81.68,2.85,2.85,0,0,0-.47,1,4.68,4.68,0,0,0-.09,2.22,2.86,2.86,0,0,0,.4,1,2.32,2.32,0,0,0,.76.74,2.37,2.37,0,0,0,1.17.32,2,2,0,0,0,1.09-.23,2.31,2.31,0,0,0,.76-.68,3.11,3.11,0,0,0,.46-1,4.75,4.75,0,0,0,.09-2.22Z"/><path class="cls-15" d="M261.49,121.65l.05-1.3h0a2.5,2.5,0,0,1-1.06,1.07,2.9,2.9,0,0,1-1.49.33,3.21,3.21,0,0,1-1.16-.23,1.94,1.94,0,0,1-.76-.57,2.17,2.17,0,0,1-.41-.87,4.27,4.27,0,0,1-.1-1.15l.18-4.69.88,0-.18,4.7a2.36,2.36,0,0,0,.4,1.5,1.85,1.85,0,0,0,1.46.56,1.87,1.87,0,0,0,1-.21,2.11,2.11,0,0,0,.7-.62,3,3,0,0,0,.43-.92,4.57,4.57,0,0,0,.17-1.07l.15-3.79.88,0-.28,7.22Z"/><path class="cls-15" d="M267.11,114.64l0,.74-1.47-.06-.19,4.87a1.56,1.56,0,0,0,.09.68c.07.17.27.26.58.3a6.72,6.72,0,0,0,.76,0l0,.74H266a1.74,1.74,0,0,1-1.22-.39,1.72,1.72,0,0,1-.29-1.28l.19-4.94-1.26,0,0-.74,1.26,0,.08-2.17.88,0-.08,2.17Z"/><path class="cls-15" d="M273.57,112.11l-.39,10-1,0,.39-10Z"/><path class="cls-15" d="M277.14,113.75a2.53,2.53,0,0,1-.1.61,2.12,2.12,0,0,1-.25.55,1.78,1.78,0,0,1-.4.44,1.37,1.37,0,0,1-.56.26l0-.6a.66.66,0,0,0,.31-.19,1.33,1.33,0,0,0,.22-.34,1.86,1.86,0,0,0,.13-.39,1.41,1.41,0,0,0,0-.37l-.59,0,.06-1.48,1.17,0Z"/><path class="cls-15" d="M284.52,122.54l.05-1.37h0a2.07,2.07,0,0,1-.44.63,2.71,2.71,0,0,1-.64.47,3.22,3.22,0,0,1-.76.29,2.94,2.94,0,0,1-.79.08,3.21,3.21,0,0,1-1.42-.36,2.88,2.88,0,0,1-1-.86,3.56,3.56,0,0,1-.55-1.24,5.56,5.56,0,0,1,.11-2.92,3.59,3.59,0,0,1,.65-1.19,3,3,0,0,1,1-.79,3.14,3.14,0,0,1,1.45-.25,3.2,3.2,0,0,1,.79.13,2.66,2.66,0,0,1,.71.33,2.59,2.59,0,0,1,.58.52,2.1,2.1,0,0,1,.37.7h0l.16-4.14.88,0-.39,10Zm-4.74-2.68a3.07,3.07,0,0,0,.38,1,2.31,2.31,0,0,0,.71.73,2,2,0,0,0,1.07.31,2.37,2.37,0,0,0,1.19-.23,2.33,2.33,0,0,0,.81-.68,2.93,2.93,0,0,0,.47-1,4.72,4.72,0,0,0,.09-2.22,2.94,2.94,0,0,0-.4-1,2.34,2.34,0,0,0-.76-.74,2.37,2.37,0,0,0-1.17-.32,2,2,0,0,0-1.09.23,2.32,2.32,0,0,0-.76.68,3.07,3.07,0,0,0-.46,1,4.72,4.72,0,0,0-.09,2.22Z"/><path class="cls-15" d="M292.17,112.83,292,117h0a2.09,2.09,0,0,1,.43-.67,2.5,2.5,0,0,1,.61-.47,2.63,2.63,0,0,1,.74-.27,3.23,3.23,0,0,1,.79-.07,3.14,3.14,0,0,1,1.42.36,2.94,2.94,0,0,1,1,.87,3.52,3.52,0,0,1,.55,1.24,5.56,5.56,0,0,1-.11,2.92,3.55,3.55,0,0,1-.65,1.19,2.89,2.89,0,0,1-1,.79,3.21,3.21,0,0,1-1.45.25,3.06,3.06,0,0,1-1.56-.47,2.32,2.32,0,0,1-1-1.2h0l-.05,1.37-.81,0,.39-10Zm4.56,5.45a3.1,3.1,0,0,0-.38-1,2.31,2.31,0,0,0-.71-.73,2,2,0,0,0-1.07-.31,2.37,2.37,0,0,0-1.19.23,2.33,2.33,0,0,0-.81.68,2.87,2.87,0,0,0-.47,1,4.68,4.68,0,0,0-.09,2.22,2.88,2.88,0,0,0,.4,1,2.33,2.33,0,0,0,.76.74,2.36,2.36,0,0,0,1.17.32,2,2,0,0,0,1.09-.23,2.3,2.3,0,0,0,.76-.68,3.09,3.09,0,0,0,.46-1,4.72,4.72,0,0,0,.09-2.22Z"/><path class="cls-15" d="M299.68,120.74a2.72,2.72,0,0,0,.39.93,2.46,2.46,0,0,0,.72.7,2.08,2.08,0,0,0,1.07.31,2.14,2.14,0,0,0,1.53-.45,2.64,2.64,0,0,0,.81-1.31l.88,0a3.53,3.53,0,0,1-1.1,1.86,3.07,3.07,0,0,1-2.15.59,3.37,3.37,0,0,1-1.46-.36,2.71,2.71,0,0,1-1-.86,3.57,3.57,0,0,1-.53-1.24,5.54,5.54,0,0,1-.13-1.47,5.21,5.21,0,0,1,.24-1.39,3.75,3.75,0,0,1,.63-1.2,2.89,2.89,0,0,1,1-.83,3.12,3.12,0,0,1,1.49-.27,2.86,2.86,0,0,1,2.43,1.36,3.81,3.81,0,0,1,.5,1.32,5.74,5.74,0,0,1,.08,1.5l-5.55-.21A4,4,0,0,0,299.68,120.74Zm4.47-2.52a2.68,2.68,0,0,0-.42-.84,2.26,2.26,0,0,0-.69-.6,2.23,2.23,0,0,0-1.92-.07,2.26,2.26,0,0,0-.74.55,2.87,2.87,0,0,0-.5.81,4.05,4.05,0,0,0-.27.95l4.67.18A3.24,3.24,0,0,0,304.15,118.22Z"/><path class="cls-15" d="M314.87,116.58a3.2,3.2,0,0,1,1,.87,3.56,3.56,0,0,1,.61,1.24,5,5,0,0,1-.11,3,3.56,3.56,0,0,1-.7,1.18,3.1,3.1,0,0,1-1.1.78,3.71,3.71,0,0,1-2.92-.11,3.11,3.11,0,0,1-1-.86,3.58,3.58,0,0,1-.61-1.24,5,5,0,0,1,.11-3,3.58,3.58,0,0,1,.7-1.18,3.2,3.2,0,0,1,1.1-.78,3.63,3.63,0,0,1,2.92.11Zm-2.59.6a2.42,2.42,0,0,0-.82.67,3.17,3.17,0,0,0-.51,1,4,4,0,0,0-.09,2.25,3.18,3.18,0,0,0,.44,1,2.42,2.42,0,0,0,.76.73,2.43,2.43,0,0,0,2.21.09,2.42,2.42,0,0,0,.82-.67,3.18,3.18,0,0,0,.51-1,4,4,0,0,0,.09-2.25,3.21,3.21,0,0,0-.44-1,2.43,2.43,0,0,0-.76-.73,2.43,2.43,0,0,0-2.21-.09Z"/><path class="cls-15" d="M319.13,113.88l-.24,6.27L323,116.8l1.18,0L321,119.4l3.11,4.67L323,124l-2.7-4-1.47,1.13-.11,2.74-.88,0,.39-10Z"/><path class="cls-15" d="M325.27,118a2.06,2.06,0,0,1,.64-.73,2.59,2.59,0,0,1,.92-.4,4.41,4.41,0,0,1,1.15-.1,5.06,5.06,0,0,1,.95.13,2.3,2.3,0,0,1,.84.38,1.86,1.86,0,0,1,.59.73,2.54,2.54,0,0,1,.19,1.19L330.4,123a.46.46,0,0,0,.5.55.67.67,0,0,0,.28,0l0,.74-.27,0h-.3a1.33,1.33,0,0,1-.53-.11.72.72,0,0,1-.31-.27,1,1,0,0,1-.13-.4,3.35,3.35,0,0,1,0-.51h0a5.83,5.83,0,0,1-.51.6,2.34,2.34,0,0,1-.56.43,2.51,2.51,0,0,1-.7.25,3.78,3.78,0,0,1-.92.06,3.65,3.65,0,0,1-.94-.16,2.12,2.12,0,0,1-.75-.41,1.79,1.79,0,0,1-.49-.68,2.17,2.17,0,0,1-.15-1,1.87,1.87,0,0,1,.38-1.17,2.12,2.12,0,0,1,.91-.62,5.08,5.08,0,0,1,1.26-.27l1.41-.12L329,120a.86.86,0,0,0,.35-.13.67.67,0,0,0,.23-.28,1.22,1.22,0,0,0,.1-.47,1.61,1.61,0,0,0-.12-.74,1.16,1.16,0,0,0-.39-.47,1.64,1.64,0,0,0-.59-.25,4,4,0,0,0-.73-.09,2.22,2.22,0,0,0-1.39.35,1.56,1.56,0,0,0-.61,1.26l-.88,0A2.94,2.94,0,0,1,325.27,118Zm4.32,2.33a.5.5,0,0,1-.33.21l-.42.08-1.16.13a6.34,6.34,0,0,0-1.09.19,2.12,2.12,0,0,0-.82.41,1.05,1.05,0,0,0-.35.81,1.28,1.28,0,0,0,.11.6,1.44,1.44,0,0,0,.34.46,1.54,1.54,0,0,0,.51.31,1.89,1.89,0,0,0,.6.12,3,3,0,0,0,1-.12,2.39,2.39,0,0,0,.82-.42,2.13,2.13,0,0,0,.81-1.64l0-1.15Z"/><path class="cls-15" d="M332.52,117.17l2.14,6.25,2.46-6.07.88,0-3.46,8.19a8.16,8.16,0,0,1-.39.75,1.78,1.78,0,0,1-.39.46,1.24,1.24,0,0,1-.49.23,2.6,2.6,0,0,1-.7,0l-.41,0a.85.85,0,0,1-.26-.06l0-.74.3.06.3,0a1.2,1.2,0,0,0,.49-.07,1.05,1.05,0,0,0,.34-.22,1.35,1.35,0,0,0,.25-.35l.23-.45.34-.8-2.6-7.3Z"/><path class="cls-15" d="M187.12,124.55l1.61,6.26h0l2-6.12,1,0,1.52,6.25h0l2.09-6.11.94,0-2.6,7.13-1,0-1.54-6.14h0l-2,6-1,0-2-7.31Z"/><path class="cls-15" d="M198.28,122.21l-.05,1.41-.88,0,.05-1.41Zm-.11,2.77-.28,7.22-.88,0,.28-7.22Z"/><path class="cls-15" d="M202.73,125.16l0,.74-1.47-.06-.19,4.87a1.58,1.58,0,0,0,.09.68c.07.17.27.27.58.3a6.78,6.78,0,0,0,.76,0l0,.74h-.78a1.3,1.3,0,0,1-1.5-1.67l.19-4.94-1.26,0,0-.74,1.26,0,.08-2.17.88,0-.08,2.17Z"/><path class="cls-15" d="M205,122.47l-.16,4h0a2.12,2.12,0,0,1,.94-1,2.64,2.64,0,0,1,1.43-.34,3.57,3.57,0,0,1,1.26.25,2,2,0,0,1,.8.58,2.08,2.08,0,0,1,.4.89,4.92,4.92,0,0,1,.08,1.17l-.18,4.64-.88,0,.17-4.5a4.13,4.13,0,0,0,0-.86,1.83,1.83,0,0,0-.27-.7,1.43,1.43,0,0,0-.55-.48,2.09,2.09,0,0,0-.88-.2,2.25,2.25,0,0,0-1,.15,2,2,0,0,0-.72.49,2.37,2.37,0,0,0-.48.77,3.16,3.16,0,0,0-.21,1l-.16,4.21-.88,0,.39-10Z"/><path class="cls-15" d="M220.66,133.08l.05-1.37h0a2.06,2.06,0,0,1-.44.63,2.69,2.69,0,0,1-.64.47,3.28,3.28,0,0,1-.76.29,2.92,2.92,0,0,1-.79.08,3.2,3.2,0,0,1-1.42-.36,2.88,2.88,0,0,1-1-.87,3.54,3.54,0,0,1-.55-1.24,5.59,5.59,0,0,1,.11-2.92,3.55,3.55,0,0,1,.65-1.19,3,3,0,0,1,1-.79,3.16,3.16,0,0,1,1.45-.25,3.21,3.21,0,0,1,.79.13,2.66,2.66,0,0,1,.71.33,2.55,2.55,0,0,1,.58.52,2.1,2.1,0,0,1,.37.7h0l.16-4.14.88,0-.39,10Zm-4.74-2.68a3.07,3.07,0,0,0,.38,1,2.3,2.3,0,0,0,.71.74,2,2,0,0,0,1.07.31,2.37,2.37,0,0,0,1.19-.23,2.34,2.34,0,0,0,.81-.68,2.92,2.92,0,0,0,.47-1,4.69,4.69,0,0,0,.09-2.22,2.94,2.94,0,0,0-.4-1,2.27,2.27,0,0,0-1.93-1.06,2,2,0,0,0-1.09.23,2.31,2.31,0,0,0-.76.68,3.08,3.08,0,0,0-.46,1,4.72,4.72,0,0,0-.09,2.22Z"/><path class="cls-15" d="M224.24,126l-.07,1.69h0a2.78,2.78,0,0,1,1.09-1.32A2.73,2.73,0,0,1,227,126l0,.88a2.66,2.66,0,0,0-1.1.12,2.42,2.42,0,0,0-1.45,1.32,2.8,2.8,0,0,0-.24,1l-.15,3.85-.88,0,.28-7.22Z"/><path class="cls-15" d="M228.05,131a2.72,2.72,0,0,0,.39.93,2.45,2.45,0,0,0,.72.7,2.08,2.08,0,0,0,1.07.31,2.15,2.15,0,0,0,1.53-.44,2.65,2.65,0,0,0,.81-1.31l.88,0a3.52,3.52,0,0,1-1.1,1.86,3.07,3.07,0,0,1-2.15.59,3.36,3.36,0,0,1-1.46-.36,2.7,2.7,0,0,1-1-.86,3.57,3.57,0,0,1-.53-1.24,5.53,5.53,0,0,1-.13-1.47,5.25,5.25,0,0,1,.24-1.39,3.77,3.77,0,0,1,.63-1.2,2.92,2.92,0,0,1,1-.83,3.13,3.13,0,0,1,1.49-.27,2.85,2.85,0,0,1,2.43,1.36,3.8,3.8,0,0,1,.5,1.32,5.78,5.78,0,0,1,.08,1.5L228,130A3.92,3.92,0,0,0,228.05,131Zm4.47-2.52a2.67,2.67,0,0,0-.42-.84,2.27,2.27,0,0,0-.69-.6,2.23,2.23,0,0,0-1.92-.07,2.24,2.24,0,0,0-.74.55,2.87,2.87,0,0,0-.5.81,4.06,4.06,0,0,0-.27.95l4.67.18A3.22,3.22,0,0,0,232.52,128.45Z"/><path class="cls-15" d="M238.95,128a1.43,1.43,0,0,0-.39-.51,1.73,1.73,0,0,0-.58-.31,2.71,2.71,0,0,0-.71-.12,2.86,2.86,0,0,0-.6,0,1.83,1.83,0,0,0-.56.19,1.2,1.2,0,0,0-.42.37,1.06,1.06,0,0,0-.18.58.82.82,0,0,0,.13.5,1.3,1.3,0,0,0,.36.36,2.3,2.3,0,0,0,.48.25l.48.17,1.16.31a3.38,3.38,0,0,1,.74.23,2.42,2.42,0,0,1,.64.41,1.89,1.89,0,0,1,.44.61,1.76,1.76,0,0,1,.15.83,1.81,1.81,0,0,1-.3,1,2.16,2.16,0,0,1-.7.65,2.86,2.86,0,0,1-.94.33,4.79,4.79,0,0,1-1,.07,3.32,3.32,0,0,1-2-.68,2.57,2.57,0,0,1-.83-2l.88,0a1.74,1.74,0,0,0,.6,1.38,2.37,2.37,0,0,0,1.46.51,3.33,3.33,0,0,0,.67,0,2.15,2.15,0,0,0,.64-.21,1.53,1.53,0,0,0,.5-.41,1.05,1.05,0,0,0,.21-.63,1,1,0,0,0-.11-.54,1.16,1.16,0,0,0-.34-.38,2.29,2.29,0,0,0-.5-.26c-.19-.07-.38-.14-.58-.19l-1.12-.29a6.37,6.37,0,0,1-.79-.29,2.56,2.56,0,0,1-.62-.39,1.52,1.52,0,0,1-.41-.55,1.76,1.76,0,0,1-.12-.78,1.74,1.74,0,0,1,.28-.93,1.91,1.91,0,0,1,.66-.6,3,3,0,0,1,.89-.32,4.24,4.24,0,0,1,1-.08,3.56,3.56,0,0,1,1,.18,2.35,2.35,0,0,1,.81.47,2.12,2.12,0,0,1,.54.75,2.6,2.6,0,0,1,.2,1l-.88,0A1.67,1.67,0,0,0,238.95,128Z"/><path class="cls-15" d="M245.68,128.23a1.45,1.45,0,0,0-.39-.51,1.74,1.74,0,0,0-.58-.31,2.72,2.72,0,0,0-.71-.12,2.92,2.92,0,0,0-.6,0,1.84,1.84,0,0,0-.56.19,1.21,1.21,0,0,0-.42.37,1.07,1.07,0,0,0-.18.58.83.83,0,0,0,.13.5,1.31,1.31,0,0,0,.36.36,2.36,2.36,0,0,0,.48.25l.48.17,1.16.31a3.37,3.37,0,0,1,.74.23,2.4,2.4,0,0,1,.64.41,1.89,1.89,0,0,1,.45.61,1.77,1.77,0,0,1,.15.83,1.8,1.8,0,0,1-.3,1,2.16,2.16,0,0,1-.7.65,2.88,2.88,0,0,1-.94.33,4.76,4.76,0,0,1-1,.07,3.32,3.32,0,0,1-2-.68,2.56,2.56,0,0,1-.83-2l.88,0a1.74,1.74,0,0,0,.6,1.38,2.37,2.37,0,0,0,1.46.51,3.32,3.32,0,0,0,.67,0,2.14,2.14,0,0,0,.64-.21,1.52,1.52,0,0,0,.5-.41,1,1,0,0,0,.21-.63,1,1,0,0,0-.11-.54,1.16,1.16,0,0,0-.34-.38,2.32,2.32,0,0,0-.5-.26l-.57-.19-1.12-.29a6.28,6.28,0,0,1-.79-.29,2.54,2.54,0,0,1-.62-.39,1.52,1.52,0,0,1-.41-.55,1.76,1.76,0,0,1-.12-.78,1.74,1.74,0,0,1,.28-.93,1.91,1.91,0,0,1,.66-.6,3,3,0,0,1,.89-.32,4.28,4.28,0,0,1,1-.08,3.57,3.57,0,0,1,1,.18,2.35,2.35,0,0,1,.81.47,2.13,2.13,0,0,1,.54.75,2.62,2.62,0,0,1,.2,1l-.88,0A1.68,1.68,0,0,0,245.68,128.23Z"/><path class="cls-15" d="M249.31,124.18l-.05,1.41-.88,0,.05-1.41ZM249.2,127l-.28,7.22-.88,0,.28-7.22Z"/><path class="cls-15" d="M251.76,127.05l0,1.25h0a2.12,2.12,0,0,1,.94-1,2.64,2.64,0,0,1,1.43-.34,3.55,3.55,0,0,1,1.26.25,2,2,0,0,1,.8.58,2.06,2.06,0,0,1,.4.89,4.86,4.86,0,0,1,.08,1.17l-.18,4.64-.88,0,.17-4.5a4.19,4.19,0,0,0,0-.86,1.83,1.83,0,0,0-.27-.7,1.43,1.43,0,0,0-.55-.48,2.09,2.09,0,0,0-.88-.2,2.25,2.25,0,0,0-1,.15,2,2,0,0,0-.72.49,2.38,2.38,0,0,0-.48.77,3.16,3.16,0,0,0-.21,1l-.16,4.21-.88,0,.28-7.22Z"/><path class="cls-15" d="M264,135.61a2.79,2.79,0,0,1-.59,1.07,2.41,2.41,0,0,1-1,.65,4.1,4.1,0,0,1-1.5.18,4.47,4.47,0,0,1-1.06-.17,3,3,0,0,1-.92-.43,2.34,2.34,0,0,1-.66-.71,2,2,0,0,1-.28-1l.88,0a1.56,1.56,0,0,0,.25.69,1.63,1.63,0,0,0,.47.46,2.19,2.19,0,0,0,.63.27,3.32,3.32,0,0,0,.71.1,2.12,2.12,0,0,0,1.8-.63,3.22,3.22,0,0,0,.62-2l0-1h0a2.58,2.58,0,0,1-.94,1,2.41,2.41,0,0,1-1.41.35,3.49,3.49,0,0,1-1.47-.34,2.73,2.73,0,0,1-1-.83,3.2,3.2,0,0,1-.54-1.2,5.55,5.55,0,0,1-.13-1.45,4.44,4.44,0,0,1,.27-1.4,3.5,3.5,0,0,1,.67-1.14,3,3,0,0,1,1.05-.74,3.24,3.24,0,0,1,1.4-.23,2.54,2.54,0,0,1,.76.14,2.39,2.39,0,0,1,.64.34,2.77,2.77,0,0,1,.51.49,2.15,2.15,0,0,1,.34.57h0l0-1.25.88,0-.26,6.63A5.52,5.52,0,0,1,264,135.61Zm-1.95-2a2.29,2.29,0,0,0,.75-.62,2.81,2.81,0,0,0,.48-.9,3.94,3.94,0,0,0,.19-1.06,4.58,4.58,0,0,0-.09-1.07,3.08,3.08,0,0,0-.37-1,2.22,2.22,0,0,0-.7-.73,2,2,0,0,0-1.06-.31,2.12,2.12,0,0,0-1.09.22,2.29,2.29,0,0,0-.77.65,2.81,2.81,0,0,0-.46.94,4.51,4.51,0,0,0-.18,1.09,4,4,0,0,0,.1,1.07,2.74,2.74,0,0,0,.4.93,2.26,2.26,0,0,0,.72.67,2.19,2.19,0,0,0,1.05.29A2,2,0,0,0,262.07,133.61Z"/><path class="cls-15" d="M271.07,125l-.05,1.41-.88,0,.05-1.41ZM271,127.8l-.28,7.22-.88,0,.28-7.22Z"/><path class="cls-15" d="M273.53,127.9l0,1.25h0a2.11,2.11,0,0,1,.94-1,2.64,2.64,0,0,1,1.43-.34,3.57,3.57,0,0,1,1.26.25,2,2,0,0,1,.8.58,2.08,2.08,0,0,1,.4.89,4.92,4.92,0,0,1,.08,1.17l-.18,4.64-.88,0,.17-4.5a4.13,4.13,0,0,0,0-.86,1.83,1.83,0,0,0-.27-.7,1.43,1.43,0,0,0-.55-.48,2.09,2.09,0,0,0-.88-.2,2.25,2.25,0,0,0-1,.15,2.05,2.05,0,0,0-.72.49,2.38,2.38,0,0,0-.48.77,3.16,3.16,0,0,0-.21,1l-.16,4.21-.88,0,.28-7.22Z"/><path class="cls-15" d="M289.32,135.74l.05-1.37h0a2.1,2.1,0,0,1-.44.63,2.71,2.71,0,0,1-.64.47,3.28,3.28,0,0,1-.76.29,2.91,2.91,0,0,1-.79.08,3.21,3.21,0,0,1-1.42-.36,2.87,2.87,0,0,1-1-.86,3.52,3.52,0,0,1-.56-1.24,5.59,5.59,0,0,1,.11-2.92,3.55,3.55,0,0,1,.65-1.19,3,3,0,0,1,1-.79,3.4,3.4,0,0,1,2.23-.12,2.66,2.66,0,0,1,.71.33,2.55,2.55,0,0,1,.58.52,2.1,2.1,0,0,1,.37.7h0l.16-4.14.88,0-.39,10Zm-4.74-2.68a3.07,3.07,0,0,0,.38,1,2.29,2.29,0,0,0,.71.73,2,2,0,0,0,1.07.31,2.37,2.37,0,0,0,1.19-.23,2.34,2.34,0,0,0,.81-.68,2.91,2.91,0,0,0,.47-1,4.69,4.69,0,0,0,.09-2.22,2.92,2.92,0,0,0-.4-1,2.26,2.26,0,0,0-1.93-1.06,2,2,0,0,0-1.09.23,2.3,2.3,0,0,0-.76.68,3.07,3.07,0,0,0-.46,1,4.72,4.72,0,0,0-.09,2.22Z"/><path class="cls-15" d="M292.9,128.65l-.07,1.69h0A2.78,2.78,0,0,1,294,129a2.73,2.73,0,0,1,1.7-.37l0,.88a2.67,2.67,0,0,0-1.1.12,2.42,2.42,0,0,0-1.45,1.32,2.8,2.8,0,0,0-.24,1l-.15,3.85-.88,0,.28-7.22Z"/><path class="cls-15" d="M296.64,129.91a2.06,2.06,0,0,1,.64-.73,2.57,2.57,0,0,1,.92-.4,4.4,4.4,0,0,1,1.15-.1,5,5,0,0,1,.95.13,2.28,2.28,0,0,1,.84.38,1.86,1.86,0,0,1,.59.73,2.56,2.56,0,0,1,.19,1.19l-.15,3.83a.46.46,0,0,0,.5.55.7.7,0,0,0,.28,0l0,.74-.27,0h-.3a1.33,1.33,0,0,1-.53-.11.71.71,0,0,1-.31-.27,1,1,0,0,1-.13-.4,3.34,3.34,0,0,1,0-.51h0a5.78,5.78,0,0,1-.51.6,2.4,2.4,0,0,1-.56.43,2.49,2.49,0,0,1-.7.25,3.78,3.78,0,0,1-.92.06,3.62,3.62,0,0,1-.94-.15,2.11,2.11,0,0,1-.75-.41,1.81,1.81,0,0,1-.49-.68,2.18,2.18,0,0,1-.15-1,1.86,1.86,0,0,1,.38-1.17,2.1,2.1,0,0,1,.91-.62,5.06,5.06,0,0,1,1.26-.27l1.41-.12.49-.05a.87.87,0,0,0,.35-.13.68.68,0,0,0,.23-.28A1.23,1.23,0,0,0,301,131a1.6,1.6,0,0,0-.12-.74,1.17,1.17,0,0,0-.39-.47,1.64,1.64,0,0,0-.59-.25,4,4,0,0,0-.73-.09,2.23,2.23,0,0,0-1.39.35,1.56,1.56,0,0,0-.61,1.26l-.88,0A2.92,2.92,0,0,1,296.64,129.91Zm4.32,2.32a.5.5,0,0,1-.33.21l-.42.08-1.16.13a6.44,6.44,0,0,0-1.09.19,2.14,2.14,0,0,0-.82.41,1.06,1.06,0,0,0-.35.81,1.28,1.28,0,0,0,.11.6,1.42,1.42,0,0,0,.34.46,1.55,1.55,0,0,0,.51.31,1.9,1.9,0,0,0,.6.12,3,3,0,0,0,1-.12,2.36,2.36,0,0,0,.82-.42,2.18,2.18,0,0,0,.57-.69,2.15,2.15,0,0,0,.24-.94l0-1.15Z"/><path class="cls-15" d="M309.37,137.37a2.8,2.8,0,0,1-.59,1.07,2.41,2.41,0,0,1-1,.65,4.12,4.12,0,0,1-1.5.18,4.47,4.47,0,0,1-1.06-.17,3,3,0,0,1-.92-.43,2.32,2.32,0,0,1-.66-.71,2,2,0,0,1-.28-1l.88,0a1.56,1.56,0,0,0,.25.69,1.61,1.61,0,0,0,.47.46,2.18,2.18,0,0,0,.63.27,3.35,3.35,0,0,0,.71.1,2.11,2.11,0,0,0,1.8-.63,3.22,3.22,0,0,0,.62-2l0-1h0a2.58,2.58,0,0,1-.94,1,2.41,2.41,0,0,1-1.41.35,3.5,3.5,0,0,1-1.47-.34,2.74,2.74,0,0,1-1-.83,3.21,3.21,0,0,1-.54-1.2,5.51,5.51,0,0,1-.13-1.45,4.44,4.44,0,0,1,.27-1.4,3.5,3.5,0,0,1,.67-1.14,3,3,0,0,1,1.05-.74,3.23,3.23,0,0,1,1.4-.23,2.52,2.52,0,0,1,.76.14,2.41,2.41,0,0,1,.64.34,2.79,2.79,0,0,1,.51.49,2.14,2.14,0,0,1,.34.57h0l0-1.25.88,0-.26,6.63A5.52,5.52,0,0,1,309.37,137.37Zm-1.95-2a2.28,2.28,0,0,0,.75-.62,2.77,2.77,0,0,0,.48-.9,3.89,3.89,0,0,0,.19-1.06,4.59,4.59,0,0,0-.09-1.07,3.08,3.08,0,0,0-.37-1,2.23,2.23,0,0,0-.69-.73,2,2,0,0,0-1.06-.31,2.12,2.12,0,0,0-1.09.22,2.3,2.3,0,0,0-.77.65,2.81,2.81,0,0,0-.46.94,4.5,4.5,0,0,0-.18,1.09,4,4,0,0,0,.1,1.07,2.75,2.75,0,0,0,.4.93,2.25,2.25,0,0,0,.72.67,2.19,2.19,0,0,0,1.05.29A2,2,0,0,0,307.42,135.37Z"/><path class="cls-15" d="M311.83,135.12l1.17,0-.06,1.48-1.17,0Z"/></g><g class="cls-14"><path class="cls-15" d="M123,272.61l6.09,8.27h0l-.26-8.45,1,0,.31,10-1.06,0-6.09-8.27h0l.26,8.45-1,0-.31-10Z"/><path class="cls-15" d="M136.2,275.07a3.19,3.19,0,0,1,1.1.79,3.58,3.58,0,0,1,.7,1.19,5,5,0,0,1,.09,3,3.58,3.58,0,0,1-.62,1.23,3.1,3.1,0,0,1-1,.85,3.71,3.71,0,0,1-2.92.09,3.11,3.11,0,0,1-1.1-.79,3.58,3.58,0,0,1-.7-1.19,5,5,0,0,1-.09-3,3.58,3.58,0,0,1,.62-1.23,3.2,3.2,0,0,1,1-.86,3.63,3.63,0,0,1,2.92-.09Zm-2.55.78a2.43,2.43,0,0,0-.77.72,3.17,3.17,0,0,0-.45,1,4,4,0,0,0,.07,2.25,3.18,3.18,0,0,0,.51,1,2.43,2.43,0,0,0,.81.67,2.43,2.43,0,0,0,2.21-.07,2.42,2.42,0,0,0,.77-.72,3.19,3.19,0,0,0,.44-1,4,4,0,0,0-.07-2.25,3.2,3.2,0,0,0-.51-1,2.43,2.43,0,0,0-.81-.67,2.43,2.43,0,0,0-2.21.07Z"/><path class="cls-15" d="M143.56,274.74l2,6.13h0l1.57-6.24,1,0,2,6.13h0l1.65-6.24.94,0-2.1,7.29-1,0-2-6h0l-1.57,6.13-1,0-2.55-7.15Z"/><path class="cls-15" d="M153.94,275.54a2.06,2.06,0,0,1,.58-.77,2.58,2.58,0,0,1,.89-.46,4.41,4.41,0,0,1,1.14-.18,5.1,5.1,0,0,1,1,.06,2.29,2.29,0,0,1,.86.32,1.86,1.86,0,0,1,.64.69,2.55,2.55,0,0,1,.28,1.18l.12,3.83a.46.46,0,0,0,.54.52.69.69,0,0,0,.28-.06l0,.74-.27.05-.3,0a1.34,1.34,0,0,1-.54-.07.72.72,0,0,1-.32-.25,1,1,0,0,1-.16-.39,3.33,3.33,0,0,1-.05-.51h0a5.69,5.69,0,0,1-.46.64,2.32,2.32,0,0,1-.53.47,2.52,2.52,0,0,1-.68.3,3.82,3.82,0,0,1-.91.13,3.64,3.64,0,0,1-.95-.09,2.11,2.11,0,0,1-.78-.35,1.8,1.8,0,0,1-.54-.64,2.17,2.17,0,0,1-.22-.94,1.86,1.86,0,0,1,.3-1.19,2.11,2.11,0,0,1,.87-.68,5.06,5.06,0,0,1,1.24-.35l1.4-.22.49-.08a.87.87,0,0,0,.34-.16.68.68,0,0,0,.21-.29,1.24,1.24,0,0,0,.06-.48,1.63,1.63,0,0,0-.17-.73,1.17,1.17,0,0,0-.42-.44,1.65,1.65,0,0,0-.61-.21,4.09,4.09,0,0,0-.74,0,2.22,2.22,0,0,0-1.36.44,1.56,1.56,0,0,0-.52,1.3l-.88,0A2.94,2.94,0,0,1,153.94,275.54Zm4.47,2a.5.5,0,0,1-.31.23l-.42.11-1.15.21a6.39,6.39,0,0,0-1.08.26,2.13,2.13,0,0,0-.79.47,1.05,1.05,0,0,0-.29.83,1.27,1.27,0,0,0,.15.59,1.45,1.45,0,0,0,.37.44,1.54,1.54,0,0,0,.53.27,1.87,1.87,0,0,0,.61.08,3,3,0,0,0,1-.18,2.38,2.38,0,0,0,.79-.47,2.13,2.13,0,0,0,.7-1.69l0-1.15Z"/><path class="cls-15" d="M161.11,274.19l2.57,6.08,2-6.23.88,0-2.87,8.41a7.9,7.9,0,0,1-.34.77,1.75,1.75,0,0,1-.36.49,1.24,1.24,0,0,1-.47.27,2.64,2.64,0,0,1-.69.1h-.41a.85.85,0,0,1-.26,0l0-.74.3,0h.3a1.2,1.2,0,0,0,.48-.1,1,1,0,0,0,.32-.24,1.32,1.32,0,0,0,.23-.36l.2-.47.28-.82-3.11-7.1Z"/><path class="cls-15" d="M166.88,279.75l1.18,0,0,1.48-1.18,0Z"/><path class="cls-15" d="M175.06,271l.31,10-1,0-.31-10Z"/><path class="cls-15" d="M178.74,272.36a2.49,2.49,0,0,1-.06.61,2.13,2.13,0,0,1-.21.57,1.81,1.81,0,0,1-.37.47,1.37,1.37,0,0,1-.54.3l0-.6a.65.65,0,0,0,.3-.21,1.35,1.35,0,0,0,.2-.35,1.85,1.85,0,0,0,.11-.4,1.42,1.42,0,0,0,0-.37l-.59,0,0-1.48,1.18,0Z"/><path class="cls-15" d="M181.76,273.55l0,1.22h0a2.77,2.77,0,0,1,.88-1.08,2.56,2.56,0,0,1,1.44-.42,2.46,2.46,0,0,1,1.31.31,1.71,1.71,0,0,1,.81,1,2.22,2.22,0,0,1,.92-1.09,2.73,2.73,0,0,1,1.33-.39q2.39-.07,2.47,2.46l.15,4.9-.88,0-.15-4.86a2.13,2.13,0,0,0-.42-1.35,1.62,1.62,0,0,0-1.34-.43,1.89,1.89,0,0,0-.94.25,1.67,1.67,0,0,0-.58.6,2.49,2.49,0,0,0-.29.84,5.07,5.07,0,0,0-.06,1l.13,4.09-.88,0-.15-4.9a3.07,3.07,0,0,0-.1-.69,1.6,1.6,0,0,0-.27-.57,1.19,1.19,0,0,0-.48-.37A1.67,1.67,0,0,0,184,274a2.19,2.19,0,0,0-1,.23,1.79,1.79,0,0,0-.65.58,2.48,2.48,0,0,0-.36.85,4.23,4.23,0,0,0-.09,1.06l.13,4-.88,0-.23-7.22Z"/><path class="cls-15" d="M196.72,274.2a2.07,2.07,0,0,1,.59-.77,2.58,2.58,0,0,1,.89-.46,4.41,4.41,0,0,1,1.14-.18,5,5,0,0,1,1,.06,2.31,2.31,0,0,1,.86.32,1.86,1.86,0,0,1,.64.69,2.53,2.53,0,0,1,.28,1.18l.12,3.83a.46.46,0,0,0,.53.52.69.69,0,0,0,.28-.06l0,.74-.27.05-.3,0a1.34,1.34,0,0,1-.54-.07.72.72,0,0,1-.32-.25,1,1,0,0,1-.16-.39,3.35,3.35,0,0,1-.05-.51h0a5.83,5.83,0,0,1-.46.64,2.35,2.35,0,0,1-.53.47,2.47,2.47,0,0,1-.68.3,3.76,3.76,0,0,1-.91.13,3.65,3.65,0,0,1-.95-.09A2.12,2.12,0,0,1,197,280a1.8,1.8,0,0,1-.54-.64,2.18,2.18,0,0,1-.22-.94,1.87,1.87,0,0,1,.3-1.19,2.11,2.11,0,0,1,.87-.68,5.06,5.06,0,0,1,1.24-.35l1.4-.22.49-.09a.86.86,0,0,0,.34-.16.68.68,0,0,0,.21-.29,1.22,1.22,0,0,0,.06-.48,1.61,1.61,0,0,0-.17-.73,1.16,1.16,0,0,0-.42-.44,1.63,1.63,0,0,0-.61-.21,4,4,0,0,0-.74,0,2.23,2.23,0,0,0-1.36.44,1.56,1.56,0,0,0-.52,1.3l-.88,0A3,3,0,0,1,196.72,274.2Zm4.48,2a.51.51,0,0,1-.31.23l-.42.11-1.15.21a6.39,6.39,0,0,0-1.08.26,2.12,2.12,0,0,0-.79.47,1,1,0,0,0-.29.83,1.28,1.28,0,0,0,.15.59,1.47,1.47,0,0,0,.37.44,1.55,1.55,0,0,0,.53.27,1.89,1.89,0,0,0,.6.08,3,3,0,0,0,1-.18,2.4,2.4,0,0,0,.79-.47,2.14,2.14,0,0,0,.7-1.69l0-1.15Z"/><path class="cls-15" d="M207.86,272.73l2,6.13h0l1.57-6.24,1,0,2,6.13h0l1.65-6.24.94,0-2.1,7.29-1,0-2-6h0l-1.57,6.13-1,0-2.55-7.15Z"/><path class="cls-15" d="M222.54,272.37a3.19,3.19,0,0,1,1.1.79,3.56,3.56,0,0,1,.7,1.19,5,5,0,0,1,.09,3,3.57,3.57,0,0,1-.62,1.23,3.12,3.12,0,0,1-1,.85,3.71,3.71,0,0,1-2.92.09,3.11,3.11,0,0,1-1.1-.79,3.56,3.56,0,0,1-.7-1.19,5,5,0,0,1-.09-3,3.57,3.57,0,0,1,.62-1.23,3.19,3.19,0,0,1,1-.86,3.63,3.63,0,0,1,2.92-.09Zm-2.55.78a2.43,2.43,0,0,0-.77.72,3.17,3.17,0,0,0-.45,1,4.06,4.06,0,0,0,.07,2.25,3.18,3.18,0,0,0,.51,1,2.44,2.44,0,0,0,.81.68,2.44,2.44,0,0,0,2.21-.07,2.41,2.41,0,0,0,.77-.72,3.18,3.18,0,0,0,.44-1,4,4,0,0,0-.07-2.25,3.2,3.2,0,0,0-.51-1,2.42,2.42,0,0,0-.81-.67,2.43,2.43,0,0,0-2.21.07Z"/><path class="cls-15" d="M226.61,272.14l0,1.22h0a2.77,2.77,0,0,1,.88-1.08,2.55,2.55,0,0,1,1.44-.42,2.46,2.46,0,0,1,1.31.31,1.71,1.71,0,0,1,.81,1,2.22,2.22,0,0,1,.92-1.09,2.73,2.73,0,0,1,1.33-.39q2.39-.07,2.47,2.46l.15,4.9-.88,0-.15-4.86a2.13,2.13,0,0,0-.42-1.35,1.62,1.62,0,0,0-1.34-.43,1.89,1.89,0,0,0-.94.25,1.67,1.67,0,0,0-.58.6,2.49,2.49,0,0,0-.29.84,5.07,5.07,0,0,0-.06,1l.13,4.09-.88,0-.15-4.9a3.07,3.07,0,0,0-.1-.69,1.62,1.62,0,0,0-.27-.57,1.2,1.2,0,0,0-.48-.37,1.66,1.66,0,0,0-.72-.12,2.19,2.19,0,0,0-1,.23,1.79,1.79,0,0,0-.65.58,2.48,2.48,0,0,0-.36.85,4.23,4.23,0,0,0-.09,1.06l.13,4-.88,0-.23-7.22Z"/><path class="cls-15" d="M237.67,272.92a2.06,2.06,0,0,1,.58-.77,2.59,2.59,0,0,1,.89-.46,4.41,4.41,0,0,1,1.14-.18,5,5,0,0,1,1,.06,2.29,2.29,0,0,1,.86.32,1.87,1.87,0,0,1,.64.69,2.55,2.55,0,0,1,.28,1.18l.12,3.83a.46.46,0,0,0,.54.52A.69.69,0,0,0,244,278l0,.74-.27.05-.3,0a1.34,1.34,0,0,1-.54-.07.72.72,0,0,1-.32-.25,1,1,0,0,1-.16-.39,3.35,3.35,0,0,1-.05-.51h0a5.83,5.83,0,0,1-.46.64,2.33,2.33,0,0,1-.53.47,2.5,2.5,0,0,1-.68.3,3.8,3.8,0,0,1-.91.13,3.65,3.65,0,0,1-.95-.09,2.13,2.13,0,0,1-.78-.35,1.79,1.79,0,0,1-.54-.64,2.17,2.17,0,0,1-.22-.94,1.87,1.87,0,0,1,.3-1.19,2.12,2.12,0,0,1,.87-.68,5.08,5.08,0,0,1,1.24-.35l1.4-.22.49-.09a.86.86,0,0,0,.34-.16.67.67,0,0,0,.21-.29,1.22,1.22,0,0,0,.06-.48,1.62,1.62,0,0,0-.17-.73,1.17,1.17,0,0,0-.42-.44,1.64,1.64,0,0,0-.61-.21,4,4,0,0,0-.74,0,2.23,2.23,0,0,0-1.36.44,1.56,1.56,0,0,0-.52,1.3l-.88,0A2.94,2.94,0,0,1,237.67,272.92Zm4.47,2a.5.5,0,0,1-.31.23l-.42.11-1.15.21a6.34,6.34,0,0,0-1.08.27,2.12,2.12,0,0,0-.79.47,1.05,1.05,0,0,0-.29.83,1.26,1.26,0,0,0,.15.59,1.43,1.43,0,0,0,.37.44,1.54,1.54,0,0,0,.53.27,1.89,1.89,0,0,0,.61.08,3,3,0,0,0,1-.18,2.39,2.39,0,0,0,.79-.47,2.13,2.13,0,0,0,.7-1.69l0-1.15Z"/><path class="cls-15" d="M245.59,271.55l0,1.25h0a2.12,2.12,0,0,1,.86-1.08,2.63,2.63,0,0,1,1.4-.44,3.57,3.57,0,0,1,1.27.16,2,2,0,0,1,.84.53,2.07,2.07,0,0,1,.46.86,4.93,4.93,0,0,1,.16,1.16l.15,4.65-.88,0-.14-4.51a4.26,4.26,0,0,0-.11-.86,1.8,1.8,0,0,0-.32-.68,1.42,1.42,0,0,0-.58-.44,2.08,2.08,0,0,0-.9-.14,2.25,2.25,0,0,0-.94.22,2,2,0,0,0-.68.54,2.39,2.39,0,0,0-.42.8,3.17,3.17,0,0,0-.14,1l.13,4.21-.88,0-.23-7.22Z"/><path class="cls-15" d="M147.24,284.86l.14,4.34,5.93-.19-.14-4.34,1,0,.31,10-1,0-.15-4.84-5.93.19.15,4.84-1,0-.31-10Z"/><path class="cls-15" d="M156.87,292.17a2.68,2.68,0,0,0,.46.9,2.43,2.43,0,0,0,.76.65,2.08,2.08,0,0,0,1.09.23,2.14,2.14,0,0,0,1.49-.55,2.65,2.65,0,0,0,.71-1.37l.88,0a3.52,3.52,0,0,1-1,1.93,3.07,3.07,0,0,1-2.1.74,3.37,3.37,0,0,1-1.49-.25,2.73,2.73,0,0,1-1-.79,3.57,3.57,0,0,1-.62-1.2,5.49,5.49,0,0,1-.24-1.46,5.21,5.21,0,0,1,.15-1.4,3.74,3.74,0,0,1,.54-1.24,2.92,2.92,0,0,1,1-.9,3.12,3.12,0,0,1,1.47-.38,2.86,2.86,0,0,1,2.52,1.19,3.78,3.78,0,0,1,.59,1.28,5.78,5.78,0,0,1,.19,1.49l-5.56.17A3.88,3.88,0,0,0,156.87,292.17Zm4.28-2.83a2.65,2.65,0,0,0-.48-.8,2.26,2.26,0,0,0-.73-.55,2,2,0,0,0-1-.19,2.07,2.07,0,0,0-1,.25,2.27,2.27,0,0,0-.7.6,2.9,2.9,0,0,0-.44.84,4.1,4.1,0,0,0-.2,1l4.67-.15A3.22,3.22,0,0,0,161.15,289.34Z"/><path class="cls-15" d="M163.54,288.24a2.07,2.07,0,0,1,.58-.77A2.59,2.59,0,0,1,165,287a4.4,4.4,0,0,1,1.14-.18,5,5,0,0,1,1,.06,2.3,2.3,0,0,1,.86.32,1.86,1.86,0,0,1,.64.69,2.56,2.56,0,0,1,.28,1.18l.12,3.83a.46.46,0,0,0,.53.52.69.69,0,0,0,.28-.06l0,.74-.27.05-.3,0a1.33,1.33,0,0,1-.54-.07.71.71,0,0,1-.32-.25.94.94,0,0,1-.16-.39,3.35,3.35,0,0,1-.05-.51h0a5.79,5.79,0,0,1-.46.64,2.41,2.41,0,0,1-.53.47,2.49,2.49,0,0,1-.68.3,3.76,3.76,0,0,1-.91.13,3.62,3.62,0,0,1-.95-.09,2.11,2.11,0,0,1-.78-.35,1.81,1.81,0,0,1-.54-.64,2.18,2.18,0,0,1-.22-.94,1.86,1.86,0,0,1,.3-1.19,2.1,2.1,0,0,1,.87-.68,5.06,5.06,0,0,1,1.24-.35l1.4-.22.49-.09a.86.86,0,0,0,.34-.16.68.68,0,0,0,.21-.29A1.23,1.23,0,0,0,168,289a1.6,1.6,0,0,0-.17-.73,1.17,1.17,0,0,0-.42-.44,1.65,1.65,0,0,0-.61-.21,4,4,0,0,0-.74,0,2.23,2.23,0,0,0-1.36.44,1.56,1.56,0,0,0-.52,1.3l-.88,0A2.92,2.92,0,0,1,163.54,288.24Zm4.47,2a.5.5,0,0,1-.31.23l-.42.11-1.15.21a6.44,6.44,0,0,0-1.08.26,2.14,2.14,0,0,0-.79.47,1.06,1.06,0,0,0-.29.83,1.28,1.28,0,0,0,.15.59,1.42,1.42,0,0,0,.37.44,1.53,1.53,0,0,0,.53.27,1.9,1.9,0,0,0,.6.08,3,3,0,0,0,1-.18,2.36,2.36,0,0,0,.79-.47,2.18,2.18,0,0,0,.52-.73,2.15,2.15,0,0,0,.17-1l0-1.15Z"/><path class="cls-15" d="M171.4,286.88l.05,1.69h0a2.78,2.78,0,0,1,1-1.39,2.73,2.73,0,0,1,1.67-.49l0,.88a2.67,2.67,0,0,0-1.09.19,2.41,2.41,0,0,0-1.36,1.42,2.8,2.8,0,0,0-.16,1.06l.12,3.85-.88,0-.23-7.22Z"/><path class="cls-15" d="M179.7,286.62l0,1.22h0a2.75,2.75,0,0,1,.88-1.08,2.56,2.56,0,0,1,1.44-.42,2.47,2.47,0,0,1,1.31.31,1.72,1.72,0,0,1,.81,1,2.22,2.22,0,0,1,.92-1.09,2.73,2.73,0,0,1,1.33-.39q2.39-.07,2.47,2.46l.15,4.9-.88,0-.15-4.86a2.13,2.13,0,0,0-.42-1.35,1.62,1.62,0,0,0-1.34-.43,1.89,1.89,0,0,0-.95.25,1.67,1.67,0,0,0-.58.6,2.47,2.47,0,0,0-.29.84,5.15,5.15,0,0,0-.06,1l.13,4.09-.88,0-.15-4.9a3.07,3.07,0,0,0-.1-.69,1.61,1.61,0,0,0-.27-.57,1.17,1.17,0,0,0-.48-.37,1.64,1.64,0,0,0-.72-.12,2.19,2.19,0,0,0-1,.23,1.79,1.79,0,0,0-.65.58,2.5,2.5,0,0,0-.36.85,4.19,4.19,0,0,0-.09,1.06l.13,4-.88,0-.23-7.22Z"/><path class="cls-15" d="M191.34,291.09a2.7,2.7,0,0,0,.46.9,2.44,2.44,0,0,0,.76.65,2.08,2.08,0,0,0,1.09.23,2.14,2.14,0,0,0,1.49-.55,2.65,2.65,0,0,0,.71-1.37l.88,0a3.52,3.52,0,0,1-1,1.93,3.07,3.07,0,0,1-2.1.74,3.37,3.37,0,0,1-1.49-.25,2.72,2.72,0,0,1-1-.79,3.58,3.58,0,0,1-.62-1.2,5.5,5.5,0,0,1-.24-1.46,5.21,5.21,0,0,1,.15-1.4,3.76,3.76,0,0,1,.54-1.24,2.92,2.92,0,0,1,1-.9,3.12,3.12,0,0,1,1.47-.38,2.85,2.85,0,0,1,2.52,1.19,3.78,3.78,0,0,1,.59,1.28,5.73,5.73,0,0,1,.19,1.49l-5.56.17A3.88,3.88,0,0,0,191.34,291.09Zm4.28-2.83a2.67,2.67,0,0,0-.48-.8,2.26,2.26,0,0,0-.73-.55,2,2,0,0,0-1-.19,2.07,2.07,0,0,0-1,.25,2.26,2.26,0,0,0-.7.6,2.88,2.88,0,0,0-.44.84,4.06,4.06,0,0,0-.2,1l4.67-.15A3.21,3.21,0,0,0,195.62,288.26Z"/><path class="cls-15" d="M202.5,285.9l.05,1.69h0a2.78,2.78,0,0,1,1-1.39,2.73,2.73,0,0,1,1.67-.49l0,.88a2.66,2.66,0,0,0-1.09.2,2.41,2.41,0,0,0-1.36,1.41,2.8,2.8,0,0,0-.16,1.06l.12,3.85-.88,0-.23-7.22Z"/><path class="cls-15" d="M210.36,285.75a3.19,3.19,0,0,1,1.1.79,3.58,3.58,0,0,1,.7,1.19,5,5,0,0,1,.09,3,3.58,3.58,0,0,1-.62,1.23,3.11,3.11,0,0,1-1,.85,3.71,3.71,0,0,1-2.93.09,3.12,3.12,0,0,1-1.1-.79,3.57,3.57,0,0,1-.7-1.19,5,5,0,0,1-.09-3,3.56,3.56,0,0,1,.62-1.23,3.19,3.19,0,0,1,1-.86,3.63,3.63,0,0,1,2.93-.09Zm-2.54.78a2.39,2.39,0,0,0-.77.72,3.18,3.18,0,0,0-.45,1,4,4,0,0,0,.07,2.25,3.17,3.17,0,0,0,.51,1,2.41,2.41,0,0,0,.81.68,2.44,2.44,0,0,0,2.21-.07,2.44,2.44,0,0,0,.77-.73,3.18,3.18,0,0,0,.44-1,4,4,0,0,0-.07-2.25,3.21,3.21,0,0,0-.51-1,2.45,2.45,0,0,0-.81-.67,2.42,2.42,0,0,0-2.21.07Z"/><path class="cls-15" d="M213.85,286.67a2,2,0,0,1,.58-.77,2.58,2.58,0,0,1,.89-.46,4.4,4.4,0,0,1,1.14-.18,5,5,0,0,1,1,.06,2.29,2.29,0,0,1,.87.32,1.86,1.86,0,0,1,.64.69,2.56,2.56,0,0,1,.28,1.18l.12,3.83a.46.46,0,0,0,.53.52.69.69,0,0,0,.28-.06l0,.74-.27.05-.3,0a1.32,1.32,0,0,1-.54-.07.71.71,0,0,1-.32-.25.94.94,0,0,1-.16-.39,3.35,3.35,0,0,1-.05-.51h0a5.62,5.62,0,0,1-.46.64,2.37,2.37,0,0,1-.53.47,2.49,2.49,0,0,1-.68.3,3.78,3.78,0,0,1-.91.13,3.62,3.62,0,0,1-.95-.09,2.1,2.1,0,0,1-.78-.35,1.81,1.81,0,0,1-.54-.64,2.18,2.18,0,0,1-.22-.94,1.86,1.86,0,0,1,.3-1.19,2.1,2.1,0,0,1,.87-.68,5.06,5.06,0,0,1,1.24-.35l1.4-.22.49-.09a.86.86,0,0,0,.34-.16.68.68,0,0,0,.21-.29,1.23,1.23,0,0,0,.06-.48,1.61,1.61,0,0,0-.17-.73,1.17,1.17,0,0,0-.42-.44,1.64,1.64,0,0,0-.61-.21,4,4,0,0,0-.74,0,2.23,2.23,0,0,0-1.36.44,1.56,1.56,0,0,0-.52,1.3l-.88,0A2.92,2.92,0,0,1,213.85,286.67Zm4.47,2a.5.5,0,0,1-.31.23l-.42.11-1.15.21a6.44,6.44,0,0,0-1.08.26,2.14,2.14,0,0,0-.79.47,1.06,1.06,0,0,0-.29.83,1.28,1.28,0,0,0,.15.59,1.42,1.42,0,0,0,.37.44,1.53,1.53,0,0,0,.52.27,1.91,1.91,0,0,0,.61.08,3,3,0,0,0,1-.18,2.36,2.36,0,0,0,.79-.47,2.18,2.18,0,0,0,.52-.73,2.15,2.15,0,0,0,.17-1l0-1.15Z"/><path class="cls-15" d="M221.7,285.3l.05,1.69h0a2.78,2.78,0,0,1,1-1.39,2.73,2.73,0,0,1,1.67-.49l0,.88a2.66,2.66,0,0,0-1.09.19,2.41,2.41,0,0,0-1.36,1.42,2.8,2.8,0,0,0-.16,1.06l.12,3.85-.88,0-.23-7.22Z"/><path class="cls-15" d="M225.59,282.41l1,0,.09,3-.07,4.53-.53,0-.35-4.51Zm.15,8.51,1.18,0,0,1.48-1.18,0Z"/></g></svg>