<svg xmlns="http://www.w3.org/2000/svg" xmlns:xlink="http://www.w3.org/1999/xlink" viewBox="0 0 360 360"><defs><style>.cls-1,.cls-7{fill:none;}.cls-2{clip-path:url(#clip-path);}.cls-3{fill:#f19c35;}.cls-4{opacity:0.5;}.cls-5{clip-path:url(#clip-path-3);}.cls-6{fill:#fff;}.cls-7{stroke:#fff;stroke-width:0.56px;}.cls-8{font-size:18px;fill:#221f1f;font-family:HelveticaNeue-Bold, Helvetica Neue;font-weight:700;}.cls-9{fill:#f27649;}.cls-10,.cls-12{opacity:0.58;}.cls-11,.cls-12{fill:#fef5f3;}.cls-12{font-size:14px;font-family:HelveticaNeue-Light, Helvetica Neue;}</style><clipPath id="clip-path"><rect class="cls-1" x="55.15" y="56.26" width="248.29" height="248.29"/></clipPath><clipPath id="clip-path-3"><rect class="cls-1" x="59.1" y="170.68" width="130.36" height="120.52"/></clipPath></defs><title>questions_female</title><g id="Layer_6" data-name="Layer 6"><g class="cls-2"><g class="cls-2"><path class="cls-3" d="M179.29,304.54A124.14,124.14,0,1,0,55.15,180.4,124.14,124.14,0,0,0,179.29,304.54"/><g class="cls-4"><g class="cls-5"><path class="cls-6" d="M68.36,235.39c12.53,30.67,45.61,48.7,41.9,48.53l70-112.09"/><path class="cls-7" d="M68.36,235.39c12.53,30.67,45.61,48.7,41.9,48.53l70-112.09"/></g></g></g></g><text class="cls-8" transform="translate(117.86 184.63)">Heels or flats?</text><polygon class="cls-9" points="209.47 256.7 261.62 238.43 310.01 255.63 280.98 274.99 217.54 267.46 209.47 256.7"/><polygon class="cls-9" points="61.48 79.29 115.24 79.29 140.17 94.93 146.03 116.92 42.9 112.03 51.21 95.42 61.48 79.29"/><g class="cls-10"><path class="cls-11" d="M74.79,91.19l-.37,4.32,5.92.5.37-4.32.95.08-.85,10-.95-.08.41-4.83-5.92-.5-.41,4.83-.95-.08.85-10Z"/><path class="cls-11" d="M83.5,99.57a2.67,2.67,0,0,0,.35.95,2.43,2.43,0,0,0,.68.73,2.07,2.07,0,0,0,1.05.36,2.14,2.14,0,0,0,1.55-.37A2.65,2.65,0,0,0,88,100l.88.07a3.53,3.53,0,0,1-1.19,1.81,3.07,3.07,0,0,1-2.17.49,3.36,3.36,0,0,1-1.45-.43,2.71,2.71,0,0,1-.94-.91,3.56,3.56,0,0,1-.48-1.26,5.53,5.53,0,0,1-.07-1.47,5.22,5.22,0,0,1,.31-1.38,3.75,3.75,0,0,1,.68-1.17,2.91,2.91,0,0,1,1.08-.78,3.12,3.12,0,0,1,1.5-.2,2.86,2.86,0,0,1,2.37,1.47A3.82,3.82,0,0,1,89,97.55a5.74,5.74,0,0,1,0,1.5l-5.54-.47A3.89,3.89,0,0,0,83.5,99.57Zm4.58-2.31a2.64,2.64,0,0,0-.38-.85,2.24,2.24,0,0,0-.66-.63,2,2,0,0,0-.93-.3,2.08,2.08,0,0,0-1,.13,2.27,2.27,0,0,0-.76.51,2.91,2.91,0,0,0-.54.78,4.15,4.15,0,0,0-.31.94l4.66.4A3.21,3.21,0,0,0,88.08,97.26Z"/><path class="cls-11" d="M90.74,100.19a2.69,2.69,0,0,0,.35.95,2.44,2.44,0,0,0,.68.73,2.07,2.07,0,0,0,1.05.36,2.14,2.14,0,0,0,1.55-.37,2.65,2.65,0,0,0,.87-1.27l.88.07a3.52,3.52,0,0,1-1.19,1.81,3.07,3.07,0,0,1-2.17.49,3.37,3.37,0,0,1-1.45-.42,2.72,2.72,0,0,1-.94-.91,3.59,3.59,0,0,1-.48-1.26,5.54,5.54,0,0,1-.07-1.47,5.21,5.21,0,0,1,.31-1.38,3.77,3.77,0,0,1,.68-1.17,2.91,2.91,0,0,1,1.08-.78,3.12,3.12,0,0,1,1.5-.2,2.86,2.86,0,0,1,2.37,1.47,3.82,3.82,0,0,1,.44,1.34,5.78,5.78,0,0,1,0,1.5l-5.54-.47A3.88,3.88,0,0,0,90.74,100.19Zm4.58-2.31a2.66,2.66,0,0,0-.38-.85,2.26,2.26,0,0,0-.66-.63,2,2,0,0,0-.93-.3,2.08,2.08,0,0,0-1,.13,2.28,2.28,0,0,0-.76.51,2.94,2.94,0,0,0-.54.78,4.15,4.15,0,0,0-.31.94l4.66.4A3.22,3.22,0,0,0,95.32,97.88Z"/><path class="cls-11" d="M98.87,93.25l-.85,10-.88-.07.85-10Z"/><path class="cls-11" d="M104.34,97.91a1.42,1.42,0,0,0-.37-.53,1.72,1.72,0,0,0-.57-.34,2.71,2.71,0,0,0-.7-.15,2.88,2.88,0,0,0-.6,0,1.81,1.81,0,0,0-.57.16,1.21,1.21,0,0,0-.44.35,1.07,1.07,0,0,0-.2.57.83.83,0,0,0,.1.51,1.33,1.33,0,0,0,.34.37,2.36,2.36,0,0,0,.47.27l.48.19,1.15.37a3.34,3.34,0,0,1,.73.27,2.39,2.39,0,0,1,.62.44,1.89,1.89,0,0,1,.42.63,1.75,1.75,0,0,1,.11.84,1.81,1.81,0,0,1-.35,1,2.18,2.18,0,0,1-.73.61,2.89,2.89,0,0,1-1,.29,4.86,4.86,0,0,1-1,0,3.32,3.32,0,0,1-2-.78,2.57,2.57,0,0,1-.74-2l.88.07a1.74,1.74,0,0,0,.53,1.4,2.36,2.36,0,0,0,1.43.58,3.29,3.29,0,0,0,.67,0,2.14,2.14,0,0,0,.66-.18,1.52,1.52,0,0,0,.52-.38,1,1,0,0,0,.24-.62,1,1,0,0,0-.09-.55,1.15,1.15,0,0,0-.32-.39,2.25,2.25,0,0,0-.49-.29c-.18-.08-.37-.15-.56-.22l-1.11-.35a6.23,6.23,0,0,1-.77-.33,2.51,2.51,0,0,1-.6-.42,1.5,1.5,0,0,1-.38-.57A1.77,1.77,0,0,1,100,98a1.75,1.75,0,0,1,.32-.91,1.93,1.93,0,0,1,.69-.57,3,3,0,0,1,.9-.27,4.26,4.26,0,0,1,1,0,3.53,3.53,0,0,1,1,.23,2.33,2.33,0,0,1,.79.5,2.12,2.12,0,0,1,.5.77,2.62,2.62,0,0,1,.15,1l-.88-.07A1.66,1.66,0,0,0,104.34,97.91Z"/></g><text class="cls-12" transform="translate(245.11 263.31) rotate(-4.09)">Flats</text></g></svg>