<svg xmlns="http://www.w3.org/2000/svg" viewBox="0 0 360 360"><defs><style>.cls-1,.cls-2,.cls-3,.cls-4,.cls-5{fill:none;stroke:#f25252;}.cls-1,.cls-2,.cls-4,.cls-5{stroke-miterlimit:10;}.cls-1{stroke-width:0.55px;}.cls-2{stroke-width:0.43px;}.cls-3{stroke-linecap:round;stroke-linejoin:round;stroke-width:0.37px;}.cls-4{stroke-width:0.57px;}.cls-5{stroke-width:0.29px;}.cls-6{font-size:20px;fill:#f25252;font-family:HelveticaNeue-Bold, Helvetica Neue;font-weight:700;}.cls-7{letter-spacing:-0.11em;}.cls-8{letter-spacing:-0.02em;}.cls-9{letter-spacing:-0.09em;}.cls-10{font-size:12px;font-family:HelveticaNeue-Light, Helvetica Neue;}.cls-11{letter-spacing:-0.02em;}</style></defs><title>questions_female</title><g id="triple_a" data-name="triple a"><path class="cls-1" d="M75.85,143.33s.36,11.25-.36,13.31-1.55,9.62-1.55,9.62"/><path class="cls-1" d="M62.14,154.63c-1.32-3.3-2.46-6.17-3.61-9.6-6.3-13.17-14.32-24.63-18.9-38.38a13.44,13.44,0,0,1,.21-2.9c-1.44.92-1.33,1.85,0,0-4.8,2.9-8.23,8.05-14,9.2a16.73,16.73,0,0,0-5.16,1.15c-3.44,1.72-4,6.3-5.16,9.74-7.45,13.17-8.59,28.64-8,43,0,1.72.57,3.44,2.29,4,10.88,3.44,22.34,3.44,33.22,2.29,5.16,0,9.74-1.15,15-1.57-.09-2.13-.27,0,0,0a88.71,88.71,0,0,0-1.87-16.18c-10.31,4-21.77,5.73-32.25,2.51.41-1.15,3.68.79,0,0a23.62,23.62,0,0,0,.17-3.08c5.16-9.74,6.3-20.62,5.39-30.68"/><path class="cls-1" d="M24.58,173c-2.14,9.86-4.43,19.6-6.15,29.34,0,1.72-.57,3.44.57,5.16a4.34,4.34,0,0,0,2.29,1.15c9.74.57,19.48.57,29.21,2.29C57.38,212.05,62,206.32,62,200c0-10.31,1.15-20.62.74-30.69"/><path class="cls-1" d="M33.18,109.44s1.33,6.66,1.69,6.9,2.42.61,3.87,1.21-3.15.61-4,.24,11.86,18,16.82,23.48a167.41,167.41,0,0,1,10.53,13.31"/><path class="cls-1" d="M62.81,169.39c.31,12.3-2,24.33-.27,36.36,2.86,6.3,10.88,4,15.47,1.15a4.34,4.34,0,0,0,1.15-2.29c-.57-3.44-1.15-6.3-1.72-9.74-1.15-8.59-1.72-16.61-3.35-25.16"/><path class="cls-1" d="M53.18,135s5.73,6.25,13-.87"/><path class="cls-2" d="M40.16,106.58S41.37,99.46,41,97s.56-1.22.56-1.22,2.36,5.79,5.29,7.37"/><path class="cls-2" d="M62.48,100.53s.43-4.29,1.07-5.44a14.06,14.06,0,0,0,.79-6.51c-.29-2-.5-10.16-1.29-12"/><path class="cls-3" d="M33.65,106.68a2.27,2.27,0,0,1-1.57-3.22c1.07-2.5-2.15-1.43-.64-4.51s.43-3.51.14-3.51-.5,3.15-2.36,2.93S26,96.52,27.78,96.09s1.14,1.5,2.36,0A4.61,4.61,0,0,0,31,91.59c-.5-1.07-.86.07-1.79-1.29s1.72-5.72,3.43-6.08-3.93-6.87-3.15-7.8a3,3,0,0,1,2.72-2.58s2.29-4.22,4.58-2.43c0,0,.64.07,1.22-1,0,0,2.15-2.86,3-3.08S43.52,66.26,44,67c0,0,.72-1.36,1.5-1.36s1.5-.93,2-.72a1.77,1.77,0,0,1,2.43-.5s.93-.79,1.65-.43c0,0,2.22-2.36,4.22.64,0,0,.93,1.65,1.57,1.57,0,0,1.93-.86,2.29.86,0,0,1-.07,3.36,2.29s4.79,1.22,4.79,4.36-.36,3.86,2.36,3.79c0,0-.64,4.36-3.15,2.5s-1.5-6.87-6.15-6.51-2.36-4.79-14.67,1.57c0,0,1.14,2.86.64,4.08s-5.58,2.79-5.29,5.94a14.8,14.8,0,0,0,.72,4.08"/><path class="cls-1" d="M76.53,207.32s2.61,24.07-.93,46.46c0,0,1.49,38.44-.56,39.74,0,0-14.93.56-14.93-.19,0,0-3.17-32.47-2.61-35.08s-.93-6-1.49-8-6.19-31.73-5.71-35.92c1-8.49-6.06,46.07-6.06,46.07.81,3.23.2,33.74-.4,34.75s-14.35,0-14.35,0c-1.41-3-.4-32.73-1.21-35.56s-4-19.4-4-19.4C19.79,224.81,21,208.45,21,208.45"/><path class="cls-4" d="M63.58,105.83s4.73,5.67,7.72,6.62-.89,2.54-1.3,3.09.82.07.82.07S69.5,133,67,138.55s-2.4,14.62-2.4,14.62-2.25-11.22-.87-20.29c0,0-2.42-17.47-.63-19.47S63.58,105.83,63.58,105.83Z"/><path class="cls-4" d="M69.52,111c2.81-.39,5.1-2.11,8-.39,2.86,2.29,4,5.73,7.85,6.36"/><path class="cls-4" d="M95.09,125.09s-.62,4.54.21,6.46.07,2.89.07,2.89"/><path class="cls-4" d="M82,132.33c-1.33-.22-1.95-.68-2.69.33-1.62,2.21-2.42,5.74-3,8.39a23.89,23.89,0,0,0-.45,8.09"/><path class="cls-4" d="M96.4,127.22c2.14.36,7,1.63,8.18-1,1.52-3.28-2.78-7.32-5-9,4.87,1,9.18,6.56,9.2,11.48,0,6.37-7.35,7.47-12.29,7.22"/><path class="cls-4" d="M97.84,126.67a25.82,25.82,0,0,1-2.41-2.27c-.76-.89.34-.89.34-1.1"/><line class="cls-4" x1="102.18" y1="121.24" x2="99.29" y2="118.29"/><path class="cls-4" d="M90.9,113.06s1.17-1.37,2.27-1.31,3.37-.48,3.23-.82,1.65.48.89,2.54a20.45,20.45,0,0,0,1.65,1.44c.27.14.34,1.51-.07,2.41s.62,1.72.34,2.47,1.51,3.09-1.44,3.64a36.49,36.49,0,0,1-7.15.69c-2.13,0-3.09-1-2.75-1.51s.55-1.17,1.1-.82-2.82.14-3-.27-.41-1.44.34-1.72-2.2-.62-.48-2.06,6.32-1.65,6.53-1.92,3.57-1.37,3.85-1.17.82-1-.14-.89-4.19,1-4.88.55S90.42,113.68,90.9,113.06Z"/><path class="cls-4" d="M87.74,119s4.95-.27,5.29-.55a11.12,11.12,0,0,1,3.16-.76"/><path class="cls-4" d="M90.28,121.79s3.37-.34,3.71-.69,3.71-.62,3.71-.62"/><path class="cls-4" d="M88.29,115.33s-3.51,0-2.27,2.13"/><path class="cls-4" d="M82.1,133.62s12,1.44,12.58,1.65a5.76,5.76,0,0,0-4.61-3.37,2.78,2.78,0,0,0-.69-1.24s.27-5.57.34-6.53a6.78,6.78,0,0,1-1.24-.62l-.41,6.81s-1.51,1.31-1.51,1.65A5.35,5.35,0,0,0,82.1,133.62Z"/><path class="cls-4" d="M95.71,111.14c.48-.27,4.4-7.22,4.4-7.22-2.27.34-19.52-1.37-19.52-1.37s1.11,2.34,2.6,5.1c1.75,3.25,4,7.08,5.58,8.31"/><path class="cls-4" d="M84,108.73a55,55,0,0,1,7.15.21c1.37.34,5.57.48,5.84.21"/><path class="cls-5" d="M58.19,169.3s5-.32,5.43-.44a1.18,1.18,0,0,0,.63-1.55s1-1.51.56-2.51c0,0,1.75-1.13.87-2.32s-2.07-1.31-2.22-1.55,3.14,1.82,3.1.43-.55-3.49-5.55-4c0,0,2.12-1,2.14-1.4,0,0,3.41-1.57,2.59-2.82,0,0-.32-1.28-2.38.64s-4,.51-6.43,3Z"/><path class="cls-5" d="M61.83,163s2.21,1.83,2.76,1.75"/><path class="cls-5" d="M61,166.06s2.55,1.62,3.28,1.25"/><text class="cls-6" transform="translate(80.19 161.15)"><tspan class="cls-7">Y</tspan><tspan x="11.12" y="0">ou’</tspan><tspan class="cls-8" x="40.76" y="0">r</tspan><tspan x="48.18" y="0">e sittin in </tspan><tspan class="cls-9" x="140.36" y="0">T</tspan><tspan x="150.74" y="0">riple-A, kid.</tspan></text><text class="cls-10" transform="translate(84.12 176.21)">Keep playing nice with the big boys and <tspan x="0" y="13">maybe soon you’ll get called up to the majors. </tspan><tspan x="0" y="26">But not befo</tspan><tspan class="cls-11" x="64.23" y="26">r</tspan><tspan x="67.8" y="26">e one mo</tspan><tspan class="cls-11" x="116.71" y="26">r</tspan><tspan x="120.27" y="26">e holiday party in your </tspan><tspan x="0" y="39">o</tspan><tspan class="cls-11" x="6.67" y="39">f</tspan><tspan x="9.56" y="39">fice-mandated Sexy Santa costume. Hint: if </tspan><tspan x="0" y="52">you get those sports metaphors you can </tspan><tspan x="0" y="65">forgo the St. Nikki getup.</tspan></text></g></svg>