<svg xmlns="http://www.w3.org/2000/svg" viewBox="0 0 360 360"><defs><style>.cls-1{fill:none;stroke:#f27649;stroke-miterlimit:10;}.cls-2{font-size:20px;fill:#f27649;font-family:HelveticaNeue-Bold, Helvetica Neue;font-weight:700;}.cls-3{letter-spacing:-0.06em;}.cls-4{letter-spacing:-0.02em;}.cls-5{letter-spacing:-0.02em;}.cls-6{font-size:12px;font-family:HelveticaNeue-Light, Helvetica Neue;}.cls-7{letter-spacing:-0.09em;}.cls-8{letter-spacing:-0.02em;}.cls-9{letter-spacing:0.02em;}.cls-10{letter-spacing:-0.11em;}</style></defs><title>questions_female</title><g id="hello"><path class="cls-1" d="M69.73,93.74a14.08,14.08,0,0,0,5.92,3.59c3.41.9,10.23,2.87,10.58,3.77s.72,3.41-.18,3.95"/><path class="cls-1" d="M84.62,102.53S89.1,125,83,140.38c0,0,.18,2-5,2.33s-8.07,2-29.78-2.15l-4.84-1.79"/><path class="cls-1" d="M36.63,126.49s-1.38-1.84-1.2-2.86.41-.88.41-.88"/><path class="cls-1" d="M39.07,126.51s-4.21-4.95-4.14-5.65c0,0-.63-1.72.6-1.68"/><path class="cls-1" d="M41.28,126.93s-2-3.09-2.74-3.93-3.47-3.79-3.16-4.74c0,0,.07-1.33,2.25.95"/><path class="cls-1" d="M44.4,127.56A19.82,19.82,0,0,1,41.66,124c-.46-1.12-3.68-3.68-3.79-4.63s.84-1.23,1.61,0,3.3,3.26,3.75,4.91,2.6,3.3,2.56,3.72"/><path class="cls-1" d="M76.3,113.22s0,9.15-.91,10.31"/><path class="cls-1" d="M34.07,101.16s-2.49,5.74-2.58,10.56-1.91,12.39-2.41,15.21.58,9.89.91,10.39,2.49.08,3-.08,9.23,3.57,18.87.08,13.55-1.75,13.55-1.75,3.49.83,9.73-1.91c0,0,4.49,0,6.24-.25s1.16-1.5-.42-1.66-5.07-.67-5.32-1"/><path class="cls-1" d="M83,132.17s1.66-.25,1.16-.83-1-.75-3.24-1.41-4.07-2-4.91-1.66"/><path class="cls-1" d="M84.12,130.43s1.58-1.08-1.08-1.75-3.16-2.41-4.16-2.33a17.78,17.78,0,0,1-2.83.08c-.25-.08,1-1,2.83-1.08s3.66.17,3.91-.67-.17-1.83-2.08-1.58-3.74,0-5,.75S71.9,125,70.9,125.77s-3.33,2.91-5.07,3-17,.33-20.45-.67-8.65-2.16-10.23-1.66"/><path class="cls-1" d="M54.93,100.5c6.76.55,13.94.74,19.87-3.16"/><path class="cls-1" d="M33.24,102.58c-1.31-4.91,4.88-6.12,8.73-6.32"/><path class="cls-1" d="M86.64,103.4s-.06-3.11-4.35.87-6.27,8.33-6.09,9.19"/><path class="cls-1" d="M33,100s6.87,7.58,7.44,11.68a54.69,54.69,0,0,1,0,8.65"/><path class="cls-1" d="M78,142.71a4.4,4.4,0,0,0,1.09,3.78c1.59,1.72,5.68,15.06,5,23.78s-2.64,27.47-4.23,34.34c0,0-28.27,1.32-38.57-.26,0,0-2.91-28.4-2.11-34.74s.66-14.13,5-25.49c0,0,1.36-3.69-.84-5.35"/><path class="cls-1" d="M77.55,205.38S71.38,221.49,71,227.46s-2.39,16.7-6.36,32.41-5.77,17.9-5.57,18.69a5.1,5.1,0,0,1-.46,2.74c-.26.43,1.13,2.17-.87,5.91a34.77,34.77,0,0,0,0,5.3c.26,1.3.52,11-.17,11.21s-3.56,1.83-6,1.65-4.43.7-5-.7-1-4.78.7-7,4.26-5.3,3.82-7.3-.17-4.35-.35-5.13,2.35-6.09,2-7.56.7-14.26.78-15-.7-13.82,2.52-25.21a20.23,20.23,0,0,1,1-3.56c.52-1.13-.06-9.16.87-14.78,1-6,1.7-11.27,2.09-13.82"/><path class="cls-1" d="M45,204.9s2.43,10,2.87,11,.43,8.61.52,10.43a68,68,0,0,1,.35,7c-.17,1.48.87,21.65,4.69,29.3"/><path class="cls-1" d="M62.94,266.79s.52,7.22.61,7.82,2.26,4.52,2.26,5.22.87,2.26.87,3.65a14.44,14.44,0,0,1-.26,5c-.61,2.26-.87,4-2.87,5.65s-4.26.7-4.09-5.3.78-10.43-.09-11.39"/><path class="cls-1" d="M57.16,87.26s3.41,1.55,4.66,1.4"/><path class="cls-1" d="M67.39,85.49s1.74-.3,2.47-2.95,1.2-6.08,1.38-6.92"/><path class="cls-1" d="M71.18,72a4.75,4.75,0,0,1,2,5.23c-.9,3.49-6,8.42-5.05,11.07s.66,4.69,4.93,8.3c0,0,6.38,1.62,6.68,1.8s1.32.48.48-2.11S74,88.08,75.93,82.84s1.8-9.62.36-11.85S72,61.55,71,61.37"/><path class="cls-1" d="M68.53,64.26c0-.24,5-4.21.78-7.22S62.93,53.37,58,55.53s-10.89,3-11.07,9.74,1.8,5,.72,7"/><path class="cls-1" d="M50.3,66s-1,5.71-3.13,8.6-2,5.11,0,9,5.41,5.77,2.95,10.11S39,94.93,37.31,97.82a6.26,6.26,0,0,0,.66,7.52c1.56,1.62,5.17-3.07,13.11-4s7.64-10.11,6.5-12.21-7.94-8.48-7-12,.42-12.27,1.5-13.65,2.77-3.67,4.57-2.17"/><text class="cls-2" transform="translate(88.11 150.45)">Oh hello! <tspan class="cls-3" x="0" y="20">W</tspan><tspan x="17.74" y="20">e didn</tspan><tspan class="cls-4" x="76.24" y="20">’</tspan><tspan x="81.44" y="20">t see you the</tspan><tspan class="cls-5" x="203.69" y="20">r</tspan><tspan x="211.11" y="20">e.</tspan></text><text class="cls-6" transform="translate(89.8 183.25)">Invisibility might make work life simple<tspan class="cls-7" x="193.98" y="0">r</tspan><tspan x="196.66" y="0">, but it </tspan><tspan x="0" y="13">definitely won</tspan><tspan class="cls-8" x="70" y="13">’</tspan><tspan x="73.12" y="13">t land you a co</tspan><tspan class="cls-9" x="149.6" y="13">r</tspan><tspan x="153.59" y="13">ner o</tspan><tspan class="cls-8" x="180.05" y="13">f</tspan><tspan x="182.94" y="13">fice. </tspan><tspan class="cls-10" x="207.4" y="13">T</tspan><tspan x="212.74" y="13">o </tspan><tspan x="0" y="26">make it in this biz you have to speak up, </tspan><tspan x="0" y="39">honey! Now shush, the men a</tspan><tspan class="cls-8" x="154.25" y="39">r</tspan><tspan x="157.82" y="39">e talking. </tspan></text></g></svg>