<svg xmlns="http://www.w3.org/2000/svg" xmlns:xlink="http://www.w3.org/1999/xlink" viewBox="0 0 360 360"><defs><style>.cls-1{fill:none;}.cls-2{clip-path:url(#clip-path);}.cls-3{fill:#14a596;}.cls-4{opacity:0.5;}.cls-5{clip-path:url(#clip-path-3);}.cls-6{fill:#fff;}.cls-7{font-size:18px;fill:#221f1f;font-family:HelveticaNeue-Bold, Helvetica Neue;font-weight:700;}.cls-8{letter-spacing:-0.02em;}.cls-9{letter-spacing:-0.02em;}.cls-10{letter-spacing:-0.11em;}.cls-11{letter-spacing:-0.02em;}.cls-12{fill:#f27649;}.cls-13,.cls-14{opacity:0.58;}.cls-13{font-size:14px;font-family:HelveticaNeue-Light, Helvetica Neue;}.cls-13,.cls-15{fill:#fef5f3;}</style><clipPath id="clip-path"><rect class="cls-1" x="56" y="55.73" width="247.28" height="247.28"/></clipPath><clipPath id="clip-path-3"><rect class="cls-1" x="178.98" y="185.64" width="113.72" height="104.83"/></clipPath></defs><title>questions_female</title><g id="Layer_8" data-name="Layer 8"><g class="cls-2"><g class="cls-2"><path class="cls-3" d="M179.64,303A123.64,123.64,0,1,0,56,179.37,123.64,123.64,0,0,0,179.64,303"/><g class="cls-4"><g class="cls-5"><path class="cls-6" d="M283.7,246.39c-18,26.64-37.4,37.08-37.4,37.08L188,186.64"/></g></g></g></g><text class="cls-7" transform="translate(112.76 108.78)">A majority male <tspan x="-14.22" y="21.6">c</tspan><tspan class="cls-8" x="-3.89" y="21.6">r</tspan><tspan x="2.79" y="21.6">eative team have </tspan><tspan x="-26.18" y="43.2">called themselves the </tspan><tspan x="-45.04" y="64.8">‘MANagement G</tspan><tspan class="cls-9" x="95.93" y="64.8">r</tspan><tspan x="102.61" y="64.8">oup’ that </tspan><tspan x="-42.88" y="86.4">serves scotch, cigars and </tspan><tspan x="-19.38" y="108">nudie mags at every </tspan><tspan x="-32.38" y="129.6">meeting. </tspan><tspan class="cls-10" x="47.25" y="129.6">Y</tspan><tspan x="57.26" y="129.6">ou’</tspan><tspan class="cls-11" x="83.93" y="129.6">r</tspan><tspan x="90.61" y="129.6">e on that </tspan><tspan x="-5.21" y="151.2">team. Thoughts?</tspan></text><path class="cls-12" d="M151,80.06l28.41,5.29s58.52-1,60.22-1.08,66-9.15,66-9.15L318,47.38l-67.7-7.2L144.42,57.39Z"/><polygon class="cls-12" points="100.17 292.47 137.14 270.43 183.03 273.66 210.76 293.55 206.3 316.13 176.02 325.81 126.62 315.59 95.7 303.23 100.17 292.47"/><text class="cls-13" transform="translate(163.38 67.74) rotate(-4.09)">I’m the only woman on <tspan x="-3.28" y="13">the team. Majority rules.</tspan></text><g class="cls-14"><path class="cls-15" d="M119.48,291.47a2.12,2.12,0,0,0,.67.85,2.91,2.91,0,0,0,1,.47,5.88,5.88,0,0,0,1.28.17,3.63,3.63,0,0,0,.86-.08,3,3,0,0,0,.87-.33,2.2,2.2,0,0,0,.68-.61,1.6,1.6,0,0,0,.3-.92,1.38,1.38,0,0,0-.17-.73,1.73,1.73,0,0,0-.47-.53,2.91,2.91,0,0,0-.65-.36,6.71,6.71,0,0,0-.71-.24l-2.21-.62a6.5,6.5,0,0,1-.84-.31,2.37,2.37,0,0,1-.71-.47,2.11,2.11,0,0,1-.48-.7,2.34,2.34,0,0,1-.16-1,3.22,3.22,0,0,1,.17-.85,2.38,2.38,0,0,1,.55-.91,3.05,3.05,0,0,1,1.08-.7,4.25,4.25,0,0,1,1.73-.25,5,5,0,0,1,1.41.24,3.49,3.49,0,0,1,1.16.63,2.83,2.83,0,0,1,1,2.36l-1,0a2.33,2.33,0,0,0-.23-1,2.26,2.26,0,0,0-.58-.73,2.65,2.65,0,0,0-.84-.46,3.49,3.49,0,0,0-1-.18,4.17,4.17,0,0,0-.95.08,2.35,2.35,0,0,0-.81.31,1.73,1.73,0,0,0-.57.59,1.91,1.91,0,0,0-.24.93,1.43,1.43,0,0,0,.1.61,1.25,1.25,0,0,0,.31.45,1.75,1.75,0,0,0,.47.31,3.82,3.82,0,0,0,.58.2l2.42.68a7,7,0,0,1,1,.37,3.28,3.28,0,0,1,.81.53,2.12,2.12,0,0,1,.54.75,2.47,2.47,0,0,1,.17,1.06,3.92,3.92,0,0,1-.05.45,2.29,2.29,0,0,1-.19.59,2.94,2.94,0,0,1-.4.63,2.39,2.39,0,0,1-.69.56,3.92,3.92,0,0,1-1.07.39,6.19,6.19,0,0,1-1.52.11,6.27,6.27,0,0,1-1.63-.25,3.51,3.51,0,0,1-1.27-.66,2.73,2.73,0,0,1-.78-1.1,3.52,3.52,0,0,1-.2-1.59l1,0A2.8,2.8,0,0,0,119.48,291.47Z"/><path class="cls-15" d="M129.23,283.77l3,8.86L136,284l1.4,0-.31,10-1,0,.27-8.63h0l-3.68,8.53-.9,0-3-8.74h0l-.27,8.63-1,0,.31-10Z"/><path class="cls-15" d="M143.33,284.22l3.6,10.11-1,0-1.12-3.15-4.55-.14-1.3,3.07-1,0,4.33-9.86Zm1.17,6.12-1.77-5.18-2.16,5.06Z"/><path class="cls-15" d="M148.6,292.38a2.11,2.11,0,0,0,.67.85,2.92,2.92,0,0,0,1,.47,5.94,5.94,0,0,0,1.28.17,3.68,3.68,0,0,0,.86-.08,3,3,0,0,0,.87-.33,2.2,2.2,0,0,0,.68-.61,1.6,1.6,0,0,0,.3-.92,1.38,1.38,0,0,0-.17-.73,1.73,1.73,0,0,0-.47-.53,2.87,2.87,0,0,0-.65-.36,6.67,6.67,0,0,0-.71-.24l-2.21-.62a6.62,6.62,0,0,1-.84-.31,2.38,2.38,0,0,1-.71-.47,2.11,2.11,0,0,1-.48-.7,2.33,2.33,0,0,1-.16-1,3.22,3.22,0,0,1,.17-.85,2.38,2.38,0,0,1,.55-.91,3,3,0,0,1,1.08-.7,4.23,4.23,0,0,1,1.73-.25,5,5,0,0,1,1.41.24,3.49,3.49,0,0,1,1.16.62,2.83,2.83,0,0,1,1,2.36l-1,0a2.32,2.32,0,0,0-.23-1,2.26,2.26,0,0,0-.58-.73,2.67,2.67,0,0,0-.84-.46,3.45,3.45,0,0,0-1-.18,4.23,4.23,0,0,0-.95.08,2.37,2.37,0,0,0-.81.31,1.74,1.74,0,0,0-.57.59,1.91,1.91,0,0,0-.24.93,1.43,1.43,0,0,0,.1.61,1.25,1.25,0,0,0,.31.45,1.74,1.74,0,0,0,.47.31,3.7,3.7,0,0,0,.58.2l2.42.68a7,7,0,0,1,1,.37,3.29,3.29,0,0,1,.81.53,2.15,2.15,0,0,1,.54.75,2.49,2.49,0,0,1,.17,1.06,3.92,3.92,0,0,1-.05.45,2.33,2.33,0,0,1-.19.59,3,3,0,0,1-.4.62,2.36,2.36,0,0,1-.69.56,3.92,3.92,0,0,1-1.07.39,6.19,6.19,0,0,1-1.52.11,6.36,6.36,0,0,1-1.63-.25,3.51,3.51,0,0,1-1.27-.66,2.73,2.73,0,0,1-.79-1.1,3.52,3.52,0,0,1-.2-1.59l1,0A2.8,2.8,0,0,0,148.6,292.38Z"/><path class="cls-15" d="M157.93,284.68l-.14,4.34,5.93.19.14-4.34,1,0-.31,10-1,0,.15-4.84-5.93-.19-.15,4.84-1,0,.31-10Z"/><path class="cls-15" d="M177.56,285.3l0,.81L174,286l-.29,9.18-1,0,.29-9.18-3.47-.11,0-.81Z"/><path class="cls-15" d="M179.45,285.36l-.14,4.34,5.93.19.14-4.34,1,0-.31,10-1,0,.15-4.84-5.93-.19-.15,4.84-1,0,.31-10Z"/><path class="cls-15" d="M195.25,285.86l0,.81-5.95-.19-.11,3.61,5.57.18,0,.81-5.57-.18-.12,3.95,6,.19,0,.81-7-.22.31-10Z"/><path class="cls-15" d="M120.74,296.51a3.7,3.7,0,0,1,1.21.23,2.56,2.56,0,0,1,.92.59,2.45,2.45,0,0,1,.57.92,3.55,3.55,0,0,1-.08,2.41,2.46,2.46,0,0,1-.63.88,2.58,2.58,0,0,1-1,.53,3.72,3.72,0,0,1-1.22.15l-3.48-.11-.14,4.28-1,0,.32-10Zm-.36,4.89A2.47,2.47,0,0,0,122,301a2.23,2.23,0,0,0,.1-3.08,2.46,2.46,0,0,0-1.59-.56l-3.28-.1-.13,4.09Z"/><path class="cls-15" d="M128.07,296.74l3.6,10.11-1,0-1.12-3.15-4.55-.14-1.3,3.07-1,0,4.33-9.86Zm1.17,6.11-1.77-5.18-2.16,5.06Z"/><path class="cls-15" d="M138.79,297.08l0,.81-3.48-.11L135,307l-1,0,.29-9.18-3.47-.11,0-.81Z"/><path class="cls-15" d="M144.3,297.26a4.33,4.33,0,0,1,1.16.19,2.81,2.81,0,0,1,.95.5,2.26,2.26,0,0,1,.63.83,2.64,2.64,0,0,1,.21,1.18,2.8,2.8,0,0,1-.54,1.64,2.24,2.24,0,0,1-1.48.85v0a2.21,2.21,0,0,1,.8.28,1.64,1.64,0,0,1,.51.5,2,2,0,0,1,.27.69,5,5,0,0,1,.09.84c0,.17,0,.37,0,.62s0,.49,0,.74a4.6,4.6,0,0,0,.11.7,1.37,1.37,0,0,0,.23.52l-1,0a1.24,1.24,0,0,1-.12-.35,3.24,3.24,0,0,1-.06-.42c0-.15,0-.29,0-.43s0-.26,0-.36q0-.53-.06-1.06a2.89,2.89,0,0,0-.24-.95,1.65,1.65,0,0,0-.57-.68,1.78,1.78,0,0,0-1-.26l-3.61-.11-.14,4.43-1,0,.32-10Zm-.22,4.74a2.54,2.54,0,0,0,.83-.11,2.06,2.06,0,0,0,.7-.36,1.91,1.91,0,0,0,.49-.59,1.83,1.83,0,0,0,.2-.81,2,2,0,0,0-.49-1.47,2.21,2.21,0,0,0-1.61-.58l-3.55-.11-.12,3.93Z"/><path class="cls-15" d="M150.08,297.44l-.32,10-1,0,.32-10Z"/><path class="cls-15" d="M156.15,297.63l3.6,10.11-1,0-1.12-3.14-4.55-.14-1.3,3.07-1,0,4.33-9.86Zm1.17,6.12-1.77-5.18-2.16,5.06Z"/><path class="cls-15" d="M165.56,297.93a4.33,4.33,0,0,1,1.16.19,2.81,2.81,0,0,1,.95.5,2.27,2.27,0,0,1,.63.83,2.62,2.62,0,0,1,.21,1.18,2.81,2.81,0,0,1-.54,1.64,2.24,2.24,0,0,1-1.48.85v0a2.21,2.21,0,0,1,.8.28,1.62,1.62,0,0,1,.51.5,2,2,0,0,1,.27.69,5.06,5.06,0,0,1,.09.84c0,.17,0,.37,0,.62s0,.49,0,.74a4.6,4.6,0,0,0,.11.7,1.34,1.34,0,0,0,.23.52l-1,0a1.24,1.24,0,0,1-.12-.35,3.09,3.09,0,0,1-.06-.42c0-.15,0-.29,0-.43s0-.26,0-.36q0-.53-.06-1.06a2.86,2.86,0,0,0-.24-.95,1.65,1.65,0,0,0-.57-.68,1.78,1.78,0,0,0-1-.26l-3.61-.11-.14,4.43-1,0,.32-10Zm-.22,4.74a2.55,2.55,0,0,0,.83-.11,2.08,2.08,0,0,0,.7-.36,1.94,1.94,0,0,0,.49-.59,1.84,1.84,0,0,0,.2-.81,2,2,0,0,0-.49-1.47,2.21,2.21,0,0,0-1.61-.58l-3.55-.11-.12,3.93Z"/><path class="cls-15" d="M177.15,300.29a2.84,2.84,0,0,0-.68-.78,3.1,3.1,0,0,0-.9-.5,3.33,3.33,0,0,0-1-.19,3.61,3.61,0,0,0-1.72.32,3.4,3.4,0,0,0-1.2,1,4.32,4.32,0,0,0-.72,1.39,6.08,6.08,0,0,0-.1,3.21,4.29,4.29,0,0,0,.63,1.44,3.38,3.38,0,0,0,1.14,1,3.6,3.6,0,0,0,1.7.43,3,3,0,0,0,1.27-.21,3,3,0,0,0,1-.66,3.48,3.48,0,0,0,.69-1,4.27,4.27,0,0,0,.36-1.24l1,0a5.34,5.34,0,0,1-.49,1.65,4.09,4.09,0,0,1-.91,1.23,3.68,3.68,0,0,1-1.28.76,4.38,4.38,0,0,1-1.61.23,4.72,4.72,0,0,1-2.05-.49,4.28,4.28,0,0,1-1.44-1.19,4.85,4.85,0,0,1-.83-1.68,6.76,6.76,0,0,1,.12-3.95,4.92,4.92,0,0,1,.93-1.63,4.23,4.23,0,0,1,1.51-1.1,4.71,4.71,0,0,1,2.08-.36,4.65,4.65,0,0,1,1.39.25,4,4,0,0,1,1.21.66,3.62,3.62,0,0,1,.89,1,3.41,3.41,0,0,1,.43,1.4l-1,0A3.22,3.22,0,0,0,177.15,300.29Z"/><path class="cls-15" d="M181.12,298.42l-.14,4.34,5.93.19.14-4.34,1,0-.32,10-1,0,.15-4.84-5.93-.19-.15,4.84-1,0,.32-10Z"/><path class="cls-15" d="M188.88,298.66l1.12,0,3.13,5.17,3.43-5,1.13,0-4.13,5.75-.13,4.11-1,0,.13-4.11Z"/></g></g></svg>