<svg xmlns="http://www.w3.org/2000/svg" xmlns:xlink="http://www.w3.org/1999/xlink" viewBox="0 0 360 360"><defs><style>.cls-1{fill:none;}.cls-2{fill:#f2c12e;}.cls-3{clip-path:url(#clip-path);}.cls-4{opacity:0.75;}.cls-5{font-size:32.94px;font-family:HelveticaNeue-CondensedBold, Helvetica Neue;}.cls-5,.cls-70,.cls-71,.cls-9{fill:#211e1f;}.cls-5,.cls-71,.cls-90{font-weight:700;}.cls-6{letter-spacing:-0.05em;}.cls-7{letter-spacing:-0.02em;}.cls-8{letter-spacing:0em;}.cls-70,.cls-71,.cls-9{font-size:7.74px;}.cls-9{font-family:HelveticaNeue-Thin, Helvetica Neue;}.cls-10{letter-spacing:0.05em;}.cls-11{letter-spacing:0.04em;}.cls-12{letter-spacing:0.05em;}.cls-13{letter-spacing:0.05em;}.cls-14{letter-spacing:0.03em;}.cls-15{letter-spacing:0.02em;}.cls-16{letter-spacing:0.04em;}.cls-17{letter-spacing:0.03em;}.cls-18{letter-spacing:0.04em;}.cls-19{letter-spacing:0.02em;}.cls-20{letter-spacing:0.05em;}.cls-21{letter-spacing:0.03em;}.cls-22{letter-spacing:0.03em;}.cls-23{letter-spacing:0.03em;}.cls-24{letter-spacing:0.03em;}.cls-25{letter-spacing:0.04em;}.cls-26{letter-spacing:0.01em;}.cls-27{letter-spacing:0.03em;}.cls-28{letter-spacing:0.03em;}.cls-29{letter-spacing:0.03em;}.cls-30{letter-spacing:0em;}.cls-31{letter-spacing:0.06em;}.cls-32{letter-spacing:-0.02em;}.cls-33{letter-spacing:0.02em;}.cls-34{letter-spacing:0.03em;}.cls-35{letter-spacing:0.04em;}.cls-36{letter-spacing:0.04em;}.cls-37{letter-spacing:0.07em;}.cls-38{letter-spacing:0.02em;}.cls-39{letter-spacing:0.05em;}.cls-40{letter-spacing:0.02em;}.cls-41{letter-spacing:0.04em;}.cls-42{letter-spacing:0.04em;}.cls-43{letter-spacing:0.05em;}.cls-44{letter-spacing:0.03em;}.cls-45{letter-spacing:0.03em;}.cls-46{letter-spacing:0.04em;}.cls-47{letter-spacing:0.03em;}.cls-48{letter-spacing:0.01em;}.cls-49{letter-spacing:0.04em;}.cls-50{letter-spacing:0.03em;}.cls-51{letter-spacing:0.02em;}.cls-52{letter-spacing:0.04em;}.cls-53{letter-spacing:0.02em;}.cls-54{letter-spacing:0.02em;}.cls-55{letter-spacing:0.03em;}.cls-56{letter-spacing:0.07em;}.cls-57{letter-spacing:0.01em;}.cls-58{letter-spacing:0.04em;}.cls-59{letter-spacing:-0.06em;}.cls-60{letter-spacing:0.01em;}.cls-61{letter-spacing:0.02em;}.cls-62{letter-spacing:0.06em;}.cls-63{letter-spacing:0.01em;}.cls-64{letter-spacing:0.02em;}.cls-65{letter-spacing:0.04em;}.cls-66{letter-spacing:0em;}.cls-67{letter-spacing:-0.06em;}.cls-68{letter-spacing:0.02em;}.cls-69{letter-spacing:0.07em;}.cls-70{font-family:HelveticaNeue, Helvetica Neue;}.cls-71{font-family:HelveticaNeue-Bold, Helvetica Neue;}.cls-72{letter-spacing:0.05em;}.cls-73{letter-spacing:0.04em;}.cls-74{letter-spacing:0.04em;}.cls-75{letter-spacing:0.04em;}.cls-76{letter-spacing:0.04em;}.cls-77{letter-spacing:0.03em;}.cls-78{letter-spacing:0.04em;}.cls-79{letter-spacing:0.01em;}.cls-80{letter-spacing:0.03em;}.cls-81{letter-spacing:0.04em;}.cls-82{letter-spacing:0.02em;}.cls-83{letter-spacing:0em;}.cls-84{letter-spacing:0.03em;}.cls-85{letter-spacing:0.04em;}.cls-86{letter-spacing:0.02em;}.cls-87{letter-spacing:0.04em;}.cls-88{letter-spacing:0.01em;}.cls-89{fill:#f27649;}.cls-90{opacity:0.7;font-size:10.05px;fill:#fff6ef;font-family:Helvetica-Bold, Helvetica;}.cls-91{letter-spacing:-0.09em;}.cls-92{letter-spacing:-0.02em;}</style><clipPath id="clip-path"><rect class="cls-1" x="-7.76" y="96.1" width="375.59" height="78.73"/></clipPath></defs><title>titlecards</title><g id="background"><rect class="cls-2" x="15.41" y="87.59" width="327.47" height="184.59"/></g><g id="intro"><g class="cls-3"><g class="cls-3"><g class="cls-4"><g class="cls-3"><text class="cls-5" transform="translate(88.2 135.34)">YOUR CAREER </text><text class="cls-5" transform="translate(91.92 163.6)">S<tspan class="cls-6" x="17.09" y="0">T</tspan><tspan x="31.09" y="0">A</tspan><tspan class="cls-7" x="49.41" y="0">R</tspan><tspan class="cls-8" x="67.16" y="0">TS HERE</tspan></text></g></g></g></g><text class="cls-9" transform="translate(27.06 187.03)"><tspan class="cls-10">T</tspan><tspan class="cls-11" x="4.4" y="0">h</tspan><tspan class="cls-12" x="8.7" y="0">e</tspan><tspan class="cls-13" x="13.1" y="0"> </tspan><tspan class="cls-14" x="15.63" y="0">C</tspan><tspan class="cls-15" x="21.35" y="0">r</tspan><tspan class="cls-16" x="23.68" y="0">e</tspan><tspan class="cls-15" x="27.97" y="0">a</tspan><tspan class="cls-17" x="32.03" y="0">t</tspan><tspan class="cls-18" x="34.26" y="0">i</tspan><tspan class="cls-19" x="35.85" y="0">v</tspan><tspan class="cls-20" x="39.45" y="0">e</tspan><tspan class="cls-10" x="43.85" y="0"> </tspan><tspan class="cls-21" x="46.39" y="0">C</tspan><tspan class="cls-22" x="52.06" y="0">i</tspan><tspan class="cls-15" x="53.62" y="0">r</tspan><tspan class="cls-23" x="55.95" y="0">c</tspan><tspan class="cls-16" x="60.21" y="0">u</tspan><tspan class="cls-20" x="64.5" y="0">s </tspan><tspan class="cls-24" x="71.15" y="0">i</tspan><tspan class="cls-12" x="72.68" y="0">s </tspan><tspan class="cls-25" x="79.33" y="0">n</tspan><tspan class="cls-26" x="83.63" y="0">o</tspan><tspan class="cls-12" x="87.9" y="0">t </tspan><tspan class="cls-27" x="92.83" y="0">j</tspan><tspan class="cls-16" x="94.37" y="0">u</tspan><tspan class="cls-28" x="98.66" y="0">s</tspan><tspan class="cls-12" x="102.59" y="0">t</tspan><tspan class="cls-13" x="104.98" y="0" xml:space="preserve"> a</tspan><tspan class="cls-20" x="111.76" y="0"> </tspan><tspan class="cls-29" x="114.3" y="0">s</tspan><tspan class="cls-16" x="118.25" y="0">c</tspan><tspan class="cls-25" x="122.54" y="0">ho</tspan><tspan class="cls-14" x="131.29" y="0">o</tspan><tspan class="cls-30" x="135.71" y="0">l</tspan><tspan class="cls-10" x="137.02" y="0">,</tspan><tspan class="cls-20" x="139.55" y="0"> </tspan><tspan class="cls-25" x="142.09" y="0">i</tspan><tspan class="cls-31" x="143.68" y="0">t</tspan><tspan class="cls-32" x="146.11" y="0">’</tspan><tspan class="cls-20" x="147.56" y="0">s</tspan><tspan class="cls-10" x="151.67" y="0"> </tspan><tspan class="cls-33" x="154.2" y="0">y</tspan><tspan class="cls-34" x="157.81" y="0">o</tspan><tspan class="cls-35" x="162.23" y="0">u</tspan><tspan class="cls-13" x="166.54" y="0">r</tspan><tspan class="cls-12" x="169.07" y="0"> </tspan><tspan class="cls-36" x="171.61" y="0">f</tspan><tspan class="cls-22" x="173.79" y="0">i</tspan><tspan class="cls-36" x="175.35" y="0">r</tspan><tspan class="cls-28" x="177.82" y="0">s</tspan><tspan class="cls-12" x="181.74" y="0">t </tspan><tspan class="cls-37" x="186.67" y="0">t</tspan><tspan class="cls-38" x="189.18" y="0">w</tspan><tspan class="cls-39" x="194.82" y="0">o </tspan><tspan class="cls-40" x="201.91" y="0">y</tspan><tspan class="cls-16" x="205.51" y="0">e</tspan><tspan class="cls-41" x="209.8" y="0">a</tspan><tspan class="cls-42" x="213.98" y="0">r</tspan><tspan class="cls-20" x="216.45" y="0">s</tspan><tspan class="cls-43" x="220.56" y="0"> </tspan><tspan class="cls-44" x="223.09" y="0">i</tspan><tspan class="cls-20" x="224.65" y="0">n</tspan><tspan class="cls-43" x="229.05" y="0"> </tspan><tspan class="cls-45" x="231.58" y="0">t</tspan><tspan class="cls-11" x="233.85" y="0">h</tspan><tspan class="cls-13" x="238.15" y="0">e </tspan><tspan class="cls-46" x="245.08" y="0">b</tspan><tspan class="cls-47" x="249.65" y="0">i</tspan><tspan class="cls-48" x="251.2" y="0">z</tspan><tspan class="cls-13" x="254.55" y="0">. T</tspan><tspan class="cls-11" x="264" y="0">h</tspan><tspan class="cls-20" x="268.31" y="0">e</tspan><tspan class="cls-13" x="272.71" y="0"> </tspan><tspan class="cls-46" x="275.24" y="0">c</tspan><tspan class="cls-11" x="279.53" y="0">h</tspan><tspan class="cls-34" x="283.83" y="0">oi</tspan><tspan class="cls-49" x="289.82" y="0">c</tspan><tspan class="cls-50" x="294.11" y="0">e</tspan><tspan x="298.39" y="0">s </tspan></text><text class="cls-9" transform="translate(40.44 196.31)"><tspan class="cls-51">y</tspan><tspan class="cls-14" x="3.61" y="0">o</tspan><tspan class="cls-20" x="8.03" y="0">u</tspan><tspan class="cls-10" x="12.43" y="0"> </tspan><tspan class="cls-14" x="14.96" y="0">m</tspan><tspan class="cls-52" x="21.39" y="0">a</tspan><tspan class="cls-53" x="25.56" y="0">k</tspan><tspan class="cls-12" x="29.28" y="0">e </tspan><tspan class="cls-25" x="36.22" y="0">he</tspan><tspan class="cls-54" x="44.83" y="0">r</tspan><tspan class="cls-20" x="47.17" y="0">e </tspan><tspan class="cls-35" x="54.11" y="0">w</tspan><tspan class="cls-55" x="59.85" y="0">il</tspan><tspan class="cls-10" x="62.89" y="0">l</tspan><tspan class="cls-12" x="64.57" y="0"> </tspan><tspan class="cls-55" x="67.11" y="0">d</tspan><tspan class="cls-22" x="71.63" y="0">i</tspan><tspan class="cls-15" x="73.18" y="0">r</tspan><tspan class="cls-25" x="75.52" y="0">e</tspan><tspan class="cls-15" x="79.82" y="0">c</tspan><tspan class="cls-17" x="84.03" y="0">t</tspan><tspan class="cls-36" x="86.25" y="0">l</tspan><tspan class="cls-12" x="87.87" y="0">y</tspan><tspan class="cls-13" x="91.7" y="0"> </tspan><tspan class="cls-54" x="94.23" y="0">a</tspan><tspan class="cls-56" x="98.28" y="0">f</tspan><tspan class="cls-57" x="100.69" y="0">f</tspan><tspan class="cls-25" x="102.65" y="0">e</tspan><tspan class="cls-15" x="106.95" y="0">c</tspan><tspan class="cls-12" x="111.15" y="0">t </tspan><tspan class="cls-51" x="116.08" y="0">y</tspan><tspan class="cls-14" x="119.69" y="0">o</tspan><tspan class="cls-18" x="124.11" y="0">u</tspan><tspan class="cls-13" x="128.42" y="0">r</tspan><tspan class="cls-12" x="130.95" y="0"> </tspan><tspan class="cls-58" x="133.49" y="0">c</tspan><tspan class="cls-41" x="137.79" y="0">a</tspan><tspan class="cls-15" x="141.97" y="0">r</tspan><tspan class="cls-18" x="144.31" y="0">e</tspan><tspan class="cls-11" x="148.62" y="0">e</tspan><tspan class="cls-59" x="152.92" y="0">r</tspan><tspan class="cls-10" x="154.6" y="0">, </tspan><tspan class="cls-60" x="159.66" y="0">f</tspan><tspan class="cls-18" x="161.6" y="0">o</tspan><tspan class="cls-20" x="166.05" y="0">r</tspan><tspan class="cls-13" x="168.59" y="0"> </tspan><tspan class="cls-52" x="171.12" y="0">b</tspan><tspan class="cls-61" x="175.72" y="0">e</tspan><tspan class="cls-62" x="179.86" y="0">t</tspan><tspan class="cls-63" x="182.36" y="0">t</tspan><tspan class="cls-25" x="184.44" y="0">e</tspan><tspan class="cls-10" x="188.74" y="0">r</tspan><tspan class="cls-12" x="191.27" y="0"> </tspan><tspan class="cls-35" x="193.81" y="0">o</tspan><tspan class="cls-43" x="198.26" y="0">r </tspan><tspan class="cls-64" x="203.32" y="0">w</tspan><tspan class="cls-65" x="208.97" y="0">o</tspan><tspan class="cls-36" x="213.42" y="0">r</tspan><tspan class="cls-23" x="215.89" y="0">s</tspan><tspan class="cls-66" x="219.85" y="0">e</tspan><tspan class="cls-13" x="223.85" y="0">.</tspan><tspan class="cls-39" x="226.38" y="0"> </tspan><tspan class="cls-67" x="228.92" y="0">T</tspan><tspan class="cls-52" x="232.5" y="0">a</tspan><tspan class="cls-68" x="236.68" y="0">k</tspan><tspan class="cls-39" x="240.4" y="0">e</tspan><tspan class="cls-43" x="244.8" y="0"> </tspan><tspan class="cls-45" x="247.33" y="0">o</tspan><tspan class="cls-65" x="251.75" y="0">u</tspan><tspan class="cls-43" x="256.06" y="0">r</tspan><tspan class="cls-20" x="258.6" y="0"> </tspan><tspan class="cls-44" x="261.13" y="0">n</tspan><tspan class="cls-11" x="265.41" y="0">i</tspan><tspan class="cls-56" x="266.99" y="0">f</tspan><tspan class="cls-69" x="269.4" y="0">t</tspan><tspan x="271.92" y="0">y</tspan></text><text class="cls-70" transform="translate(316.1 180.3)"> </text><text class="cls-71" transform="translate(37.64 205.6)"><tspan class="cls-52">C</tspan><tspan class="cls-72" x="6.04" y="0">r</tspan><tspan class="cls-52" x="9.42" y="0">e</tspan><tspan class="cls-73" x="14.16" y="0">a</tspan><tspan class="cls-13" x="18.94" y="0">t</tspan><tspan class="cls-73" x="22.04" y="0">i</tspan><tspan class="cls-64" x="24.37" y="0">v</tspan><tspan class="cls-20" x="28.59" y="0">e </tspan><tspan class="cls-74" x="35.96" y="0">D</tspan><tspan class="cls-75" x="42.04" y="0">i</tspan><tspan class="cls-72" x="44.37" y="0">r</tspan><tspan class="cls-36" x="47.75" y="0">e</tspan><tspan class="cls-13" x="52.51" y="0">c</tspan><tspan class="cls-22" x="57.33" y="0">t</tspan><tspan class="cls-76" x="60.31" y="0">o</tspan><tspan class="cls-20" x="65.35" y="0">r </tspan><tspan class="cls-77" x="71.29" y="0">A</tspan><tspan class="cls-36" x="76.79" y="0">c</tspan><tspan class="cls-78" x="81.55" y="0">u</tspan><tspan class="cls-36" x="86.48" y="0">m</tspan><tspan class="cls-78" x="93.81" y="0">e</tspan><tspan class="cls-12" x="98.59" y="0">n</tspan><tspan class="cls-13" x="103.57" y="0"> </tspan><tspan class="cls-72" x="106.1" y="0">Q</tspan><tspan class="cls-78" x="112.49" y="0">u</tspan><tspan class="cls-41" x="117.42" y="0">i</tspan><tspan x="119.73" y="0">z</tspan></text><text class="cls-70" transform="translate(161.84 202.6)"> </text><text class="cls-9" transform="translate(164.38 205.6)"><tspan class="cls-79">t</tspan><tspan class="cls-12" x="2.06" y="0">o</tspan><tspan class="cls-10" x="6.6" y="0"> </tspan><tspan class="cls-23" x="9.13" y="0">s</tspan><tspan class="cls-35" x="13.1" y="0">e</tspan><tspan class="cls-10" x="17.41" y="0">e</tspan><tspan class="cls-20" x="21.8" y="0"> </tspan><tspan class="cls-25" x="24.34" y="0">h</tspan><tspan class="cls-15" x="28.65" y="0">o</tspan><tspan class="cls-13" x="32.99" y="0">w</tspan><tspan class="cls-12" x="38.82" y="0"> </tspan><tspan class="cls-80" x="41.35" y="0">q</tspan><tspan class="cls-22" x="45.9" y="0">u</tspan><tspan class="cls-14" x="50.17" y="0">ic</tspan><tspan class="cls-72" x="56.01" y="0">k</tspan><tspan class="cls-81" x="59.97" y="0">l</tspan><tspan class="cls-20" x="61.59" y="0">y </tspan><tspan class="cls-40" x="67.95" y="0">y</tspan><tspan class="cls-45" x="71.56" y="0">o</tspan><tspan class="cls-82" x="75.98" y="0">u</tspan><tspan class="cls-83" x="80.16" y="0">’</tspan><tspan class="cls-84" x="81.72" y="0">l</tspan><tspan class="cls-13" x="83.24" y="0">l</tspan><tspan class="cls-20" x="84.92" y="0"> </tspan><tspan class="cls-85" x="87.45" y="0">m</tspan><tspan class="cls-86" x="93.89" y="0">o</tspan><tspan class="cls-82" x="98.2" y="0">v</tspan><tspan class="cls-20" x="101.8" y="0">e </tspan><tspan class="cls-50" x="108.74" y="0">u</tspan><tspan class="cls-13" x="113.01" y="0">p</tspan><tspan class="cls-39" x="117.69" y="0"> </tspan><tspan class="cls-45" x="120.23" y="0">t</tspan><tspan class="cls-87" x="122.5" y="0">h</tspan><tspan class="cls-20" x="126.8" y="0">e </tspan><tspan class="cls-23" x="133.75" y="0">r</tspan><tspan class="cls-41" x="136.14" y="0">a</tspan><tspan class="cls-58" x="140.32" y="0">n</tspan><tspan class="cls-17" x="144.61" y="0">k</tspan><tspan class="cls-88" x="148.42" y="0">s</tspan><tspan x="152.22" y="0">.</tspan></text><rect class="cls-89" x="129.2" y="221.81" width="100.36" height="17.03" rx="8.52" ry="8.52"/><text class="cls-90" transform="translate(152.74 233.27)">PL<tspan class="cls-91" x="12.85" y="0">A</tspan><tspan class="cls-92" x="19.19" y="0">Y</tspan><tspan x="25.71" y="0" xml:space="preserve"> NOW</tspan></text></g></svg>