<?xml version="1.0"?><svg width="612.51917" height="370.24292" xmlns="http://www.w3.org/2000/svg" xmlns:xlink="http://www.w3.org/1999/xlink">
 <title>Bat Clip Art</title>
 <metadata id="metadata1328">image/svg+xmlnetopyrAdela MatzovaZS a MS Machovo nam.cznetopyrbat</metadata>
 <defs>
  <linearGradient id="linearGradient5487">
   <stop stop-color="#ececec" id="stop5489" offset="0"/>
   <stop stop-color="#ececec" stop-opacity="0" id="stop5491" offset="1"/>
  </linearGradient>
  <linearGradient id="linearGradient2790">
   <stop stop-color="#f9f9f9" id="stop2792" offset="0"/>
   <stop stop-color="#f9f9f9" stop-opacity="0" id="stop2794" offset="1"/>
  </linearGradient>
  <linearGradient id="linearGradient3579">
   <stop stop-color="#000000" stop-opacity="0.011765" id="stop3595" offset="0"/>
   <stop stop-color="#000000" stop-opacity="0.007843" offset="0" id="stop3611"/>
   <stop stop-color="#000000" stop-opacity="0.003922" id="stop3613" offset="0"/>
   <stop stop-color="#000000" stop-opacity="0.003922" offset="0" id="stop3615"/>
   <stop stop-color="#000000" stop-opacity="0.003922" id="stop3617" offset="0"/>
   <stop stop-color="#000000" stop-opacity="0.003922" offset="0" id="stop3619"/>
   <stop stop-color="#000000" stop-opacity="0.003922" id="stop3621" offset="0"/>
   <stop stop-color="#000000" stop-opacity="0.003922" offset="0" id="stop3623"/>
   <stop stop-color="#000000" stop-opacity="0.003922" id="stop3625" offset="0"/>
   <stop stop-color="#000000" stop-opacity="0.003922" offset="0" id="stop3627"/>
   <stop stop-color="#000000" stop-opacity="0.003922" id="stop3629" offset="0"/>
   <stop stop-color="#000000" offset="0.991703" id="stop3631"/>
   <stop stop-color="#000000" stop-opacity="0.003922" offset="0" id="stop3597"/>
   <stop stop-color="#000000" stop-opacity="0" id="stop3599" offset="0"/>
   <stop stop-color="#000000" stop-opacity="0" offset="0" id="stop3601"/>
   <stop stop-color="#000000" stop-opacity="0" id="stop3603" offset="0"/>
   <stop stop-color="#000000" stop-opacity="0" offset="0" id="stop3605"/>
   <stop stop-color="#000000" stop-opacity="0" id="stop3607" offset="0"/>
   <stop stop-color="#000000" stop-opacity="0" id="stop3583" offset="1"/>
  </linearGradient>
  <linearGradient y2="0.333756" x2="0.916403" y1="0.126589" x1="0.046684" id="linearGradient4582" xlink:href="#linearGradient2790"/>
  <radialGradient r="11.181895" fy="585.53363" fx="382.60034" cy="585.53363" cx="382.60034" gradientTransform="matrix(1,0,0,0.93076,0,40.54238)" gradientUnits="userSpaceOnUse" id="radialGradient6394" xlink:href="#linearGradient5487"/>
  <radialGradient r="11.214005" fy="581.84155" fx="413.75797" cy="581.84155" cx="413.75797" gradientTransform="matrix(1,0,0,1.212649,0,-123.7279)" gradientUnits="userSpaceOnUse" id="radialGradient6396" xlink:href="#linearGradient5487"/>
 </defs>
 <g>
  <title>Layer 1</title>
  <g transform="translate(-1 -1)" id="g6398">
   <path fill="#7c6969" fill-rule="evenodd" stroke-width="1px" stroke-opacity="0.940541" d="m1.97144,297.694c31.27346,-2.243011 64.645663,-0.911987 92.026859,21.712006c15.5047,36.753998 39.606697,-5.259003 61.696709,-4.899994c27.237991,-5.138 55.790985,5.833984 70.485992,39.292999c12.121994,35.166992 34.243988,-20.256012 54.308014,-17.493011c36.958984,-13.321014 77.597992,2.291992 107.329987,33.057007c-0.979004,-44.700012 29.704987,-73.64502 54.846008,-95.156006c11.515991,-18.187012 47.342987,0.273987 33.707977,-33.880997c-1.583984,-34.388 3.792999,-75.175003 28.426025,-93.402008c16.497986,-22.912994 50.528992,0.166 49.252991,-40.949997c13.059021,-40.767799 36.120972,-73.831497 58.46698,-105.97403c-23.560974,7.70007 -44.177979,27.052731 -68.690002,30.774431c-31.546997,11.325899 -65.970978,16.939398 -97.118988,0.3671c3.193024,30.3389 0.020996,62.339296 -13.742981,87.5795c-15.806,32.571007 -33.13501,65.857994 -56.908997,88.693001c-17.205017,-0.608002 -25.872009,-29.180008 -37.142029,-44.160995c4.948029,24.154999 -5.382996,29.804001 -21.598999,29.156998c-13.315979,16.188995 -23.768982,4.473999 -34.385986,-9.776001c-1.891998,21.048004 17.871002,63.893997 -1.415985,69.192001c-32.153015,3.158997 -64.446014,-6.468002 -95.108017,-18.725006c-26.39299,-12.061996 -50.337997,-31.931 -73.514999,-52.307999c-14.415901,38.972 -42.903297,63.895004 -68.796898,87.898987c-13.5501,10.738007 -27.4419,20.740021 -41.80285,29.404999" id="path1352"/>
   <path fill="black" fill-rule="evenodd" stroke-width="1px" stroke-opacity="0.940541" id="path1898" d="m-0.000015,298.572998c31.273415,-2.242004 64.645714,-0.911011 92.026917,21.712006c15.505096,36.755005 39.606094,-5.259003 61.697098,-4.899017c27.237,-5.138 55.791,5.833008 70.485001,39.292023c12.121994,35.166992 34.244003,-20.256012 54.309006,-17.492004c36.958008,-13.321014 77.597992,2.291992 107.329987,33.057007c-0.979004,-44.701019 29.705017,-73.646027 54.846008,-95.157013c11.515991,-18.187012 47.34201,0.274994 33.707001,-33.880997c-1.583008,-34.387009 3.792999,-75.175003 28.427002,-93.402008c16.497009,-22.911995 50.528015,0.167007 49.252991,-40.949997c13.057983,-40.767296 36.121033,-73.830997 58.46698,-105.973572c-23.561951,7.700075 -44.178955,27.052774 -68.690979,30.774475c-31.54599,11.325901 -65.971008,16.9394 -97.118988,0.3671c3.192993,30.338799 0.022003,62.339298 -13.742004,87.579998c-15.807007,32.570007 -33.13501,65.858002 -56.910004,88.692001c-17.20401,-0.608002 -25.872009,-29.179001 -37.141998,-44.160995c4.947998,24.154999 -5.382996,29.804001 -21.597992,29.156998c-13.317017,16.190002 -23.769012,4.475006 -34.386993,-9.774994c-1.892029,21.047989 17.871979,63.893997 -1.416016,69.191986c-32.151993,3.159012 -64.444992,-6.468994 -95.108002,-18.725998c-26.39299,-12.061996 -50.33699,-31.929993 -73.514999,-52.306992c-14.415398,38.970993 -42.902802,63.893997 -68.796398,87.898987c-13.549999,10.737 -27.4418,20.740021 -41.802792,29.404022"/>
   <path opacity="0.093458" fill="url(#linearGradient4582)" fill-rule="evenodd" stroke-width="1px" stroke-opacity="0.940541" d="m1.97142,285.933014c31.004181,-2.088013 64.089081,-0.848999 91.234482,20.211975c15.372101,34.21701 39.265091,-4.894989 61.166092,-4.560974c27.003006,-4.78302 55.310013,5.431 69.878006,36.579987c12.018005,32.738007 33.949005,-18.856995 53.841003,-16.285004c36.639984,-12.401001 76.929993,2.134003 106.406006,30.774994c-0.971008,-41.61499 29.449005,-68.561005 54.373993,-88.585999c11.415985,-16.931992 46.93399,0.255005 33.416992,-31.541992c-1.570007,-32.013 3.76001,-69.983994 28.181,-86.953003c16.356018,-21.330002 50.093994,0.154999 48.828979,-38.122002c12.947021,-37.952599 35.811035,-68.733295 57.96405,-98.656406c-23.359009,7.16841 -43.798035,25.184811 -68.098999,28.649509c-31.275024,10.5438 -65.403015,15.769699 -96.28302,0.341702c3.165985,28.243999 0.022003,58.034801 -13.623993,81.5322c-15.670013,30.321999 -32.850006,61.310997 -56.420013,82.568993c-17.056,-0.566986 -25.64801,-27.164993 -36.820984,-41.112c4.904999,22.487 -5.337006,27.746002 -21.413025,27.144012c-13.201996,15.070999 -23.565002,4.164993 -34.089996,-9.101013c-1.876007,19.595001 17.71701,59.48201 -1.403992,64.415009c-31.876007,2.940002 -63.891006,-6.022995 -94.289001,-17.432999c-26.166,-11.229004 -49.904007,-29.725998 -72.883003,-48.695999c-14.290894,36.280991 -42.532997,59.483002 -68.203598,81.829987c-13.433399,9.996002 -27.205599,19.308014 -41.442929,27.374023" id="path1901"/>
   <g id="g6386">
    <path fill="yellow" fill-rule="evenodd" stroke="black" stroke-width="2.979643px" id="path1338" d="m334.04599,240.011002l10,-5.173996l12.428009,-13.876999l-14.845001,-8.146011l-7.583008,27.197006z"/>
    <path opacity="0.481308" fill="url(#radialGradient6396)" fill-rule="evenodd" stroke-width="2.979643px" d="m334.04599,240.011002l10,-5.173996l12.428009,-13.876999l-14.845001,-8.146011l-7.583008,27.197006z" id="path4588"/>
   </g>
   <g id="g6390">
    <path fill="yellow" fill-rule="evenodd" stroke="black" stroke-width="2.979643px" d="m325.283997,244.511993l-7.156006,-10.40799l-14.312988,-10.406998l-0.894989,20.814987l22.363983,0z" id="path2795"/>
    <path opacity="0.481308" fill="url(#radialGradient6394)" fill-rule="evenodd" stroke-width="2.979643px" id="path4590" d="m325.283997,244.511993l-7.156006,-10.40799l-14.312988,-10.406998l-0.894989,20.814987l22.363983,0z"/>
   </g>
  </g>
 </g>
</svg>