<svg xmlns="http://www.w3.org/2000/svg" viewBox="0 0 360 360"><defs><style>.cls-1{fill:#14a697;}.cls-2{opacity:0.58;}.cls-3{fill:#fef5f3;opacity:0.87;}</style></defs><title>buttons_male</title><g id="Layer_2" data-name="Layer 2"><polygon class="cls-1" points="126.24 167.05 174.22 161.49 218.74 167.74 236.82 184.44 152.66 185.83 109.55 183.04 126.24 167.05"/><g class="cls-2"><path class="cls-3" d="M139.34,169.4l.12,4.34,5.93-.17-.12-4.34,1,0,.29,10-1,0-.14-4.84-5.93.17.14,4.84-1,0-.29-10Z"/><path class="cls-3" d="M148.37,173a2.06,2.06,0,0,1,.59-.77,2.57,2.57,0,0,1,.89-.46,4.34,4.34,0,0,1,1.14-.17,5,5,0,0,1,1,.06,2.31,2.31,0,0,1,.86.32,1.86,1.86,0,0,1,.64.69,2.56,2.56,0,0,1,.27,1.18l.11,3.83a.46.46,0,0,0,.53.52.67.67,0,0,0,.28-.06l0,.74-.27.05-.3,0a1.34,1.34,0,0,1-.54-.08.71.71,0,0,1-.32-.25,1,1,0,0,1-.16-.39,3.37,3.37,0,0,1,0-.51h0a5.84,5.84,0,0,1-.47.64,2.37,2.37,0,0,1-.53.47,2.47,2.47,0,0,1-.68.3,3.7,3.7,0,0,1-.91.12,3.62,3.62,0,0,1-.95-.09,2.1,2.1,0,0,1-.78-.36,1.8,1.8,0,0,1-.54-.64,2.17,2.17,0,0,1-.22-.94,1.86,1.86,0,0,1,.3-1.19,2.1,2.1,0,0,1,.87-.68,5.06,5.06,0,0,1,1.24-.35l1.4-.21.49-.08a.85.85,0,0,0,.34-.16.68.68,0,0,0,.21-.29,1.22,1.22,0,0,0,.06-.48,1.6,1.6,0,0,0-.17-.73,1.16,1.16,0,0,0-.42-.44,1.64,1.64,0,0,0-.61-.21,4,4,0,0,0-.74,0,2.22,2.22,0,0,0-1.36.44,1.56,1.56,0,0,0-.52,1.3l-.88,0A2.93,2.93,0,0,1,148.37,173Zm4.47,2a.5.5,0,0,1-.31.23,3.22,3.22,0,0,1-.42.11l-1.15.21a6.26,6.26,0,0,0-1.08.26,2.13,2.13,0,0,0-.79.46,1.05,1.05,0,0,0-.29.83,1.27,1.27,0,0,0,.15.59,1.46,1.46,0,0,0,.37.44,1.57,1.57,0,0,0,.53.27,1.9,1.9,0,0,0,.6.08,3,3,0,0,0,1-.18,2.38,2.38,0,0,0,.79-.47,2.19,2.19,0,0,0,.52-.73,2.15,2.15,0,0,0,.18-1l0-1.15Z"/><path class="cls-3" d="M161,178l0,.74-6,.17,0-.71,4.55-5.9-4.39.13,0-.74,5.51-.16,0,.63-4.6,6Z"/><path class="cls-3" d="M162.69,176.34a2.72,2.72,0,0,0,.45.9,2.44,2.44,0,0,0,.76.65,2.07,2.07,0,0,0,1.09.23,2.15,2.15,0,0,0,1.5-.55,2.65,2.65,0,0,0,.72-1.37l.88,0a3.52,3.52,0,0,1-1,1.93,3.07,3.07,0,0,1-2.1.73,3.37,3.37,0,0,1-1.49-.26,2.71,2.71,0,0,1-1-.8,3.56,3.56,0,0,1-.62-1.2,5.54,5.54,0,0,1-.23-1.46,5.25,5.25,0,0,1,.15-1.41,3.74,3.74,0,0,1,.55-1.24,2.91,2.91,0,0,1,1-.9,3.12,3.12,0,0,1,1.47-.37,2.86,2.86,0,0,1,2.52,1.2,3.79,3.79,0,0,1,.59,1.29,5.68,5.68,0,0,1,.18,1.49l-5.56.16A3.92,3.92,0,0,0,162.69,176.34Zm4.29-2.82a2.68,2.68,0,0,0-.48-.81,2.27,2.27,0,0,0-.73-.55,2.24,2.24,0,0,0-1.92.06,2.27,2.27,0,0,0-.7.59,2.87,2.87,0,0,0-.45.84,4.05,4.05,0,0,0-.2,1l4.67-.13A3.25,3.25,0,0,0,167,173.53Z"/><path class="cls-3" d="M173.84,168.41l.12,4h0a2.12,2.12,0,0,1,.87-1.08,2.64,2.64,0,0,1,1.4-.44,3.55,3.55,0,0,1,1.27.16,2,2,0,0,1,.83.53,2.08,2.08,0,0,1,.46.86,4.9,4.9,0,0,1,.16,1.16l.13,4.65-.88,0-.13-4.51a4.19,4.19,0,0,0-.11-.86,1.84,1.84,0,0,0-.31-.68,1.41,1.41,0,0,0-.58-.45,2.06,2.06,0,0,0-.89-.14,2.24,2.24,0,0,0-.94.22,2,2,0,0,0-.68.54,2.39,2.39,0,0,0-.43.8,3.17,3.17,0,0,0-.15,1l.12,4.21-.88,0-.29-10Z"/><path class="cls-3" d="M181.38,168.2l0,1.41-.88,0,0-1.41Zm.08,2.77.21,7.22-.88,0-.21-7.22Z"/><path class="cls-3" d="M184,170.89l0,1.22h0a2.77,2.77,0,0,1,.89-1.08,2.56,2.56,0,0,1,1.44-.42,2.46,2.46,0,0,1,1.31.31,1.72,1.72,0,0,1,.81,1,2.21,2.21,0,0,1,.92-1.09,2.73,2.73,0,0,1,1.33-.39q2.39-.07,2.47,2.46l.14,4.9-.88,0-.14-4.86a2.14,2.14,0,0,0-.42-1.35,1.63,1.63,0,0,0-1.34-.43,1.89,1.89,0,0,0-.94.24,1.69,1.69,0,0,0-.59.6,2.49,2.49,0,0,0-.29.84,5.07,5.07,0,0,0-.06,1l.12,4.09-.88,0-.14-4.9a3.09,3.09,0,0,0-.1-.69,1.61,1.61,0,0,0-.27-.57,1.17,1.17,0,0,0-.48-.37,1.62,1.62,0,0,0-.72-.12,2.18,2.18,0,0,0-1,.23,1.77,1.77,0,0,0-.66.58,2.47,2.47,0,0,0-.36.85,4.19,4.19,0,0,0-.1,1.06l.12,4-.88,0-.21-7.22Z"/><path class="cls-3" d="M195.49,176.31l1.18,0,0,1.48-1.18,0Z"/></g></g></svg>