<svg xmlns="http://www.w3.org/2000/svg" viewBox="0 0 360 360"><defs><style>.cls-1{fill:#14a697;}.cls-2{opacity:0.58;}.cls-3{fill:#fef5f3;opacity:0.87;}</style></defs><title>buttons_male</title><g id="Layer_2" data-name="Layer 2"><polygon class="cls-1" points="124.65 165.09 162.25 165.09 204.91 163.14 239.61 165.74 246.12 179.99 214.31 185.83 123.92 184.53 100.06 182.59 124.65 165.09"/><g class="cls-2"><path class="cls-3" d="M119.08,178.55a2.1,2.1,0,0,0,.71.81,2.9,2.9,0,0,0,1.05.42,5.94,5.94,0,0,0,1.29.11,3.69,3.69,0,0,0,.85-.13,3,3,0,0,0,.85-.37,2.19,2.19,0,0,0,.65-.64,1.59,1.59,0,0,0,.25-.94,1.36,1.36,0,0,0-.2-.72,1.71,1.71,0,0,0-.5-.51,2.84,2.84,0,0,0-.67-.33,6.55,6.55,0,0,0-.72-.2l-2.24-.5a6.52,6.52,0,0,1-.85-.26,2.4,2.4,0,0,1-.73-.43,2.1,2.1,0,0,1-.51-.68,2.35,2.35,0,0,1-.21-1,3.18,3.18,0,0,1,.12-.86,2.36,2.36,0,0,1,.51-.93,3.06,3.06,0,0,1,1-.76,4.24,4.24,0,0,1,1.71-.34,5,5,0,0,1,1.42.17,3.48,3.48,0,0,1,1.19.56,2.83,2.83,0,0,1,1.15,2.3l-1,0a2.32,2.32,0,0,0-.28-1,2.23,2.23,0,0,0-.62-.7,2.65,2.65,0,0,0-.86-.42,3.45,3.45,0,0,0-1-.13,4.24,4.24,0,0,0-.94.12,2.35,2.35,0,0,0-.79.35,1.74,1.74,0,0,0-.54.62,1.92,1.92,0,0,0-.19.94,1.44,1.44,0,0,0,.13.61,1.3,1.3,0,0,0,.34.43,1.75,1.75,0,0,0,.49.28,3.7,3.7,0,0,0,.58.17l2.45.55a6.88,6.88,0,0,1,1,.32,3.31,3.31,0,0,1,.84.49,2.14,2.14,0,0,1,.57.72,2.47,2.47,0,0,1,.22,1,4.11,4.11,0,0,1,0,.45,2.27,2.27,0,0,1-.16.6,3,3,0,0,1-.36.65,2.4,2.4,0,0,1-.66.59,3.91,3.91,0,0,1-1,.44,6.19,6.19,0,0,1-1.51.19,6.35,6.35,0,0,1-1.64-.17,3.52,3.52,0,0,1-1.3-.6,2.74,2.74,0,0,1-.84-1.06,3.53,3.53,0,0,1-.28-1.58l1,0A2.81,2.81,0,0,0,119.08,178.55Z"/><path class="cls-3" d="M127.76,170.38l.08,4h0a2.11,2.11,0,0,1,.87-1.07,2.63,2.63,0,0,1,1.41-.43,3.52,3.52,0,0,1,1.27.17,2,2,0,0,1,.83.54,2.07,2.07,0,0,1,.45.87,4.86,4.86,0,0,1,.15,1.16l.09,4.65-.88,0-.09-4.51a4.13,4.13,0,0,0-.1-.86,1.82,1.82,0,0,0-.31-.69,1.43,1.43,0,0,0-.58-.45,2.09,2.09,0,0,0-.89-.15,2.25,2.25,0,0,0-.94.21,2,2,0,0,0-.69.53,2.41,2.41,0,0,0-.43.79,3.19,3.19,0,0,0-.15,1l.08,4.21-.88,0-.2-10Z"/><path class="cls-3" d="M139,173a3.19,3.19,0,0,1,1.09.81,3.58,3.58,0,0,1,.68,1.2,5,5,0,0,1,.06,3,3.58,3.58,0,0,1-.63,1.22,3.12,3.12,0,0,1-1.05.84,3.71,3.71,0,0,1-2.93.06,3.1,3.1,0,0,1-1.09-.8,3.55,3.55,0,0,1-.68-1.2,5,5,0,0,1-.06-3,3.54,3.54,0,0,1,.63-1.22,3.17,3.17,0,0,1,1.05-.85A3.63,3.63,0,0,1,139,173Zm-2.56.75a2.43,2.43,0,0,0-.78.72,3.17,3.17,0,0,0-.46,1,4,4,0,0,0,0,2.25,3.19,3.19,0,0,0,.5,1,2.43,2.43,0,0,0,.8.68,2.43,2.43,0,0,0,2.21,0,2.43,2.43,0,0,0,.78-.71,3.17,3.17,0,0,0,.46-1,4,4,0,0,0,0-2.25,3.17,3.17,0,0,0-.49-1,2.45,2.45,0,0,0-.81-.68,2.43,2.43,0,0,0-2.21,0Z"/><path class="cls-3" d="M142.45,172.86l2,6.15h0l1.64-6.22,1,0,1.89,6.15h0l1.73-6.22.94,0-2.18,7.27-1,0-1.9-6h0L144.95,180l-1,0-2.47-7.18Z"/><path class="cls-3" d="M157.32,169.79l.08,4h0a2.11,2.11,0,0,1,.87-1.07,2.64,2.64,0,0,1,1.41-.43,3.54,3.54,0,0,1,1.27.17,2,2,0,0,1,.83.54,2.06,2.06,0,0,1,.45.87,4.87,4.87,0,0,1,.15,1.16l.09,4.65-.88,0-.09-4.51a4.13,4.13,0,0,0-.1-.86,1.82,1.82,0,0,0-.31-.69,1.43,1.43,0,0,0-.58-.45,2.09,2.09,0,0,0-.89-.15,2.25,2.25,0,0,0-.94.21,2,2,0,0,0-.69.53,2.41,2.41,0,0,0-.43.79,3.19,3.19,0,0,0-.15,1l.08,4.21-.88,0-.2-10Z"/><path class="cls-3" d="M164.86,169.64l0,1.41-.88,0,0-1.41Zm.05,2.77.14,7.22-.88,0-.14-7.22Z"/><path class="cls-3" d="M167.42,172.36l0,1.22h0a2.76,2.76,0,0,1,.9-1.07,2.56,2.56,0,0,1,1.44-.41,2.46,2.46,0,0,1,1.3.32,1.72,1.72,0,0,1,.8,1,2.22,2.22,0,0,1,.93-1.08,2.73,2.73,0,0,1,1.34-.38q2.39,0,2.44,2.49l.1,4.9-.88,0-.1-4.86a2.14,2.14,0,0,0-.41-1.36,1.62,1.62,0,0,0-1.34-.44,1.88,1.88,0,0,0-.95.24,1.67,1.67,0,0,0-.59.59,2.46,2.46,0,0,0-.3.84,5.08,5.08,0,0,0-.07,1l.08,4.09-.88,0-.1-4.9a3.08,3.08,0,0,0-.09-.69,1.63,1.63,0,0,0-.26-.57,1.2,1.2,0,0,0-.48-.38,1.67,1.67,0,0,0-.72-.13,2.19,2.19,0,0,0-1,.22,1.78,1.78,0,0,0-.66.57,2.48,2.48,0,0,0-.37.85,4.19,4.19,0,0,0-.11,1.06l.08,4-.88,0-.14-7.22Z"/><path class="cls-3" d="M185,172v.74l-1.47,0,.1,4.87a1.58,1.58,0,0,0,.13.68c.08.16.28.25.6.26a7,7,0,0,0,.75-.06v.74l-.39,0-.39,0a1.3,1.3,0,0,1-1.6-1.58l-.1-4.94-1.26,0v-.74l1.26,0,0-2.17.88,0,0,2.17Z"/><path class="cls-3" d="M187.12,169.2l.08,4h0a2.11,2.11,0,0,1,.87-1.07,2.63,2.63,0,0,1,1.41-.43,3.53,3.53,0,0,1,1.27.17,2,2,0,0,1,.83.54,2.08,2.08,0,0,1,.45.87,4.91,4.91,0,0,1,.15,1.16l.09,4.65-.88,0-.09-4.51a4.13,4.13,0,0,0-.1-.86,1.82,1.82,0,0,0-.31-.69,1.42,1.42,0,0,0-.58-.45,2.08,2.08,0,0,0-.89-.15,2.24,2.24,0,0,0-.94.21,2,2,0,0,0-.69.53,2.38,2.38,0,0,0-.43.79,3.17,3.17,0,0,0-.16,1l.08,4.21-.88,0-.2-10Z"/><path class="cls-3" d="M194.57,176.66a2.72,2.72,0,0,0,.44.91,2.45,2.45,0,0,0,.76.66,2.08,2.08,0,0,0,1.08.24,2.14,2.14,0,0,0,1.5-.53,2.65,2.65,0,0,0,.73-1.36l.88,0a3.52,3.52,0,0,1-1,1.92,3.07,3.07,0,0,1-2.11.71,3.37,3.37,0,0,1-1.48-.27,2.7,2.7,0,0,1-1-.81,3.58,3.58,0,0,1-.6-1.21,5.54,5.54,0,0,1-.22-1.46,5.26,5.26,0,0,1,.16-1.4,3.73,3.73,0,0,1,.56-1.24,2.92,2.92,0,0,1,1-.89,3.13,3.13,0,0,1,1.47-.36,2.86,2.86,0,0,1,2.51,1.22,3.77,3.77,0,0,1,.58,1.29,5.74,5.74,0,0,1,.17,1.49l-5.56.11A3.88,3.88,0,0,0,194.57,176.66Zm4.31-2.78a2.68,2.68,0,0,0-.47-.81,2.29,2.29,0,0,0-.73-.56,2.23,2.23,0,0,0-1.92,0,2.25,2.25,0,0,0-.7.59,2.87,2.87,0,0,0-.45.83,4.07,4.07,0,0,0-.21,1l4.68-.09A3.25,3.25,0,0,0,198.88,173.88Z"/><path class="cls-3" d="M205.79,171.6l0,1.69h0a2.77,2.77,0,0,1,1-1.38,2.73,2.73,0,0,1,1.68-.47l0,.88a2.65,2.65,0,0,0-1.09.18,2.41,2.41,0,0,0-1.37,1.4,2.8,2.8,0,0,0-.18,1.06l.08,3.85-.88,0-.14-7.22Z"/><path class="cls-3" d="M213.65,171.55a3.21,3.21,0,0,1,1.09.81,3.58,3.58,0,0,1,.68,1.2,5,5,0,0,1,.06,3,3.59,3.59,0,0,1-.64,1.22,3.11,3.11,0,0,1-1.05.84,3.72,3.72,0,0,1-2.93.06,3.1,3.1,0,0,1-1.09-.8,3.55,3.55,0,0,1-.68-1.2,5,5,0,0,1-.06-3,3.55,3.55,0,0,1,.64-1.22,3.17,3.17,0,0,1,1.05-.85,3.63,3.63,0,0,1,2.93-.06Zm-2.55.75a2.42,2.42,0,0,0-.78.71,3.19,3.19,0,0,0-.46,1,4,4,0,0,0-.14,1.13,4,4,0,0,0,.18,1.12,3.2,3.2,0,0,0,.5,1,2.43,2.43,0,0,0,.8.68,2.43,2.43,0,0,0,2.21,0,2.42,2.42,0,0,0,.78-.72,3.16,3.16,0,0,0,.46-1,4,4,0,0,0,.14-1.13,4,4,0,0,0-.18-1.12,3.18,3.18,0,0,0-.5-1,2.44,2.44,0,0,0-.81-.68,2.43,2.43,0,0,0-2.21,0Z"/><path class="cls-3" d="M217.73,171.37l0,1.37h0a2.36,2.36,0,0,1,1-1.19,3,3,0,0,1,1.57-.44,3.15,3.15,0,0,1,1.44.28,2.94,2.94,0,0,1,1,.81,3.53,3.53,0,0,1,.63,1.2,5.57,5.57,0,0,1,.06,2.93,3.54,3.54,0,0,1-.58,1.23,2.88,2.88,0,0,1-1,.85,3.22,3.22,0,0,1-1.43.33,3.25,3.25,0,0,1-.79-.08,2.75,2.75,0,0,1-.73-.28,2.38,2.38,0,0,1-.61-.48,2.08,2.08,0,0,1-.41-.68h0l.08,4-.88,0-.2-9.88Zm4.89,2.4a3.11,3.11,0,0,0-.44-1,2.33,2.33,0,0,0-.75-.69,2,2,0,0,0-1.08-.25,2.63,2.63,0,0,0-1.21.28,2.13,2.13,0,0,0-.77.69,2.67,2.67,0,0,0-.39,1,5.63,5.63,0,0,0-.1,1.18,4.7,4.7,0,0,0,.16,1.11,2.88,2.88,0,0,0,.45,1,2.32,2.32,0,0,0,.8.69,2.37,2.37,0,0,0,1.19.25,2,2,0,0,0,1.07-.29,2.33,2.33,0,0,0,.72-.72,3.09,3.09,0,0,0,.4-1,4.72,4.72,0,0,0,0-2.22Z"/><path class="cls-3" d="M225.7,176a2.69,2.69,0,0,0,.45.91,2.43,2.43,0,0,0,.76.66,2.09,2.09,0,0,0,1.08.24,2.14,2.14,0,0,0,1.5-.53,2.64,2.64,0,0,0,.73-1.36l.88,0a3.52,3.52,0,0,1-1,1.92,3.08,3.08,0,0,1-2.11.71,3.37,3.37,0,0,1-1.48-.27,2.72,2.72,0,0,1-1-.81,3.57,3.57,0,0,1-.6-1.21,5.53,5.53,0,0,1-.22-1.46,5.25,5.25,0,0,1,.16-1.4,3.74,3.74,0,0,1,.56-1.24,2.91,2.91,0,0,1,1-.89,3.13,3.13,0,0,1,1.47-.36,2.86,2.86,0,0,1,2.51,1.22,3.77,3.77,0,0,1,.58,1.29,5.74,5.74,0,0,1,.17,1.49l-5.56.11A3.88,3.88,0,0,0,225.7,176Zm4.31-2.78a2.69,2.69,0,0,0-.47-.81,2.28,2.28,0,0,0-.73-.56,2.23,2.23,0,0,0-1.92,0,2.23,2.23,0,0,0-.7.59,2.86,2.86,0,0,0-.45.83,4.06,4.06,0,0,0-.21,1l4.68-.09A3.26,3.26,0,0,0,230,173.27Z"/><path class="cls-3" d="M236.4,172.4a1.44,1.44,0,0,0-.42-.49,1.73,1.73,0,0,0-.6-.28,2.73,2.73,0,0,0-.72-.08,2.86,2.86,0,0,0-.59.07,1.85,1.85,0,0,0-.55.22,1.2,1.2,0,0,0-.4.39,1.07,1.07,0,0,0-.14.59.82.82,0,0,0,.16.49,1.31,1.31,0,0,0,.38.34,2.39,2.39,0,0,0,.49.22l.49.14,1.18.24a3.34,3.34,0,0,1,.75.19,2.41,2.41,0,0,1,.67.37,1.9,1.9,0,0,1,.48.58,1.77,1.77,0,0,1,.2.82,1.81,1.81,0,0,1-.25,1,2.16,2.16,0,0,1-.67.68,2.88,2.88,0,0,1-.92.39,4.84,4.84,0,0,1-1,.13,3.32,3.32,0,0,1-2.08-.56,2.56,2.56,0,0,1-.94-1.91l.88,0a1.74,1.74,0,0,0,.68,1.34,2.36,2.36,0,0,0,1.49.43,3.29,3.29,0,0,0,.66-.08,2.13,2.13,0,0,0,.63-.25,1.51,1.51,0,0,0,.47-.44,1,1,0,0,0,.18-.64,1,1,0,0,0-.14-.54,1.13,1.13,0,0,0-.36-.36,2.29,2.29,0,0,0-.51-.23c-.19-.06-.39-.11-.59-.16l-1.14-.23a6.25,6.25,0,0,1-.8-.24,2.55,2.55,0,0,1-.64-.35,1.52,1.52,0,0,1-.44-.52,2,2,0,0,1,.06-1.72,1.9,1.9,0,0,1,.62-.64,3,3,0,0,1,.87-.37,4.26,4.26,0,0,1,1-.13,3.58,3.58,0,0,1,1,.12,2.33,2.33,0,0,1,.83.42,2.11,2.11,0,0,1,.58.72,2.58,2.58,0,0,1,.26,1l-.88,0A1.66,1.66,0,0,0,236.4,172.4Z"/><path class="cls-3" d="M239.58,176.68l1.18,0,0,1.48-1.18,0Z"/></g></g></svg>