<svg xmlns="http://www.w3.org/2000/svg" viewBox="0 0 360 360"><defs><style>.cls-1{fill:#f25252;}.cls-2{opacity:0.87;}.cls-3{fill:#fef5f3;}</style></defs><title>buttons_male</title><g id="Layer_2" data-name="Layer 2"><polygon class="cls-1" points="115.72 170.87 239.69 161.9 254 191.37 106.19 206.75 115.72 170.87"/><g class="cls-2"><path class="cls-3" d="M120.62,178.16a4.92,4.92,0,0,1,.74-1.73,4.24,4.24,0,0,1,1.38-1.27,4.72,4.72,0,0,1,2-.6,4.67,4.67,0,0,1,2.09.25,4.26,4.26,0,0,1,1.56,1,4.9,4.9,0,0,1,1,1.58,6.75,6.75,0,0,1,.33,3.93,4.83,4.83,0,0,1-.74,1.72,4.3,4.3,0,0,1-1.37,1.26,4.67,4.67,0,0,1-2,.6,4.72,4.72,0,0,1-2.09-.25,4.28,4.28,0,0,1-1.57-1,4.85,4.85,0,0,1-1-1.57,6.78,6.78,0,0,1-.33-3.93Zm1.17,3.49a4.31,4.31,0,0,0,.79,1.35,3.37,3.37,0,0,0,1.25.9,3.6,3.6,0,0,0,1.73.23,3.56,3.56,0,0,0,1.66-.52,3.39,3.39,0,0,0,1.07-1.09,4.29,4.29,0,0,0,.55-1.47,6,6,0,0,0-.27-3.2,4.31,4.31,0,0,0-.79-1.35,3.4,3.4,0,0,0-1.24-.9,3.56,3.56,0,0,0-1.73-.23,3.6,3.6,0,0,0-1.67.52,3.38,3.38,0,0,0-1.08,1.1,4.33,4.33,0,0,0-.55,1.46,6.06,6.06,0,0,0,.27,3.2Z"/><path class="cls-3" d="M132.42,177.66l.54,6.46-.88.07-.54-6.46-1.23.1-.06-.74,1.23-.1-.06-.66a4.85,4.85,0,0,1,0-.86,1.67,1.67,0,0,1,.21-.69,1.27,1.27,0,0,1,.5-.48,2.14,2.14,0,0,1,.86-.23l.36,0h.38l.06.75-.34,0h-.31a1.14,1.14,0,0,0-.55.16.69.69,0,0,0-.26.32,1.13,1.13,0,0,0-.07.45c0,.17,0,.35,0,.55l.05.63,1.42-.12.06.74Z"/><path class="cls-3" d="M143,177a1.92,1.92,0,0,0-1.41-.35,2.23,2.23,0,0,0-1.08.36,2.43,2.43,0,0,0-.73.76,3.18,3.18,0,0,0-.39,1,4,4,0,0,0,.19,2.25,3.18,3.18,0,0,0,.56.94,2.42,2.42,0,0,0,.85.63,2.23,2.23,0,0,0,1.12.17,2,2,0,0,0,.75-.22,2.07,2.07,0,0,0,.61-.48,2.28,2.28,0,0,0,.41-.69,2.39,2.39,0,0,0,.15-.84l.88-.07a3.33,3.33,0,0,1-.79,2.12,2.83,2.83,0,0,1-1.95.9,3.39,3.39,0,0,1-1.48-.18,3.11,3.11,0,0,1-1.14-.73,3.56,3.56,0,0,1-.76-1.15,5,5,0,0,1-.25-2.94,3.56,3.56,0,0,1,.55-1.26,3.19,3.19,0,0,1,1-.91,3.32,3.32,0,0,1,1.43-.43,3.14,3.14,0,0,1,2,.45,2.63,2.63,0,0,1,1.11,1.77l-.88.07A2.42,2.42,0,0,0,143,177Z"/><path class="cls-3" d="M150.24,175.51a3.19,3.19,0,0,1,1.14.73,3.58,3.58,0,0,1,.76,1.15,5,5,0,0,1,.25,2.94,3.58,3.58,0,0,1-.55,1.26,3.11,3.11,0,0,1-1,.91,3.71,3.71,0,0,1-2.92.25,3.11,3.11,0,0,1-1.14-.73,3.56,3.56,0,0,1-.76-1.15,5,5,0,0,1-.25-2.94,3.56,3.56,0,0,1,.55-1.26,3.19,3.19,0,0,1,1-.91,3.63,3.63,0,0,1,2.92-.25Zm-2.5.91a2.43,2.43,0,0,0-.73.76,3.18,3.18,0,0,0-.39,1,4,4,0,0,0,.19,2.25,3.18,3.18,0,0,0,.56.94,2.42,2.42,0,0,0,.85.63,2.44,2.44,0,0,0,2.2-.19,2.42,2.42,0,0,0,.73-.76,3.17,3.17,0,0,0,.39-1,4,4,0,0,0-.19-2.25,3.18,3.18,0,0,0-.56-.94,2.43,2.43,0,0,0-.85-.63,2.43,2.43,0,0,0-2.2.19Z"/><path class="cls-3" d="M159.12,181.92l-.11-1.3h0a2.5,2.5,0,0,1-.92,1.19,2.9,2.9,0,0,1-1.44.51,3.21,3.21,0,0,1-1.18-.09,1.94,1.94,0,0,1-.83-.47,2.18,2.18,0,0,1-.51-.81,4.32,4.32,0,0,1-.24-1.13l-.39-4.67.88-.07.39,4.69a2.35,2.35,0,0,0,.58,1.44,2.28,2.28,0,0,0,2.47.05,2.09,2.09,0,0,0,.61-.71,2.94,2.94,0,0,0,.31-1,4.58,4.58,0,0,0,0-1.08l-.32-3.78.88-.07.61,7.2Z"/><path class="cls-3" d="M161.79,174.44l.14,1.69h0a2.78,2.78,0,0,1,.93-1.44,2.73,2.73,0,0,1,1.65-.57l.07.88a2.66,2.66,0,0,0-1.07.25,2.41,2.41,0,0,0-1.28,1.48,2.78,2.78,0,0,0-.11,1.07l.32,3.84-.88.07-.61-7.2Z"/><path class="cls-3" d="M169.64,175.19a1.43,1.43,0,0,0-.45-.46,1.73,1.73,0,0,0-.62-.24,2.73,2.73,0,0,0-.72,0,2.91,2.91,0,0,0-.59.11,1.83,1.83,0,0,0-.53.26,1.19,1.19,0,0,0-.37.42,1.06,1.06,0,0,0-.1.6.82.82,0,0,0,.19.48,1.31,1.31,0,0,0,.4.31,2.36,2.36,0,0,0,.51.19l.5.11,1.19.17a3.36,3.36,0,0,1,.76.14,2.41,2.41,0,0,1,.69.33,1.89,1.89,0,0,1,.52.55,1.77,1.77,0,0,1,.25.81,1.81,1.81,0,0,1-.18,1,2.18,2.18,0,0,1-.62.73,2.88,2.88,0,0,1-.9.45,4.82,4.82,0,0,1-1,.2,3.32,3.32,0,0,1-2.11-.43,2.56,2.56,0,0,1-1.06-1.85l.88-.07a1.74,1.74,0,0,0,.76,1.29,2.36,2.36,0,0,0,1.51.33,3.32,3.32,0,0,0,.66-.13,2.14,2.14,0,0,0,.61-.29,1.52,1.52,0,0,0,.44-.47,1,1,0,0,0,.14-.65,1,1,0,0,0-.18-.53,1.16,1.16,0,0,0-.39-.33,2.25,2.25,0,0,0-.53-.2l-.59-.12-1.15-.16a6.25,6.25,0,0,1-.82-.19,2.55,2.55,0,0,1-.67-.31,1.53,1.53,0,0,1-.47-.49,1.76,1.76,0,0,1-.22-.76,1.74,1.74,0,0,1,.17-1,1.92,1.92,0,0,1,.58-.68,3,3,0,0,1,.84-.42,4.23,4.23,0,0,1,.95-.19,3.54,3.54,0,0,1,1,.05,2.33,2.33,0,0,1,.86.36,2.12,2.12,0,0,1,.63.68,2.6,2.6,0,0,1,.32,1l-.88.07A1.67,1.67,0,0,0,169.64,175.19Z"/><path class="cls-3" d="M173.14,178.34a2.71,2.71,0,0,0,.5.88,2.44,2.44,0,0,0,.8.61,2.08,2.08,0,0,0,1.1.17,2.15,2.15,0,0,0,1.46-.63,2.65,2.65,0,0,0,.64-1.4l.88-.07a3.52,3.52,0,0,1-.86,2,3.07,3.07,0,0,1-2.06.85,3.37,3.37,0,0,1-1.5-.18,2.72,2.72,0,0,1-1.08-.74,3.58,3.58,0,0,1-.68-1.16,5.54,5.54,0,0,1-.31-1.44,5.25,5.25,0,0,1,.07-1.41,3.75,3.75,0,0,1,.48-1.27,2.91,2.91,0,0,1,.94-1,3.12,3.12,0,0,1,1.44-.45,2.86,2.86,0,0,1,2.58,1.05,3.8,3.8,0,0,1,.66,1.25,5.75,5.75,0,0,1,.26,1.47l-5.54.47A3.9,3.9,0,0,0,173.14,178.34Zm4.13-3.05a2.66,2.66,0,0,0-.52-.78A2.27,2.27,0,0,0,176,174a2,2,0,0,0-1-.14,2.07,2.07,0,0,0-.94.3,2.26,2.26,0,0,0-.66.63,2.89,2.89,0,0,0-.4.86,4.07,4.07,0,0,0-.15,1l4.66-.39A3.23,3.23,0,0,0,177.27,175.29Z"/><path class="cls-3" d="M180.07,178.66l1.17-.1.12,1.48-1.17.1Zm-.6-8.49.95-.08.25,3,.17,4.52-.53,0-.59-4.49Z"/><path class="cls-3" d="M187.52,169.49l.84,10-.95.08-.84-10Z"/><path class="cls-3" d="M191.27,170.68a2.47,2.47,0,0,1,0,.61,2.12,2.12,0,0,1-.18.58,1.78,1.78,0,0,1-.35.49,1.38,1.38,0,0,1-.53.33l-.05-.6a.65.65,0,0,0,.29-.23,1.32,1.32,0,0,0,.18-.36,1.79,1.79,0,0,0,.09-.41,1.45,1.45,0,0,0,0-.37l-.59,0-.12-1.48,1.17-.1Z"/><path class="cls-3" d="M194.2,168.93l.84,10-.88.07-.84-10Z"/><path class="cls-3" d="M196.78,168.71l.84,10-.88.07-.84-10Z"/><path class="cls-3" d="M203.39,170.94l.1,1.21h0a2.76,2.76,0,0,1,.83-1.12,2.56,2.56,0,0,1,1.41-.5,2.46,2.46,0,0,1,1.32.24,1.72,1.72,0,0,1,.86,1,2.22,2.22,0,0,1,.86-1.14,2.72,2.72,0,0,1,1.31-.46q2.39-.2,2.6,2.32l.41,4.88-.88.07-.41-4.84a2.13,2.13,0,0,0-.49-1.33,1.62,1.62,0,0,0-1.36-.36,1.89,1.89,0,0,0-.93.3,1.68,1.68,0,0,0-.55.63,2.47,2.47,0,0,0-.24.86,5,5,0,0,0,0,1l.34,4.07-.88.07-.41-4.88a3.06,3.06,0,0,0-.13-.68,1.61,1.61,0,0,0-.3-.55,1.19,1.19,0,0,0-.5-.34,1.65,1.65,0,0,0-.72-.08,2.18,2.18,0,0,0-1,.28,1.78,1.78,0,0,0-.62.61,2.48,2.48,0,0,0-.31.87,4.18,4.18,0,0,0,0,1.06l.34,4-.88.07-.61-7.2Z"/><path class="cls-3" d="M214.48,171.13a2.06,2.06,0,0,1,.54-.8,2.57,2.57,0,0,1,.86-.51,4.39,4.39,0,0,1,1.13-.24,5,5,0,0,1,1,0,2.3,2.3,0,0,1,.88.27,1.86,1.86,0,0,1,.67.65,2.54,2.54,0,0,1,.34,1.16l.32,3.82a.46.46,0,0,0,.56.49.68.68,0,0,0,.27-.08l.06.74-.27.06-.3,0a1.33,1.33,0,0,1-.54,0,.72.72,0,0,1-.34-.23,1,1,0,0,1-.18-.39,3.41,3.41,0,0,1-.08-.51h0a5.82,5.82,0,0,1-.43.66,2.38,2.38,0,0,1-.51.5,2.5,2.5,0,0,1-.66.34,3.78,3.78,0,0,1-.91.17,3.63,3.63,0,0,1-1,0,2.12,2.12,0,0,1-.8-.31,1.81,1.81,0,0,1-.57-.61,2.19,2.19,0,0,1-.27-.93,1.86,1.86,0,0,1,.24-1.21,2.11,2.11,0,0,1,.83-.72,5.09,5.09,0,0,1,1.22-.42l1.39-.29.48-.11a.86.86,0,0,0,.34-.18.68.68,0,0,0,.19-.3,1.23,1.23,0,0,0,0-.48,1.61,1.61,0,0,0-.21-.72,1.16,1.16,0,0,0-.44-.42,1.64,1.64,0,0,0-.62-.18,4.07,4.07,0,0,0-.74,0,2.22,2.22,0,0,0-1.33.51,1.56,1.56,0,0,0-.45,1.32l-.88.07A2.94,2.94,0,0,1,214.48,171.13Zm4.57,1.78a.5.5,0,0,1-.3.25l-.41.13-1.14.27a6.38,6.38,0,0,0-1.06.32,2.13,2.13,0,0,0-.77.51,1.05,1.05,0,0,0-.24.84,1.28,1.28,0,0,0,.18.58,1.45,1.45,0,0,0,.39.42,1.55,1.55,0,0,0,.54.24,1.89,1.89,0,0,0,.61,0,3,3,0,0,0,.95-.23,2.38,2.38,0,0,0,.76-.51,2.13,2.13,0,0,0,.61-1.72l-.1-1.14Z"/><path class="cls-3" d="M222.09,166.58l.53,6.25,3.7-3.82,1.17-.1-2.84,2.92,3.66,4.26-1.1.09L224,172.5l-1.32,1.31.23,2.73-.88.07-.84-10Z"/><path class="cls-3" d="M229.47,173.59a2.71,2.71,0,0,0,.5.88,2.44,2.44,0,0,0,.8.61,2.08,2.08,0,0,0,1.1.17,2.15,2.15,0,0,0,1.46-.63,2.65,2.65,0,0,0,.64-1.4l.88-.07a3.52,3.52,0,0,1-.86,2,3.07,3.07,0,0,1-2.06.85,3.37,3.37,0,0,1-1.5-.18,2.72,2.72,0,0,1-1.08-.74,3.58,3.58,0,0,1-.68-1.16,5.54,5.54,0,0,1-.31-1.44,5.25,5.25,0,0,1,.07-1.41,3.75,3.75,0,0,1,.48-1.27,2.91,2.91,0,0,1,.94-1,3.12,3.12,0,0,1,1.44-.45,2.86,2.86,0,0,1,2.58,1.05,3.8,3.8,0,0,1,.66,1.25,5.75,5.75,0,0,1,.26,1.47l-5.54.47A3.9,3.9,0,0,0,229.47,173.59Zm4.13-3.05a2.66,2.66,0,0,0-.52-.78,2.27,2.27,0,0,0-.76-.51,2,2,0,0,0-1-.14,2.07,2.07,0,0,0-.94.3,2.26,2.26,0,0,0-.66.63,2.89,2.89,0,0,0-.4.86,4.07,4.07,0,0,0-.15,1l4.66-.39A3.23,3.23,0,0,0,233.6,170.54Z"/><path class="cls-3" d="M145.44,188.86l.1,1.21h0a2.76,2.76,0,0,1,.83-1.12,2.56,2.56,0,0,1,1.41-.5,2.46,2.46,0,0,1,1.32.24,1.72,1.72,0,0,1,.86,1,2.22,2.22,0,0,1,.86-1.14,2.72,2.72,0,0,1,1.31-.46q2.39-.2,2.6,2.32l.41,4.88-.88.07-.41-4.84a2.13,2.13,0,0,0-.49-1.33,1.62,1.62,0,0,0-1.36-.36,1.89,1.89,0,0,0-.93.3,1.68,1.68,0,0,0-.55.63,2.47,2.47,0,0,0-.24.86,5,5,0,0,0,0,1l.34,4.07-.88.07-.41-4.88a3.06,3.06,0,0,0-.13-.68,1.61,1.61,0,0,0-.3-.55,1.19,1.19,0,0,0-.5-.34,1.65,1.65,0,0,0-.72-.08,2.18,2.18,0,0,0-1,.28,1.78,1.78,0,0,0-.62.61,2.48,2.48,0,0,0-.31.87,4.18,4.18,0,0,0,0,1.06l.34,4-.88.07-.61-7.2Z"/><path class="cls-3" d="M156.38,187.94l2.89,5.94,1.7-6.33.88-.07L159.42,196a8,8,0,0,1-.3.79,1.76,1.76,0,0,1-.33.51,1.23,1.23,0,0,1-.45.29,2.61,2.61,0,0,1-.68.14h-.41a.85.85,0,0,1-.26,0l-.06-.74.3,0h.3a1.19,1.19,0,0,0,.47-.12,1,1,0,0,0,.31-.26,1.34,1.34,0,0,0,.21-.38l.17-.48.24-.84L155.44,188Z"/><path class="cls-3" d="M166.8,187.06l2.36,6h0l1.24-6.31,1-.08,2.28,6h0l1.32-6.32.93-.08-1.71,7.39-1,.08L171,187.86h0l-1.25,6.2-1,.08-2.92-7Z"/><path class="cls-3" d="M177.2,187.31a2.06,2.06,0,0,1,.54-.8,2.57,2.57,0,0,1,.86-.51,4.39,4.39,0,0,1,1.13-.24,5,5,0,0,1,1,0,2.3,2.3,0,0,1,.88.27,1.86,1.86,0,0,1,.67.65,2.54,2.54,0,0,1,.34,1.16l.32,3.82a.46.46,0,0,0,.56.49.68.68,0,0,0,.27-.08l.06.74-.27.06-.3,0a1.33,1.33,0,0,1-.54,0,.72.72,0,0,1-.34-.23,1,1,0,0,1-.18-.39,3.41,3.41,0,0,1-.08-.51h0a5.82,5.82,0,0,1-.43.66,2.38,2.38,0,0,1-.51.5,2.5,2.5,0,0,1-.66.34,3.78,3.78,0,0,1-.91.17,3.63,3.63,0,0,1-1,0,2.12,2.12,0,0,1-.8-.31,1.81,1.81,0,0,1-.57-.61,2.19,2.19,0,0,1-.27-.93,1.86,1.86,0,0,1,.24-1.21,2.11,2.11,0,0,1,.83-.72,5.09,5.09,0,0,1,1.22-.42l1.39-.29.48-.11a.86.86,0,0,0,.34-.18.68.68,0,0,0,.19-.3,1.23,1.23,0,0,0,0-.48,1.61,1.61,0,0,0-.21-.72,1.16,1.16,0,0,0-.44-.42,1.64,1.64,0,0,0-.62-.18,4.07,4.07,0,0,0-.74,0,2.22,2.22,0,0,0-1.33.51,1.56,1.56,0,0,0-.45,1.32l-.88.07A2.94,2.94,0,0,1,177.2,187.31Zm4.57,1.78a.5.5,0,0,1-.3.25l-.41.13-1.14.27a6.38,6.38,0,0,0-1.06.32,2.13,2.13,0,0,0-.77.51,1.05,1.05,0,0,0-.24.84,1.28,1.28,0,0,0,.18.58,1.45,1.45,0,0,0,.39.42,1.55,1.55,0,0,0,.54.24,1.89,1.89,0,0,0,.61,0,3,3,0,0,0,.95-.23,2.38,2.38,0,0,0,.76-.51,2.13,2.13,0,0,0,.61-1.72l-.1-1.14Z"/><path class="cls-3" d="M184.29,185.59l2.89,5.94,1.7-6.33.88-.07-2.43,8.55a8,8,0,0,1-.3.79,1.76,1.76,0,0,1-.33.51,1.23,1.23,0,0,1-.45.29,2.61,2.61,0,0,1-.68.14h-.41a.85.85,0,0,1-.26,0l-.06-.74.3,0h.3a1.19,1.19,0,0,0,.47-.12,1,1,0,0,0,.31-.26,1.34,1.34,0,0,0,.21-.38l.17-.48.24-.84-3.48-6.93Z"/><path class="cls-3" d="M200.13,191.51l-.11-1.3h0a2.5,2.5,0,0,1-.92,1.19,2.9,2.9,0,0,1-1.44.51,3.21,3.21,0,0,1-1.18-.09,1.94,1.94,0,0,1-.83-.47,2.18,2.18,0,0,1-.51-.81,4.32,4.32,0,0,1-.24-1.13l-.39-4.67.88-.07.39,4.69a2.35,2.35,0,0,0,.58,1.44,2.28,2.28,0,0,0,2.47.05,2.09,2.09,0,0,0,.61-.71,2.94,2.94,0,0,0,.31-1,4.58,4.58,0,0,0,0-1.08l-.32-3.78.88-.07.61,7.2Z"/><path class="cls-3" d="M202.8,184l.12,1.37h0a2.36,2.36,0,0,1,.9-1.25,3,3,0,0,1,1.53-.54,3.15,3.15,0,0,1,1.46.19,3,3,0,0,1,1.08.74,3.55,3.55,0,0,1,.7,1.16,5.55,5.55,0,0,1,.25,2.92,3.55,3.55,0,0,1-.5,1.26,2.88,2.88,0,0,1-.94.91,3.21,3.21,0,0,1-1.41.42,3.24,3.24,0,0,1-.79,0,2.78,2.78,0,0,1-.75-.23,2.38,2.38,0,0,1-.63-.44,2.07,2.07,0,0,1-.46-.65h0l.34,4-.88.07L202,184.1Zm5,2.08a3.1,3.1,0,0,0-.5-.95,2.32,2.32,0,0,0-.79-.64,2,2,0,0,0-1.1-.18,2.64,2.64,0,0,0-1.19.35,2.12,2.12,0,0,0-.73.74,2.64,2.64,0,0,0-.33,1,5.67,5.67,0,0,0,0,1.18,4.73,4.73,0,0,0,.23,1.1,2.88,2.88,0,0,0,.51.95,2.33,2.33,0,0,0,.84.64,2.37,2.37,0,0,0,1.2.17,2,2,0,0,0,1.05-.36,2.31,2.31,0,0,0,.67-.77,3.1,3.1,0,0,0,.34-1,4.73,4.73,0,0,0-.19-2.22Z"/><path class="cls-3" d="M211,189.1l1.17-.1.12,1.48-1.17.1Z"/></g></g></svg>