<svg id="Layer_1" data-name="Layer 1" xmlns="http://www.w3.org/2000/svg" xmlns:xlink="http://www.w3.org/1999/xlink" viewBox="0 0 360 360"><defs><style>.cls-1{fill:none;}.cls-2{clip-path:url(#clip-path);}.cls-3{fill:#f29d35;}.cls-4{clip-path:url(#clip-path-2);}.cls-5{clip-path:url(#clip-path-3);}.cls-6{opacity:0.5;}.cls-7{clip-path:url(#clip-path-4);}.cls-8{fill:#fef5f3;opacity:0.87;}.cls-9{font-size:18px;fill:#221f1f;font-family:HelveticaNeue-Bold, Helvetica Neue;font-weight:700;}.cls-10{letter-spacing:-0.11em;}.cls-11{letter-spacing:-0.02em;}.cls-12{letter-spacing:0.02em;}</style><clipPath id="clip-path"><rect class="cls-1" x="54.6" y="55.83" width="248.77" height="248.77"/></clipPath><clipPath id="clip-path-2"><rect class="cls-1" x="182.31" y="154.77" width="122.53" height="31.48"/></clipPath><clipPath id="clip-path-3"><rect class="cls-1" x="182.31" y="154.77" width="122.53" height="31.48"/></clipPath><clipPath id="clip-path-4"><rect class="cls-1" x="173.31" y="147.77" width="140.53" height="39.48"/></clipPath></defs><title>circles_male</title><g class="cls-2"><path class="cls-3" d="M179,304.6A124.39,124.39,0,1,0,54.6,180.22,124.39,124.39,0,0,0,179,304.6"/></g><g class="cls-4"><g class="cls-5"><g class="cls-6"><g class="cls-7"><path class="cls-8" d="M182.31,186.25H304.84s-.26-19.52-3.5-31.48"/></g></g></g></g><text class="cls-9" transform="translate(97.55 154.64)"><tspan class="cls-10">Y</tspan><tspan x="10.01" y="0">our d</tspan><tspan class="cls-11" x="54.68" y="0">r</tspan><tspan x="61.36" y="0">eam agency </tspan><tspan x="8.66" y="21.6">has o</tspan><tspan class="cls-11" x="55.33" y="21.6">f</tspan><tspan x="61" y="21.6">fe</tspan><tspan class="cls-11" x="77.33" y="21.6">r</tspan><tspan x="84.01" y="21.6">ed you a </tspan><tspan x="-10.81" y="43.2">position. As an inte</tspan><tspan class="cls-12" x="153.15" y="43.2">r</tspan><tspan x="160.48" y="43.2">n. </tspan><tspan x="18.33" y="64.8">Do you take it?</tspan></text></svg>