<svg xmlns="http://www.w3.org/2000/svg" xmlns:xlink="http://www.w3.org/1999/xlink" viewBox="0 0 360 360"><defs><style>.cls-1,.cls-9{fill:none;}.cls-2{clip-path:url(#clip-path);}.cls-3{fill:#f2c12e;}.cls-4{clip-path:url(#clip-path-2);}.cls-5{clip-path:url(#clip-path-3);}.cls-6{opacity:0.5;}.cls-7{clip-path:url(#clip-path-4);}.cls-8{fill:#fff;}.cls-9{stroke:#fff;stroke-width:0.56px;}.cls-10{font-size:18px;fill:#221f1f;font-family:HelveticaNeue-Bold, Helvetica Neue;font-weight:700;}.cls-11{letter-spacing:-0.11em;}.cls-12{letter-spacing:-0.02em;}.cls-13{letter-spacing:-0.02em;}.cls-14{letter-spacing:-0.07em;}.cls-15{letter-spacing:-0.09em;}</style><clipPath id="clip-path"><rect class="cls-1" x="57.18" y="56.94" width="246.62" height="246.62"/></clipPath><clipPath id="clip-path-2"><rect class="cls-1" x="55.97" y="147.88" width="123.74" height="31.89"/></clipPath><clipPath id="clip-path-3"><rect class="cls-1" x="55.97" y="147.88" width="123.74" height="31.89"/></clipPath><clipPath id="clip-path-4"><rect class="cls-1" x="46.97" y="140.88" width="141.74" height="39.89"/></clipPath></defs><title>circles_male</title><g id="Layer_5" data-name="Layer 5"><g class="cls-2"><path class="cls-3" d="M180.49,303.56A123.31,123.31,0,1,0,57.18,180.25,123.31,123.31,0,0,0,180.49,303.56"/></g><g class="cls-4"><g class="cls-5"><g class="cls-6"><g class="cls-7"><path class="cls-8" d="M179.71,179.49H56.26S57.09,158,61.41,148"/><path class="cls-9" d="M179.71,179.49H56.26S57.09,158,61.41,148"/></g></g></g></g><text class="cls-10" transform="translate(100.99 141.08)"><tspan class="cls-11">Y</tspan><tspan x="10.01" y="0">ou get a job o</tspan><tspan class="cls-12" x="127.69" y="0">f</tspan><tspan x="133.36" y="0">fer </tspan><tspan x="-7.5" y="21.6">f</tspan><tspan class="cls-13" x="-1.5" y="21.6">r</tspan><tspan x="5.18" y="21.6">om an agency that </tspan><tspan x="-20.3" y="43.2">is known for it</tspan><tspan class="cls-14" x="101.32" y="43.2">’</tspan><tspan x="104.99" y="43.2">s sleaz</tspan><tspan class="cls-14" x="163.98" y="43.2">y</tspan><tspan x="171.99" y="43.2">, </tspan><tspan x="-23.96" y="64.8">client-stealing behavio</tspan><tspan class="cls-15" x="170.3" y="64.8">r</tspan><tspan x="175.64" y="64.8">. </tspan><tspan x="14" y="86.4">Do you take it?</tspan></text></g></svg>