<svg xmlns="http://www.w3.org/2000/svg" xmlns:xlink="http://www.w3.org/1999/xlink" viewBox="0 0 360 360"><defs><style>.cls-1,.cls-8{fill:none;}.cls-2{clip-path:url(#clip-path);}.cls-3{fill:#f25252;}.cls-4{clip-path:url(#clip-path-2);}.cls-5{opacity:0.5;}.cls-6{clip-path:url(#clip-path-4);}.cls-7{fill:#fef5f3;opacity:0.87;}.cls-8{stroke:#fff;stroke-width:0.6px;}.cls-9{font-size:18px;fill:#221f1f;font-family:HelveticaNeue-Bold, Helvetica Neue;font-weight:700;}.cls-10{letter-spacing:-0.11em;}.cls-11{letter-spacing:-0.02em;}</style><clipPath id="clip-path"><rect class="cls-1" x="54.68" y="55.52" width="249.9" height="249.9"/></clipPath><clipPath id="clip-path-2"><rect class="cls-1" x="180.68" y="179.69" width="111.88" height="110.46"/></clipPath><clipPath id="clip-path-4"><rect class="cls-1" x="171.24" y="178.61" width="130.75" height="119.05"/></clipPath></defs><title>circles_male</title><g id="Layer_2" data-name="Layer 2"><g class="cls-2"><path class="cls-3" d="M179.62,305.42A124.95,124.95,0,1,0,54.68,180.47,124.95,124.95,0,0,0,179.62,305.42"/></g><g class="cls-4"><g class="cls-4"><g class="cls-5"><g class="cls-6"><path class="cls-7" d="M292.31,245c-15.85,26.3-42.64,45.17-44.52,44.87l-66.86-110"/><path class="cls-8" d="M292.31,245c-15.85,26.3-42.64,45.17-44.52,44.87l-66.86-110"/></g></g></g></g><text class="cls-9" transform="translate(78.55 150.98)"><tspan class="cls-10">Y</tspan><tspan x="10.01" y="0">our significant other is </tspan><tspan x="-17.67" y="21.6">complaining that you spend </tspan><tspan x="1.84" y="43.2">too much time at work. </tspan><tspan x="7.46" y="64.8">How do you </tspan><tspan class="cls-11" x="114.47" y="64.8">r</tspan><tspan x="121.15" y="64.8">espond?</tspan></text></g></svg>