<svg xmlns="http://www.w3.org/2000/svg" xmlns:xlink="http://www.w3.org/1999/xlink" viewBox="0 0 360 360"><defs><style>.cls-1{fill:none;}.cls-2{clip-path:url(#clip-path);}.cls-3{fill:#f27649;}.cls-4{clip-path:url(#clip-path-2);}.cls-5{opacity:0.5;}.cls-6{clip-path:url(#clip-path-4);}.cls-7{fill:#fff;}.cls-8{font-size:18px;fill:#221f1f;font-family:HelveticaNeue-Bold, Helvetica Neue;font-weight:700;}.cls-9{letter-spacing:-0.02em;}.cls-10{letter-spacing:-0.07em;}.cls-11{fill:#14a697;}.cls-12{opacity:0.58;}.cls-13{fill:#fef5f3;opacity:0.87;}</style><clipPath id="clip-path"><rect class="cls-1" x="56" y="56.43" width="247.57" height="247.57"/></clipPath><clipPath id="clip-path-2"><rect class="cls-1" x="179.94" y="74.27" width="107.32" height="105.37"/></clipPath><clipPath id="clip-path-4"><rect class="cls-1" x="170.94" y="67.27" width="125.32" height="113.37"/></clipPath></defs><title>questions_male</title><g id="Layer_4" data-name="Layer 4"><g class="cls-2"><path class="cls-3" d="M179.78,304A123.79,123.79,0,1,0,56,180.21,123.79,123.79,0,0,0,179.78,304"/></g><g class="cls-4"><g class="cls-4"><g class="cls-5"><g class="cls-6"><path class="cls-7" d="M287.26,119.05c-3.24-8.88-22.59-33.7-41-44.78L179.94,179.64"/></g></g></g></g><text class="cls-8" transform="translate(73.04 174.14)">The<tspan class="cls-9" x="32" y="0">r</tspan><tspan x="38.68" y="0">e</tspan><tspan class="cls-10" x="49.01" y="0">’</tspan><tspan x="52.69" y="0">s a new guy on the </tspan><tspan x="7.86" y="21.6">team. What do you do?</tspan></text><polygon class="cls-11" points="47.24 248.05 95.22 242.49 139.74 248.74 157.82 265.44 73.67 266.83 30.55 264.05 47.24 248.05"/><polygon class="cls-11" points="227.65 203.09 265.25 203.09 307.91 201.14 342.61 203.74 349.12 217.99 317.31 223.83 226.92 222.53 203.06 220.59 227.65 203.09"/><g class="cls-12"><path class="cls-13" d="M60.34,250.4l.12,4.34,5.93-.17-.12-4.34,1,0,.29,10-1,0-.14-4.84-5.93.17.14,4.84-1,0-.29-10Z"/><path class="cls-13" d="M69.37,254a2.06,2.06,0,0,1,.59-.77,2.57,2.57,0,0,1,.89-.46,4.34,4.34,0,0,1,1.14-.17,5,5,0,0,1,1,.06,2.31,2.31,0,0,1,.86.32,1.86,1.86,0,0,1,.64.69,2.56,2.56,0,0,1,.27,1.18l.11,3.83a.46.46,0,0,0,.53.52.67.67,0,0,0,.28-.06l0,.74-.27.05-.3,0a1.34,1.34,0,0,1-.54-.08.71.71,0,0,1-.32-.25,1,1,0,0,1-.16-.39,3.37,3.37,0,0,1,0-.51h0a5.84,5.84,0,0,1-.47.64,2.37,2.37,0,0,1-.53.47,2.47,2.47,0,0,1-.68.3,3.7,3.7,0,0,1-.91.12,3.62,3.62,0,0,1-.95-.09,2.1,2.1,0,0,1-.78-.36,1.8,1.8,0,0,1-.54-.64,2.17,2.17,0,0,1-.22-.94,1.86,1.86,0,0,1,.3-1.19,2.1,2.1,0,0,1,.87-.68,5.06,5.06,0,0,1,1.24-.35l1.4-.21.49-.08a.85.85,0,0,0,.34-.16.68.68,0,0,0,.21-.29,1.22,1.22,0,0,0,.06-.48,1.6,1.6,0,0,0-.17-.73,1.16,1.16,0,0,0-.42-.44,1.64,1.64,0,0,0-.61-.21,4,4,0,0,0-.74,0,2.22,2.22,0,0,0-1.36.44,1.56,1.56,0,0,0-.52,1.3l-.88,0A2.93,2.93,0,0,1,69.37,254Zm4.47,2a.5.5,0,0,1-.31.23,3.22,3.22,0,0,1-.42.11l-1.15.21a6.26,6.26,0,0,0-1.08.26,2.13,2.13,0,0,0-.79.46,1.05,1.05,0,0,0-.29.83,1.27,1.27,0,0,0,.15.59,1.46,1.46,0,0,0,.37.44,1.57,1.57,0,0,0,.53.27,1.9,1.9,0,0,0,.6.08,3,3,0,0,0,1-.18,2.38,2.38,0,0,0,.79-.47,2.19,2.19,0,0,0,.52-.73,2.15,2.15,0,0,0,.18-1l0-1.15Z"/><path class="cls-13" d="M82,259l0,.74L76,260l0-.71,4.55-5.9-4.39.13,0-.74,5.51-.16,0,.63-4.6,6Z"/><path class="cls-13" d="M83.69,257.34a2.72,2.72,0,0,0,.45.9,2.44,2.44,0,0,0,.76.65,2.07,2.07,0,0,0,1.09.23,2.15,2.15,0,0,0,1.5-.55,2.65,2.65,0,0,0,.72-1.37l.88,0a3.52,3.52,0,0,1-1,1.93,3.07,3.07,0,0,1-2.1.73,3.37,3.37,0,0,1-1.49-.26,2.71,2.71,0,0,1-1-.8,3.56,3.56,0,0,1-.62-1.2,5.54,5.54,0,0,1-.23-1.46,5.25,5.25,0,0,1,.15-1.41,3.74,3.74,0,0,1,.55-1.24,2.91,2.91,0,0,1,1-.9,3.12,3.12,0,0,1,1.47-.37,2.86,2.86,0,0,1,2.52,1.2,3.79,3.79,0,0,1,.59,1.29,5.68,5.68,0,0,1,.18,1.49l-5.56.16A3.92,3.92,0,0,0,83.69,257.34ZM88,254.53a2.68,2.68,0,0,0-.48-.81,2.27,2.27,0,0,0-.73-.55,2.24,2.24,0,0,0-1.92.06,2.27,2.27,0,0,0-.7.59,2.87,2.87,0,0,0-.45.84,4.05,4.05,0,0,0-.2,1l4.67-.13A3.25,3.25,0,0,0,88,254.53Z"/><path class="cls-13" d="M94.84,249.41l.12,4h0a2.12,2.12,0,0,1,.87-1.08,2.64,2.64,0,0,1,1.4-.44,3.55,3.55,0,0,1,1.27.16,2,2,0,0,1,.83.53,2.08,2.08,0,0,1,.46.86,4.9,4.9,0,0,1,.16,1.16l.13,4.65-.88,0-.13-4.51a4.19,4.19,0,0,0-.11-.86,1.84,1.84,0,0,0-.31-.68,1.41,1.41,0,0,0-.58-.45,2.06,2.06,0,0,0-.89-.14,2.24,2.24,0,0,0-.94.22,2,2,0,0,0-.68.54,2.39,2.39,0,0,0-.43.8,3.17,3.17,0,0,0-.15,1l.12,4.21-.88,0-.29-10Z"/><path class="cls-13" d="M102.38,249.2l0,1.41-.88,0,0-1.41Zm.08,2.77.21,7.22-.88,0-.21-7.22Z"/><path class="cls-13" d="M105,251.89l0,1.22h0a2.77,2.77,0,0,1,.89-1.08,2.56,2.56,0,0,1,1.44-.42,2.46,2.46,0,0,1,1.31.31,1.72,1.72,0,0,1,.81,1,2.21,2.21,0,0,1,.92-1.09,2.73,2.73,0,0,1,1.33-.39q2.39-.07,2.47,2.46l.14,4.9-.88,0-.14-4.86a2.14,2.14,0,0,0-.42-1.35,1.63,1.63,0,0,0-1.34-.43,1.89,1.89,0,0,0-.94.24,1.69,1.69,0,0,0-.59.6,2.49,2.49,0,0,0-.29.84,5.07,5.07,0,0,0-.06,1l.12,4.09-.88,0-.14-4.9a3.09,3.09,0,0,0-.1-.69,1.61,1.61,0,0,0-.27-.57,1.17,1.17,0,0,0-.48-.37,1.62,1.62,0,0,0-.72-.12,2.18,2.18,0,0,0-1,.23,1.77,1.77,0,0,0-.66.58,2.47,2.47,0,0,0-.36.85,4.19,4.19,0,0,0-.1,1.06l.12,4-.88,0-.21-7.22Z"/><path class="cls-13" d="M116.49,257.31l1.18,0,0,1.48-1.18,0Z"/></g><g class="cls-12"><path class="cls-13" d="M222.08,216.55a2.1,2.1,0,0,0,.71.81,2.9,2.9,0,0,0,1.05.42,5.94,5.94,0,0,0,1.29.11,3.69,3.69,0,0,0,.85-.13,3,3,0,0,0,.85-.37,2.19,2.19,0,0,0,.65-.64,1.59,1.59,0,0,0,.25-.94,1.36,1.36,0,0,0-.2-.72,1.71,1.71,0,0,0-.5-.51,2.84,2.84,0,0,0-.67-.33,6.55,6.55,0,0,0-.72-.2l-2.24-.5a6.52,6.52,0,0,1-.85-.26,2.4,2.4,0,0,1-.73-.43,2.1,2.1,0,0,1-.51-.68,2.35,2.35,0,0,1-.21-1,3.18,3.18,0,0,1,.12-.86,2.36,2.36,0,0,1,.51-.93,3.06,3.06,0,0,1,1-.76,4.24,4.24,0,0,1,1.71-.34,5,5,0,0,1,1.42.17,3.48,3.48,0,0,1,1.19.56,2.83,2.83,0,0,1,1.15,2.3l-1,0a2.32,2.32,0,0,0-.28-1,2.23,2.23,0,0,0-.62-.7,2.65,2.65,0,0,0-.86-.42,3.45,3.45,0,0,0-1-.13,4.24,4.24,0,0,0-.94.12,2.35,2.35,0,0,0-.79.35,1.74,1.74,0,0,0-.54.62,1.92,1.92,0,0,0-.19.94,1.44,1.44,0,0,0,.13.61,1.3,1.3,0,0,0,.34.43,1.75,1.75,0,0,0,.49.28,3.7,3.7,0,0,0,.58.17l2.45.55a6.88,6.88,0,0,1,1,.32,3.31,3.31,0,0,1,.84.49,2.14,2.14,0,0,1,.57.72,2.47,2.47,0,0,1,.22,1,4.11,4.11,0,0,1,0,.45,2.27,2.27,0,0,1-.16.6,3,3,0,0,1-.36.65,2.4,2.4,0,0,1-.66.59,3.91,3.91,0,0,1-1,.44,6.19,6.19,0,0,1-1.51.19,6.35,6.35,0,0,1-1.64-.17,3.52,3.52,0,0,1-1.3-.6,2.74,2.74,0,0,1-.84-1.06,3.53,3.53,0,0,1-.28-1.58l1,0A2.81,2.81,0,0,0,222.08,216.55Z"/><path class="cls-13" d="M230.76,208.38l.08,4h0a2.11,2.11,0,0,1,.87-1.07,2.63,2.63,0,0,1,1.41-.43,3.52,3.52,0,0,1,1.27.17,2,2,0,0,1,.83.54,2.07,2.07,0,0,1,.45.87,4.86,4.86,0,0,1,.15,1.16l.09,4.65-.88,0-.09-4.51a4.13,4.13,0,0,0-.1-.86,1.82,1.82,0,0,0-.31-.69,1.43,1.43,0,0,0-.58-.45,2.09,2.09,0,0,0-.89-.15,2.25,2.25,0,0,0-.94.21,2,2,0,0,0-.69.53,2.41,2.41,0,0,0-.43.79,3.19,3.19,0,0,0-.15,1l.08,4.21-.88,0-.2-10Z"/><path class="cls-13" d="M242,211a3.19,3.19,0,0,1,1.09.81,3.58,3.58,0,0,1,.68,1.2,5,5,0,0,1,.06,3,3.58,3.58,0,0,1-.63,1.22,3.12,3.12,0,0,1-1.05.84,3.71,3.71,0,0,1-2.93.06,3.1,3.1,0,0,1-1.09-.8,3.55,3.55,0,0,1-.68-1.2,5,5,0,0,1-.06-3,3.54,3.54,0,0,1,.63-1.22,3.17,3.17,0,0,1,1.05-.85A3.63,3.63,0,0,1,242,211Zm-2.56.75a2.43,2.43,0,0,0-.78.72,3.17,3.17,0,0,0-.46,1,4,4,0,0,0,0,2.25,3.19,3.19,0,0,0,.5,1,2.43,2.43,0,0,0,.8.68,2.43,2.43,0,0,0,2.21,0,2.43,2.43,0,0,0,.78-.71,3.17,3.17,0,0,0,.46-1,4,4,0,0,0,0-2.25,3.17,3.17,0,0,0-.49-1,2.45,2.45,0,0,0-.81-.68,2.43,2.43,0,0,0-2.21,0Z"/><path class="cls-13" d="M245.45,210.86l2,6.15h0l1.64-6.22,1,0,1.89,6.15h0l1.73-6.22.94,0-2.18,7.27-1,0-1.9-6h0L247.95,218l-1,0-2.47-7.18Z"/><path class="cls-13" d="M260.32,207.79l.08,4h0a2.11,2.11,0,0,1,.87-1.07,2.64,2.64,0,0,1,1.41-.43,3.54,3.54,0,0,1,1.27.17,2,2,0,0,1,.83.54,2.06,2.06,0,0,1,.45.87,4.87,4.87,0,0,1,.15,1.16l.09,4.65-.88,0-.09-4.51a4.13,4.13,0,0,0-.1-.86,1.82,1.82,0,0,0-.31-.69,1.43,1.43,0,0,0-.58-.45,2.09,2.09,0,0,0-.89-.15,2.25,2.25,0,0,0-.94.21,2,2,0,0,0-.69.53,2.41,2.41,0,0,0-.43.79,3.19,3.19,0,0,0-.15,1l.08,4.21-.88,0-.2-10Z"/><path class="cls-13" d="M267.86,207.64l0,1.41-.88,0,0-1.41Zm.05,2.77.14,7.22-.88,0-.14-7.22Z"/><path class="cls-13" d="M270.42,210.36l0,1.22h0a2.76,2.76,0,0,1,.9-1.07,2.56,2.56,0,0,1,1.44-.41,2.46,2.46,0,0,1,1.3.32,1.72,1.72,0,0,1,.8,1,2.22,2.22,0,0,1,.93-1.08,2.73,2.73,0,0,1,1.34-.38q2.39,0,2.44,2.49l.1,4.9-.88,0-.1-4.86a2.14,2.14,0,0,0-.41-1.36,1.62,1.62,0,0,0-1.34-.44,1.88,1.88,0,0,0-.95.24,1.67,1.67,0,0,0-.59.59,2.46,2.46,0,0,0-.3.84,5.08,5.08,0,0,0-.07,1l.08,4.09-.88,0-.1-4.9a3.08,3.08,0,0,0-.09-.69,1.63,1.63,0,0,0-.26-.57,1.2,1.2,0,0,0-.48-.38,1.67,1.67,0,0,0-.72-.13,2.19,2.19,0,0,0-1,.22,1.78,1.78,0,0,0-.66.57,2.48,2.48,0,0,0-.37.85,4.19,4.19,0,0,0-.11,1.06l.08,4-.88,0-.14-7.22Z"/><path class="cls-13" d="M288,210v.74l-1.47,0,.1,4.87a1.58,1.58,0,0,0,.13.68c.08.16.28.25.6.26a7,7,0,0,0,.75-.06v.74l-.39,0-.39,0a1.3,1.3,0,0,1-1.6-1.58l-.1-4.94-1.26,0v-.74l1.26,0,0-2.17.88,0,0,2.17Z"/><path class="cls-13" d="M290.12,207.2l.08,4h0a2.11,2.11,0,0,1,.87-1.07,2.63,2.63,0,0,1,1.41-.43,3.53,3.53,0,0,1,1.27.17,2,2,0,0,1,.83.54,2.08,2.08,0,0,1,.45.87,4.91,4.91,0,0,1,.15,1.16l.09,4.65-.88,0-.09-4.51a4.13,4.13,0,0,0-.1-.86,1.82,1.82,0,0,0-.31-.69,1.42,1.42,0,0,0-.58-.45,2.08,2.08,0,0,0-.89-.15,2.24,2.24,0,0,0-.94.21,2,2,0,0,0-.69.53,2.38,2.38,0,0,0-.43.79,3.17,3.17,0,0,0-.16,1l.08,4.21-.88,0-.2-10Z"/><path class="cls-13" d="M297.57,214.66a2.72,2.72,0,0,0,.44.91,2.45,2.45,0,0,0,.76.66,2.08,2.08,0,0,0,1.08.24,2.14,2.14,0,0,0,1.5-.53,2.65,2.65,0,0,0,.73-1.36l.88,0a3.52,3.52,0,0,1-1,1.92,3.07,3.07,0,0,1-2.11.71,3.37,3.37,0,0,1-1.48-.27,2.7,2.7,0,0,1-1-.81,3.58,3.58,0,0,1-.6-1.21,5.54,5.54,0,0,1-.22-1.46,5.26,5.26,0,0,1,.16-1.4,3.73,3.73,0,0,1,.56-1.24,2.92,2.92,0,0,1,1-.89,3.13,3.13,0,0,1,1.47-.36,2.86,2.86,0,0,1,2.51,1.22,3.77,3.77,0,0,1,.58,1.29,5.74,5.74,0,0,1,.17,1.49l-5.56.11A3.88,3.88,0,0,0,297.57,214.66Zm4.31-2.78a2.68,2.68,0,0,0-.47-.81,2.29,2.29,0,0,0-.73-.56,2.23,2.23,0,0,0-1.92,0,2.25,2.25,0,0,0-.7.59,2.87,2.87,0,0,0-.45.83,4.07,4.07,0,0,0-.21,1l4.68-.09A3.25,3.25,0,0,0,301.88,211.88Z"/><path class="cls-13" d="M308.79,209.6l0,1.69h0a2.77,2.77,0,0,1,1-1.38,2.73,2.73,0,0,1,1.68-.47l0,.88a2.65,2.65,0,0,0-1.09.18,2.41,2.41,0,0,0-1.37,1.4,2.8,2.8,0,0,0-.18,1.06l.08,3.85-.88,0-.14-7.22Z"/><path class="cls-13" d="M316.65,209.55a3.21,3.21,0,0,1,1.09.81,3.58,3.58,0,0,1,.68,1.2,5,5,0,0,1,.06,3,3.59,3.59,0,0,1-.64,1.22,3.11,3.11,0,0,1-1.05.84,3.72,3.72,0,0,1-2.93.06,3.1,3.1,0,0,1-1.09-.8,3.55,3.55,0,0,1-.68-1.2,5,5,0,0,1-.06-3,3.55,3.55,0,0,1,.64-1.22,3.17,3.17,0,0,1,1.05-.85,3.63,3.63,0,0,1,2.93-.06Zm-2.55.75a2.42,2.42,0,0,0-.78.71,3.19,3.19,0,0,0-.46,1,4,4,0,0,0-.14,1.13,4,4,0,0,0,.18,1.12,3.2,3.2,0,0,0,.5,1,2.43,2.43,0,0,0,.8.68,2.43,2.43,0,0,0,2.21,0,2.42,2.42,0,0,0,.78-.72,3.16,3.16,0,0,0,.46-1,4,4,0,0,0,.14-1.13,4,4,0,0,0-.18-1.12,3.18,3.18,0,0,0-.5-1,2.44,2.44,0,0,0-.81-.68,2.43,2.43,0,0,0-2.21,0Z"/><path class="cls-13" d="M320.73,209.37l0,1.37h0a2.36,2.36,0,0,1,1-1.19,3,3,0,0,1,1.57-.44,3.15,3.15,0,0,1,1.44.28,2.94,2.94,0,0,1,1,.81,3.53,3.53,0,0,1,.63,1.2,5.57,5.57,0,0,1,.06,2.93,3.54,3.54,0,0,1-.58,1.23,2.88,2.88,0,0,1-1,.85,3.22,3.22,0,0,1-1.43.33,3.25,3.25,0,0,1-.79-.08,2.75,2.75,0,0,1-.73-.28,2.38,2.38,0,0,1-.61-.48,2.08,2.08,0,0,1-.41-.68h0l.08,4-.88,0-.2-9.88Zm4.89,2.4a3.11,3.11,0,0,0-.44-1,2.33,2.33,0,0,0-.75-.69,2,2,0,0,0-1.08-.25,2.63,2.63,0,0,0-1.21.28,2.13,2.13,0,0,0-.77.69,2.67,2.67,0,0,0-.39,1,5.63,5.63,0,0,0-.1,1.18,4.7,4.7,0,0,0,.16,1.11,2.88,2.88,0,0,0,.45,1,2.32,2.32,0,0,0,.8.69,2.37,2.37,0,0,0,1.19.25,2,2,0,0,0,1.07-.29,2.33,2.33,0,0,0,.72-.72,3.09,3.09,0,0,0,.4-1,4.72,4.72,0,0,0,0-2.22Z"/><path class="cls-13" d="M328.7,214a2.69,2.69,0,0,0,.45.91,2.43,2.43,0,0,0,.76.66,2.09,2.09,0,0,0,1.08.24,2.14,2.14,0,0,0,1.5-.53,2.64,2.64,0,0,0,.73-1.36l.88,0a3.52,3.52,0,0,1-1,1.92,3.08,3.08,0,0,1-2.11.71,3.37,3.37,0,0,1-1.48-.27,2.72,2.72,0,0,1-1-.81,3.57,3.57,0,0,1-.6-1.21,5.53,5.53,0,0,1-.22-1.46,5.25,5.25,0,0,1,.16-1.4,3.74,3.74,0,0,1,.56-1.24,2.91,2.91,0,0,1,1-.89,3.13,3.13,0,0,1,1.47-.36,2.86,2.86,0,0,1,2.51,1.22,3.77,3.77,0,0,1,.58,1.29,5.74,5.74,0,0,1,.17,1.49l-5.56.11A3.88,3.88,0,0,0,328.7,214Zm4.31-2.78a2.69,2.69,0,0,0-.47-.81,2.28,2.28,0,0,0-.73-.56,2.23,2.23,0,0,0-1.92,0,2.23,2.23,0,0,0-.7.59,2.86,2.86,0,0,0-.45.83,4.06,4.06,0,0,0-.21,1l4.68-.09A3.26,3.26,0,0,0,333,211.27Z"/><path class="cls-13" d="M339.4,210.4a1.44,1.44,0,0,0-.42-.49,1.73,1.73,0,0,0-.6-.28,2.73,2.73,0,0,0-.72-.08,2.86,2.86,0,0,0-.59.07,1.85,1.85,0,0,0-.55.22,1.2,1.2,0,0,0-.4.39,1.07,1.07,0,0,0-.14.59.82.82,0,0,0,.16.49,1.31,1.31,0,0,0,.38.34,2.39,2.39,0,0,0,.49.22l.49.14,1.18.24a3.34,3.34,0,0,1,.75.19,2.41,2.41,0,0,1,.67.37,1.9,1.9,0,0,1,.48.58,1.77,1.77,0,0,1,.2.82,1.81,1.81,0,0,1-.25,1,2.16,2.16,0,0,1-.67.68,2.88,2.88,0,0,1-.92.39,4.84,4.84,0,0,1-1,.13,3.32,3.32,0,0,1-2.08-.56,2.56,2.56,0,0,1-.94-1.91l.88,0a1.74,1.74,0,0,0,.68,1.34,2.36,2.36,0,0,0,1.49.43,3.29,3.29,0,0,0,.66-.08,2.13,2.13,0,0,0,.63-.25,1.51,1.51,0,0,0,.47-.44,1,1,0,0,0,.18-.64,1,1,0,0,0-.14-.54,1.13,1.13,0,0,0-.36-.36,2.29,2.29,0,0,0-.51-.23c-.19-.06-.39-.11-.59-.16l-1.14-.23a6.25,6.25,0,0,1-.8-.24,2.55,2.55,0,0,1-.64-.35,1.52,1.52,0,0,1-.44-.52,2,2,0,0,1,.06-1.72,1.9,1.9,0,0,1,.62-.64,3,3,0,0,1,.87-.37,4.26,4.26,0,0,1,1-.13,3.58,3.58,0,0,1,1,.12,2.33,2.33,0,0,1,.83.42,2.11,2.11,0,0,1,.58.72,2.58,2.58,0,0,1,.26,1l-.88,0A1.66,1.66,0,0,0,339.4,210.4Z"/><path class="cls-13" d="M342.58,214.68l1.18,0,0,1.48-1.18,0Z"/></g></g></svg>