<svg xmlns="http://www.w3.org/2000/svg" xmlns:xlink="http://www.w3.org/1999/xlink" viewBox="0 0 360 360"><defs><style>.cls-1,.cls-8{fill:none;}.cls-2{clip-path:url(#clip-path);}.cls-3{fill:#f25252;}.cls-4{clip-path:url(#clip-path-2);}.cls-5{opacity:0.5;}.cls-6{clip-path:url(#clip-path-4);}.cls-13,.cls-7{fill:#fef5f3;opacity:0.87;}.cls-8{stroke:#fff;stroke-width:0.6px;}.cls-9{font-size:18px;fill:#221f1f;font-family:HelveticaNeue-Bold, Helvetica Neue;font-weight:700;}.cls-10{letter-spacing:-0.11em;}.cls-11{letter-spacing:-0.02em;}.cls-12{fill:#f2c12e;}.cls-13{font-size:14px;font-family:HelveticaNeue-Light, Helvetica Neue;}.cls-14{opacity:0.58;}</style><clipPath id="clip-path"><rect class="cls-1" x="54.68" y="55.52" width="249.9" height="249.9"/></clipPath><clipPath id="clip-path-2"><rect class="cls-1" x="180.68" y="179.69" width="111.88" height="110.46"/></clipPath><clipPath id="clip-path-4"><rect class="cls-1" x="171.24" y="178.61" width="130.75" height="119.05"/></clipPath></defs><title>questions_male</title><g id="Layer_2" data-name="Layer 2"><g class="cls-2"><path class="cls-3" d="M179.62,305.42A124.95,124.95,0,1,0,54.68,180.47,124.95,124.95,0,0,0,179.62,305.42"/></g><g class="cls-4"><g class="cls-4"><g class="cls-5"><g class="cls-6"><path class="cls-7" d="M292.31,245c-15.85,26.3-42.64,45.17-44.52,44.87l-66.86-110"/><path class="cls-8" d="M292.31,245c-15.85,26.3-42.64,45.17-44.52,44.87l-66.86-110"/></g></g></g></g><text class="cls-9" transform="translate(78.55 150.98)"><tspan class="cls-10">Y</tspan><tspan x="10.01" y="0">our significant other is </tspan><tspan x="-17.67" y="21.6">complaining that you spend </tspan><tspan x="1.84" y="43.2">too much time at work. </tspan><tspan x="7.46" y="64.8">How do you </tspan><tspan class="cls-11" x="114.47" y="64.8">r</tspan><tspan x="121.15" y="64.8">espond?</tspan></text><polygon class="cls-12" points="184.95 235.43 260.89 240.3 356.34 240.3 348.78 267.85 274.82 272.35 187.04 267.47 184.95 235.43"/><polygon class="cls-12" points="35.85 89.81 82.21 80.65 118.76 72.39 147.77 75.18 164.74 102.5 132.34 125.45 19.83 132.31 35.85 89.81"/><text class="cls-13" transform="translate(45.49 100.39) rotate(-4.09)">Apologize and <tspan x="-11.56" y="13">establish a weekly </tspan><tspan x="10.83" y="26">date night.</tspan></text><g class="cls-14"><path class="cls-7" d="M198.15,242.08v.81l-3.49,0-.12,9.18h-1l.12-9.18-3.47,0V242Z"/><path class="cls-7" d="M197.92,249.69a2.72,2.72,0,0,0,.41.92,2.44,2.44,0,0,0,.73.68,2.08,2.08,0,0,0,1.07.28,2.14,2.14,0,0,0,1.52-.48,2.64,2.64,0,0,0,.77-1.33h.88a3.52,3.52,0,0,1-1.05,1.89,3.06,3.06,0,0,1-2.13.64,3.36,3.36,0,0,1-1.47-.32,2.71,2.71,0,0,1-1-.84,3.59,3.59,0,0,1-.56-1.23,5.54,5.54,0,0,1-.17-1.46,5.22,5.22,0,0,1,.21-1.4,3.77,3.77,0,0,1,.6-1.22,2.91,2.91,0,0,1,1-.85,3.12,3.12,0,0,1,1.48-.31,2.86,2.86,0,0,1,2.47,1.3,3.81,3.81,0,0,1,.54,1.31,5.74,5.74,0,0,1,.12,1.49l-5.56-.07A4,4,0,0,0,197.92,249.69Zm4.4-2.64a2.66,2.66,0,0,0-.44-.82,2.27,2.27,0,0,0-.71-.58,2,2,0,0,0-.95-.23,2.08,2.08,0,0,0-1,.2,2.27,2.27,0,0,0-.72.57,2.88,2.88,0,0,0-.48.82,4.11,4.11,0,0,0-.24,1l4.68.06A3.22,3.22,0,0,0,202.33,247.05Z"/><path class="cls-7" d="M205.53,242.18l-.13,10h-.88l.13-10Z"/><path class="cls-7" d="M208.12,242.21l-.13,10h-.88l.13-10Z"/><path class="cls-7" d="M216.54,245.1v.74l-1.47,0-.06,4.87a1.56,1.56,0,0,0,.11.68c.08.16.27.26.59.28a6.72,6.72,0,0,0,.76,0v.74h-.78a1.3,1.3,0,0,1-1.55-1.63l.07-4.94-1.26,0V245l1.26,0,0-2.17h.88l0,2.17Z"/><path class="cls-7" d="M218.72,242.35l-.05,4h0a2.12,2.12,0,0,1,.91-1,2.64,2.64,0,0,1,1.42-.38,3.56,3.56,0,0,1,1.26.21,2,2,0,0,1,.81.56,2.07,2.07,0,0,1,.42.88,4.92,4.92,0,0,1,.11,1.16l-.06,4.65h-.88l.06-4.51a4.19,4.19,0,0,0-.07-.86,1.79,1.79,0,0,0-.28-.7,1.42,1.42,0,0,0-.56-.47,2.09,2.09,0,0,0-.89-.18,2.25,2.25,0,0,0-.95.18,2,2,0,0,0-.71.51,2.4,2.4,0,0,0-.46.78,3.19,3.19,0,0,0-.19,1l-.06,4.21h-.88l.13-10Z"/><path class="cls-7" d="M225.92,250.06a2.72,2.72,0,0,0,.41.92,2.44,2.44,0,0,0,.73.68,2.08,2.08,0,0,0,1.07.28,2.14,2.14,0,0,0,1.52-.48,2.64,2.64,0,0,0,.77-1.33h.88a3.52,3.52,0,0,1-1.05,1.89,3.07,3.07,0,0,1-2.13.64,3.36,3.36,0,0,1-1.47-.32,2.71,2.71,0,0,1-1-.84,3.58,3.58,0,0,1-.56-1.23,5.53,5.53,0,0,1-.17-1.46,5.22,5.22,0,0,1,.21-1.4,3.76,3.76,0,0,1,.6-1.22,2.93,2.93,0,0,1,1-.85,3.12,3.12,0,0,1,1.48-.31,2.86,2.86,0,0,1,2.47,1.3,3.84,3.84,0,0,1,.54,1.31,5.74,5.74,0,0,1,.12,1.49l-5.56-.07A4,4,0,0,0,225.92,250.06Zm4.4-2.64a2.66,2.66,0,0,0-.44-.82,2.26,2.26,0,0,0-.71-.58,2.23,2.23,0,0,0-1.92,0,2.26,2.26,0,0,0-.72.56,2.86,2.86,0,0,0-.48.82,4.07,4.07,0,0,0-.24,1l4.68.06A3.22,3.22,0,0,0,230.32,247.42Z"/><path class="cls-7" d="M233.41,245.32l0,1.22h0a2.77,2.77,0,0,1,.93-1,2.56,2.56,0,0,1,1.45-.36,2.47,2.47,0,0,1,1.29.37,1.72,1.72,0,0,1,.76,1.07,2.22,2.22,0,0,1,1-1.05,2.72,2.72,0,0,1,1.35-.33q2.4,0,2.36,2.56l-.06,4.9h-.88l.06-4.86a2.13,2.13,0,0,0-.36-1.37,1.62,1.62,0,0,0-1.32-.49,1.89,1.89,0,0,0-1,.2,1.69,1.69,0,0,0-.61.57,2.51,2.51,0,0,0-.33.83,5.07,5.07,0,0,0-.1,1l-.05,4.09h-.88l.06-4.9A3.08,3.08,0,0,0,237,247a1.64,1.64,0,0,0-.25-.58,1.2,1.2,0,0,0-.46-.39,1.64,1.64,0,0,0-.71-.15,2.18,2.18,0,0,0-1,.19,1.79,1.79,0,0,0-.68.55,2.48,2.48,0,0,0-.4.83,4.19,4.19,0,0,0-.14,1.06l-.05,4h-.88l.09-7.22Z"/><path class="cls-7" d="M251,245.55v.74l-1.47,0-.06,4.87a1.56,1.56,0,0,0,.11.68c.08.16.27.26.59.28a6.89,6.89,0,0,0,.76,0v.74h-.78a1.3,1.3,0,0,1-1.55-1.63l.07-4.94-1.26,0v-.74l1.26,0,0-2.17h.88l0,2.17Z"/><path class="cls-7" d="M256.81,245.73a3.19,3.19,0,0,1,1.06.84,3.58,3.58,0,0,1,.64,1.22,5,5,0,0,1,0,3,3.58,3.58,0,0,1-.67,1.2,3.13,3.13,0,0,1-1.08.8,3.71,3.71,0,0,1-2.93,0,3.1,3.1,0,0,1-1.06-.83,3.57,3.57,0,0,1-.64-1.22,5,5,0,0,1,0-3,3.56,3.56,0,0,1,.67-1.2,3.18,3.18,0,0,1,1.08-.81,3.63,3.63,0,0,1,2.93,0Zm-2.58.67a2.44,2.44,0,0,0-.8.69,3.16,3.16,0,0,0-.49,1,4,4,0,0,0,0,2.25,3.18,3.18,0,0,0,.46,1,2.44,2.44,0,0,0,.78.71,2.43,2.43,0,0,0,2.21,0,2.41,2.41,0,0,0,.8-.69,3.17,3.17,0,0,0,.49-1,4,4,0,0,0,0-2.25,3.17,3.17,0,0,0-.46-1,2.42,2.42,0,0,0-.78-.71,2.44,2.44,0,0,0-2.21,0Z"/><path class="cls-7" d="M268.1,247.18a1.42,1.42,0,0,0-.41-.5,1.73,1.73,0,0,0-.59-.3,2.77,2.77,0,0,0-.71-.1,3,3,0,0,0-.6.05,1.86,1.86,0,0,0-.56.2,1.19,1.19,0,0,0-.41.38,1.07,1.07,0,0,0-.16.59.83.83,0,0,0,.14.5,1.3,1.3,0,0,0,.37.35,2.36,2.36,0,0,0,.49.24l.49.15,1.17.28a3.37,3.37,0,0,1,.75.21,2.41,2.41,0,0,1,.65.39,1.88,1.88,0,0,1,.46.59,1.78,1.78,0,0,1,.17.83,1.82,1.82,0,0,1-.28,1,2.18,2.18,0,0,1-.69.66,2.88,2.88,0,0,1-.94.36,4.82,4.82,0,0,1-1,.1,3.31,3.31,0,0,1-2.06-.63,2.56,2.56,0,0,1-.88-1.94h.88A1.74,1.74,0,0,0,265,252a2.36,2.36,0,0,0,1.47.47,3.31,3.31,0,0,0,.67-.06,2.13,2.13,0,0,0,.64-.23,1.52,1.52,0,0,0,.49-.42,1,1,0,0,0,.2-.63,1,1,0,0,0-.13-.54,1.14,1.14,0,0,0-.35-.37,2.22,2.22,0,0,0-.51-.25c-.19-.07-.38-.13-.58-.18l-1.13-.27a6.33,6.33,0,0,1-.79-.27,2.55,2.55,0,0,1-.63-.37,1.52,1.52,0,0,1-.42-.54,1.77,1.77,0,0,1-.14-.78,1.74,1.74,0,0,1,.26-.93,1.9,1.9,0,0,1,.65-.62,3,3,0,0,1,.88-.34,4.21,4.21,0,0,1,1-.1,3.54,3.54,0,0,1,1,.15,2.32,2.32,0,0,1,.82.44,2.12,2.12,0,0,1,.56.74,2.6,2.6,0,0,1,.22,1h-.88A1.67,1.67,0,0,0,268.1,247.18Z"/><path class="cls-7" d="M275.64,253.1l0-1.3h0a2.51,2.51,0,0,1-1,1.1,2.89,2.89,0,0,1-1.48.37,3.21,3.21,0,0,1-1.17-.2,2,2,0,0,1-.78-.55,2.17,2.17,0,0,1-.43-.86,4.28,4.28,0,0,1-.13-1.15l.06-4.69h.88l-.06,4.7a2.35,2.35,0,0,0,.44,1.49,1.85,1.85,0,0,0,1.47.52,1.87,1.87,0,0,0,1-.23,2.09,2.09,0,0,0,.68-.64,3,3,0,0,0,.4-.93,4.56,4.56,0,0,0,.14-1.07l0-3.79h.88l-.09,7.22Z"/><path class="cls-7" d="M282.63,247a1.92,1.92,0,0,0-1.37-.48,2.23,2.23,0,0,0-1.11.25,2.43,2.43,0,0,0-.8.69,3.17,3.17,0,0,0-.49,1,4,4,0,0,0,0,2.25,3.18,3.18,0,0,0,.46,1,2.43,2.43,0,0,0,.78.71,2.23,2.23,0,0,0,1.1.28,2,2,0,0,0,.77-.14,2.06,2.06,0,0,0,.65-.42,2.28,2.28,0,0,0,.47-.65,2.4,2.4,0,0,0,.24-.82h.88a3.33,3.33,0,0,1-1,2,2.83,2.83,0,0,1-2,.71,3.39,3.39,0,0,1-1.46-.32,3.11,3.11,0,0,1-1.06-.83A3.58,3.58,0,0,1,278,251a5,5,0,0,1,0-3,3.59,3.59,0,0,1,.67-1.2,3.19,3.19,0,0,1,1.08-.81,3.32,3.32,0,0,1,1.47-.29,3.15,3.15,0,0,1,2,.64,2.64,2.64,0,0,1,.93,1.87h-.88A2.44,2.44,0,0,0,282.63,247Z"/><path class="cls-7" d="M286.4,243.25l-.08,6.27,4-3.45,1.18,0-3.11,2.63,3.23,4.59h-1.11l-2.8-4-1.44,1.17,0,2.74h-.88l.13-10Z"/><path class="cls-7" d="M297.3,243.39l0,1.41h-.88l0-1.41Zm0,2.77-.09,7.22h-.88l.09-7.22Z"/><path class="cls-7" d="M301.83,246.22V247l-1.47,0-.06,4.87a1.56,1.56,0,0,0,.11.68c.08.16.27.26.59.28a6.83,6.83,0,0,0,.76,0v.74H301a1.3,1.3,0,0,1-1.55-1.63l.07-4.94-1.26,0v-.74l1.26,0,0-2.17h.88l0,2.17Z"/><path class="cls-7" d="M311.94,253.58l0-1.3h0a2.51,2.51,0,0,1-1,1.1,2.89,2.89,0,0,1-1.48.37,3.22,3.22,0,0,1-1.17-.2,2,2,0,0,1-.78-.55,2.19,2.19,0,0,1-.43-.86,4.32,4.32,0,0,1-.12-1.15l.06-4.69h.88l-.06,4.7a2.35,2.35,0,0,0,.43,1.49,2.28,2.28,0,0,0,2.45.29,2.08,2.08,0,0,0,.68-.64,2.93,2.93,0,0,0,.4-.93,4.56,4.56,0,0,0,.14-1.07l0-3.79h.88l-.09,7.22Z"/><path class="cls-7" d="M315.32,246.4l0,1.37h0a2.36,2.36,0,0,1,1-1.16,3,3,0,0,1,1.58-.39,3.16,3.16,0,0,1,1.43.33,2.94,2.94,0,0,1,1,.85,3.53,3.53,0,0,1,.59,1.23,5.54,5.54,0,0,1,0,2.93,3.54,3.54,0,0,1-.62,1.21,2.88,2.88,0,0,1-1,.81,3.2,3.2,0,0,1-1.44.28,3.26,3.26,0,0,1-.78-.11,2.8,2.8,0,0,1-.72-.3,2.36,2.36,0,0,1-.59-.5,2,2,0,0,1-.39-.69h0l-.05,4h-.88l.13-9.88Zm4.8,2.56a3.12,3.12,0,0,0-.41-1,2.31,2.31,0,0,0-.73-.72,2,2,0,0,0-1.08-.29,2.64,2.64,0,0,0-1.22.24,2.11,2.11,0,0,0-.79.66,2.62,2.62,0,0,0-.43,1,5.63,5.63,0,0,0-.13,1.17,4.7,4.7,0,0,0,.12,1.11,2.86,2.86,0,0,0,.42,1,2.32,2.32,0,0,0,.77.72,2.37,2.37,0,0,0,1.18.29,2,2,0,0,0,1.08-.26,2.32,2.32,0,0,0,.74-.7,3.11,3.11,0,0,0,.43-1,4.76,4.76,0,0,0,0-2.23Z"/><path class="cls-7" d="M323,252.24l1.18,0,0,1.48-1.18,0Z"/><path class="cls-7" d="M331.91,243.85l3.2,8.81,3.56-8.72,1.4,0-.13,10h-1l.11-8.64h0l-3.53,8.59h-.9l-3.18-8.68h0l-.11,8.64h-1l.13-10Z"/><path class="cls-7" d="M341.95,246.75l2.3,6.19,2.31-6.13h.88l-3.25,8.27a8.2,8.2,0,0,1-.37.76,1.77,1.77,0,0,1-.38.47,1.24,1.24,0,0,1-.48.25,2.6,2.6,0,0,1-.69.07l-.41,0a.84.84,0,0,1-.26-.05v-.74l.3.05.3,0a1.2,1.2,0,0,0,.48-.08,1.05,1.05,0,0,0,.33-.23,1.36,1.36,0,0,0,.24-.35l.22-.46.32-.81L341,246.74Z"/><path class="cls-7" d="M208.29,259a1.92,1.92,0,0,0-1.37-.48,2.23,2.23,0,0,0-1.11.25,2.43,2.43,0,0,0-.8.69,3.2,3.2,0,0,0-.49,1,4.06,4.06,0,0,0,0,2.25,3.17,3.17,0,0,0,.46,1,2.43,2.43,0,0,0,.78.71,2.24,2.24,0,0,0,1.1.28,2,2,0,0,0,.77-.14,2.08,2.08,0,0,0,.65-.42,2.28,2.28,0,0,0,.47-.65,2.39,2.39,0,0,0,.24-.82h.88a3.33,3.33,0,0,1-1,2,2.83,2.83,0,0,1-2,.71,3.38,3.38,0,0,1-1.46-.32,3.1,3.1,0,0,1-1.06-.83,3.55,3.55,0,0,1-.64-1.22,5,5,0,0,1,0-3,3.55,3.55,0,0,1,.68-1.2,3.17,3.17,0,0,1,1.08-.81,3.33,3.33,0,0,1,1.47-.29,3.14,3.14,0,0,1,2,.64,2.63,2.63,0,0,1,.93,1.87h-.88A2.43,2.43,0,0,0,208.29,259Z"/><path class="cls-7" d="M211.32,259.15a2,2,0,0,1,.62-.75,2.56,2.56,0,0,1,.91-.42,4.42,4.42,0,0,1,1.15-.13,5.1,5.1,0,0,1,1,.1,2.31,2.31,0,0,1,.85.35,1.86,1.86,0,0,1,.6.71,2.53,2.53,0,0,1,.22,1.19l-.05,3.84a.46.46,0,0,0,.51.54.69.69,0,0,0,.28-.05v.74l-.27,0h-.3a1.33,1.33,0,0,1-.54-.1.72.72,0,0,1-.31-.26,1,1,0,0,1-.14-.4,3.34,3.34,0,0,1,0-.51h0a5.7,5.7,0,0,1-.49.62,2.38,2.38,0,0,1-.55.45,2.51,2.51,0,0,1-.69.27,3.81,3.81,0,0,1-.92.09,3.65,3.65,0,0,1-.94-.13,2.13,2.13,0,0,1-.76-.39,1.81,1.81,0,0,1-.51-.66,2.2,2.2,0,0,1-.18-.95,1.87,1.87,0,0,1,.35-1.18,2.12,2.12,0,0,1,.9-.64,5.08,5.08,0,0,1,1.25-.3l1.41-.16.49-.06a.88.88,0,0,0,.35-.14.68.68,0,0,0,.22-.28,1.22,1.22,0,0,0,.08-.48,1.61,1.61,0,0,0-.14-.74,1.15,1.15,0,0,0-.4-.46,1.64,1.64,0,0,0-.6-.24,4,4,0,0,0-.73-.07,2.22,2.22,0,0,0-1.38.38,1.56,1.56,0,0,0-.58,1.27H211A2.91,2.91,0,0,1,211.32,259.15Zm4.38,2.21a.5.5,0,0,1-.32.22l-.42.09-1.16.16a6.35,6.35,0,0,0-1.09.22,2.13,2.13,0,0,0-.81.43,1.05,1.05,0,0,0-.33.81,1.29,1.29,0,0,0,.12.6,1.45,1.45,0,0,0,.35.45,1.58,1.58,0,0,0,.51.29,1.9,1.9,0,0,0,.6.11,3,3,0,0,0,1-.14,2.37,2.37,0,0,0,.81-.44,2.2,2.2,0,0,0,.56-.71,2.17,2.17,0,0,0,.21-.95v-1.15Z"/><path class="cls-7" d="M219.22,258.13l0,1.69h0a2.77,2.77,0,0,1,1.06-1.34,2.74,2.74,0,0,1,1.69-.41V259a2.66,2.66,0,0,0-1.09.15,2.41,2.41,0,0,0-1.42,1.35,2.82,2.82,0,0,0-.21,1.05l-.05,3.85h-.88l.1-7.22Z"/><path class="cls-7" d="M223.16,263a2.7,2.7,0,0,0,.41.92,2.44,2.44,0,0,0,.73.68,2.08,2.08,0,0,0,1.07.28,2.15,2.15,0,0,0,1.52-.48,2.65,2.65,0,0,0,.77-1.33h.88A3.53,3.53,0,0,1,227.5,265a3.07,3.07,0,0,1-2.13.64,3.36,3.36,0,0,1-1.47-.32,2.72,2.72,0,0,1-1-.84,3.56,3.56,0,0,1-.56-1.23,5.49,5.49,0,0,1-.17-1.46,5.22,5.22,0,0,1,.21-1.4,3.73,3.73,0,0,1,.6-1.22,2.93,2.93,0,0,1,1-.85,3.12,3.12,0,0,1,1.48-.31,2.85,2.85,0,0,1,2.47,1.3,3.78,3.78,0,0,1,.54,1.31,5.73,5.73,0,0,1,.12,1.49L223,262A3.88,3.88,0,0,0,223.16,263Zm4.4-2.64a2.67,2.67,0,0,0-.44-.82,2.26,2.26,0,0,0-.71-.58,2,2,0,0,0-.95-.23,2.07,2.07,0,0,0-1,.2,2.25,2.25,0,0,0-.72.56,2.89,2.89,0,0,0-.48.82,4.1,4.1,0,0,0-.24,1l4.68.06A3.25,3.25,0,0,0,227.56,260.39Z"/><path class="cls-7" d="M230.42,263.12a2.69,2.69,0,0,0,.41.92,2.44,2.44,0,0,0,.73.68,2.08,2.08,0,0,0,1.07.28,2.15,2.15,0,0,0,1.52-.48,2.66,2.66,0,0,0,.77-1.33h.88a3.52,3.52,0,0,1-1.05,1.89,3.07,3.07,0,0,1-2.13.64,3.37,3.37,0,0,1-1.47-.32,2.73,2.73,0,0,1-1-.84,3.57,3.57,0,0,1-.56-1.23,5.5,5.5,0,0,1-.17-1.47,5.21,5.21,0,0,1,.21-1.4,3.72,3.72,0,0,1,.6-1.22,2.92,2.92,0,0,1,1-.85,3.12,3.12,0,0,1,1.48-.31,2.86,2.86,0,0,1,2.47,1.3,3.77,3.77,0,0,1,.54,1.31,5.78,5.78,0,0,1,.12,1.49l-5.56-.07A3.88,3.88,0,0,0,230.42,263.12Zm4.4-2.64a2.64,2.64,0,0,0-.44-.83,2.26,2.26,0,0,0-.71-.58,2,2,0,0,0-.95-.23,2.07,2.07,0,0,0-1,.2,2.25,2.25,0,0,0-.72.57,2.89,2.89,0,0,0-.48.82,4.1,4.1,0,0,0-.24,1l4.68.06A3.21,3.21,0,0,0,234.83,260.48Z"/><path class="cls-7" d="M237.91,258.38l0,1.69h0a2.78,2.78,0,0,1,1.06-1.34,2.73,2.73,0,0,1,1.69-.41v.88a2.66,2.66,0,0,0-1.09.15,2.4,2.4,0,0,0-1.42,1.35,2.8,2.8,0,0,0-.21,1.05l-.05,3.85H237l.1-7.22Z"/><path class="cls-7" d="M246.33,255.72l0,1.41h-.88l0-1.41Zm0,2.77-.1,7.22h-.88l.1-7.22Z"/><path class="cls-7" d="M252.13,260a1.43,1.43,0,0,0-.41-.5,1.72,1.72,0,0,0-.59-.29,2.73,2.73,0,0,0-.71-.1,2.93,2.93,0,0,0-.6.06,1.83,1.83,0,0,0-.56.2,1.18,1.18,0,0,0-.41.38,1.07,1.07,0,0,0-.16.59.82.82,0,0,0,.14.5,1.3,1.3,0,0,0,.37.35,2.35,2.35,0,0,0,.49.24l.49.15,1.17.28a3.35,3.35,0,0,1,.75.21,2.41,2.41,0,0,1,.65.39,1.88,1.88,0,0,1,.46.59,1.76,1.76,0,0,1,.17.83,1.82,1.82,0,0,1-.28,1,2.17,2.17,0,0,1-.69.66,2.89,2.89,0,0,1-.94.36,4.85,4.85,0,0,1-1,.1,3.32,3.32,0,0,1-2.06-.63,2.56,2.56,0,0,1-.88-1.94h.88a1.74,1.74,0,0,0,.63,1.36,2.36,2.36,0,0,0,1.47.47,3.31,3.31,0,0,0,.67-.06,2.16,2.16,0,0,0,.64-.23,1.53,1.53,0,0,0,.49-.42,1,1,0,0,0,.2-.63,1,1,0,0,0-.12-.54A1.15,1.15,0,0,0,252,263a2.27,2.27,0,0,0-.51-.25c-.19-.07-.38-.13-.58-.18l-1.13-.27A6.29,6.29,0,0,1,249,262a2.56,2.56,0,0,1-.63-.37,1.53,1.53,0,0,1-.42-.54,2,2,0,0,1,.11-1.71,1.91,1.91,0,0,1,.65-.62,3,3,0,0,1,.88-.34,4.23,4.23,0,0,1,1-.1,3.54,3.54,0,0,1,1,.15,2.35,2.35,0,0,1,.82.44,2.12,2.12,0,0,1,.56.74,2.6,2.6,0,0,1,.23,1h-.88A1.65,1.65,0,0,0,252.13,260Z"/><path class="cls-7" d="M259.48,258.66l0,1.25h0a2.11,2.11,0,0,1,.91-1,2.63,2.63,0,0,1,1.42-.38,3.57,3.57,0,0,1,1.26.21,2,2,0,0,1,.81.56,2.07,2.07,0,0,1,.42.88,4.93,4.93,0,0,1,.11,1.16l-.06,4.65h-.88l.06-4.51a4.13,4.13,0,0,0-.07-.86,1.82,1.82,0,0,0-.29-.7,1.42,1.42,0,0,0-.56-.47,2.08,2.08,0,0,0-.89-.18,2.25,2.25,0,0,0-.95.18,2,2,0,0,0-.71.51,2.37,2.37,0,0,0-.46.78,3.17,3.17,0,0,0-.19,1l-.06,4.21h-.88l.1-7.22Z"/><path class="cls-7" d="M271.08,266l0-1.3h0a2.5,2.5,0,0,1-1,1.1,2.9,2.9,0,0,1-1.48.37,3.21,3.21,0,0,1-1.17-.2,1.94,1.94,0,0,1-.78-.55,2.18,2.18,0,0,1-.43-.86,4.35,4.35,0,0,1-.13-1.15l.06-4.69H267l-.06,4.7a2.35,2.35,0,0,0,.44,1.49,2.28,2.28,0,0,0,2.45.29,2.08,2.08,0,0,0,.68-.64,2.93,2.93,0,0,0,.4-.93,4.51,4.51,0,0,0,.14-1.07l0-3.79H272l-.1,7.22Z"/><path class="cls-7" d="M274.46,258.86l0,1.22h0a2.76,2.76,0,0,1,.93-1,2.56,2.56,0,0,1,1.45-.36,2.46,2.46,0,0,1,1.29.37,1.71,1.71,0,0,1,.76,1.07,2.22,2.22,0,0,1,1-1.05,2.73,2.73,0,0,1,1.35-.33q2.39,0,2.36,2.57l-.07,4.9h-.88l.06-4.86a2.13,2.13,0,0,0-.36-1.37,1.62,1.62,0,0,0-1.32-.49,1.89,1.89,0,0,0-1,.2,1.68,1.68,0,0,0-.61.57,2.46,2.46,0,0,0-.33.83,5.07,5.07,0,0,0-.1,1l-.05,4.09h-.88l.07-4.9a3.12,3.12,0,0,0-.07-.69,1.6,1.6,0,0,0-.25-.58,1.18,1.18,0,0,0-.46-.39,1.64,1.64,0,0,0-.71-.15,2.19,2.19,0,0,0-1,.19,1.77,1.77,0,0,0-.68.55,2.46,2.46,0,0,0-.4.84,4.18,4.18,0,0,0-.14,1.05l-.05,4h-.88l.1-7.22Z"/><path class="cls-7" d="M285.9,263.85a2.72,2.72,0,0,0,.41.92,2.46,2.46,0,0,0,.73.68,2.08,2.08,0,0,0,1.07.28,2.14,2.14,0,0,0,1.52-.48,2.64,2.64,0,0,0,.77-1.33h.88a3.52,3.52,0,0,1-1.05,1.89,3.07,3.07,0,0,1-2.13.64,3.37,3.37,0,0,1-1.47-.32,2.71,2.71,0,0,1-1-.84,3.59,3.59,0,0,1-.56-1.23,5.54,5.54,0,0,1-.17-1.47,5.25,5.25,0,0,1,.21-1.4,3.75,3.75,0,0,1,.6-1.22,2.92,2.92,0,0,1,1-.85,3.12,3.12,0,0,1,1.48-.31,2.86,2.86,0,0,1,2.47,1.3,3.77,3.77,0,0,1,.54,1.31,5.73,5.73,0,0,1,.12,1.49l-5.56-.07A3.88,3.88,0,0,0,285.9,263.85Zm4.4-2.64a2.67,2.67,0,0,0-.44-.83,2.28,2.28,0,0,0-.71-.58,2.23,2.23,0,0,0-1.92,0,2.24,2.24,0,0,0-.72.57,2.86,2.86,0,0,0-.48.82,4,4,0,0,0-.24,1l4.67.06A3.21,3.21,0,0,0,290.3,261.21Z"/><path class="cls-7" d="M293.39,259.11l0,1.69h0a2.78,2.78,0,0,1,1.06-1.34,2.73,2.73,0,0,1,1.69-.41v.88a2.66,2.66,0,0,0-1.09.15,2.41,2.41,0,0,0-1.42,1.35,2.82,2.82,0,0,0-.21,1.05l-.05,3.85h-.88l.1-7.22Z"/><path class="cls-7" d="M301.25,259.31a3.21,3.21,0,0,1,1.06.84,3.59,3.59,0,0,1,.64,1.22,5,5,0,0,1,0,3,3.61,3.61,0,0,1-.67,1.2,3.13,3.13,0,0,1-1.08.8,3.71,3.71,0,0,1-2.93,0,3.1,3.1,0,0,1-1.06-.83,3.54,3.54,0,0,1-.64-1.22,5,5,0,0,1,0-3,3.55,3.55,0,0,1,.67-1.2,3.17,3.17,0,0,1,1.08-.81,3.63,3.63,0,0,1,2.93,0Zm-2.58.67a2.43,2.43,0,0,0-.8.69,3.2,3.2,0,0,0-.49,1,4.06,4.06,0,0,0,0,2.25,3.2,3.2,0,0,0,.46,1,2.43,2.43,0,0,0,.78.71,2.43,2.43,0,0,0,2.21,0,2.43,2.43,0,0,0,.8-.69,3.17,3.17,0,0,0,.49-1,4,4,0,0,0,0-2.25,3.16,3.16,0,0,0-.46-1,2.43,2.43,0,0,0-.78-.71,2.43,2.43,0,0,0-2.21,0Z"/><path class="cls-7" d="M313.35,266.6l0-1.3h0a2.5,2.5,0,0,1-1,1.1,2.9,2.9,0,0,1-1.48.37,3.2,3.2,0,0,1-1.17-.2,1.94,1.94,0,0,1-.78-.55,2.19,2.19,0,0,1-.43-.86,4.39,4.39,0,0,1-.12-1.15l.06-4.69h.88l-.06,4.7a2.35,2.35,0,0,0,.44,1.49,2.28,2.28,0,0,0,2.45.29,2.08,2.08,0,0,0,.68-.64,2.93,2.93,0,0,0,.4-.93,4.52,4.52,0,0,0,.14-1.07l0-3.79h.88l-.1,7.22Z"/><path class="cls-7" d="M316.79,259.42l0,1.25h0a2.11,2.11,0,0,1,.91-1,2.64,2.64,0,0,1,1.42-.38,3.57,3.57,0,0,1,1.26.21,2,2,0,0,1,.81.56,2.06,2.06,0,0,1,.42.88,4.87,4.87,0,0,1,.11,1.16l-.06,4.65h-.88l.06-4.51a4.13,4.13,0,0,0-.07-.86,1.81,1.81,0,0,0-.28-.7,1.43,1.43,0,0,0-.56-.47,2.09,2.09,0,0,0-.89-.18,2.24,2.24,0,0,0-.95.18,2,2,0,0,0-.71.51,2.41,2.41,0,0,0-.46.78,3.2,3.2,0,0,0-.19,1l-.06,4.21h-.88l.1-7.22Z"/><path class="cls-7" d="M328,259.67a3.2,3.2,0,0,1,1.06.84,3.58,3.58,0,0,1,.64,1.22,5,5,0,0,1,0,3,3.58,3.58,0,0,1-.67,1.2,3.12,3.12,0,0,1-1.08.8,3.71,3.71,0,0,1-2.93,0,3.11,3.11,0,0,1-1.06-.83,3.56,3.56,0,0,1-.64-1.22,5,5,0,0,1,0-3,3.57,3.57,0,0,1,.67-1.2,3.18,3.18,0,0,1,1.08-.81,3.64,3.64,0,0,1,2.93,0Zm-2.58.67a2.42,2.42,0,0,0-.8.69,3.19,3.19,0,0,0-.49,1,4,4,0,0,0,0,2.25,3.18,3.18,0,0,0,.46,1,2.41,2.41,0,0,0,.78.71,2.43,2.43,0,0,0,2.21,0,2.44,2.44,0,0,0,.8-.69,3.17,3.17,0,0,0,.49-1,4,4,0,0,0,0-2.25,3.18,3.18,0,0,0-.46-1,2.45,2.45,0,0,0-.78-.71,2.43,2.43,0,0,0-2.21,0Z"/><path class="cls-7" d="M331.67,265.36l1.18,0,0,1.48-1.18,0Z"/></g></g></svg>