<svg xmlns="http://www.w3.org/2000/svg" xmlns:xlink="http://www.w3.org/1999/xlink" viewBox="0 0 360 360"><defs><style>.cls-1,.cls-9{fill:none;}.cls-2{clip-path:url(#clip-path);}.cls-3{fill:#f2c12e;}.cls-4{clip-path:url(#clip-path-2);}.cls-5{clip-path:url(#clip-path-3);}.cls-6{opacity:0.5;}.cls-7{clip-path:url(#clip-path-4);}.cls-8{fill:#fff;}.cls-9{stroke:#fff;stroke-width:0.56px;}.cls-10{font-size:18px;fill:#221f1f;font-family:HelveticaNeue-Bold, Helvetica Neue;font-weight:700;}.cls-11{letter-spacing:-0.11em;}.cls-12{letter-spacing:-0.02em;}.cls-13{letter-spacing:-0.02em;}.cls-14{letter-spacing:-0.07em;}.cls-15{letter-spacing:-0.09em;}.cls-16{fill:#f25252;}.cls-17,.cls-22{opacity:0.87;fill:#fef5f3;}.cls-17{font-size:14px;font-family:HelveticaNeue-Light, Helvetica Neue;}.cls-18{letter-spacing:-0.11em;}.cls-19{letter-spacing:-0.09em;}.cls-20{letter-spacing:-0.02em;}.cls-21{opacity:0.58;}</style><clipPath id="clip-path"><rect class="cls-1" x="57.18" y="56.94" width="246.62" height="246.62"/></clipPath><clipPath id="clip-path-2"><rect class="cls-1" x="55.97" y="147.88" width="123.74" height="31.89"/></clipPath><clipPath id="clip-path-3"><rect class="cls-1" x="55.97" y="147.88" width="123.74" height="31.89"/></clipPath><clipPath id="clip-path-4"><rect class="cls-1" x="46.97" y="140.88" width="141.74" height="39.89"/></clipPath></defs><title>questions_male</title><g id="Layer_5" data-name="Layer 5"><g class="cls-2"><path class="cls-3" d="M180.49,303.56A123.31,123.31,0,1,0,57.18,180.25,123.31,123.31,0,0,0,180.49,303.56"/></g><g class="cls-4"><g class="cls-5"><g class="cls-6"><g class="cls-7"><path class="cls-8" d="M179.71,179.49H56.26S57.09,158,61.41,148"/><path class="cls-9" d="M179.71,179.49H56.26S57.09,158,61.41,148"/></g></g></g></g><text class="cls-10" transform="translate(100.99 141.08)"><tspan class="cls-11">Y</tspan><tspan x="10.01" y="0">ou get a job o</tspan><tspan class="cls-12" x="127.69" y="0">f</tspan><tspan x="133.36" y="0">fer </tspan><tspan x="-7.5" y="21.6">f</tspan><tspan class="cls-13" x="-1.5" y="21.6">r</tspan><tspan x="5.18" y="21.6">om an agency that </tspan><tspan x="-20.3" y="43.2">is known for it</tspan><tspan class="cls-14" x="101.32" y="43.2">’</tspan><tspan x="104.99" y="43.2">s sleaz</tspan><tspan class="cls-14" x="163.98" y="43.2">y</tspan><tspan x="171.99" y="43.2">, </tspan><tspan x="-23.96" y="64.8">client-stealing behavio</tspan><tspan class="cls-15" x="170.3" y="64.8">r</tspan><tspan x="175.64" y="64.8">. </tspan><tspan x="14" y="86.4">Do you take it?</tspan></text><polygon class="cls-16" points="81.92 261.89 143.48 260.06 193.84 267.39 207.51 282.98 200.05 295.82 110.53 294.9 72.36 284.91 81.92 261.89"/><polygon class="cls-16" points="14.15 82.48 83.76 69.54 158.69 70.2 191.1 72.56 200.68 89.61 159.61 110.36 59 114 13.55 114 14.15 82.48"/><text class="cls-17" transform="translate(18.36 97.55) rotate(-4.09)"><tspan class="cls-18">T</tspan><tspan x="6.23" y="0">otall</tspan><tspan class="cls-19" x="30.6" y="0">y</tspan><tspan x="35.8" y="0">. Better clients &amp; mo</tspan><tspan class="cls-20" x="157.93" y="0">r</tspan><tspan x="162.09" y="0">e </tspan><tspan x="13.74" y="13">mone</tspan><tspan class="cls-19" x="47.97" y="13">y</tspan><tspan x="53.16" y="13">. It</tspan><tspan class="cls-18" x="68.2" y="13">’</tspan><tspan x="70.54" y="13">s a no braine</tspan><tspan class="cls-19" x="148.6" y="13">r</tspan><tspan x="151.72" y="13">.</tspan></text><g class="cls-21"><path class="cls-22" d="M85.39,265.78l-.35,10-1,0,.35-10Z"/><path class="cls-22" d="M96.38,276.17l0-1.37h0a2.09,2.09,0,0,1-.43.63,2.71,2.71,0,0,1-.64.47,3.22,3.22,0,0,1-.76.29,3,3,0,0,1-.79.08,3.2,3.2,0,0,1-1.42-.35,2.86,2.86,0,0,1-1-.86,3.53,3.53,0,0,1-.56-1.24,5.59,5.59,0,0,1,.1-2.92,3.56,3.56,0,0,1,.65-1.2,3,3,0,0,1,1-.8,3.15,3.15,0,0,1,1.44-.26,3.18,3.18,0,0,1,.79.13,2.65,2.65,0,0,1,.71.33,2.55,2.55,0,0,1,.58.52,2.12,2.12,0,0,1,.37.7h0l.15-4.14.88,0-.35,10Zm-4.75-2.67a3.07,3.07,0,0,0,.38,1,2.31,2.31,0,0,0,.71.73,2,2,0,0,0,1.07.31,2.37,2.37,0,0,0,1.19-.23,2.32,2.32,0,0,0,.81-.68,2.91,2.91,0,0,0,.47-1,4.69,4.69,0,0,0,.08-2.22,2.92,2.92,0,0,0-.4-1,2.34,2.34,0,0,0-.76-.73,2.36,2.36,0,0,0-1.17-.31,2,2,0,0,0-1.09.23,2.32,2.32,0,0,0-.76.68,3.07,3.07,0,0,0-.45,1,4.72,4.72,0,0,0-.08,2.22Z"/><path class="cls-22" d="M103.64,269.3a3.18,3.18,0,0,1,1,.86,3.56,3.56,0,0,1,.62,1.23,5,5,0,0,1-.1,3,3.57,3.57,0,0,1-.7,1.19,3.11,3.11,0,0,1-1.1.78,3.71,3.71,0,0,1-2.92-.1,3.09,3.09,0,0,1-1-.86,3.56,3.56,0,0,1-.62-1.23,5,5,0,0,1,.1-3,3.57,3.57,0,0,1,.7-1.19,3.19,3.19,0,0,1,1.1-.79,3.63,3.63,0,0,1,2.92.1Zm-2.59.61a2.42,2.42,0,0,0-.82.67,3.18,3.18,0,0,0-.51,1,4.06,4.06,0,0,0-.08,2.25,3.17,3.17,0,0,0,.44,1,2.43,2.43,0,0,0,.77.73,2.44,2.44,0,0,0,2.21.08,2.4,2.4,0,0,0,.82-.67,3.18,3.18,0,0,0,.51-1,4,4,0,0,0,.08-2.25,3.2,3.2,0,0,0-.44-1,2.43,2.43,0,0,0-.77-.73,2.43,2.43,0,0,0-2.21-.08Z"/><path class="cls-22" d="M107.78,269.35l0,1.24h0a2.12,2.12,0,0,1,.93-1,2.63,2.63,0,0,1,1.43-.35,3.56,3.56,0,0,1,1.26.24,2,2,0,0,1,.8.58,2.09,2.09,0,0,1,.4.89,4.93,4.93,0,0,1,.08,1.17l-.16,4.64-.88,0,.16-4.5a4.19,4.19,0,0,0-.05-.86,1.82,1.82,0,0,0-.27-.7,1.42,1.42,0,0,0-.55-.48,2.09,2.09,0,0,0-.88-.2,2.24,2.24,0,0,0-.95.16,2,2,0,0,0-.72.49,2.39,2.39,0,0,0-.48.77,3.17,3.17,0,0,0-.21,1l-.15,4.21-.88,0,.26-7.22Z"/><path class="cls-22" d="M116.19,268.37a2.48,2.48,0,0,1-.1.61,2.13,2.13,0,0,1-.25.55,1.76,1.76,0,0,1-.4.44,1.37,1.37,0,0,1-.56.26l0-.6a.66.66,0,0,0,.31-.19,1.31,1.31,0,0,0,.22-.34,1.85,1.85,0,0,0,.13-.39,1.46,1.46,0,0,0,0-.37l-.59,0,.05-1.48,1.18,0Z"/><path class="cls-22" d="M120.93,269.81l0,.74-1.47-.05-.17,4.87a1.56,1.56,0,0,0,.1.68c.07.17.27.26.58.29a6.75,6.75,0,0,0,.76,0l0,.74h-.78a1.3,1.3,0,0,1-1.51-1.67l.18-4.94-1.26,0,0-.74,1.26,0,.08-2.17.88,0-.08,2.17Z"/><path class="cls-22" d="M126.3,270l1.63,6.25h0l2-6.12,1,0,1.54,6.25h0l2.07-6.12.94,0-2.58,7.14-1,0-1.56-6.14h0l-2,6-1,0-2.07-7.3Z"/><path class="cls-22" d="M136.6,271.49a2.05,2.05,0,0,1,.64-.73,2.57,2.57,0,0,1,.92-.4,4.43,4.43,0,0,1,1.15-.1,5.07,5.07,0,0,1,.95.13,2.3,2.3,0,0,1,.84.37,1.87,1.87,0,0,1,.59.73,2.53,2.53,0,0,1,.2,1.19l-.14,3.83a.46.46,0,0,0,.5.55.68.68,0,0,0,.28,0l0,.74-.27,0h-.3a1.36,1.36,0,0,1-.54-.11.73.73,0,0,1-.31-.27,1,1,0,0,1-.13-.4,3.33,3.33,0,0,1,0-.51h0a6,6,0,0,1-.51.6,2.33,2.33,0,0,1-.56.44,2.53,2.53,0,0,1-.69.26,3.79,3.79,0,0,1-.92.07,3.66,3.66,0,0,1-.94-.15,2.13,2.13,0,0,1-.76-.41,1.8,1.8,0,0,1-.5-.68,2.18,2.18,0,0,1-.15-1,1.86,1.86,0,0,1,.38-1.17,2.1,2.1,0,0,1,.91-.62,5.05,5.05,0,0,1,1.26-.27l1.41-.12.49-.05a.86.86,0,0,0,.35-.13.68.68,0,0,0,.23-.28,1.22,1.22,0,0,0,.09-.47,1.62,1.62,0,0,0-.12-.74,1.17,1.17,0,0,0-.39-.47,1.65,1.65,0,0,0-.59-.25,4.09,4.09,0,0,0-.73-.09,2.22,2.22,0,0,0-1.39.35,1.56,1.56,0,0,0-.6,1.26l-.88,0A3,3,0,0,1,136.6,271.49Zm4.33,2.31a.51.51,0,0,1-.33.21l-.42.08-1.16.13a6.38,6.38,0,0,0-1.09.19,2.12,2.12,0,0,0-.82.41,1,1,0,0,0-.34.81,1.27,1.27,0,0,0,.11.6,1.47,1.47,0,0,0,.34.46,1.55,1.55,0,0,0,.51.3,1.87,1.87,0,0,0,.6.12,3,3,0,0,0,1-.12,2.4,2.4,0,0,0,.82-.42,2.13,2.13,0,0,0,.81-1.64l0-1.15Z"/><path class="cls-22" d="M144.59,270.65l0,1.24h0a2.12,2.12,0,0,1,.93-1,2.63,2.63,0,0,1,1.43-.35,3.56,3.56,0,0,1,1.26.24,2,2,0,0,1,.8.58,2.09,2.09,0,0,1,.4.89,5,5,0,0,1,.09,1.17l-.17,4.64-.88,0,.16-4.5a4.19,4.19,0,0,0-.05-.86,1.82,1.82,0,0,0-.27-.7,1.42,1.42,0,0,0-.55-.48,2.09,2.09,0,0,0-.88-.2,2.25,2.25,0,0,0-1,.16,2,2,0,0,0-.72.49,2.39,2.39,0,0,0-.48.77,3.17,3.17,0,0,0-.21,1l-.15,4.21-.88,0,.26-7.22Z"/><path class="cls-22" d="M154.1,271l0,.74-1.47-.05-.17,4.87a1.56,1.56,0,0,0,.09.68q.11.25.59.29a6.78,6.78,0,0,0,.76,0l0,.74h-.78a1.3,1.3,0,0,1-1.51-1.66l.18-4.94-1.26,0,0-.74,1.26,0,.08-2.17.88,0-.08,2.17Z"/><path class="cls-22" d="M162.13,271.28l0,.74-1.47-.05-.17,4.87a1.58,1.58,0,0,0,.09.68q.11.25.59.29a6.78,6.78,0,0,0,.76,0l0,.74h-.78a1.3,1.3,0,0,1-1.51-1.66l.18-4.94-1.26,0,0-.74,1.26,0,.08-2.17.88,0-.08,2.17Z"/><path class="cls-22" d="M167.91,271.58a3.19,3.19,0,0,1,1,.86,3.56,3.56,0,0,1,.61,1.23,5,5,0,0,1-.1,3,3.57,3.57,0,0,1-.7,1.19,3.11,3.11,0,0,1-1.1.78,3.72,3.72,0,0,1-2.93-.1,3.1,3.1,0,0,1-1-.86,3.57,3.57,0,0,1-.61-1.23,5,5,0,0,1,.1-3,3.56,3.56,0,0,1,.7-1.19,3.18,3.18,0,0,1,1.1-.79,3.63,3.63,0,0,1,2.93.1Zm-2.59.61a2.44,2.44,0,0,0-.82.67,3.17,3.17,0,0,0-.51,1,4,4,0,0,0-.08,2.25,3.18,3.18,0,0,0,.44,1,2.45,2.45,0,0,0,.77.73,2.23,2.23,0,0,0,1.1.31,2.25,2.25,0,0,0,1.12-.23,2.42,2.42,0,0,0,.81-.67,3.16,3.16,0,0,0,.51-1,4,4,0,0,0,.08-2.25,3.2,3.2,0,0,0-.44-1,2.43,2.43,0,0,0-.77-.73,2.43,2.43,0,0,0-2.21-.08Z"/><path class="cls-22" d="M180.71,280a2.82,2.82,0,0,1-.59,1.07,2.41,2.41,0,0,1-1,.65,4.11,4.11,0,0,1-1.5.19,4.5,4.5,0,0,1-1.06-.16,3,3,0,0,1-.92-.42,2.33,2.33,0,0,1-.66-.7,2,2,0,0,1-.28-1l.88,0a1.58,1.58,0,0,0,.25.69,1.65,1.65,0,0,0,.47.46,2.19,2.19,0,0,0,.63.27,3.27,3.27,0,0,0,.71.1,2.12,2.12,0,0,0,1.8-.64,3.22,3.22,0,0,0,.62-2l0-1h0a2.59,2.59,0,0,1-.94,1,2.41,2.41,0,0,1-1.41.36,3.51,3.51,0,0,1-1.47-.34,2.75,2.75,0,0,1-1-.83,3.2,3.2,0,0,1-.54-1.2,5.51,5.51,0,0,1-.13-1.45,4.5,4.5,0,0,1,.27-1.4,3.53,3.53,0,0,1,.67-1.14,2.94,2.94,0,0,1,1-.75,3.23,3.23,0,0,1,1.4-.24,2.55,2.55,0,0,1,.76.14,2.41,2.41,0,0,1,.64.34,2.78,2.78,0,0,1,.51.49,2.13,2.13,0,0,1,.34.57h0l0-1.25.88,0-.24,6.63A5.49,5.49,0,0,1,180.71,280Zm-2-2a2.29,2.29,0,0,0,.75-.62,2.86,2.86,0,0,0,.47-.9,3.9,3.9,0,0,0,.18-1.06,4.58,4.58,0,0,0-.09-1.07,3.09,3.09,0,0,0-.37-1,2.21,2.21,0,0,0-.7-.72,2,2,0,0,0-1.06-.3,2.12,2.12,0,0,0-1.09.22,2.3,2.3,0,0,0-.77.65,2.86,2.86,0,0,0-.46.94,4.6,4.6,0,0,0-.17,1.09,4.06,4.06,0,0,0,.1,1.07,2.74,2.74,0,0,0,.4.93,2.27,2.27,0,0,0,.72.67,2.2,2.2,0,0,0,1.06.28A2,2,0,0,0,178.76,278Z"/><path class="cls-22" d="M183.33,276.87a2.7,2.7,0,0,0,.39.93,2.45,2.45,0,0,0,.72.7,2.07,2.07,0,0,0,1.07.3,2.14,2.14,0,0,0,1.53-.45,2.64,2.64,0,0,0,.8-1.32l.88,0a3.53,3.53,0,0,1-1.09,1.87,3.07,3.07,0,0,1-2.14.6,3.36,3.36,0,0,1-1.47-.35,2.69,2.69,0,0,1-1-.86,3.57,3.57,0,0,1-.54-1.24,5.58,5.58,0,0,1-.14-1.47,5.26,5.26,0,0,1,.24-1.39,3.76,3.76,0,0,1,.62-1.2,2.91,2.91,0,0,1,1-.83,3.13,3.13,0,0,1,1.49-.28,2.86,2.86,0,0,1,2.44,1.35,3.81,3.81,0,0,1,.51,1.32,5.74,5.74,0,0,1,.09,1.5l-5.55-.2A3.92,3.92,0,0,0,183.33,276.87Zm4.46-2.54a2.69,2.69,0,0,0-.43-.83,2.27,2.27,0,0,0-.69-.6,2.06,2.06,0,0,0-.94-.25,2.09,2.09,0,0,0-1,.18,2.26,2.26,0,0,0-.73.55,2.89,2.89,0,0,0-.5.81,4.1,4.1,0,0,0-.26.95l4.67.17A3.25,3.25,0,0,0,187.79,274.33Z"/><path class="cls-22" d="M193,272.37l0,.74-1.47-.05-.17,4.87a1.57,1.57,0,0,0,.1.68c.07.17.27.26.58.29a6.5,6.5,0,0,0,.76,0l0,.74h-.78a1.74,1.74,0,0,1-1.22-.39,1.72,1.72,0,0,1-.29-1.28l.18-4.94-1.26,0,0-.74,1.26,0,.08-2.17.88,0-.08,2.17Z"/><path class="cls-22" d="M108,283.48a2.05,2.05,0,0,1,.64-.73,2.56,2.56,0,0,1,.92-.4,4.42,4.42,0,0,1,1.15-.1,5,5,0,0,1,.95.13,2.3,2.3,0,0,1,.84.37,1.86,1.86,0,0,1,.59.73,2.55,2.55,0,0,1,.2,1.19l-.14,3.83a.46.46,0,0,0,.5.55.71.71,0,0,0,.28,0l0,.74-.27,0h-.3a1.34,1.34,0,0,1-.54-.11.72.72,0,0,1-.31-.27,1,1,0,0,1-.13-.4,3.33,3.33,0,0,1,0-.51h0a5.74,5.74,0,0,1-.51.6,2.37,2.37,0,0,1-.56.44,2.48,2.48,0,0,1-.7.26,3.74,3.74,0,0,1-.92.07,3.67,3.67,0,0,1-.94-.15,2.14,2.14,0,0,1-.76-.41,1.83,1.83,0,0,1-.5-.68,2.2,2.2,0,0,1-.15-1,1.87,1.87,0,0,1,.38-1.17,2.11,2.11,0,0,1,.91-.62,5,5,0,0,1,1.26-.27l1.41-.13.49-.05a.87.87,0,0,0,.35-.13.69.69,0,0,0,.23-.28,1.21,1.21,0,0,0,.09-.47,1.6,1.6,0,0,0-.12-.74,1.15,1.15,0,0,0-.39-.47,1.64,1.64,0,0,0-.59-.25,4,4,0,0,0-.73-.09,2.23,2.23,0,0,0-1.39.35,1.56,1.56,0,0,0-.6,1.26l-.88,0A2.94,2.94,0,0,1,108,283.48Zm4.33,2.31a.5.5,0,0,1-.33.21,3.26,3.26,0,0,1-.42.08l-1.16.13a6.44,6.44,0,0,0-1.09.19,2.14,2.14,0,0,0-.82.41,1.05,1.05,0,0,0-.34.81,1.29,1.29,0,0,0,.11.6,1.44,1.44,0,0,0,.34.46,1.56,1.56,0,0,0,.51.31,1.91,1.91,0,0,0,.6.12,3,3,0,0,0,1-.12,2.38,2.38,0,0,0,.82-.42,2.18,2.18,0,0,0,.57-.69,2.15,2.15,0,0,0,.24-.94l0-1.15Z"/><path class="cls-22" d="M120,280l-.15,4.14h0a2.07,2.07,0,0,1,.42-.67,2.54,2.54,0,0,1,.61-.48,2.66,2.66,0,0,1,.74-.27,3.21,3.21,0,0,1,.79-.07,3.14,3.14,0,0,1,1.42.36,2.93,2.93,0,0,1,1,.87,3.56,3.56,0,0,1,.56,1.24,5.54,5.54,0,0,1-.1,2.92,3.57,3.57,0,0,1-.64,1.2,2.89,2.89,0,0,1-1,.79,3.21,3.21,0,0,1-1.44.25,3.06,3.06,0,0,1-1.56-.46,2.32,2.32,0,0,1-1-1.2h0l0,1.37-.81,0,.36-10Zm4.58,5.44a3.1,3.1,0,0,0-.38-1,2.33,2.33,0,0,0-.71-.73,2,2,0,0,0-1.07-.31,2.36,2.36,0,0,0-1.19.23,2.33,2.33,0,0,0-.81.68,2.9,2.9,0,0,0-.47,1,4.72,4.72,0,0,0-.08,2.22,2.88,2.88,0,0,0,.4,1,2.32,2.32,0,0,0,.76.74,2.37,2.37,0,0,0,1.17.31,2,2,0,0,0,1.09-.23,2.32,2.32,0,0,0,.76-.68,3.08,3.08,0,0,0,.45-1,4.72,4.72,0,0,0,.08-2.22Z"/><path class="cls-22" d="M127.19,284.17a2,2,0,0,1,.63-.73,2.56,2.56,0,0,1,.92-.4,4.34,4.34,0,0,1,1.15-.1,5,5,0,0,1,.95.13,2.3,2.3,0,0,1,.84.37,1.87,1.87,0,0,1,.59.73,2.55,2.55,0,0,1,.2,1.19l-.14,3.83a.46.46,0,0,0,.5.55.69.69,0,0,0,.28,0l0,.74-.27,0h-.3a1.32,1.32,0,0,1-.54-.11.71.71,0,0,1-.31-.27.94.94,0,0,1-.13-.4,3.33,3.33,0,0,1,0-.51h0a5.76,5.76,0,0,1-.51.61,2.37,2.37,0,0,1-.56.43,2.51,2.51,0,0,1-.7.26,3.79,3.79,0,0,1-.92.06,3.59,3.59,0,0,1-.94-.15,2.14,2.14,0,0,1-.76-.41,1.81,1.81,0,0,1-.49-.68,2.18,2.18,0,0,1-.15-1,1.86,1.86,0,0,1,.38-1.17,2.1,2.1,0,0,1,.91-.62,5.06,5.06,0,0,1,1.26-.27l1.41-.13.49-.05a.87.87,0,0,0,.35-.13.69.69,0,0,0,.23-.28,1.22,1.22,0,0,0,.09-.47,1.6,1.6,0,0,0-.12-.74,1.15,1.15,0,0,0-.39-.47,1.64,1.64,0,0,0-.59-.25,4,4,0,0,0-.73-.09,2.23,2.23,0,0,0-1.39.35,1.56,1.56,0,0,0-.6,1.26l-.88,0A2.92,2.92,0,0,1,127.19,284.17Zm4.33,2.31a.5.5,0,0,1-.33.21l-.42.08-1.16.13a6.35,6.35,0,0,0-1.09.19,2.14,2.14,0,0,0-.82.41,1.05,1.05,0,0,0-.34.81,1.3,1.3,0,0,0,.11.6,1.43,1.43,0,0,0,.34.46,1.56,1.56,0,0,0,.51.31,1.91,1.91,0,0,0,.6.12,3,3,0,0,0,1-.12,2.4,2.4,0,0,0,.82-.42,2.18,2.18,0,0,0,.57-.7,2.15,2.15,0,0,0,.24-.94l0-1.15Z"/><path class="cls-22" d="M139.59,290.71l0-1.37h0a2.1,2.1,0,0,1-.44.63,2.7,2.7,0,0,1-.64.47,3.26,3.26,0,0,1-.76.29,2.91,2.91,0,0,1-.79.08,3.2,3.2,0,0,1-1.42-.35,2.87,2.87,0,0,1-1-.86,3.53,3.53,0,0,1-.56-1.24,5.59,5.59,0,0,1,.1-2.92,3.54,3.54,0,0,1,.65-1.2,2.94,2.94,0,0,1,1-.8,3.16,3.16,0,0,1,1.45-.26,3.23,3.23,0,0,1,.79.13,2.67,2.67,0,0,1,.71.33,2.58,2.58,0,0,1,.58.52,2.09,2.09,0,0,1,.37.7h0l.15-4.14.88,0-.36,10ZM134.85,288a3.09,3.09,0,0,0,.38,1,2.31,2.31,0,0,0,.71.73,2,2,0,0,0,1.07.31,2.36,2.36,0,0,0,1.19-.23,2.34,2.34,0,0,0,.81-.68,2.9,2.9,0,0,0,.47-1,4.69,4.69,0,0,0,.08-2.22,2.92,2.92,0,0,0-.4-1,2.34,2.34,0,0,0-.76-.73,2.37,2.37,0,0,0-1.17-.32,2,2,0,0,0-1.09.24,2.32,2.32,0,0,0-.76.68,3.09,3.09,0,0,0-.45,1,4.75,4.75,0,0,0-.08,2.22Z"/><path class="cls-22" d="M147,283.75l-.06,1.69h0a2.77,2.77,0,0,1,1.09-1.32,2.73,2.73,0,0,1,1.7-.37l0,.88a2.66,2.66,0,0,0-1.1.12,2.41,2.41,0,0,0-1.45,1.32,2.82,2.82,0,0,0-.23,1l-.14,3.85-.88,0,.26-7.22Z"/><path class="cls-22" d="M150.86,288.73a2.72,2.72,0,0,0,.39.93,2.47,2.47,0,0,0,.72.7,2.08,2.08,0,0,0,1.07.3,2.14,2.14,0,0,0,1.53-.45,2.65,2.65,0,0,0,.8-1.32l.88,0a3.52,3.52,0,0,1-1.09,1.87,3.07,3.07,0,0,1-2.14.6,3.36,3.36,0,0,1-1.47-.35,2.71,2.71,0,0,1-1-.86,3.56,3.56,0,0,1-.54-1.24,5.5,5.5,0,0,1-.14-1.47,5.21,5.21,0,0,1,.24-1.39,3.75,3.75,0,0,1,.62-1.2,2.93,2.93,0,0,1,1-.83,3.13,3.13,0,0,1,1.49-.28,3,3,0,0,1,1.47.4,2.93,2.93,0,0,1,1,1,3.78,3.78,0,0,1,.51,1.32,5.77,5.77,0,0,1,.09,1.5l-5.55-.2A3.92,3.92,0,0,0,150.86,288.73Zm4.46-2.54a2.67,2.67,0,0,0-.43-.83,2.27,2.27,0,0,0-.69-.6,2.06,2.06,0,0,0-.94-.25,2.09,2.09,0,0,0-1,.18,2.26,2.26,0,0,0-.73.55,2.89,2.89,0,0,0-.5.81,4.1,4.1,0,0,0-.26.95l4.67.17A3.22,3.22,0,0,0,155.33,286.19Z"/><path class="cls-22" d="M158.46,284.16l0,1.37h0a2.38,2.38,0,0,1,1-1.13,3,3,0,0,1,1.59-.36,3.15,3.15,0,0,1,1.42.36,2.93,2.93,0,0,1,1,.87,3.55,3.55,0,0,1,.56,1.24,5.54,5.54,0,0,1-.1,2.92,3.55,3.55,0,0,1-.64,1.2,2.88,2.88,0,0,1-1,.79,3.22,3.22,0,0,1-1.45.25,3.16,3.16,0,0,1-.78-.12,2.8,2.8,0,0,1-.72-.32,2.4,2.4,0,0,1-.58-.51,2.07,2.07,0,0,1-.37-.7h0l-.14,4-.88,0,.35-9.88Zm4.75,2.67a3.12,3.12,0,0,0-.38-1,2.34,2.34,0,0,0-.71-.73,2,2,0,0,0-1.07-.31,2.64,2.64,0,0,0-1.23.21,2.12,2.12,0,0,0-.81.64,2.63,2.63,0,0,0-.45,1,5.63,5.63,0,0,0-.16,1.17,4.71,4.71,0,0,0,.09,1.12,2.86,2.86,0,0,0,.4,1,2.32,2.32,0,0,0,.76.74,2.38,2.38,0,0,0,1.17.31,2,2,0,0,0,1.09-.23,2.33,2.33,0,0,0,.76-.68,3.11,3.11,0,0,0,.45-1,4.76,4.76,0,0,0,.08-2.22Z"/><path class="cls-22" d="M166,290.17l1.18,0-.05,1.48-1.18,0Z"/></g></g></svg>