<svg xmlns="http://www.w3.org/2000/svg" viewBox="0 0 360 360"><defs><style>.cls-1,.cls-2{fill:#f29d35;}.cls-2{font-size:22px;font-family:HelveticaNeue-Bold, Helvetica Neue;font-weight:700;}.cls-3{font-size:12px;font-family:HelveticaNeue-Light, Helvetica Neue;}.cls-4{letter-spacing:-0.09em;}.cls-5{letter-spacing:-0.02em;}.cls-6{letter-spacing:0.02em;}</style></defs><title>questions_male</title><g id="well_done" data-name="well done"><path class="cls-1" d="M58.52,231.46l-13.31,11c-3.23,2.67-6.48,5.32-9.69,8-1.79,1.51-3.69,2.1-5.88,1s-2.56-2.89-2.55-5c0-18.84,0-37.68,0-56.52,0-1.54-.33-2.36-1.91-2.88-4.93-1.59-7.71-5-8-10.26a22,22,0,0,1-.13-3.19,13.48,13.48,0,0,0-3.08-10,29.54,29.54,0,0,1-1.83-2.85c-2.77-4.34-2.61-8.65.15-12.93a22,22,0,0,1,1.46-2.14A13.52,13.52,0,0,0,17,135.53a22.14,22.14,0,0,1,.1-3c.27-5.6,3.25-9.1,8.44-10.88,1.19-.41,2.35-.94,3.55-1.3a12.64,12.64,0,0,0,6.56-5c5.79-7.86,8.71-8.77,18.05-5.66a13.14,13.14,0,0,0,9.73-.16c.67-.29,1.4-.41,2.09-.65,5.69-1.94,10.4-.55,13.86,4.37a22.27,22.27,0,0,0,11.86,8.54c6.15,2,8.49,5.34,8.33,11.8a20.18,20.18,0,0,0,4.12,13.16c3.89,5.25,3.68,9.66.06,15.13-.51.78-1,1.55-1.61,2.29a12,12,0,0,0-2.66,8.16c.05,1.33-.09,2.66-.13,4-.17,5.43-2.87,9-8,10.71-1.63.53-2,1.37-2,3,.06,18.17,0,36.35,0,54.52,0,.6,0,1.2,0,1.8.09,2.2-.38,4.16-2.59,5.16s-4.09.16-5.84-1.33c-5.18-4.39-10.41-8.72-15.62-13.07ZM46.44,112.77a16.06,16.06,0,0,0-3.43,2,26.26,26.26,0,0,0-3.7,4.42,16.52,16.52,0,0,1-8.67,6.38c-1.76.59-3.44,1.39-5.14,2.15a5.47,5.47,0,0,0-3.31,5.06,20,20,0,0,0-.06,2.79,18,18,0,0,1-4.35,13.29c-.38.46-.7,1-1.06,1.45-2.15,2.83-2.41,5.68-.14,8.58.37.47.62,1,1,1.48,3.62,4.15,4.78,9,4.59,14.43-.18,5.1.87,6.71,5.8,8.18a22.34,22.34,0,0,1,12.87,9.45c.33.5.77.92,1.13,1.39,1.84,2.42,4.33,3.31,7.07,2.2a24.7,24.7,0,0,1,19,0c2.79,1.09,5.22.19,7.05-2.22,1-1.37,2.16-2.7,3.17-4.11A14.55,14.55,0,0,1,85,184.51c1.36-.53,2.75-1,4.1-1.56,5.09-2.1,5.94-3.17,5.79-8.67-.13-4.84.8-9.24,4-13,.42-.51.71-1.13,1.11-1.66,2.56-3.4,2.84-6.76-.09-10.12-.57-.65-1-1.43-1.51-2.11A16.22,16.22,0,0,1,94.91,137c0-8.5-.28-8.81-8.38-11.63a16.23,16.23,0,0,1-8.16-5.77c-1.21-1.66-2.58-3.22-3.92-4.78a4.94,4.94,0,0,0-5-1.79,42,42,0,0,0-5.2,1.33,16.39,16.39,0,0,1-10.38.39C51.57,114,49.24,113.5,46.44,112.77ZM33.06,189.5l-.73.69v56.92l23.75-19.64c2.27-1.88,2.84-1.88,5.16,0L83.76,246c.52.43,1.08.81,1.76,1.32V189.75c-1.36,1.36-2.42,2.31-3.35,3.38s-1.93,2.54-2.93,3.79c-3.08,3.85-7.19,5.35-11.73,3.69a23.78,23.78,0,0,0-17.26-.09c-.06,0-.13,0-.2,0-4.46,1.21-8.12-.16-11.11-3.54q-2.11-2.39-4.11-4.89C34.18,191.3,33.65,190.38,33.06,189.5Z"/><path class="cls-1" d="M28.84,154.73a29.68,29.68,0,1,1,29.65,29.46A29.8,29.8,0,0,1,28.84,154.73Zm4.79-.16a24.89,24.89,0,1,0,24.75-24.75A24.94,24.94,0,0,0,33.63,154.57Z"/><text class="cls-2" transform="translate(104.7 181.85)">WELL DONE, SIR.</text><text class="cls-3" transform="translate(107.95 195.49)"><tspan class="cls-4">Y</tspan><tspan x="6.23" y="0">our work ethic and positive attitude will </tspan><tspan x="0" y="13">take you far in this business. Don</tspan><tspan class="cls-5" x="170.67" y="13">’</tspan><tspan x="173.79" y="13">t be </tspan><tspan x="0" y="26">surprised if you’</tspan><tspan class="cls-5" x="81.78" y="26">r</tspan><tspan x="85.34" y="26">e looking out the windows </tspan><tspan x="0" y="39">of your co</tspan><tspan class="cls-6" x="51.8" y="39">r</tspan><tspan x="55.8" y="39">ner o</tspan><tspan class="cls-5" x="82.26" y="39">f</tspan><tspan x="85.15" y="39">fice in less than 5 years.</tspan></text></g></svg>