<svg xmlns="http://www.w3.org/2000/svg" xmlns:xlink="http://www.w3.org/1999/xlink" viewBox="0 0 360 360"><defs><style>.cls-1{fill:none;}.cls-2{clip-path:url(#clip-path);}.cls-3{fill:#14a697;}.cls-4{clip-path:url(#clip-path-2);}.cls-5{opacity:0.5;}.cls-6{clip-path:url(#clip-path-4);}.cls-14,.cls-7{fill:#fef5f3;opacity:0.87;}.cls-8{font-size:18px;fill:#221f1f;font-family:HelveticaNeue-Bold, Helvetica Neue;font-weight:700;}.cls-9{letter-spacing:-0.06em;}.cls-10{letter-spacing:-0.02em;}.cls-11{letter-spacing:0em;}.cls-12{fill:#f29d35;}.cls-13{opacity:0.58;}.cls-14{font-size:14px;font-family:HelveticaNeue-Light, Helvetica Neue;}</style><clipPath id="clip-path"><rect class="cls-1" x="54.53" y="54.99" width="249.9" height="249.9"/></clipPath><clipPath id="clip-path-2"><rect class="cls-1" x="91.02" y="179.41" width="88.52" height="111.15"/></clipPath><clipPath id="clip-path-4"><rect class="cls-1" x="82.02" y="178.41" width="106.52" height="119.15"/></clipPath></defs><title>questions_male</title><g id="Layer_3" data-name="Layer 3"><g class="cls-2"><path class="cls-3" d="M179.48,304.89A124.95,124.95,0,1,0,54.53,179.94,124.95,124.95,0,0,0,179.48,304.89"/></g><g class="cls-4"><g class="cls-4"><g class="cls-5"><g class="cls-6"><path class="cls-7" d="M91,273.78c4.32,6.62,17.71,15.48,19.08,16.78l69.44-111.15"/></g></g></g></g><text class="cls-8" transform="translate(93.94 174.24)"><tspan class="cls-9">W</tspan><tspan x="15.97" y="0">ould you rather be</tspan><tspan x="3.67" y="21.6">liked or </tspan><tspan class="cls-10" x="72.63" y="21.6">r</tspan><tspan class="cls-11" x="79.31" y="21.6">espected?</tspan></text><polygon class="cls-12" points="205.47 103.55 234.99 85.48 283.18 85.48 322.34 90.9 321.13 108.98 290.41 123.43 233.18 118.61 201.85 112.59 205.47 103.55"/><polygon class="cls-12" points="36.24 241.74 49.73 231.49 84.25 228.25 111.76 233.65 123.09 249.83 90.19 263.32 45.41 264.4 21.13 253.07 36.24 241.74"/><g class="cls-13"><path class="cls-7" d="M236.79,96.75a4.33,4.33,0,0,1,1.16.23,2.82,2.82,0,0,1,.93.53,2.26,2.26,0,0,1,.6.85,2.62,2.62,0,0,1,.17,1.18,2.81,2.81,0,0,1-.6,1.62,2.23,2.23,0,0,1-1.51.8v0a2.22,2.22,0,0,1,.79.31,1.62,1.62,0,0,1,.49.52,2,2,0,0,1,.25.7,5,5,0,0,1,.06.84c0,.17,0,.37,0,.62s0,.49,0,.74a4.67,4.67,0,0,0,.09.71,1.36,1.36,0,0,0,.21.53l-1-.07a1.27,1.27,0,0,1-.11-.35,3.09,3.09,0,0,1,0-.42c0-.15,0-.29,0-.43s0-.26,0-.37q0-.53,0-1.06a2.87,2.87,0,0,0-.21-1,1.65,1.65,0,0,0-.54-.7,1.78,1.78,0,0,0-1-.29l-3.6-.23-.29,4.43-1-.06.65-10Zm-.38,4.73a2.55,2.55,0,0,0,.83-.08,2.07,2.07,0,0,0,.71-.34,1.9,1.9,0,0,0,.51-.58,1.83,1.83,0,0,0,.23-.81,2,2,0,0,0-.44-1.49,2.21,2.21,0,0,0-1.59-.64l-3.55-.23-.26,3.93Z"/><path class="cls-7" d="M241.53,104.68a2.69,2.69,0,0,0,.37.94,2.43,2.43,0,0,0,.7.72,2.08,2.08,0,0,0,1.06.34,2.15,2.15,0,0,0,1.54-.41A2.65,2.65,0,0,0,246,105l.88.06a3.52,3.52,0,0,1-1.15,1.83,3.07,3.07,0,0,1-2.16.53,3.37,3.37,0,0,1-1.45-.4,2.73,2.73,0,0,1-1-.89,3.57,3.57,0,0,1-.5-1.25,5.5,5.5,0,0,1-.09-1.47,5.21,5.21,0,0,1,.28-1.38,3.73,3.73,0,0,1,.66-1.18,2.92,2.92,0,0,1,1.07-.8,3.12,3.12,0,0,1,1.5-.23,2.85,2.85,0,0,1,2.4,1.43,3.78,3.78,0,0,1,.47,1.34,5.78,5.78,0,0,1,0,1.5l-5.55-.36A3.88,3.88,0,0,0,241.53,104.68Zm4.53-2.41a2.64,2.64,0,0,0-.4-.85,2.26,2.26,0,0,0-.68-.62,2,2,0,0,0-.94-.28,2.07,2.07,0,0,0-1,.15,2.26,2.26,0,0,0-.75.53,2.89,2.89,0,0,0-.52.79,4.11,4.11,0,0,0-.29.94l4.67.3A3.25,3.25,0,0,0,246.06,102.27Z"/><path class="cls-7" d="M252.5,102a1.45,1.45,0,0,0-.38-.52,1.74,1.74,0,0,0-.58-.33,2.75,2.75,0,0,0-.71-.14,2.92,2.92,0,0,0-.6,0,1.83,1.83,0,0,0-.57.17,1.2,1.2,0,0,0-.43.36,1.07,1.07,0,0,0-.19.58.82.82,0,0,0,.11.51,1.33,1.33,0,0,0,.35.37,2.4,2.4,0,0,0,.47.26l.48.18,1.16.34a3.32,3.32,0,0,1,.73.25,2.4,2.4,0,0,1,.63.43,1.9,1.9,0,0,1,.43.62,1.78,1.78,0,0,1,.13.84,1.81,1.81,0,0,1-.33,1,2.17,2.17,0,0,1-.72.63,2.88,2.88,0,0,1-1,.31,4.82,4.82,0,0,1-1,0,3.32,3.32,0,0,1-2-.73,2.56,2.56,0,0,1-.78-2l.88.06a1.74,1.74,0,0,0,.56,1.39,2.37,2.37,0,0,0,1.45.55,3.27,3.27,0,0,0,.67,0,2.12,2.12,0,0,0,.65-.2,1.51,1.51,0,0,0,.51-.39,1,1,0,0,0,.23-.62,1,1,0,0,0-.1-.55,1.16,1.16,0,0,0-.33-.39,2.3,2.3,0,0,0-.49-.28c-.19-.08-.38-.15-.57-.21l-1.11-.32a6.21,6.21,0,0,1-.78-.31,2.51,2.51,0,0,1-.61-.4,1.52,1.52,0,0,1-.39-.56,1.77,1.77,0,0,1-.1-.79,1.74,1.74,0,0,1,.31-.92,1.91,1.91,0,0,1,.68-.59,3,3,0,0,1,.89-.29,4.24,4.24,0,0,1,1-.05,3.55,3.55,0,0,1,1,.21,2.34,2.34,0,0,1,.8.49,2.12,2.12,0,0,1,.52.76,2.6,2.6,0,0,1,.17,1l-.88-.06A1.67,1.67,0,0,0,252.5,102Z"/><path class="cls-7" d="M256,100.77l-.09,1.37h0A2.36,2.36,0,0,1,257,101a3,3,0,0,1,1.6-.31,3.14,3.14,0,0,1,1.41.4,3,3,0,0,1,1,.9,3.56,3.56,0,0,1,.52,1.25,5.54,5.54,0,0,1-.19,2.92,3.56,3.56,0,0,1-.68,1.18,2.89,2.89,0,0,1-1.07.76,3.21,3.21,0,0,1-1.45.21,3.26,3.26,0,0,1-.78-.15,2.79,2.79,0,0,1-.71-.34,2.42,2.42,0,0,1-.56-.53,2.07,2.07,0,0,1-.35-.71h0l-.26,4-.88-.06.64-9.86Zm4.66,2.81a3.11,3.11,0,0,0-.36-1,2.32,2.32,0,0,0-.69-.75,2,2,0,0,0-1.06-.34,2.64,2.64,0,0,0-1.23.17,2.14,2.14,0,0,0-.83.62,2.67,2.67,0,0,0-.48,1,5.63,5.63,0,0,0-.19,1.17,4.7,4.7,0,0,0,.06,1.12,2.89,2.89,0,0,0,.37,1,2.33,2.33,0,0,0,.74.76,2.37,2.37,0,0,0,1.16.35,2,2,0,0,0,1.09-.2,2.32,2.32,0,0,0,.78-.66,3.09,3.09,0,0,0,.48-1,4.72,4.72,0,0,0,.14-2.22Z"/><path class="cls-7" d="M263.51,106.11a2.71,2.71,0,0,0,.37.94,2.45,2.45,0,0,0,.7.72,2.08,2.08,0,0,0,1.06.34,2.14,2.14,0,0,0,1.54-.41,2.64,2.64,0,0,0,.84-1.29l.88.06a3.52,3.52,0,0,1-1.15,1.83,3.07,3.07,0,0,1-2.16.53,3.37,3.37,0,0,1-1.45-.4,2.72,2.72,0,0,1-1-.89,3.59,3.59,0,0,1-.5-1.25,5.53,5.53,0,0,1-.09-1.47,5.26,5.26,0,0,1,.28-1.39,3.76,3.76,0,0,1,.66-1.18,2.91,2.91,0,0,1,1.07-.8,3.13,3.13,0,0,1,1.5-.23,2.85,2.85,0,0,1,2.4,1.43,3.8,3.8,0,0,1,.47,1.33,5.78,5.78,0,0,1,0,1.5l-5.54-.36A3.92,3.92,0,0,0,263.51,106.11ZM268,103.7a2.66,2.66,0,0,0-.4-.85,2.27,2.27,0,0,0-.67-.62,2.23,2.23,0,0,0-1.91-.12,2.24,2.24,0,0,0-.75.53,2.86,2.86,0,0,0-.52.79,4.06,4.06,0,0,0-.29.94l4.66.3A3.25,3.25,0,0,0,268,103.7Z"/><path class="cls-7" d="M274.78,103a1.92,1.92,0,0,0-1.34-.55,2.23,2.23,0,0,0-1.12.19,2.42,2.42,0,0,0-.83.65,3.19,3.19,0,0,0-.54,1,4.06,4.06,0,0,0-.15,2.25,3.2,3.2,0,0,0,.41,1,2.42,2.42,0,0,0,.74.75,2.23,2.23,0,0,0,1.09.34,2,2,0,0,0,.78-.1,2.07,2.07,0,0,0,.67-.38,2.27,2.27,0,0,0,.5-.62,2.4,2.4,0,0,0,.28-.81l.88.06a3.33,3.33,0,0,1-1.1,2,2.83,2.83,0,0,1-2.06.6,3.4,3.4,0,0,1-1.44-.4,3.1,3.1,0,0,1-1-.89,3.55,3.55,0,0,1-.58-1.25,5,5,0,0,1,.19-2.95,3.55,3.55,0,0,1,.74-1.17,3.17,3.17,0,0,1,1.12-.76,3.32,3.32,0,0,1,1.48-.21,3.15,3.15,0,0,1,1.92.74,2.63,2.63,0,0,1,.84,1.92l-.88-.06A2.43,2.43,0,0,0,274.78,103Z"/><path class="cls-7" d="M280.54,102.37l0,.74L279,103l-.32,4.86a1.58,1.58,0,0,0,.07.69c.07.17.26.27.58.31a6.77,6.77,0,0,0,.76,0l0,.74h-.78a1.3,1.3,0,0,1-1.46-1.71l.32-4.93-1.26-.08,0-.74,1.26.08.14-2.17.88.06-.14,2.17Z"/><path class="cls-7" d="M282.15,107.32a2.69,2.69,0,0,0,.37.94,2.43,2.43,0,0,0,.7.72,2.08,2.08,0,0,0,1.06.34,2.15,2.15,0,0,0,1.54-.41,2.65,2.65,0,0,0,.84-1.29l.88.06a3.52,3.52,0,0,1-1.15,1.83,3.07,3.07,0,0,1-2.16.53,3.37,3.37,0,0,1-1.45-.4,2.73,2.73,0,0,1-1-.89,3.57,3.57,0,0,1-.5-1.25,5.49,5.49,0,0,1-.09-1.47,5.21,5.21,0,0,1,.28-1.38,3.73,3.73,0,0,1,.66-1.18,2.92,2.92,0,0,1,1.07-.8,3.12,3.12,0,0,1,1.5-.23,2.85,2.85,0,0,1,2.4,1.43,3.78,3.78,0,0,1,.47,1.34,5.78,5.78,0,0,1,0,1.5l-5.55-.36A3.88,3.88,0,0,0,282.15,107.32Zm4.53-2.41a2.64,2.64,0,0,0-.4-.85,2.26,2.26,0,0,0-.68-.62,2,2,0,0,0-.94-.28,2.07,2.07,0,0,0-1,.15,2.26,2.26,0,0,0-.75.53,2.89,2.89,0,0,0-.52.79,4.11,4.11,0,0,0-.29.94l4.67.3A3.22,3.22,0,0,0,286.68,104.91Z"/><path class="cls-7" d="M294.13,110.49l.09-1.37h0a2.08,2.08,0,0,1-.45.62,2.7,2.7,0,0,1-.65.46,3.3,3.3,0,0,1-.77.27,2.94,2.94,0,0,1-.8.06,3.2,3.2,0,0,1-1.41-.39,2.89,2.89,0,0,1-1-.89,3.54,3.54,0,0,1-.52-1.25,5.56,5.56,0,0,1,.19-2.92,3.55,3.55,0,0,1,.68-1.18,3,3,0,0,1,1.07-.77,3.15,3.15,0,0,1,1.45-.21,3.21,3.21,0,0,1,.78.15,2.64,2.64,0,0,1,.7.35,2.54,2.54,0,0,1,.56.53,2.08,2.08,0,0,1,.35.71h0l.27-4.13.88.06-.65,10Zm-4.66-2.81a3.08,3.08,0,0,0,.35,1,2.31,2.31,0,0,0,.69.75,2,2,0,0,0,1.06.34,2.26,2.26,0,0,0,2-.85,2.93,2.93,0,0,0,.5-1,4.72,4.72,0,0,0,.14-2.22,2.94,2.94,0,0,0-.37-1,2.26,2.26,0,0,0-1.9-1.11,2,2,0,0,0-1.09.2,2.3,2.3,0,0,0-.78.66,3.07,3.07,0,0,0-.48,1,4.72,4.72,0,0,0-.14,2.22Z"/></g><text class="cls-14" transform="translate(54.8 253.83) rotate(-4.09)">Liked</text></g></svg>