<svg xmlns="http://www.w3.org/2000/svg" viewBox="0 0 360 360"><defs><style>.cls-1,.cls-3,.cls-4{fill:#f2c12e;}.cls-2{fill:none;stroke-miterlimit:10;stroke-width:1.13px;}.cls-2,.cls-3{stroke:#f2c12e;}.cls-3{stroke-linecap:round;stroke-linejoin:round;stroke-width:1.15px;}.cls-4{font-size:22px;font-family:HelveticaNeue-Bold, Helvetica Neue;font-weight:700;}.cls-5{letter-spacing:-0.09em;}.cls-6{letter-spacing:0.03em;}.cls-7{letter-spacing:-0.09em;}.cls-8{font-size:12px;font-family:HelveticaNeue-Light, Helvetica Neue;}.cls-9{letter-spacing:-0.09em;}.cls-10{letter-spacing:-0.02em;}.cls-11{letter-spacing:0em;}.cls-12{letter-spacing:-0.09em;}</style></defs><title>questions_male</title><g id="atta_boy" data-name="atta boy"><path class="cls-1" d="M79.41,86.81a12.55,12.55,0,0,1-1.78,6.28,16,16,0,0,1-4.5,4.85,21.26,21.26,0,0,1-12.62,3.78A23.42,23.42,0,0,1,48,97.8a16.83,16.83,0,0,1-4.63-4.69,12.4,12.4,0,0,1-2-6.31,12,12,0,0,1,1.78-6.44,15.77,15.77,0,0,1,4.66-4.84,22.51,22.51,0,0,1,12.72-3.74,21.78,21.78,0,0,1,12.63,3.88,16.06,16.06,0,0,1,4.49,4.86A12.51,12.51,0,0,1,79.41,86.81Zm-.11,0a11.18,11.18,0,0,0-1.93-6.12,15.19,15.19,0,0,0-4.65-4.4A23.6,23.6,0,0,0,60.52,73,22.74,22.74,0,0,0,48.4,76.42a15.5,15.5,0,0,0-4.49,4.42,11.63,11.63,0,0,0-1.92,6A11.25,11.25,0,0,0,43.7,92.9a14.53,14.53,0,0,0,4.51,4.57,21.79,21.79,0,0,0,12.31,3.29,24.3,24.3,0,0,0,12.22-3.42,15.29,15.29,0,0,0,4.64-4.41A11.15,11.15,0,0,0,79.29,86.81Z"/><ellipse class="cls-2" cx="60.27" cy="87.06" rx="13.84" ry="14.33"/><path class="cls-1" d="M45.18,95.42a34.28,34.28,0,0,0,7.33,3.84,26.29,26.29,0,0,0,8.05,1.69,21.56,21.56,0,0,0,4.12-.19,19.5,19.5,0,0,0,4-1.09,22.41,22.41,0,0,0,6.9-4.57l0,.37a36.27,36.27,0,0,0-7.43-2.57,37.77,37.77,0,0,0-7.8-.94c-1.31-.07-2.62.1-3.93.15a32.38,32.38,0,0,0-3.87.68c-.63.17-1.29.27-1.91.48l-1.87.64a16.32,16.32,0,0,0-1.8.72Zm-.08,0,1.74-1a11.66,11.66,0,0,1,1.83-.91l1.86-.75c.62-.24,1.28-.4,1.92-.59a33,33,0,0,1,3.94-.83,33.37,33.37,0,0,1,12,.8,32.73,32.73,0,0,1,7.48,2.89l.29.15-.25.21a27.42,27.42,0,0,1-7.11,4.46,25.59,25.59,0,0,1-4,1.25,21.79,21.79,0,0,1-4.21.42,22.59,22.59,0,0,1-8.25-1.76A25.35,25.35,0,0,1,45.1,95.41Z"/><path class="cls-1" d="M45.1,78a25.35,25.35,0,0,1,7.19-4.39,22.59,22.59,0,0,1,8.25-1.77,21.8,21.8,0,0,1,4.21.42,25.61,25.61,0,0,1,4,1.25A27.42,27.42,0,0,1,75.88,78l.25.21-.29.15a32.74,32.74,0,0,1-7.48,2.89,33.38,33.38,0,0,1-12,.8,33,33,0,0,1-3.94-.83c-.64-.19-1.3-.35-1.92-.59l-1.86-.75A11.66,11.66,0,0,1,46.84,79Zm.08,0,1.83.81a16.29,16.29,0,0,0,1.8.72l1.87.64c.62.21,1.28.31,1.91.48a32.35,32.35,0,0,0,3.87.68c1.31.05,2.61.22,3.93.15a37.76,37.76,0,0,0,7.8-.94A36.28,36.28,0,0,0,75.62,78l0,.37a22.41,22.41,0,0,0-6.9-4.57,19.49,19.49,0,0,0-4-1.09,21.56,21.56,0,0,0-4.12-.19,26.29,26.29,0,0,0-8.05,1.69A34.28,34.28,0,0,0,45.18,78Z"/><path class="cls-1" d="M41.68,86.81c1.57-.13,3.14-.19,4.71-.28l4.71-.16c3.14-.11,6.28-.12,9.42-.13s6.28,0,9.42.13l4.71.16c1.57.1,3.14.15,4.71.28-1.57.13-3.14.19-4.71.28l-4.71.16c-3.14.1-6.28.12-9.42.13s-6.28,0-9.42-.13l-4.71-.16C44.82,87,43.25,86.94,41.68,86.81Z"/><path class="cls-3" d="M44.89,288.11l33.26.28s-5.24-10.74-12.57-11.26c0,0-.79-34.31,2.88-55.27,0,0,4.71-27.24-2.62-53.17,0,0-.52-15.45,4.45-28.29,0,0,14.93-35.62,10-54.48,0,0-4.71,32.74-11.53,44.27,0,0-5,6.55-5-1.31,0,0,5.24-11.53-1.83-11.53s-5,9.43-3.93,11-1.31,8.64-4.19,1c0,0-13.1-28.29-11.79-43s-10,19.38,9.43,54.48c0,0,6.29,15.19,5.24,26.72,0,0-8.38,23.84-3.14,54,0,0,4.71,32.74,3.41,55.27C56.93,276.86,47.51,280.23,44.89,288.11Z"/><text class="cls-4" transform="translate(76.65 172.13)"><tspan class="cls-5">A</tspan><tspan class="cls-6" x="13.05" y="0">T</tspan><tspan class="cls-7" x="27.17" y="0">T</tspan><tspan x="38.59" y="0">A BOY!</tspan></text><text class="cls-8" transform="translate(75.83 185.76)"><tspan class="cls-9">Y</tspan><tspan x="6.23" y="0">ou know what you want and a</tspan><tspan class="cls-10" x="162.05" y="0">r</tspan><tspan class="cls-11" x="165.62" y="0">en</tspan><tspan class="cls-10" x="178.29" y="0">’</tspan><tspan x="181.41" y="0">t afraid to </tspan><tspan x="0" y="13">take it. If you a</tspan><tspan class="cls-10" x="75.13" y="13">r</tspan><tspan x="78.69" y="13">en</tspan><tspan class="cls-10" x="91.36" y="13">’</tspan><tspan x="94.48" y="13">t basking in your own </tspan><tspan x="0" y="26">C</tspan><tspan class="cls-10" x="8.45" y="26">r</tspan><tspan x="12.01" y="26">eative Di</tspan><tspan class="cls-10" x="55.8" y="26">r</tspan><tspan x="59.36" y="26">ector glory after 5 years in the biz, </tspan><tspan x="0" y="39">you’ll p</tspan><tspan class="cls-10" x="36.67" y="39">r</tspan><tspan x="40.24" y="39">obably just start your own agenc</tspan><tspan class="cls-12" x="208.49" y="39">y</tspan><tspan x="212.94" y="39">. </tspan><tspan x="0" y="52">Who needs CD when you can be p</tspan><tspan class="cls-10" x="181.16" y="52">r</tspan><tspan x="184.72" y="52">esident? </tspan></text></g></svg>